<?xml version="1.0" encoding="utf-8"?>
<!-- Generator: Adobe Illustrator 19.0.0, SVG Export Plug-In . SVG Version: 6.00 Build 0)  -->
<svg version="1.1" id="Capa_1" xmlns="http://www.w3.org/2000/svg" xmlns:xlink="http://www.w3.org/1999/xlink" x="0px" y="0px"
	 viewBox="-143 385 512 512" style="enable-background:new -143 385 512 512;" xml:space="preserve">
<style type="text/css">
	.st0{fill:#B9D171;}
	.st1{fill:#FFD9D4;}
	.st2{fill:#FFCB63;}
	.st3{fill:#FFB4A9;}
	.st4{fill:#00587A;}
	.st5{fill:#084F6D;}
	.st6{fill:#116F97;}
	.st7{fill:#002F42;}
	.st8{fill:#FFE2A8;}
	.st9{fill:#C27749;}
	.st10{fill:#40211D;}
	.st11{fill:#E18F4E;}
	.st12{fill:#60312C;}
	.st13{fill:#FFF0D3;}
	.st14{fill:#FF6337;}
	.st15{fill:#FF8646;}
	.st16{fill:#FF4128;}
	.st17{fill:#D5E3AA;}
	.st18{fill:#3FA7F3;}
	.st19{fill:#85453D;}
	.st20{fill:#A45E43;}
</style>
<path class="st0" d="M361.5,482.5c-4.1,0-7.5,3.4-7.5,7.5v11.5c0,41.9-34.1,76-76,76h-30v15h30c50.2,0,91-40.8,91-91V490
	C369,485.9,365.6,482.5,361.5,482.5z"/>
<path class="st1" d="M-135.5,482.5c4.1,0,7.5,3.4,7.5,7.5v11.5c0,41.9,34.1,76,76,76h30v15h-30c-50.2,0-91-40.8-91-91V490
	C-143,485.9-139.6,482.5-135.5,482.5z"/>
<rect x="150.5" y="577.5" class="st2" width="45" height="15"/>
<rect x="30.5" y="577.5" class="st3" width="45" height="15"/>
<path class="st4" d="M170.6,882.4l24.9-8.3V692.5h15v187c0,3.2-2.1,6.1-5.1,7.1l-30,10c-0.8,0.3-1.6,0.4-2.4,0.4
	c-3.1,0-6.1-2-7.1-5.1C164.6,887.9,166.7,883.7,170.6,882.4z"/>
<path class="st5" d="M175.4,882.4l-24.9-8.3V692.5h-15v187c0,3.2,2.1,6.1,5.1,7.1l30,10c0.8,0.3,1.6,0.4,2.4,0.4
	c3.1,0,6.1-2,7.1-5.1C181.4,887.9,179.3,883.7,175.4,882.4z"/>
<path id="SVGCleanerId_0" class="st6" d="M50.6,882.4l24.9-8.3V692.5h15v187c0,3.2-2.1,6.1-5.1,7.1l-30,10c-0.8,0.3-1.6,0.4-2.4,0.4
	c-3.1,0-6.1-2-7.1-5.1C44.6,887.9,46.7,883.7,50.6,882.4z"/>
<g>
	<path id="SVGCleanerId_0_1_" class="st4" d="M50.6,882.4l24.9-8.3V692.5h15v187c0,3.2-2.1,6.1-5.1,7.1l-30,10
		c-0.8,0.3-1.6,0.4-2.4,0.4c-3.1,0-6.1-2-7.1-5.1C44.6,887.9,46.7,883.7,50.6,882.4z"/>
</g>
<path class="st7" d="M30.5,702.5v171.6l24.9,8.3c3.9,1.3,6.1,5.6,4.7,9.5c-1,3.1-4,5.1-7.1,5.1c-0.8,0-1.6-0.1-2.4-0.4l-30-10
	c-3.1-1-5.1-3.9-5.1-7.1v-177C15.5,698.4,30.5,698.4,30.5,702.5z"/>
<path class="st4" d="M-45.6,712.8v72.4l-74.8,24.9c-3.1,1-5.1,3.9-5.1,7.1v31.6c0,4.1,3.4,7.5,7.5,7.5s7.5-3.4,7.5-7.5v-26.2
	l74.8-24.9c3.1-1,5.1-3.9,5.1-7.1v-77.8L-45.6,712.8L-45.6,712.8z"/>
<path class="st7" d="M346.4,810.1l-74.8-24.9V691h-15v99.5c0,3.2,2.1,6.1,5.1,7.1l74.8,24.9v26.2c0,4.1,3.4,7.5,7.5,7.5
	s7.5-3.4,7.5-7.5v-31.6C351.5,814,349.4,811.1,346.4,810.1z"/>
<path class="st5" d="M113,647.5v75c24.9,0,45-20.1,45-45L113,647.5z"/>
<path class="st4" d="M128,677.5l-15-30l-45,30c0,24.9,20.1,45,45,45C121.3,722.5,128,702.4,128,677.5z"/>
<path class="st2" d="M138,557.5h-30l20,120h30v-100C158,566.5,149,557.5,138,557.5z"/>
<path class="st8" d="M108,557.5H88c-11,0-20,9-20,20v100h60v-100C128,566.5,119,557.5,108,557.5z"/>
<path class="st9" d="M155.4,467.5l-42.4-20v80c24.9,0,45-20.1,45-45C158,477.2,157.1,472.2,155.4,467.5z"/>
<path class="st10" d="M113,437.5l14.1,30h28.3C149.3,450,132.6,437.5,113,437.5z"/>
<path class="st11" d="M127.1,467.5l-42.4-20c-10.2,8.2-16.7,20.9-16.7,35c0,24.9,20.1,45,45,45c8.3,0,15-20.1,15-45
	C128,477.2,127.7,472.2,127.1,467.5z"/>
<path class="st12" d="M113,467.5h14.1c-2.1-17.5-7.6-30-14.1-30c-10.7,0-20.6,3.8-28.3,10C88.8,459.2,99.9,467.5,113,467.5z"/>
<path class="st8" d="M18,557.5h-30l-20,120l70-30v-70C38,566.5,29,557.5,18,557.5z"/>
<path class="st13" d="M-12,557.5h-20c-11,0-20,9-20,20v100H8v-100C8,566.5-1,557.5-12,557.5z"/>
<polygon class="st14" points="38,647.5 8,647.5 -12,685 8,732.8 38,732.8 "/>
<path class="st15" d="M8,647.5h-60c-9.3,10.6-15,24.5-15,39.7v45.6H8V647.5z"/>
<circle class="st14" cx="-57" cy="502.5" r="25"/>
<path class="st3" d="M7.1,467L-7,527.5c24.9,0,45-20.1,45-45L7.1,467z"/>
<path class="st1" d="M8,482.5c0-5.4-0.3-10.6-0.9-15.5L-34,446.5c-10.9,8.2-18,21.3-18,36c0,24.9,20.1,45,45,45
	C1.3,527.5,8,507.4,8,482.5z"/>
<path class="st16" d="M-7,437.5l14.9,39.8c9.4,3.3,19.5,5.2,30.1,5.2C38,457.6,17.9,437.5-7,437.5z"/>
<path class="st14" d="M-7,437.5c-10.1,0-19.5,3.4-27,9c10.5,14,25.1,24.9,41.9,30.8C7,454.9,0.7,437.5-7,437.5z"/>
<path class="st7" d="M233,647.5v75c24.9,0,45-20.1,45-45L233,647.5z"/>
<path class="st4" d="M248,677.5l-15-30l-45,30c0,24.9,20.1,45,45,45C241.3,722.5,248,702.4,248,677.5z"/>
<path class="st0" d="M258,557.5h-30l20,120h30v-100C278,566.5,269,557.5,258,557.5z"/>
<path class="st17" d="M228,557.5h-20c-11,0-20,9-20,20v100h60v-100C248,566.5,239,557.5,228,557.5z"/>
<path class="st10" d="M225.5,537.5v110c0,4.1,3.4,7.5,7.5,7.5s7.5-3.4,7.5-7.5v-110H225.5z"/>
<circle class="st4" cx="-90.5" cy="422.5" r="15"/>
<circle class="st14" cx="-120.5" cy="676.5" r="15"/>
<circle class="st0" cx="346.5" cy="676.5" r="15"/>
<circle class="st18" cx="171.9" cy="407.5" r="15"/>
<circle class="st4" cx="-33.2" cy="392.5" r="7.5"/>
<circle class="st8" cx="53" cy="421.5" r="7.5"/>
<circle class="st14" cx="259.2" cy="407.5" r="7.5"/>
<circle class="st18" cx="-120.5" cy="602.5" r="7.5"/>
<g>
	<circle class="st4" cx="301.5" cy="437.5" r="7.5"/>
	<circle class="st4" cx="346.5" cy="602.5" r="7.5"/>
</g>
<circle class="st18" cx="316.5" cy="632.5" r="7.5"/>
<path class="st19" d="M233,437.5v101l45-46v-10C278,457.6,257.9,437.5,233,437.5z"/>
<path class="st20" d="M233,437.5c-24.9,0-45,20.1-45,45v10l60,46v-56C248,457.6,241.3,437.5,233,437.5z"/>
<path class="st8" d="M251.7,492.5c-1.1-1.6-2.3-3-3.7-4.3l-15,69.3c24.9,0,45-20.1,45-45v-20H251.7z"/>
<path class="st13" d="M248,512.5v-24.3c-4-3.6-9.2-5.7-15-5.7c-7.8,0-14.7,4-18.7,10H188v20c0,24.9,20.1,45,45,45
	C241.3,557.5,248,537.4,248,512.5z"/>
</svg>
