<?xml version="1.0" encoding="utf-8"?>
<!-- Generator: Adobe Illustrator 19.0.0, SVG Export Plug-In . SVG Version: 6.00 Build 0)  -->
<svg version="1.1" id="Capa_1" xmlns="http://www.w3.org/2000/svg" xmlns:xlink="http://www.w3.org/1999/xlink" x="0px" y="0px"
	 viewBox="0 0 147.6 38.6" style="enable-background:new 0 0 147.6 38.6;" xml:space="preserve">
<style type="text/css">
	.st0{fill:#7AC743;}
	.st1{opacity:0.4;}
	.st2{fill:#FCC509;}
	.st3{fill:#3FA7F3;}
	.st4{fill:#FFFFFF;}
</style>
<g id="XMLID_1117_">
	<g id="XMLID_2664_">
		<path id="XMLID_2684_" class="st0" d="M20.4,23.2L20.4,23.2c-5,1.3-10.3,2.7-13.5,0.6c0,8.1,6.6,6.7,13.5,5.1v0
			c5-1.3,10.3-2.7,13.5-0.6C33.9,20.2,27.3,21.7,20.4,23.2z"/>
		<g id="XMLID_2678_" class="st1">
			<path id="XMLID_2683_" class="st0" d="M7,24.8c-2.4,0.3-4.5,0.1-6.2-1c0,6.5,4.2,6.9,9.4,6C8.4,29.2,7.2,27.7,7,24.8z"/>
		</g>
		<path id="XMLID_2677_" class="st2" d="M20.4,13.3L20.4,13.3c-5,1.3-10.3,2.7-13.5,0.6c0,8.1,6.6,6.7,13.5,5.1v0
			c5-1.3,10.3-2.7,13.5-0.6C33.9,10.3,27.3,11.8,20.4,13.3z"/>
		<g id="XMLID_2669_" class="st1">
			<path id="XMLID_2670_" class="st2" d="M7,14.9c-2.4,0.3-4.5,0.1-6.2-1c0,6.5,4.2,6.9,9.4,6C8.4,19.3,7.2,17.8,7,14.9z"/>
		</g>
		<path id="XMLID_2667_" class="st3" d="M20.4,3.4L20.4,3.4C15.4,4.7,10.1,6.1,6.9,4c0,8.1,6.6,6.7,13.5,5.1v0
			c5-1.3,10.3-2.7,13.5-0.6C33.9,0.4,27.3,1.8,20.4,3.4z"/>
		<g id="XMLID_2665_" class="st1">
			<path id="XMLID_2666_" class="st3" d="M7,5C4.6,5.2,2.4,5.1,0.8,4c0,6.5,4.2,6.9,9.4,6C8.4,9.3,7.2,7.9,7,5z"/>
		</g>
	</g>
	<g id="XMLID_2260_">
		<g id="XMLID_2492_">
			<g id="XMLID_2499_">
				<path id="XMLID_2661_" class="st4" d="M43.8,3.1c0-0.6,0.3-0.9,0.9-0.9h6.1c5.2,0,9.3,2.7,9.3,10.6c0,7.8-4.1,10.6-9.3,10.6
					h-6.1c-0.6,0-0.9-0.3-0.9-0.9V3.1z M50.6,21c3.8,0,6.8-2.2,6.8-8.3c0-6-3-8.3-6.8-8.3h-4.1V21H50.6z"/>
				<path id="XMLID_2658_" class="st4" d="M70.2,7.3c4.1,0,6.2,2.7,6.2,7.9c0,0.4-0.6,1.2-1,1.2h-9.5c0.2,3.3,1.7,4.9,4.6,4.9
					c2.6,0,4.1-1.3,4.4-1.3c0.4,0,1.1,1.2,1.1,1.5c0,0.7-2.4,1.9-5.4,1.9c-5,0-7.4-2.6-7.4-8C63.1,10.2,65.5,7.3,70.2,7.3z
					 M73.7,14.3c0-3.2-1.2-4.8-3.6-4.8c-2.6,0-4,1.6-4.2,4.8H73.7z"/>
				<path id="XMLID_2656_" class="st4" d="M86.2,7.3c2.3,0,4.5,0.7,4.5,1.4c0,0.5-0.6,1.6-1,1.6c-0.1,0-0.2-0.1-0.3-0.1
					c-0.5-0.2-1.7-0.7-3.3-0.7c-2.7,0-4.4,1.6-4.4,5.8c0,4.2,1.3,6,4.7,6c1.7,0,2.9-0.5,3.4-0.8c0.2-0.1,0.3-0.1,0.3-0.1
					c0.4,0,1,1.1,1,1.5c0,0.7-2.1,1.5-4.7,1.5c-4.9,0-7.4-2.3-7.4-8.1C79.1,9,82.8,7.3,86.2,7.3z"/>
				<path id="XMLID_2654_" class="st4" d="M94,1.3c0-0.4,0.4-0.7,1.2-0.7h0.1c0.8,0,1.2,0.2,1.2,0.7v17.8c0,1.8,0.8,2.2,1.6,2.2
					c0.9,0,1-0.2,1.3-0.2c0.4,0,0.6,1.2,0.6,1.4c0,0.8-1.4,0.9-2.2,0.9c-1.5,0-3.9-0.7-3.9-4.2V1.3z"/>
				<path id="XMLID_2594_" class="st4" d="M102.9,8.1c0-0.4,0.4-0.7,1.2-0.7h0.1c0.8,0,1.2,0.2,1.2,0.7v14.6c0,0.4-0.4,0.7-1.2,0.7
					h-0.1c-0.8,0-1.2-0.2-1.2-0.7V8.1z"/>
				<path id="XMLID_2592_" class="st4" d="M109.9,12.1c0-2.5-0.4-3.7-0.4-3.8c0-0.6,1.2-0.7,1.6-0.7c0.7,0,0.9,1.2,1.1,2
					c1-1.1,2.7-2.3,4.6-2.3c1.5,0,3.5,0.5,4.3,2.5c1.1-1.4,2.9-2.5,4.8-2.5c1.9,0,4.7,0.8,4.7,4.9v10.5c0,0.4-0.4,0.7-1.2,0.7h-0.1
					c-0.8,0-1.2-0.2-1.2-0.7V12.5c0-1.8-1-2.9-2.9-2.9c-1.8,0-3.3,1.6-3.7,2.1c0,0.2,0,0.4,0,0.6v10.4c0,0.4-0.4,0.7-1.2,0.7h-0.1
					c-0.8,0-1.2-0.2-1.2-0.7V12.5c0-1.8-1-2.9-2.9-2.9c-2.2,0-3.7,2.1-3.7,2.1v11.1c0,0.4-0.4,0.7-1.2,0.7h-0.1
					c-0.8,0-1.2-0.2-1.2-0.7V12.1z"/>
				<path id="XMLID_2503_" class="st4" d="M143.9,13.5V12c0-1.4-0.8-2.5-3.3-2.5c-2.7,0-4.4,1.3-4.7,1.3c-0.4,0-1.1-1.2-1.1-1.5
					c0-0.8,2.7-1.9,5.7-1.9c3.7,0,5.9,1.8,5.9,4.7v6.8c0,2.5,0.4,3.7,0.4,3.8c0,0.6-1.2,0.7-1.6,0.7c-0.7,0-0.9-1.3-1.1-2.1
					c-1.1,1.3-2.8,2.3-5.1,2.3c-2.9,0-5.2-1.4-5.2-4.5C133.9,13.9,139.3,13.5,143.9,13.5z M139.2,21.3c2.2,0,3.5-1,4.7-2.1v-3.6
					c-3.1,0-7.3,0-7.3,3.2C136.6,20.4,137.5,21.3,139.2,21.3z"/>
			</g>
			<path id="XMLID_2493_" class="st4" d="M103.8,0.6h0.8c0.5,0,0.8,0.4,0.8,0.8v3.4h-2.5V1.5C102.9,1,103.3,0.6,103.8,0.6z"/>
		</g>
		<g id="XMLID_2279_">
			<path id="XMLID_2468_" class="st4" d="M43.8,29.7c0-0.2,0.1-0.3,0.3-0.3h1.7c1.4,0,2.1,0.7,2.1,1.7c0,0.6-0.5,1.3-1,1.4v0
				c0,0,1.3,0.3,1.3,1.6c0,1.3-0.9,1.9-2.5,1.9h-1.6c-0.2,0-0.3-0.1-0.3-0.3V29.7z M45.8,32.2c0.8,0,1.3-0.5,1.3-1.1
				c0-0.7-0.4-1-1.4-1h-1.1v2.2H45.8z M46,35.3c0.8,0,1.3-0.5,1.3-1.2c0-0.7-0.5-1.1-1.5-1.1h-1.2v2.3H46z"/>
			<path id="XMLID_2466_" class="st4" d="M50.4,31.2c0-0.1,0.1-0.2,0.4-0.2h0c0.3,0,0.4,0.1,0.4,0.2v3.2c0,0.6,0.4,0.9,1,0.9
				c0.4,0,0.9-0.3,1.2-0.7v-3.5c0-0.1,0.1-0.2,0.4-0.2h0c0.3,0,0.4,0.1,0.4,0.2v3.4c0,0.8,0.1,1.2,0.1,1.2c0,0.2-0.4,0.2-0.5,0.2
				c-0.2,0-0.3-0.4-0.3-0.7c-0.4,0.4-1,0.7-1.5,0.7c-1,0-1.6-0.6-1.6-1.5V31.2z"/>
			<path id="XMLID_2461_" class="st4" d="M58.7,31c1.3,0,2,0.9,2,2.5c0,0.1-0.2,0.4-0.3,0.4h-3c0.1,1.1,0.5,1.5,1.5,1.5
				c0.8,0,1.3-0.4,1.4-0.4c0.1,0,0.3,0.4,0.3,0.5c0,0.2-0.8,0.6-1.7,0.6c-1.6,0-2.3-0.8-2.3-2.5C56.5,31.9,57.2,31,58.7,31z
				 M59.8,33.2c0-1-0.4-1.5-1.1-1.5c-0.8,0-1.3,0.5-1.3,1.5H59.8z"/>
			<path id="XMLID_2458_" class="st4" d="M62.9,32.5c0-0.8-0.1-1.2-0.1-1.2c0-0.2,0.4-0.2,0.5-0.2c0.2,0,0.3,0.4,0.3,0.6
				c0.4-0.4,1-0.7,1.5-0.7c1,0,1.6,0.6,1.6,1.5v3.3c0,0.1-0.1,0.2-0.4,0.2h0c-0.3,0-0.4-0.1-0.4-0.2v-3.2c0-0.6-0.4-0.9-1-0.9
				c-0.4,0-0.9,0.3-1.2,0.7v3.5c0,0.1-0.1,0.2-0.4,0.2h0c-0.3,0-0.4-0.1-0.4-0.2V32.5z"/>
			<path id="XMLID_2451_" class="st4" d="M72,32.9v-0.4c0-0.4-0.3-0.8-1-0.8c-0.9,0-1.4,0.4-1.5,0.4c-0.1,0-0.3-0.4-0.3-0.5
				c0-0.2,0.8-0.6,1.8-0.6c1.2,0,1.9,0.6,1.9,1.5v2.1c0,0.8,0.1,1.2,0.1,1.2c0,0.2-0.4,0.2-0.5,0.2c-0.2,0-0.3-0.4-0.3-0.7
				c-0.4,0.4-0.9,0.7-1.6,0.7c-0.9,0-1.6-0.4-1.6-1.4C68.9,33.1,70.6,32.9,72,32.9z M70.5,35.4c0.7,0,1.1-0.3,1.5-0.7v-1.1
				c-1,0-2.3,0-2.3,1C69.7,35.1,70,35.4,70.5,35.4z"/>
			<path id="XMLID_2421_" class="st4" d="M75.3,35c0.1,0,0.4,0.4,1.1,0.4c0.6,0,0.9-0.3,0.9-0.8c0-0.4-0.2-0.7-1-0.9
				c-1-0.3-1.3-0.6-1.3-1.3c0-0.8,0.6-1.4,1.6-1.4c0.6,0,1.2,0.2,1.2,0.4c0,0.2-0.2,0.5-0.3,0.5c0,0-0.4-0.2-0.9-0.2
				c-0.5,0-0.8,0.2-0.8,0.6c0,0.3,0.2,0.5,0.7,0.7c1.2,0.4,1.5,0.7,1.5,1.6c0,0.9-0.7,1.5-1.6,1.5c-0.9,0-1.6-0.4-1.6-0.6
				C75,35.4,75.2,35,75.3,35z"/>
			<path id="XMLID_2419_" class="st4" d="M83.7,29.7c0-0.2,0.1-0.3,0.3-0.3h3.3c0.1,0,0.2,0.1,0.2,0.3v0.2c0,0.2-0.1,0.3-0.2,0.3
				h-2.8v2.2H87c0.1,0,0.2,0.1,0.2,0.3v0.2c0,0.2-0.1,0.3-0.2,0.3h-2.5v2.3h2.8c0.1,0,0.2,0.1,0.2,0.3v0.2c0,0.2-0.1,0.3-0.2,0.3H84
				c-0.2,0-0.3-0.1-0.3-0.3V29.7z"/>
			<path id="XMLID_2415_" class="st4" d="M89.5,35.7l1.5-2.2l-1.4-2.1c0-0.1-0.1-0.1-0.1-0.2c0-0.1,0.1-0.2,0.4-0.2h0.1
				c0.2,0,0.3,0,0.4,0.1l1.1,1.6l1.1-1.6c0.1-0.1,0.2-0.1,0.4-0.1h0c0.3,0,0.4,0,0.4,0.2c0,0,0,0.1-0.1,0.2L92,33.5l1.5,2.3
				c0,0.1,0.1,0.1,0.1,0.2c0,0.1-0.1,0.2-0.4,0.2h-0.1c-0.2,0-0.3,0-0.4-0.1l-1.2-1.7l-1.2,1.8c-0.1,0.1-0.2,0.1-0.4,0.1h0
				c-0.3,0-0.4,0-0.4-0.2C89.4,35.8,89.4,35.8,89.5,35.7z"/>
			<path id="XMLID_2387_" class="st4" d="M96.5,37.8c0,0.1-0.1,0.2-0.4,0.2h0c-0.3,0-0.4-0.1-0.4-0.2v-5.3c0-0.8-0.1-1.2-0.1-1.2
				c0-0.2,0.4-0.2,0.5-0.2c0.2,0,0.3,0.4,0.3,0.6c0.5-0.5,1-0.7,1.5-0.7c1.1,0,1.8,1.1,1.8,2.5v0.1c0,1.6-0.8,2.5-1.9,2.5
				c-0.6,0-1-0.2-1.4-0.5V37.8z M97.7,35.4L97.7,35.4c0.9,0,1.3-0.6,1.3-1.8c0-1.2-0.4-1.9-1.2-1.9c-0.4,0-0.9,0.2-1.3,0.7V35
				C96.9,35.2,97.3,35.4,97.7,35.4z"/>
			<path id="XMLID_2365_" class="st4" d="M104.1,31c1.3,0,2,0.9,2,2.5c0,0.1-0.2,0.4-0.3,0.4h-3c0.1,1.1,0.5,1.5,1.5,1.5
				c0.8,0,1.3-0.4,1.4-0.4c0.1,0,0.3,0.4,0.3,0.5c0,0.2-0.8,0.6-1.7,0.6c-1.6,0-2.3-0.8-2.3-2.5C101.9,31.9,102.7,31,104.1,31z
				 M105.2,33.2c0-1-0.4-1.5-1.1-1.5c-0.8,0-1.3,0.5-1.3,1.5H105.2z"/>
			<path id="XMLID_2320_" class="st4" d="M108.4,32.5c0-0.8-0.1-1.2-0.1-1.2c0-0.2,0.4-0.2,0.5-0.2c0.2,0,0.3,0.4,0.3,0.6
				c0.3-0.5,0.7-0.7,1.1-0.7c0.4,0,0.6,0.2,0.6,0.4c0,0.2-0.1,0.5-0.2,0.5c-0.1,0-0.2-0.1-0.5-0.1c-0.5,0-0.9,0.6-0.9,0.6v3.5
				c0,0.1-0.1,0.2-0.4,0.2h0c-0.3,0-0.4-0.1-0.4-0.2V32.5z"/>
			<path id="XMLID_2310_" class="st4" d="M112.8,29.6v-0.6c0-0.1,0.1-0.2,0.4-0.2h0.1c0.3,0,0.4,0.1,0.4,0.2v0.6
				c0,0.1-0.1,0.2-0.4,0.2h-0.1C112.9,29.9,112.8,29.8,112.8,29.6z M112.9,31.2c0-0.1,0.1-0.2,0.4-0.2h0c0.3,0,0.4,0.1,0.4,0.2v4.6
				c0,0.1-0.1,0.2-0.4,0.2h0c-0.3,0-0.4-0.1-0.4-0.2V31.2z"/>
			<path id="XMLID_2307_" class="st4" d="M118.2,31c1.3,0,2,0.9,2,2.5c0,0.1-0.2,0.4-0.3,0.4h-3c0.1,1.1,0.5,1.5,1.5,1.5
				c0.8,0,1.3-0.4,1.4-0.4c0.1,0,0.3,0.4,0.3,0.5c0,0.2-0.8,0.6-1.7,0.6c-1.6,0-2.3-0.8-2.3-2.5C116,31.9,116.8,31,118.2,31z
				 M119.3,33.2c0-1-0.4-1.5-1.1-1.5c-0.8,0-1.3,0.5-1.3,1.5H119.3z"/>
			<path id="XMLID_2305_" class="st4" d="M122.4,32.5c0-0.8-0.1-1.2-0.1-1.2c0-0.2,0.4-0.2,0.5-0.2c0.2,0,0.3,0.4,0.3,0.6
				c0.4-0.4,1-0.7,1.5-0.7c1,0,1.6,0.6,1.6,1.5v3.3c0,0.1-0.1,0.2-0.4,0.2h0c-0.3,0-0.4-0.1-0.4-0.2v-3.2c0-0.6-0.4-0.9-1-0.9
				c-0.4,0-0.9,0.3-1.2,0.7v3.5c0,0.1-0.1,0.2-0.4,0.2h0c-0.3,0-0.4-0.1-0.4-0.2V32.5z"/>
			<path id="XMLID_2302_" class="st4" d="M130.7,31c0.7,0,1.4,0.2,1.4,0.4c0,0.2-0.2,0.5-0.3,0.5c0,0,0,0-0.1,0
				c-0.2-0.1-0.5-0.2-1-0.2c-0.8,0-1.4,0.5-1.4,1.8c0,1.3,0.4,1.9,1.5,1.9c0.5,0,0.9-0.2,1.1-0.2c0.1,0,0.1,0,0.1,0
				c0.1,0,0.3,0.4,0.3,0.5c0,0.2-0.7,0.5-1.5,0.5c-1.5,0-2.3-0.7-2.3-2.6C128.5,31.5,129.6,31,130.7,31z"/>
			<path id="XMLID_2293_" class="st4" d="M134.4,29.6v-0.6c0-0.1,0.1-0.2,0.4-0.2h0.1c0.3,0,0.4,0.1,0.4,0.2v0.6
				c0,0.1-0.1,0.2-0.4,0.2h-0.1C134.5,29.9,134.4,29.8,134.4,29.6z M134.4,31.2c0-0.1,0.1-0.2,0.4-0.2h0c0.3,0,0.4,0.1,0.4,0.2v4.6
				c0,0.1-0.1,0.2-0.4,0.2h0c-0.3,0-0.4-0.1-0.4-0.2V31.2z"/>
			<path id="XMLID_2282_" class="st4" d="M140.6,32.9v-0.4c0-0.4-0.3-0.8-1-0.8c-0.9,0-1.4,0.4-1.5,0.4c-0.1,0-0.3-0.4-0.3-0.5
				c0-0.2,0.8-0.6,1.8-0.6c1.2,0,1.9,0.6,1.9,1.5v2.1c0,0.8,0.1,1.2,0.1,1.2c0,0.2-0.4,0.2-0.5,0.2c-0.2,0-0.3-0.4-0.3-0.7
				c-0.4,0.4-0.9,0.7-1.6,0.7c-0.9,0-1.6-0.4-1.6-1.4C137.5,33.1,139.2,32.9,140.6,32.9z M139.1,35.4c0.7,0,1.1-0.3,1.5-0.7v-1.1
				c-1,0-2.3,0-2.3,1C138.3,35.1,138.6,35.4,139.1,35.4z"/>
			<path id="XMLID_2280_" class="st4" d="M143.9,35c0.1,0,0.4,0.4,1.1,0.4c0.6,0,0.9-0.3,0.9-0.8c0-0.4-0.2-0.7-1-0.9
				c-1-0.3-1.3-0.6-1.3-1.3c0-0.8,0.6-1.4,1.6-1.4c0.6,0,1.2,0.2,1.2,0.4c0,0.2-0.2,0.5-0.3,0.5c0,0-0.4-0.2-0.9-0.2
				c-0.5,0-0.8,0.2-0.8,0.6c0,0.3,0.2,0.5,0.7,0.7c1.2,0.4,1.5,0.7,1.5,1.6c0,0.9-0.7,1.5-1.6,1.5c-0.9,0-1.6-0.4-1.6-0.6
				C143.6,35.4,143.8,35,143.9,35z"/>
		</g>
	</g>
</g>
</svg>
