<?xml version="1.0" encoding="utf-8"?>
<!-- Generator: Adobe Illustrator 19.0.0, SVG Export Plug-In . SVG Version: 6.00 Build 0)  -->
<svg version="1.1" id="Capa_1" xmlns="http://www.w3.org/2000/svg" xmlns:xlink="http://www.w3.org/1999/xlink" x="0px" y="0px"
	 viewBox="0 0 140 30" style="enable-background:new 0 0 140 30;" xml:space="preserve">
<style type="text/css">
	.st0{fill:#7AC743;}
	.st1{opacity:0.4;}
	.st2{fill:#FCC509;}
	.st3{fill:#3FA7F3;}
	.st4{fill:#FFFFFF;}
</style>
<g id="XMLID_40_">
	<g id="XMLID_3337_">
		<path id="XMLID_3346_" class="st0" d="M19.2,21.7L19.2,21.7c-4.8,1.2-9.8,2.6-12.8,0.6c0,7.7,6.2,6.3,12.8,4.9v0
			C24,25.9,29,24.5,32,26.6C32,18.8,25.8,20.2,19.2,21.7z"/>
		<g id="XMLID_3344_" class="st1">
			<path id="XMLID_3345_" class="st0" d="M6.4,23.2c-2.3,0.3-4.3,0.1-5.8-0.9c0,6.2,4,6.5,8.9,5.7C7.8,27.4,6.6,26,6.4,23.2z"/>
		</g>
		<path id="XMLID_3343_" class="st2" d="M19.2,12.3L19.2,12.3c-4.8,1.2-9.8,2.6-12.8,0.6c0,7.7,6.2,6.3,12.8,4.9v0
			C24,16.5,29,15.1,32,17.1C32,9.4,25.8,10.8,19.2,12.3z"/>
		<g id="XMLID_3341_" class="st1">
			<path id="XMLID_3342_" class="st2" d="M6.4,13.8c-2.3,0.3-4.3,0.1-5.8-0.9c0,6.2,4,6.5,8.9,5.7C7.8,17.9,6.6,16.5,6.4,13.8z"/>
		</g>
		<path id="XMLID_3340_" class="st3" d="M19.2,2.8L19.2,2.8C14.4,4.1,9.4,5.5,6.4,3.4c0,7.7,6.2,6.3,12.8,4.9v0
			C24,7.1,29,5.7,32,7.7C32,0,25.8,1.4,19.2,2.8z"/>
		<g id="XMLID_3338_" class="st1">
			<path id="XMLID_3339_" class="st3" d="M6.4,4.3C4.2,4.6,2.1,4.5,0.6,3.4c0,6.2,4,6.5,8.9,5.7C7.8,8.5,6.6,7.1,6.4,4.3z"/>
		</g>
	</g>
	<g id="XMLID_3225_">
		<g id="XMLID_3317_">
			<g id="XMLID_3319_">
				<path id="XMLID_3334_" class="st4" d="M41.5,6.5c0-0.6,0.3-0.9,0.9-0.9h5.8c4.9,0,8.9,2.6,8.9,10c0,7.5-3.9,10-8.9,10h-5.8
					c-0.6,0-0.9-0.3-0.9-0.9V6.5z M47.9,23.5c3.6,0,6.5-2.1,6.5-7.9c0-5.7-2.9-7.9-6.5-7.9H44v15.7H47.9z"/>
				<path id="XMLID_3331_" class="st4" d="M66.5,10.5c3.9,0,5.9,2.6,5.9,7.5c0,0.3-0.6,1.2-0.9,1.2h-9.1c0.2,3.2,1.6,4.6,4.4,4.6
					c2.5,0,3.9-1.2,4.2-1.2c0.4,0,1,1.1,1,1.4c0,0.7-2.3,1.8-5.2,1.8c-4.8,0-7-2.4-7-7.6C59.8,13.2,62.1,10.5,66.5,10.5z M69.9,17.1
					c0-3-1.1-4.5-3.4-4.5c-2.5,0-3.8,1.5-4,4.5H69.9z"/>
				<path id="XMLID_3329_" class="st4" d="M81.8,10.5c2.2,0,4.3,0.6,4.3,1.3c0,0.5-0.5,1.5-0.9,1.5c-0.1,0-0.1-0.1-0.3-0.1
					c-0.5-0.2-1.6-0.7-3.1-0.7c-2.5,0-4.2,1.5-4.2,5.5c0,4,1.2,5.7,4.4,5.7c1.6,0,2.7-0.5,3.2-0.7c0.2-0.1,0.3-0.1,0.3-0.1
					c0.4,0,1,1.1,1,1.5c0,0.7-2,1.5-4.5,1.5c-4.6,0-7.1-2.2-7.1-7.7C75,12.1,78.5,10.5,81.8,10.5z"/>
				<path id="XMLID_3327_" class="st4" d="M89.2,4.8c0-0.4,0.3-0.6,1.1-0.6h0.1c0.8,0,1.1,0.2,1.1,0.6v16.9c0,1.7,0.7,2.1,1.5,2.1
					c0.8,0,1-0.1,1.2-0.1c0.4,0,0.6,1.1,0.6,1.3c0,0.8-1.3,0.9-2.1,0.9c-1.4,0-3.7-0.6-3.7-4V4.8z"/>
				<path id="XMLID_3325_" class="st4" d="M97.7,11.3c0-0.4,0.3-0.6,1.1-0.6H99c0.8,0,1.1,0.2,1.1,0.6v13.9c0,0.4-0.3,0.6-1.1,0.6
					h-0.1c-0.8,0-1.1-0.2-1.1-0.6V11.3z"/>
				<path id="XMLID_3323_" class="st4" d="M104.4,15.1c0-2.4-0.3-3.5-0.3-3.6c0-0.5,1.2-0.7,1.5-0.7c0.7,0,0.8,1.1,1,1.9
					c0.9-1.1,2.5-2.2,4.4-2.2c1.4,0,3.3,0.4,4.1,2.4c1.1-1.3,2.8-2.4,4.6-2.4c1.8,0,4.5,0.7,4.5,4.6v10c0,0.4-0.3,0.6-1.1,0.6h-0.1
					c-0.8,0-1.1-0.2-1.1-0.6v-9.7c0-1.7-0.9-2.8-2.8-2.8c-1.8,0-3.1,1.5-3.5,2c0,0.2,0,0.4,0,0.6v9.9c0,0.4-0.3,0.6-1.1,0.6h-0.1
					c-0.8,0-1.1-0.2-1.1-0.6v-9.7c0-1.7-0.9-2.8-2.8-2.8c-2.1,0-3.5,2-3.5,2v10.5c0,0.4-0.3,0.6-1.1,0.6h-0.1
					c-0.8,0-1.1-0.2-1.1-0.6V15.1z"/>
				<path id="XMLID_3320_" class="st4" d="M136.7,16.3V15c0-1.3-0.8-2.4-3.2-2.4c-2.6,0-4.2,1.2-4.5,1.2c-0.4,0-1-1.1-1-1.4
					c0-0.7,2.5-1.8,5.4-1.8c3.6,0,5.7,1.7,5.7,4.5v6.4c0,2.4,0.3,3.5,0.3,3.6c0,0.5-1.2,0.7-1.5,0.7c-0.7,0-0.8-1.2-1-2
					c-1.1,1.2-2.7,2.2-4.8,2.2c-2.8,0-4.9-1.3-4.9-4.3C127.1,16.7,132.3,16.4,136.7,16.3z M132.2,23.8c2.1,0,3.4-0.9,4.5-2v-3.4
					c-3,0-6.9,0-6.9,3C129.7,22.9,130.6,23.8,132.2,23.8z"/>
			</g>
			<path id="XMLID_3318_" class="st4" d="M98.5,4.1h0.7c0.5,0,0.8,0.4,0.8,0.8v3.2h-2.4V5C97.7,4.5,98.1,4.1,98.5,4.1z"/>
		</g>
	</g>
</g>
</svg>
