<?xml version="1.0" encoding="utf-8"?>
<!-- Generator: Adobe Illustrator 19.0.0, SVG Export Plug-In . SVG Version: 6.00 Build 0)  -->
<svg version="1.1" id="Capa_1" xmlns="http://www.w3.org/2000/svg" xmlns:xlink="http://www.w3.org/1999/xlink" x="0px" y="0px"
	 viewBox="0 0 100 100" style="enable-background:new 0 0 100 100;" xml:space="preserve">
<style type="text/css">
	.st0{
	fill:#fff;
	}
</style>
<g id="XMLID_174_">
	<path id="XMLID_1079_" class="st0" d="M201.8,14.9h-29.5c-2.8,0-5.2,2.3-5.2,5.1v59.9c0,2.8,2.3,5.1,5.2,5.1h29.5
		c2.8,0,5.2-2.3,5.2-5.1V20C206.9,17.2,204.6,14.9,201.8,14.9L201.8,14.9z M169.5,25.8h35.1v42.9h-35.1V25.8z M172.3,17.2h29.5
		c1.6,0,2.8,1.3,2.8,2.8v3.3h-35.1V20C169.5,18.5,170.8,17.2,172.3,17.2L172.3,17.2z M201.8,82.7h-29.5c-1.5,0-2.8-1.3-2.8-2.8V71
		h35.1v8.9C204.6,81.4,203.3,82.7,201.8,82.7L201.8,82.7z M201.8,82.7"/>
	<circle id="XMLID_327_" class="st0" cx="187.1" cy="77.2" r="2.9"/>
</g>
<g id="XMLID_829_">
	<path id="XMLID_877_" class="st0" d="M31.1,67.7c-9.7,0-17.7-7.9-17.7-17.7c0-9.7,7.9-17.7,17.7-17.7h40.3v35.3H31.1L31.1,67.7z
		 M86.6,38.7v22.7H74V38.7H86.6L86.6,38.7z M74,63.9h15.1V36.1H74v-6.3H31.1c-11.1,0-20.2,9-20.2,20.2s9,20.2,20.2,20.2H74V63.9
		L74,63.9z"/>
	<polygon id="XMLID_876_" class="st0" points="82.2,40.4 82.2,45.9 79.4,45.9 79.4,40.4 82.2,40.4 	"/>
	<polygon id="XMLID_871_" class="st0" points="82.2,54.1 82.2,59.6 79.4,59.6 79.4,54.1 82.2,54.1 	"/>
</g>
</svg>
