<?xml version="1.0" encoding="utf-8"?>
<!-- Generator: Adobe Illustrator 19.0.0, SVG Export Plug-In . SVG Version: 6.00 Build 0)  -->
<svg version="1.1" id="Capa_1" xmlns="http://www.w3.org/2000/svg" xmlns:xlink="http://www.w3.org/1999/xlink" x="0px" y="0px"
	 viewBox="0 0 100 100" style="enable-background:new 0 0 100 100;" xml:space="preserve">
<style type="text/css">
	.st0{fill:#fff;}
</style>
<g id="XMLID_174_">
	<path id="XMLID_1079_" class="st0" d="M64.8,14.9H35.3c-2.8,0-5.2,2.3-5.2,5.1v59.9c0,2.8,2.3,5.1,5.2,5.1h29.5
		c2.8,0,5.2-2.3,5.2-5.1V20C69.9,17.2,67.6,14.9,64.8,14.9L64.8,14.9z M32.5,25.8h35.1v42.9H32.5V25.8z M35.3,17.2h29.5
		c1.6,0,2.8,1.3,2.8,2.8v3.3H32.5V20C32.5,18.5,33.8,17.2,35.3,17.2L35.3,17.2z M64.8,82.7H35.3c-1.5,0-2.8-1.3-2.8-2.8V71h35.1v8.9
		C67.6,81.4,66.3,82.7,64.8,82.7L64.8,82.7z M64.8,82.7"/>
	<circle id="XMLID_327_" class="st0" cx="50.1" cy="77.2" r="2.9"/>
</g>
<g id="XMLID_829_">
	<path id="XMLID_877_" class="st0" d="M-348.8,66.4c-9.7,0-17.7-7.9-17.7-17.7c0-9.7,7.9-17.7,17.7-17.7h40.3v35.3H-348.8
		L-348.8,66.4z M-293.4,37.4v22.7H-306V37.4H-293.4L-293.4,37.4z M-306,62.6h15.1V34.9H-306v-6.3h-42.9c-11.1,0-20.2,9-20.2,20.2
		s9,20.2,20.2,20.2h42.9V62.6L-306,62.6z"/>
	<polygon id="XMLID_876_" class="st0" points="-297.7,39.1 -297.7,44.6 -300.5,44.6 -300.5,39.1 -297.7,39.1 	"/>
	<polygon id="XMLID_871_" class="st0" points="-297.7,52.9 -297.7,58.4 -300.5,58.4 -300.5,52.9 -297.7,52.9 	"/>
</g>
</svg>
