<?xml version="1.0" encoding="utf-8"?>
<!-- Generator: Adobe Illustrator 19.0.0, SVG Export Plug-In . SVG Version: 6.00 Build 0)  -->
<svg version="1.1" id="Capa_1" xmlns="http://www.w3.org/2000/svg" xmlns:xlink="http://www.w3.org/1999/xlink" x="0px" y="0px"
	 viewBox="20 -1.3 140 102.3" style="enable-background:new 20 -1.3 140 102.3;" xml:space="preserve">
<style type="text/css">
	.st0{opacity:0.5;fill:url(#XMLID_2_);}
	.st1{fill:#FFFFFF;}
	.st2{fill:#3FA7F3;}
</style>
<g id="XMLID_1081_">
	
		<radialGradient id="XMLID_2_" cx="-1304.8984" cy="232.3365" r="47.6928" gradientTransform="matrix(1.4257 0 0 -0.8094 1950.3937 249.1532)" gradientUnits="userSpaceOnUse">
		<stop  offset="0" style="stop-color:#000000;stop-opacity:0.3"/>
		<stop  offset="1" style="stop-color:#FFFFFF;stop-opacity:0"/>
	</radialGradient>
	<ellipse id="XMLID_2242_" class="st0" cx="90" cy="61.1" rx="68" ry="38.6"/>
	<g id="XMLID_1085_">
		<path id="XMLID_2228_" class="st1" d="M137.1,38.2c0,8.6-7,15.6-15.6,15.6H58.6c-8.6,0-15.6-7-15.6-15.6V27.9
			c0-8.6,7-15.6,15.6-15.6h62.9c8.6,0,15.6,7,15.6,15.6V38.2z"/>
		<ellipse id="XMLID_2227_" class="st1" cx="90" cy="32.5" rx="32.3" ry="32.5"/>
		<path id="XMLID_2225_" class="st2" d="M85.5,50.7h36.4c0,0,11.9-1.5,11.9-12.2s0-10.7,0-10.7s-1.4-12.3-12.4-12.3s-16.7,0-16.7,0
			S92,15.9,92,28.5V38C92,38.1,92.5,44.5,85.5,50.7z"/>
		<polygon id="XMLID_2224_" class="st2" points="76,22.1 70.2,22.1 68.4,34.3 66.1,22.2 60.9,22.2 58.6,34.3 56.9,22.2 50.9,22.2 
			55.9,42.9 61.2,42.9 63.4,30.1 65.8,42.9 71.1,42.9 		"/>
		<rect id="XMLID_2223_" x="78.5" y="27.8" class="st2" width="5.4" height="15"/>
		<ellipse id="XMLID_2222_" class="st2" cx="81.3" cy="23.6" rx="3.1" ry="2.7"/>
		<rect id="XMLID_2221_" x="120.4" y="27.8" class="st1" width="5.4" height="15"/>
		<ellipse id="XMLID_2209_" class="st1" cx="123.1" cy="23.6" rx="3.1" ry="2.7"/>
		<polygon id="XMLID_2207_" class="st1" points="99.2,22.2 117.1,22.2 117.1,27 105,27 105,31.7 115.9,31.7 115.9,36.5 105,36.5 
			105,42.8 99.2,42.8 		"/>
		<g id="XMLID_1086_">
			<g id="XMLID_1089_">
				<path id="XMLID_2143_" class="st1" d="M136.5,13.3h-1.3v-0.5h3.2v0.5h-1.3v3.8h-0.6C136.5,17.1,136.5,13.3,136.5,13.3z"/>
				<path id="XMLID_1094_" class="st1" d="M142.4,15.3c0-0.6-0.1-1.3-0.1-1.8l0,0c-0.1,0.5-0.3,1-0.5,1.6l-0.8,2.1h-0.4l-0.7-2
					c-0.2-0.6-0.4-1.1-0.5-1.7l0,0c0,0.5,0,1.2-0.1,1.9l-0.1,1.8h-0.5l0.3-4.3h0.7l0.7,2.1c0.2,0.5,0.3,1,0.4,1.4l0,0
					c0.1-0.4,0.3-0.9,0.4-1.4l0.8-2.1h0.7l0.3,4.3h-0.5L142.4,15.3z"/>
			</g>
		</g>
	</g>
</g>
</svg>
