<?xml version="1.0" encoding="utf-8"?>
<!-- Generator: Adobe Illustrator 19.0.0, SVG Export Plug-In . SVG Version: 6.00 Build 0)  -->
<svg version="1.1" id="Capa_1" xmlns="http://www.w3.org/2000/svg" xmlns:xlink="http://www.w3.org/1999/xlink" x="0px" y="0px"
	 viewBox="0 0 60 60" style="enable-background:new 0 0 60 60;" xml:space="preserve">
<style type="text/css">
	.st0{fill:#F9C37D;}
	.st1{fill:#A1DBFF;}
</style>
<g id="XMLID_4560_">
	<g id="XMLID_4564_">
		<path class="st0" d="M43.6,37.1c-0.2-2.2-0.8-4.5-1.8-6.6c-0.9-1.9-2.1-3.8-3.5-5.5c-0.4-0.5-0.8-1-1-1.2l-0.5-0.5
			c-0.1-0.1-0.2-0.2-0.3-0.3l-0.1-0.1c-0.2-0.2-0.3-0.3-0.5-0.5c0,0,0,0,0,0c-0.1-0.1-0.1-0.1-0.2-0.2c-0.1-0.1-0.2-0.2-0.3-0.3
			c0,0,0,0,0,0c-0.7-0.8-1.3-1.5-1.9-2.2c-0.6-0.8-1.1-1.5-1.4-2.2c-0.4-0.8-0.7-1.7-0.9-2.7c-0.2-0.9-0.3-1.9-0.3-3
			c0-1,0-1.9,0.1-2.7c0-0.5,0.1-1,0.1-1.4c0-0.3-0.1-0.6-0.3-0.9c-0.2-0.2-0.6-0.3-0.9-0.2c-0.5,0.1-0.9,0.3-1.4,0.5
			c-1,0.4-2,1-2.9,1.7c-1.2,0.9-2.2,2-3.1,3.3c-1.1,1.6-1.8,3.5-2.2,5.4c-0.4,2.1-0.4,4.5,0.1,6.8c0.5,2.2,1.4,4.4,2.6,6.4
			c0.7,1.1,1.3,1.9,1.9,2.7c0.2,0.2,0.7,0.8,0.7,0.8l0.2,0.2c0.1,0.2,0.2,0.3,0.4,0.4c0.1,0.1,0.2,0.2,0.3,0.3l0,0
			c1,1.2,1.7,2,2.2,2.8c0.6,0.8,1.2,1.6,1.7,2.5c0.5,0.9,0.9,1.7,1.2,2.4c0.3,0.9,0.5,1.8,0.6,2.8c0.1,0.9,0.1,1.9,0,3
			c-0.1,1-0.3,2-0.4,2.7c-0.1,0.5-0.2,0.9-0.3,1.3c-0.1,0.3,0,0.7,0.3,0.9c0.2,0.2,0.4,0.3,0.7,0.3c0.1,0,0.1,0,0.2,0
			c0.5-0.1,0.9-0.2,1.3-0.4c1-0.3,2-0.8,3-1.4c1.3-0.8,2.4-1.8,3.4-3c1.2-1.5,2.1-3.2,2.7-5.1C43.6,41.7,43.8,39.4,43.6,37.1
			L43.6,37.1z M43.6,37.1"/>
	</g>
	<g id="XMLID_4561_">
		<path class="st0" d="M26.4,43.1c-0.4-0.9-0.9-1.7-1.6-2.5c-0.2-0.2-0.4-0.4-0.5-0.5l-0.2-0.2C24,39.7,24,39.7,24,39.7l-0.1-0.1
			c-0.1-0.1-0.1-0.1-0.2-0.2c0,0,0,0,0,0l-0.1-0.1c0-0.1-0.1-0.1-0.1-0.2c0,0,0,0,0,0c-0.3-0.4-0.6-0.7-0.8-1
			c-0.2-0.3-0.4-0.6-0.7-1c-0.2-0.4-0.3-0.8-0.4-1.2c-0.1-0.4-0.1-0.9-0.2-1.4c0-0.4,0-0.8,0-1.1c0-0.3-0.1-0.7-0.4-0.9
			c-0.3-0.2-0.7-0.2-1-0.1c-0.4,0.2-0.7,0.4-1.1,0.6c-0.5,0.4-1,0.9-1.4,1.5c-0.3,0.5-0.8,1.3-1,2.5c-0.2,1-0.2,2.1,0.1,3.1
			c0.2,1,0.6,2,1.2,2.9c0.3,0.5,0.6,0.9,0.9,1.2c0.1,0.1,0.3,0.3,0.3,0.4h0l0.1,0.1c0.1,0.1,0.1,0.1,0.2,0.2c0,0.1,0.1,0.1,0.1,0.1
			l0,0c0.3,0.4,0.7,0.8,1,1.3c0.3,0.4,0.5,0.8,0.8,1.1c0.2,0.4,0.4,0.8,0.6,1.1c0.1,0.4,0.2,0.8,0.3,1.3c0,0.4,0,0.9,0,1.4
			c0,0.3-0.1,0.6-0.1,1c-0.1,0.3,0.1,0.7,0.3,0.9c0.2,0.1,0.4,0.2,0.6,0.2c0.1,0,0.3,0,0.4-0.1c0.3-0.1,0.7-0.3,1-0.5
			c0.6-0.4,1.1-0.8,1.5-1.4c0.5-0.7,1-1.5,1.2-2.3c0.3-0.9,0.4-2,0.3-3C27.1,45.1,26.8,44.1,26.4,43.1L26.4,43.1z M26.4,43.1"/>
	</g>
</g>
<g id="XMLID_4309_">
	<path id="XMLID_48_" class="st1" d="M-27.8-21l-8.9,2.4l-3.4-2v-3.7l3.4-1.9l8.9,2.4c0.2,0,0.4,0.1,0.5,0.1c0.9,0,1.8-0.6,2-1.5
		c0.3-1.1-0.4-2.2-1.5-2.5l-4.9-1.3l4.5-2.6c1-0.6,1.3-1.8,0.8-2.8c-0.6-1-1.8-1.3-2.8-0.8l-4.5,2.6l1.3-4.9
		c0.3-1.1-0.4-2.2-1.5-2.5c-1.1-0.3-2.2,0.4-2.5,1.5l-2.4,8.9l-3.4,2l-3.2-1.9v-3.9l6.5-6.5c0.8-0.8,0.8-2.1,0-2.9
		c-0.8-0.8-2.1-0.8-2.9,0l-3.6,3.6v-5.2c0-1.1-0.9-2.1-2.1-2.1c-1.1,0-2.1,0.9-2.1,2.1v5.2l-3.6-3.6c-0.8-0.8-2.1-0.8-2.9,0
		c-0.8,0.8-0.8,2.1,0,2.9l6.5,6.5v4l-3.2,1.8l-3.4-2l-2.4-8.9c-0.3-1.1-1.4-1.8-2.5-1.5c-1.1,0.3-1.8,1.4-1.5,2.5l1.3,4.9l-4.5-2.6
		c-1-0.6-2.3-0.2-2.8,0.8c-0.6,1-0.2,2.3,0.8,2.8l4.5,2.6l-4.9,1.3c-1.1,0.3-1.8,1.4-1.5,2.5c0.2,0.9,1.1,1.5,2,1.5
		c0.2,0,0.4,0,0.5-0.1l8.9-2.4l3.4,1.9l0,3.7l-3.4,2l-8.9-2.4c-1.1-0.3-2.2,0.4-2.5,1.5c-0.3,1.1,0.4,2.2,1.5,2.5l4.9,1.3l-4.5,2.6
		c-1,0.6-1.3,1.8-0.8,2.8c0.4,0.7,1.1,1,1.8,1c0.4,0,0.7-0.1,1-0.3l4.5-2.6l-1.3,4.9c-0.3,1.1,0.4,2.2,1.5,2.5
		c0.2,0,0.4,0.1,0.5,0.1c0.9,0,1.8-0.6,2-1.5l2.4-8.9l3.4-2l3.2,1.8v4L-56-4.6c-0.8,0.8-0.8,2.1,0,2.9c0.4,0.4,0.9,0.6,1.5,0.6
		c0.5,0,1.1-0.2,1.5-0.6l3.6-3.6v5.2c0,1.1,0.9,2.1,2.1,2.1c1.1,0,2.1-0.9,2.1-2.1v-5.2l3.6,3.6c0.4,0.4,0.9,0.6,1.5,0.6
		c0.5,0,1.1-0.2,1.5-0.6c0.8-0.8,0.8-2.1,0-2.9l-6.5-6.5v-4l3.2-1.9l3.4,2l2.4,8.9c0.2,0.9,1.1,1.5,2,1.5c0.2,0,0.4,0,0.5-0.1
		c1.1-0.3,1.8-1.4,1.5-2.5l-1.3-4.9l4.5,2.6c0.3,0.2,0.7,0.3,1,0.3c0.7,0,1.4-0.4,1.8-1c0.6-1,0.2-2.3-0.8-2.8l-4.5-2.6l4.9-1.3
		c1.1-0.3,1.8-1.4,1.5-2.5C-25.5-20.6-26.7-21.2-27.8-21L-27.8-21z M-44.2-20.6l-3.2,1.9l-3.2-1.9l0-3.7l3.2-1.9l3.2,1.9V-20.6z
		 M-44.2-20.6"/>
</g>
</svg>
