<?xml version="1.0" encoding="utf-8"?>
<!-- Generator: Adobe Illustrator 19.0.0, SVG Export Plug-In . SVG Version: 6.00 Build 0)  -->
<svg version="1.1" id="Capa_1" xmlns="http://www.w3.org/2000/svg" xmlns:xlink="http://www.w3.org/1999/xlink" x="0px" y="0px"
	 viewBox="0 0 60 60" style="enable-background:new 0 0 60 60;" xml:space="preserve">
<style type="text/css">
	.st0{fill:#9AC677;}
</style>
<g id="XMLID_3513_">
	<g id="XMLID_3534_">
		<path id="XMLID_1_" class="st0" d="M57.7,30.3c-0.2,0-3.3-0.6-7.6-1c0-0.4,0-0.8,0-1.2C50.2,15.9,40.3,6,28.1,6
			C15.9,6,6,15.9,6,28.1c0,2.6,0.4,5,1.3,7.3c-2.8,0.2-4.9,0.6-5,0.7l-1.6,0.3l0.7,1.5C1.6,38.3,6.7,49,13.1,52.2
			c2.3,1.2,4.5,1.8,6.4,1.8h0c2.9,0,5.3-1.3,6.8-3.7c2,2.3,4.7,3.6,8,3.6c2.6,0,5.5-0.8,8.6-2.4c8.6-4.4,15.6-18.9,15.8-19.5
			l0.7-1.5L57.7,30.3z M46.3,20.9c-0.8-0.7-1.8-1.3-2.9-1.9c-1.3-0.7-2.8-1.3-4.4-1.8c-0.5-1.6-1.1-3.1-1.8-4.4
			c-0.6-1.1-1.2-2-1.9-2.9C40.3,11.9,44.3,15.9,46.3,20.9L46.3,20.9z M47.5,26.9h-6.9c-0.1-2.3-0.3-4.6-0.8-6.7
			C43.9,21.8,46.8,24.2,47.5,26.9L47.5,26.9z M29.4,8.7c2.7,0.7,5.1,3.6,6.7,7.7c-2.1-0.5-4.4-0.7-6.7-0.8V8.7z M29.4,18.1
			c2.7,0.1,5.3,0.5,7.6,1.1c0.6,2.3,1,4.9,1.1,7.6h-8.7V18.1z M29.4,29.4h8.7c0,0.1,0,0.2,0,0.3c-2.1,0.4-3.9,1-5.4,1.7
			c-1.2,0.6-2.3,1.3-3.3,2V29.4z M26.8,8.7v6.9c-2.3,0.1-4.6,0.3-6.7,0.8C21.8,12.3,24.2,9.4,26.8,8.7L26.8,8.7z M26.8,18.1v8.7
			h-8.7c0.1-2.7,0.5-5.3,1.1-7.6C21.5,18.6,24.1,18.2,26.8,18.1L26.8,18.1z M20.9,9.9c-0.7,0.8-1.3,1.8-1.9,2.9
			c-0.7,1.3-1.3,2.8-1.8,4.4c-1.6,0.5-3.1,1.1-4.4,1.8c-1.1,0.6-2,1.2-2.9,1.9C11.9,15.9,15.9,11.9,20.9,9.9L20.9,9.9z M16.4,20.2
			c-0.5,2.1-0.7,4.4-0.8,6.7H8.7C9.4,24.2,12.3,21.8,16.4,20.2L16.4,20.2z M15.6,29.4c0.1,2.2,0.3,4.3,0.7,6.3
			c-0.4-0.1-0.9-0.1-1.3-0.2c-3.3-1.6-5.6-3.7-6.2-6.1H15.6z M23.5,49.8c-0.8,0.9-2.1,1.7-4,1.7h0c-1.5,0-3.3-0.5-5.3-1.5
			C9.9,47.8,6,41.3,4.4,38.3c1.6-0.2,4.1-0.5,6.8-0.5c3.6,0,6.4,0.5,8.3,1.5c1.7,0.9,3.1,1.9,4,2.9c-0.2,1.8,0.2,3.7,1,5.6l-12.8-6
			L23.5,49.8z M21.8,37.6c-0.3-0.2-0.7-0.4-1.1-0.6c-0.5-0.3-1.1-0.5-1.7-0.7c-0.5-2.1-0.8-4.5-0.9-6.9h8.7v6.2
			c-0.7,0.8-1.4,1.6-1.9,2.4C23.9,37.9,22.8,37.8,21.8,37.6L21.8,37.6z M41.6,49.2c-2.7,1.4-5.2,2.1-7.4,2.1c-2.9,0-4.8-1.3-6-2.7
			l17.5-11.2L27,46.9c0,0,0,0,0,0c-2.5-4.9,0-9.7,6.8-13.2c2.7-1.4,6.6-2.1,11.7-2.1c4.1,0,8,0.5,10.1,0.8
			C53.6,36.2,48,46,41.6,49.2L41.6,49.2z M41.6,49.2"/>
		<path id="XMLID_17_" class="st0" d="M19.5,54.2c-2,0-4.2-0.6-6.5-1.8C6.5,49.2,1.4,38.4,1.2,38l-0.8-1.8l1.9-0.4
			c0,0,2-0.4,4.7-0.6c-0.8-2.3-1.2-4.7-1.2-7.1c0-12.3,10-22.3,22.3-22.3s22.3,10,22.3,22.3c0,0.3,0,0.6,0,0.9
			c4.2,0.3,7.2,0.9,7.3,0.9l1.9,0.4l-0.8,1.8c-0.3,0.6-7.3,15.2-16,19.6c-3.1,1.6-6.1,2.4-8.7,2.4c-3.2,0-5.9-1.2-7.9-3.4
			C24.7,53,22.3,54.2,19.5,54.2z M1.1,36.6l0.6,1.2c0.2,0.4,5.3,11,11.6,14.2c2.3,1.1,4.4,1.7,6.3,1.7c2.8,0,5.1-1.3,6.5-3.6
			l0.2-0.3l0.2,0.3c1.9,2.3,4.6,3.5,7.8,3.5c2.6,0,5.4-0.8,8.5-2.3c8.5-4.3,15.4-18.7,15.7-19.4l0.6-1.2l-1.3-0.2
			c-0.1,0-3.3-0.6-7.5-1l-0.2,0l0-0.2c0-0.4,0-0.8,0-1.2c0-12-9.8-21.8-21.8-21.8S6.3,16.1,6.3,28.1c0,2.5,0.4,4.9,1.2,7.2l0.1,0.3
			l-0.3,0c-2.9,0.2-4.9,0.7-5,0.7L1.1,36.6z M19.5,51.7c-1.6,0-3.4-0.5-5.4-1.5c-4.4-2.2-8.4-9-9.9-11.8L4,38.1l0.4,0
			c1.7-0.2,4.2-0.5,6.9-0.5c3.6,0,6.5,0.5,8.4,1.5c1.7,0.9,3.1,1.9,4.1,3l0.1,0.1l0,0.1c-0.2,1.8,0.2,3.6,1,5.4l0.3,0.6l-10.7-5
			l9.3,6.4l-0.2,0.2C22.6,51.1,21.2,51.7,19.5,51.7z M4.8,38.5c1.6,2.9,5.4,9.1,9.5,11.2c3.8,1.9,6.8,1.9,8.8,0.1L11.7,42l0.2-0.4
			l12.2,5.7c-0.7-1.6-1-3.3-0.8-5c-0.9-1-2.2-1.9-3.8-2.8c-1.9-1-4.7-1.4-8.2-1.4C8.8,38,6.5,38.3,4.8,38.5z M34.2,51.6
			c-2.6,0-4.7-0.9-6.2-2.8l-0.2-0.2l0.2-0.2l13.2-8.5l-14.3,7.3L26.8,47c-2.6-5.1-0.1-10,6.9-13.5c2.8-1.4,6.7-2.1,11.8-2.1
			c4.2,0,8.2,0.5,10.2,0.8l0.3,0.1l-0.2,0.3c-2.1,4-7.7,13.7-14,16.9l0,0C39,50.9,36.4,51.6,34.2,51.6z M28.5,48.7
			c2.8,3.1,7.4,3.2,13,0.3l0,0C47.6,46,53,36.8,55.2,32.6c-2.1-0.3-5.8-0.8-9.7-0.8c-5,0-8.9,0.7-11.5,2c-6.6,3.3-9,7.9-6.8,12.6
			l18.4-9.4l0.2,0.4L28.5,48.7z M25.1,38.3l-0.2,0c-1.1-0.1-2.2-0.2-3.2-0.4l-0.1,0c-0.3-0.2-0.7-0.4-1-0.6
			c-0.5-0.2-1.1-0.5-1.7-0.7l-0.1,0l0-0.1c-0.5-2.2-0.9-4.6-0.9-7l0-0.3h9.2v6.5L27,35.7c-0.7,0.8-1.4,1.6-1.8,2.4L25.1,38.3z
			 M21.9,37.3c1,0.2,1.9,0.3,3,0.4c0.5-0.8,1.1-1.6,1.8-2.3v-5.8h-8.2c0.1,2.2,0.4,4.4,0.9,6.5c0.6,0.2,1.1,0.4,1.6,0.7
			C21.2,37,21.6,37.2,21.9,37.3z M16.6,36l-0.4-0.1c-0.4-0.1-0.9-0.1-1.3-0.2l-0.1,0c-3.5-1.7-5.8-3.9-6.4-6.2l-0.1-0.3h7.4l0,0.2
			c0.1,2.1,0.3,4.2,0.7,6.2L16.6,36z M15,35.2c0.3,0,0.6,0.1,1,0.1c-0.4-1.8-0.6-3.8-0.6-5.7H9C9.7,31.7,11.8,33.7,15,35.2z
			 M29.1,33.9v-4.8h9.2l0,0.8l-0.2,0c-2.1,0.4-3.9,1-5.4,1.7c-1.2,0.6-2.3,1.3-3.2,1.9L29.1,33.9z M29.6,29.6v3.3
			c0.9-0.6,1.9-1.2,2.9-1.7c1.3-0.7,2.9-1.2,4.7-1.6H29.6z M47.8,27.1h-7.4l0-0.2c-0.1-2.3-0.3-4.5-0.8-6.6l-0.1-0.5l0.4,0.2
			c4.3,1.7,7.1,4.2,7.8,6.9L47.8,27.1z M40.9,26.6h6.3c-0.8-2.3-3.3-4.5-7-6C40.6,22.5,40.8,24.5,40.9,26.6z M27.1,27.1h-9.2l0-0.3
			c0.1-2.7,0.5-5.3,1.1-7.7l0-0.1l0.1,0c2.4-0.7,5-1,7.7-1.1l0.3,0V27.1z M18.4,26.6h8.2v-8.2c-2.5,0.1-4.9,0.5-7.2,1.1
			C18.8,21.7,18.5,24.1,18.4,26.6z M15.8,27.1H8.4l0.1-0.3c0.7-2.7,3.5-5.2,7.8-6.9l0.4-0.2l-0.1,0.5c-0.5,2.1-0.7,4.4-0.8,6.6
			L15.8,27.1z M9,26.6h6.3c0.1-2.1,0.3-4.1,0.7-6C12.3,22.1,9.8,24.3,9,26.6z M38.4,27.1h-9.2v-9.2l0.3,0c2.7,0.1,5.3,0.5,7.7,1.1
			l0.1,0l0,0.1c0.7,2.4,1,5,1.1,7.7L38.4,27.1z M29.6,26.6h8.2c-0.1-2.5-0.5-4.9-1.1-7.2c-2.3-0.6-4.7-1-7.2-1.1V26.6z M46.9,21.7
			l-0.7-0.6c-0.8-0.7-1.8-1.3-2.8-1.9c-1.3-0.7-2.8-1.3-4.4-1.8l-0.1,0l0-0.1c-0.5-1.6-1.1-3.1-1.8-4.4c-0.6-1.1-1.2-2-1.9-2.8
			l-0.6-0.7l0.9,0.4c5.1,2,9.1,6.1,11.2,11.2L46.9,21.7z M39.2,17c1.6,0.5,3,1.1,4.3,1.8c0.8,0.4,1.5,0.9,2.1,1.3
			c-1.9-4.3-5.4-7.7-9.6-9.6c0.5,0.7,0.9,1.4,1.3,2.1C38.1,14,38.7,15.4,39.2,17z M9.3,21.7l0.4-0.9c2-5.1,6.1-9.1,11.2-11.2
			l0.9-0.4l-0.6,0.7c-0.7,0.8-1.3,1.8-1.9,2.8c-0.7,1.3-1.3,2.8-1.8,4.4l0,0.1l-0.1,0c-1.6,0.5-3,1.1-4.4,1.8
			c-1.1,0.6-2,1.2-2.8,1.9L9.3,21.7z M20.1,10.5c-4.3,1.9-7.7,5.4-9.6,9.6c0.7-0.5,1.4-0.9,2.1-1.3c1.3-0.7,2.8-1.3,4.3-1.8
			c0.5-1.6,1.1-3,1.8-4.3C19.2,11.9,19.7,11.2,20.1,10.5z M19.7,16.7l0.2-0.4c1.7-4.3,4.2-7.1,6.9-7.8l0.3-0.1v7.4l-0.2,0
			c-2.3,0.1-4.5,0.3-6.6,0.8L19.7,16.7z M26.6,9.1c-2.3,0.8-4.5,3.3-6,7c1.9-0.4,4-0.6,6-0.7V9.1z M36.5,16.7L36,16.6
			c-2.1-0.5-4.4-0.7-6.7-0.8l-0.2,0V8.4l0.3,0.1c2.7,0.7,5.2,3.5,6.9,7.8L36.5,16.7z M29.6,15.4c2.1,0.1,4.1,0.3,6,0.7
			c-1.5-3.7-3.7-6.2-6-7V15.4z"/>
	</g>
</g>
</svg>
