<?xml version="1.0" encoding="utf-8"?>
<!-- Generator: Adobe Illustrator 19.0.0, SVG Export Plug-In . SVG Version: 6.00 Build 0)  -->
<svg version="1.1" id="Capa_1" xmlns="http://www.w3.org/2000/svg" xmlns:xlink="http://www.w3.org/1999/xlink" x="0px" y="0px"
	 viewBox="0 0 60 60" style="enable-background:new 0 0 60 60;" xml:space="preserve">
<style type="text/css">
	.st0{fill:#fff;}
</style>
<g id="XMLID_4309_">
	<path id="XMLID_48_" class="st0" d="M49.7,31.4l-8.9,2.4l-3.4-2v-3.7l3.4-1.9l8.9,2.4c0.2,0,0.4,0.1,0.5,0.1c0.9,0,1.8-0.6,2-1.5
		c0.3-1.1-0.4-2.2-1.5-2.5l-4.9-1.3l4.5-2.6c1-0.6,1.3-1.8,0.8-2.8c-0.6-1-1.8-1.3-2.8-0.8l-4.5,2.6l1.3-4.9
		c0.3-1.1-0.4-2.2-1.5-2.5c-1.1-0.3-2.2,0.4-2.5,1.5l-2.4,8.9l-3.4,2l-3.2-1.9v-3.9l6.5-6.5c0.8-0.8,0.8-2.1,0-2.9
		c-0.8-0.8-2.1-0.8-2.9,0l-3.6,3.6V7.7c0-1.1-0.9-2.1-2.1-2.1c-1.1,0-2.1,0.9-2.1,2.1v5.2l-3.6-3.6c-0.8-0.8-2.1-0.8-2.9,0
		c-0.8,0.8-0.8,2.1,0,2.9l6.5,6.5v4l-3.2,1.8l-3.4-2l-2.4-8.9c-0.3-1.1-1.4-1.8-2.5-1.5c-1.1,0.3-1.8,1.4-1.5,2.5l1.3,4.9l-4.5-2.6
		c-1-0.6-2.3-0.2-2.8,0.8c-0.6,1-0.2,2.3,0.8,2.8l4.5,2.6l-4.9,1.3c-1.1,0.3-1.8,1.4-1.5,2.5c0.2,0.9,1.1,1.5,2,1.5
		c0.2,0,0.4,0,0.5-0.1l8.9-2.4l3.4,1.9l0,3.7l-3.4,2l-8.9-2.4c-1.1-0.3-2.2,0.4-2.5,1.5c-0.3,1.1,0.4,2.2,1.5,2.5l4.9,1.3l-4.5,2.6
		c-1,0.6-1.3,1.8-0.8,2.8c0.4,0.7,1.1,1,1.8,1c0.4,0,0.7-0.1,1-0.3l4.5-2.6l-1.3,4.9c-0.3,1.1,0.4,2.2,1.5,2.5
		c0.2,0,0.4,0.1,0.5,0.1c0.9,0,1.8-0.6,2-1.5l2.4-8.9l3.4-2l3.2,1.8v4l-6.5,6.5c-0.8,0.8-0.8,2.1,0,2.9c0.4,0.4,0.9,0.6,1.5,0.6
		c0.5,0,1.1-0.2,1.5-0.6l3.6-3.6v5.2c0,1.1,0.9,2.1,2.1,2.1c1.1,0,2.1-0.9,2.1-2.1v-5.2l3.6,3.6c0.4,0.4,0.9,0.6,1.5,0.6
		c0.5,0,1.1-0.2,1.5-0.6c0.8-0.8,0.8-2.1,0-2.9l-6.5-6.5v-4l3.2-1.9l3.4,2l2.4,8.9c0.2,0.9,1.1,1.5,2,1.5c0.2,0,0.4,0,0.5-0.1
		c1.1-0.3,1.8-1.4,1.5-2.5l-1.3-4.9l4.5,2.6c0.3,0.2,0.7,0.3,1,0.3c0.7,0,1.4-0.4,1.8-1c0.6-1,0.2-2.3-0.8-2.8l-4.5-2.6l4.9-1.3
		c1.1-0.3,1.8-1.4,1.5-2.5C51.9,31.8,50.8,31.1,49.7,31.4L49.7,31.4z M33.2,31.8L30,33.7l-3.2-1.9l0-3.7l3.2-1.9l3.2,1.9V31.8z
		 M33.2,31.8"/>
</g>
</svg>
