<?xml version="1.0" encoding="iso-8859-1"?>
<!-- Generator: Adobe Illustrator 19.0.0, SVG Export Plug-In . SVG Version: 6.00 Build 0)  -->
<svg version="1.1" id="Capa_1" xmlns="http://www.w3.org/2000/svg" xmlns:xlink="http://www.w3.org/1999/xlink" x="0px" y="0px"
	 viewBox="0 0 150.135 144.063" style="enable-background:new 0 0 150.135 144.063;" xml:space="preserve">
<g id="XMLID_1061_">
	<g id="XMLID_1295_">
		<g id="XMLID_324_">
			<path id="XMLID_1715_" style="fill:#FFFFFF;" d="M0,141.439v-35.564c1.507-0.295,3.088-0.528,4.744-0.7
				c1.655-0.172,3.244-0.258,4.768-0.258c6.03,0,10.56,1.528,13.592,4.584c3.031,3.056,4.547,7.714,4.547,13.972
				c0,6.341-1.577,11.007-4.731,13.997c-3.154,2.99-7.918,4.485-14.292,4.485C5.907,141.955,3.031,141.783,0,141.439z
				 M17.303,136.99c2.081-1.032,3.641-2.659,4.682-4.879c1.04-2.22,1.561-5.1,1.561-8.639c0-5.243-1.139-9.077-3.416-11.502
				c-2.278-2.425-5.776-3.638-10.495-3.638c-1.72,0-3.605,0.155-5.653,0.467v29.42c1.638,0.213,3.449,0.32,5.432,0.32
				C12.592,138.539,15.222,138.023,17.303,136.99z"/>
			<path id="XMLID_1718_" style="fill:#FFFFFF;" d="M37.113,137.74c-2.851-2.925-4.277-7.656-4.277-14.194
				c0-6.406,1.45-11.129,4.35-14.169s7.07-4.56,12.51-4.56c2.654,0,5.276,0.352,7.865,1.057v3.49
				c-2.507-0.721-5.08-1.082-7.718-1.082c-2.835,0-5.19,0.501-7.066,1.499c-1.876,1-3.302,2.614-4.276,4.842
				c-0.975,2.229-1.462,5.17-1.462,8.823c0,3.753,0.492,6.747,1.475,8.984c0.983,2.236,2.392,3.834,4.227,4.792
				c1.835,0.959,4.121,1.438,6.857,1.438c1.343,0,2.65-0.107,3.92-0.32c1.27-0.213,2.618-0.565,4.043-1.057v3.49
				c-2.556,0.901-5.309,1.352-8.258,1.352C44.027,142.127,39.964,140.665,37.113,137.74z"/>
			<path id="XMLID_1721_" style="fill:#FFFFFF;" d="M71.127,141.66v-32.886H59.035v-3.49H87.25v3.49H75.134v32.886H71.127z"/>
			<path id="XMLID_1725_" style="fill:#FFFFFF;" d="M92.252,137.556c-2.663-3.047-3.994-7.742-3.994-14.083
				c0-4.277,0.618-7.799,1.856-10.568c1.237-2.769,2.982-4.809,5.235-6.12c2.253-1.31,4.92-1.966,8-1.966
				c4.735,0,8.434,1.524,11.097,4.571c2.662,3.048,3.994,7.742,3.994,14.083c0,4.261-0.619,7.779-1.856,10.557
				c-1.237,2.777-2.978,4.821-5.223,6.132c-2.245,1.311-4.916,1.966-8.013,1.966C98.614,142.127,94.915,140.603,92.252,137.556z
				 M111.46,135.135c1.9-2.368,2.851-6.214,2.851-11.539c0-5.44-0.951-9.356-2.851-11.749c-1.901-2.392-4.605-3.588-8.111-3.588
				c-3.49,0-6.19,1.184-8.098,3.551c-1.909,2.367-2.863,6.214-2.863,11.539c0,5.44,0.95,9.356,2.851,11.748
				c1.901,2.392,4.604,3.589,8.111,3.589C106.855,138.686,109.559,137.502,111.46,135.135z"/>
			<path id="XMLID_1728_" style="fill:#FFFFFF;" d="M122.938,141.242c-0.525-0.491-0.786-1.155-0.786-1.991
				c0-0.835,0.258-1.503,0.774-2.003c0.516-0.5,1.2-0.75,2.052-0.75c0.852,0,1.54,0.255,2.064,0.762
				c0.524,0.508,0.787,1.172,0.787,1.99c0,0.82-0.262,1.48-0.787,1.979c-0.525,0.5-1.213,0.75-2.064,0.75
				C124.142,141.98,123.462,141.734,122.938,141.242z"/>
		</g>
		<polygon id="XMLID_1241_" style="fill:#3485AD;" points="150.135,35.824 127.647,45.862 124.107,34.931 		"/>
		<g id="XMLID_770_">
			<path id="XMLID_867_" style="fill:#FFFFFF;" d="M50.595,58.633c3.004,3.501,4.506,8.007,4.506,13.519
				c0,7.758-2.758,13.749-8.271,17.969c-5.515,4.221-13.653,6.332-24.415,6.332c-7.606,0-14.756-1.009-21.448-3.024v-11.58
				c3.232,0.989,6.683,1.75,10.353,2.283c3.67,0.532,7.178,0.798,10.524,0.798c12.587,0,18.881-4.544,18.881-13.633
				c0-4.372-1.503-7.69-4.506-9.955c-3.005-2.261-7.739-3.393-14.204-3.393h-11.58V46.312h8.157c6.465,0,11.266-1.112,14.404-3.336
				c3.137-2.225,4.706-5.449,4.706-9.669c0-7.947-5.419-11.922-16.257-11.922c-3.194,0-6.417,0.267-9.669,0.799
				c-3.251,0.532-6.303,1.312-9.155,2.339V12.999c2.661-0.949,5.837-1.711,9.526-2.281c3.688-0.57,7.302-0.855,10.838-0.855
				c9.62,0,16.922,1.92,21.904,5.762c4.982,3.84,7.473,9.317,7.473,16.428c0,4.791-1.303,8.898-3.908,12.321
				c-2.605,3.421-6.227,5.838-10.867,7.243C43.255,52.798,47.591,55.136,50.595,58.633z"/>
			<path id="XMLID_898_" style="fill:#FFFFFF;" d="M73.096,85.93c-5.458-7.016-8.186-17.94-8.186-32.771
				c0-14.869,2.719-25.803,8.157-32.801c5.438-6.996,13.214-10.495,23.33-10.495c10.116,0,17.883,3.499,23.302,10.495
				c5.419,6.998,8.129,17.931,8.129,32.801c0,14.831-2.719,25.755-8.157,32.771c-5.439,7.016-13.196,10.525-23.274,10.525
				C86.32,96.454,78.553,92.946,73.096,85.93z M105.354,80.995c2.396-1.902,4.24-5.096,5.533-9.584
				c1.293-4.486,1.94-10.533,1.94-18.139c0-7.682-0.647-13.785-1.94-18.311c-1.293-4.526-3.137-7.738-5.533-9.641
				c-2.396-1.9-5.382-2.851-8.956-2.851c-3.575,0-6.56,0.951-8.955,2.851c-2.396,1.904-4.241,5.098-5.534,9.584
				c-1.293,4.488-1.939,10.535-1.939,18.139c0,7.684,0.637,13.786,1.911,18.312c1.274,4.526,3.109,7.738,5.505,9.64
				c2.396,1.902,5.4,2.853,9.013,2.853C99.972,83.848,102.958,82.897,105.354,80.995z"/>
		</g>
		<path id="XMLID_762_" style="fill:#3FA7F3;" d="M150.135,35.824h-27.714c-4.479,0-8.111-3.631-8.111-8.111V0l26.848,0
			c4.957,0,8.976,4.019,8.976,8.976V35.824z"/>
		<path id="XMLID_1076_" style="fill:#FFFFFF;" d="M122.027,18.648c-0.85-1.051-1.275-2.684-1.275-4.899
			c0-2.214,0.423-3.847,1.268-4.898c0.846-1.051,2.011-1.577,3.497-1.577c1.486,0,2.651,0.526,3.497,1.577
			c0.846,1.051,1.268,2.684,1.268,4.898c0,2.215-0.425,3.847-1.275,4.899c-0.85,1.051-2.014,1.577-3.49,1.577
			C124.04,20.225,122.877,19.699,122.027,18.648z M127.647,17.513c0.505-0.752,0.757-1.997,0.757-3.735
			c0-1.756-0.252-3.013-0.757-3.77c-0.505-0.757-1.215-1.135-2.13-1.135c-0.916,0-1.624,0.377-2.123,1.129
			c-0.5,0.752-0.75,1.997-0.75,3.735c0,1.747,0.25,3.001,0.75,3.763c0.5,0.762,1.208,1.142,2.123,1.142
			C126.432,18.641,127.143,18.265,127.647,17.513z M126.666,28.284l9.138-20.743h1.976l-9.138,20.743H126.666z M135.433,26.959
			c-0.846-1.051-1.268-2.684-1.268-4.898c0-2.215,0.423-3.847,1.268-4.899c0.846-1.051,2.011-1.577,3.497-1.577
			c1.486,0,2.651,0.526,3.497,1.577c0.846,1.051,1.268,2.684,1.268,4.899c0,2.214-0.425,3.847-1.275,4.898
			c-0.85,1.051-2.014,1.577-3.49,1.577C137.444,28.536,136.278,28.011,135.433,26.959z M141.053,25.824
			c0.5-0.752,0.75-1.997,0.75-3.735c0-1.757-0.252-3.014-0.757-3.77s-1.21-1.135-2.116-1.135c-0.916,0-1.626,0.376-2.13,1.128
			c-0.505,0.752-0.757,1.997-0.757,3.735c0,1.747,0.254,3.002,0.764,3.763c0.509,0.762,1.217,1.142,2.123,1.142
			C139.845,26.952,140.553,26.576,141.053,25.824z"/>
	</g>
</g>
<g id="XMLID_53_">
</g>
<g id="XMLID_54_">
</g>
<g id="XMLID_55_">
</g>
<g id="XMLID_56_">
</g>
<g id="XMLID_57_">
</g>
<g id="XMLID_58_">
</g>
<g id="XMLID_59_">
</g>
<g id="XMLID_60_">
</g>
<g id="XMLID_61_">
</g>
<g id="XMLID_62_">
</g>
<g id="XMLID_63_">
</g>
<g id="XMLID_64_">
</g>
<g id="XMLID_65_">
</g>
<g id="XMLID_66_">
</g>
<g id="XMLID_67_">
</g>
</svg>
