<?xml version="1.0" encoding="utf-8"?>
<!-- Generator: Adobe Illustrator 19.0.0, SVG Export Plug-In . SVG Version: 6.00 Build 0)  -->
<svg version="1.1" id="Capa_1" xmlns="http://www.w3.org/2000/svg" xmlns:xlink="http://www.w3.org/1999/xlink" x="0px" y="0px"
	 viewBox="-5 26.3 89 48.7" style="enable-background:new -5 26.3 89 48.7;" xml:space="preserve">
<style type="text/css">
	.st0{fill-rule:evenodd;clip-rule:evenodd;fill:#FFFFFF;}
	.st1{fill-rule:evenodd;clip-rule:evenodd;fill:#00587A;}
</style>
<g id="XMLID_97_">
	<path id="XMLID_2485_" class="st0" d="M39.5,33.9c23.5,0,42.7,7.4,42.7,16.5c0,9.1-19.2,16.5-42.7,16.5C16,66.8-3.2,59.4-3.2,50.3
		C-3.2,41.3,16,33.9,39.5,33.9L39.5,33.9z M71.1,67.1v-2.3H72c0.2,0,0.3,0,0.4,0.1c0.1,0,0.2,0.1,0.2,0.2c0.1,0.1,0.1,0.2,0.1,0.4
		c0,0.2,0,0.3-0.1,0.4c-0.1,0.1-0.2,0.2-0.4,0.2c0.1,0,0.1,0.1,0.2,0.1c0.1,0.1,0.2,0.2,0.2,0.3l0.3,0.6h-0.3l-0.3-0.5
		c-0.1-0.1-0.1-0.2-0.2-0.3c0-0.1-0.1-0.1-0.1-0.2c0,0-0.1-0.1-0.1-0.1c0,0-0.1,0-0.1,0h-0.3v1H71.1L71.1,67.1z M71.4,65.8H72
		c0.1,0,0.2,0,0.3,0c0.1,0,0.1-0.1,0.2-0.1c0-0.1,0.1-0.1,0.1-0.2c0-0.1,0-0.2-0.1-0.3C72.3,65.1,72.2,65,72,65h-0.6V65.8L71.4,65.8
		z M71.9,63.8c1.2,0,2.1,0.9,2.1,2.1c0,1.2-0.9,2.1-2.1,2.1c-1.2,0-2.1-0.9-2.1-2.1C69.8,64.8,70.7,63.8,71.9,63.8L71.9,63.8z
		 M71.9,64.1c1,0,1.8,0.8,1.8,1.8c0,1-0.8,1.8-1.8,1.8c-1,0-1.8-0.8-1.8-1.8C70.1,64.9,70.9,64.1,71.9,64.1L71.9,64.1z"/>
	<path id="XMLID_2482_" class="st1" d="M39.5,36.1c22.6,0,41.1,6.7,41.1,14.9c0,8.2-18.5,14.9-41.1,14.9C16.9,65.9-1.6,59.2-1.6,51
		C-1.6,42.8,16.9,36.1,39.5,36.1L39.5,36.1z M39.5,37.6c22.2,0,40.2,6,40.2,13.3c0,7.3-18.1,13.3-40.2,13.3
		c-22.2,0-40.2-6-40.2-13.3C-0.7,43.6,17.3,37.6,39.5,37.6L39.5,37.6z"/>
	<path id="XMLID_2463_" class="st1" d="M57.5,56.5c-0.7,0.5-1.5,0.7-2.2,0.7c-1,0-1.7-0.3-2.2-0.9c-1.2-1.5-0.2-4.6,1-6
		c2-2.5,6.7-3.5,6.6,0.1c-0.1,2.6-3.9,2.8-5.9,3.2c-0.1,0.7,0,1.2,0.2,1.7c0.4,0.7,1.5,1.2,2.6,0.3C60,53.9,59.2,55.4,57.5,56.5
		L57.5,56.5z M54.7,52.9c1.7-0.1,4.3-1.3,3.9-2.7C58.1,47.9,55,50.5,54.7,52.9L54.7,52.9z M31.4,56.2l1.9-5.4
		c0.2-0.6,0.4-1.9-0.6-0.7c-1.4,1.8-0.4-0.4,0.3-1c0.6-0.5,1.1-0.8,1.6-0.8c0.3,0,0.6,0.1,0.7,0.3c0.1,0.2,0.1,0.7,0.1,1.1
		c0,0.3-0.1,0.5-0.2,0.8s-0.2,0.6-0.3,1l0.1,0.1c0.6-1.1,1.1-1.9,1.7-2.5c0.6-0.5,1.1-0.8,1.7-0.8c0.4,0,0.6,0.1,0.9,0.4
		c0.2,0.2,0.3,0.5,0.3,0.9c-0.2,1.7-1.8,1.2-2.4,0.1c-0.4,0.2-0.8,0.7-1.2,1.3c-0.4,0.6-0.8,1.5-1.2,2.6l-1,2.7
		C33,57.6,30.9,57.6,31.4,56.2L31.4,56.2z M39.8,56.2l1.9-5.4c0.2-0.6,0.4-1.9-0.6-0.7c-1.4,1.8-0.4-0.4,0.3-1
		c0.6-0.5,1.1-0.8,1.6-0.8c0.3,0,0.6,0.1,0.7,0.3c0.1,0.2,0.1,0.7,0.1,1.1c0,0.3-0.1,0.5-0.2,0.8c-0.1,0.3-0.2,0.6-0.3,1l0.1,0.1
		c0.6-1.1,1.1-1.9,1.7-2.5c0.6-0.5,1.1-0.8,1.7-0.8c0.4,0,0.6,0.1,0.9,0.4c0.2,0.2,0.3,0.5,0.3,0.9c-0.2,1.7-1.8,1.2-2.4,0.1
		c-0.4,0.2-0.8,0.7-1.2,1.3c-0.4,0.6-0.8,1.5-1.2,2.6l-1,2.7C41.4,57.6,39.3,57.6,39.8,56.2L39.8,56.2z M61.3,56.2l1.9-5.4
		c0.2-0.6,0.4-1.9-0.6-0.7c-1.4,1.8-0.4-0.4,0.3-1c0.6-0.5,1.1-0.8,1.6-0.8c0.3,0,0.6,0.1,0.7,0.3c0.1,0.2,0.1,0.7,0.1,1.1
		c0,0.3-0.1,0.5-0.2,0.8s-0.2,0.6-0.3,1l0.1,0.1c0.6-1.1,1.1-1.9,1.7-2.5c0.6-0.5,1.1-0.8,1.7-0.8c0.4,0,0.6,0.1,0.9,0.4
		c0.2,0.2,0.3,0.5,0.3,0.9c-0.2,1.7-1.8,1.2-2.4,0.1c-0.4,0.2-0.8,0.7-1.2,1.3c-0.4,0.6-0.8,1.5-1.2,2.6l-1,2.7
		C63,57.6,60.8,57.6,61.3,56.2L61.3,56.2z M25.6,54.9c-0.6,0.8-1.2,1.4-1.8,1.8c-0.5,0.4-1.1,0.6-1.6,0.6c-0.7,0-1.2-0.3-1.5-0.8
		c-0.3-0.5-0.4-1.2-0.3-2.1c0.1-0.8,0.4-1.5,0.8-2.3c0.4-0.8,1-1.5,1.6-2.1c0.5-0.5,1.1-1,1.8-1.3c0.6-0.3,1.3-0.5,1.8-0.5
		c0.3,0,0.6,0.1,0.9,0.2c0.3,0.1,0.5,0.2,0.5,0.2c0.3-0.6,2.2-0.7,1.8,0.2l-2.5,6.3c-0.3,0.8,0.1,1.1,0.8,0.4c0.2-0.2,1.9-2,0.9-0.4
		c-0.5,0.7-0.7,1-1.2,1.4c-0.5,0.5-1.1,0.7-1.6,0.7C24.7,57.2,25.3,55.7,25.6,54.9L25.6,54.9z M26.6,49c-2.1,0-5.3,6.3-3.3,6.3
		C25.5,55.4,28.4,49,26.6,49L26.6,49z M50.4,55.7c-0.3,0.6-1.6,1.6-2.3,1.6c-1.5-0.1-1.2-1.8-0.9-2.7l1.8-5.1c0.6-1.8,2.2-1,1.7,0.4
		c-0.4,1.2-0.8,2.6-1.3,3.7c-0.4,1-0.6,1.6-0.6,1.8C48.7,57.5,52.1,52.7,50.4,55.7L50.4,55.7z M51.3,45c0.6,0,1,0.6,0.9,1.3
		c-0.1,0.7-0.8,1.3-1.4,1.3c-0.6,0-1-0.6-0.9-1.3C50,45.6,50.6,45,51.3,45L51.3,45z M18,55.9c-0.7,0.5-1.5,0.8-2.4,1.1
		c-6,1.7-8-5.4-3.6-9.2c1.6-1.4,3.6-2.3,5.6-2.8c2.4-0.6,4.7-0.4,4.7,1.4c0,0.6-0.6,1.1-1.3,1.1c-0.7,0-1.3-0.6-1.3-1.1
		c0-0.5,0.1-0.6,0.3-0.8c-3.3-0.5-7.4,2-8.1,6.6c-0.3,1.9,0.9,4,3.2,3.8c0.4,0,1.8-0.3,2.9-1.2C18.8,54.3,19.5,54.8,18,55.9L18,55.9
		z"/>
</g>
</svg>
