<?xml version="1.0" encoding="utf-8"?>
<!-- Generator: Adobe Illustrator 19.0.0, SVG Export Plug-In . SVG Version: 6.00 Build 0)  -->
<svg version="1.1" id="Capa_1" xmlns="http://www.w3.org/2000/svg" xmlns:xlink="http://www.w3.org/1999/xlink" x="0px" y="0px"
	 viewBox="0 0 100 100" style="enable-background:new 0 0 100 100;" xml:space="preserve">
<style type="text/css">
	.st0{fill:#FFFFFF;}
</style>
<g id="XMLID_968_">
	<path id="XMLID_997_" class="st0" d="M85.6,75.3c0.3,0.2,0.7,0.4,0.9,0.7c0.5,0.5,0.7,1.4,0.6,2.2l0,0.5c-0.2,2.7-0.5,5.6-0.8,8.9
		c-0.2,2.2-2.2,4.7-4.1,5c-5.4,0.9-11.1,0.9-16.5,0c-1.9-0.3-4-2.8-4.2-5c-0.3-3.7-0.6-6.7-0.8-9.4c-0.1-0.8,0.2-1.6,0.6-2.1
		c0.5-0.6,1.2-1,2-1h8.4c-3.6-1-7.3-2.7-10.9-4.6c-1.3,0.4-2.5,1.1-3.4,2.2c-1.5,1.7-2.2,3.8-2,6.1l0.1,1.1l-0.2-0.1
		c-1.8-0.4-3.7-0.4-5.5,0l-0.2,0.1l0.1-1.1c0.2-2.3-0.5-4.4-2-6.1c-1.5-1.7-3.7-2.7-6.1-2.7H12.8c-1.5,0-2.7,1.2-2.7,2.6
		c0,1.3,1,2.4,2.3,2.6l0.2,0l-0.1,0.2c-0.3,1-0.5,2.1-0.4,3.2c0.3,3.2,0.6,6.4,0.8,9.4c0.4,4.6,4.3,9.1,8.6,9.8c6,1,12.4,1,18.4,0
		c4.2-0.8,8.2-5.3,8.6-9.8l0.2-2.1l0.1,0c2.1-1.4,4.9-1.5,6.9-0.1l0.1,0l0.2,2.3c0.4,4.6,4.3,9.1,8.6,9.9c3,0.5,6.1,0.8,9.2,0.8
		c3.1,0,6.2-0.3,9.2-0.8c4.3-0.8,8.1-5.2,8.6-9.9c0.3-3.2,0.6-6.3,0.8-9.4c0.1-1.1,0-2.2-0.4-3.2L92,75.2l0.2,0
		c1.3-0.2,2.3-1.3,2.3-2.6c0-0.9-0.4-1.6-1.1-2.1C91.2,72.8,88.5,74.4,85.6,75.3z M44.1,78.1c-0.2,2.7-0.5,5.7-0.8,9.4
		c-0.2,2.2-2.3,4.7-4.1,5c-5.4,0.9-11.1,0.9-16.5,0c-1.9-0.3-4-2.8-4.2-5l-0.8-9.5c-0.1-0.8,0.1-1.5,0.6-2c0.5-0.6,1.2-1,2-1h21.2
		c0.8,0,1.6,0.4,2.1,1C44,76.6,44.2,77.3,44.1,78.1L44.1,78.1z"/>
	<path id="XMLID_991_" class="st0" d="M16.1,57.9c1-10.3,4.7-14,9.9-14c13.5,0,37.5,24.5,53.4,24.5c4.2,0,7.8-1.7,10.5-6
		c11.5-18.5-0.2-44.2-5.8-54.4c-0.2-0.4-0.7-0.6-1.1-0.6c-0.6,0-1.3,0.3-1.3,1.1C81.7,19.3,76.3,23,69,23c0,0,0,0,0,0
		c3.7,0,6.3-3.5,6.8-8.3c0-0.2-0.2-0.5-0.3-0.5c-0.1,0-0.3,0.2-0.3,0.3c-1.5,5-5.7,6.8-11.1,6.8c-2.6,0-5.4-0.4-8.3-1.1
		C41.7,15.3,27.2,5.1,27.2,5.1s-5.6-3.4-11.3-3.4c-4.6,0-9.3,2.3-11,10.5C1.8,26.5,10.2,49,14,58.3c0.2,0.5,0.6,0.7,1,0.7
		C15.5,58.9,16,58.6,16.1,57.9z"/>
</g>
</svg>
