<?xml version="1.0" encoding="utf-8"?>
<!-- Generator: Adobe Illustrator 19.0.0, SVG Export Plug-In . SVG Version: 6.00 Build 0)  -->
<svg version="1.1" id="Capa_1" xmlns="http://www.w3.org/2000/svg" xmlns:xlink="http://www.w3.org/1999/xlink" x="0px" y="0px"
	 viewBox="0 0 89 48.7" style="enable-background:new 0 0 89 48.7;" xml:space="preserve">
<style type="text/css">
	.st0{fill-rule:evenodd;clip-rule:evenodd;fill:#FFFFFF;}
</style>
<path id="XMLID_2293_" class="st0" d="M39.1,35.6l-2.6-16.1h-3.4l0.3,2.5c-0.1,4.3-1.5,8.2-3.8,11l-1.9-13.5h-3.4
	c-1.1,11.8-5,14.8-10.6,16.2c6.5,0.3,10-3.2,11.8-7.6l1.2,7.7c-1.8,1.3-3.9,2.1-6.3,2.3c-8,0.8-15.9-3.9-18.2-11.6
	c0.8,7.9,7.6,14.1,16,14.1c8.1,0,14.8-5.8,15.9-13.4l1.1,8.3H39.1L39.1,35.6z M85.1,18.9h-0.3v0.6h0.3c0.2,0,0.3,0,0.4-0.1
	c0.1,0,0.1-0.1,0.1-0.2c0-0.1,0-0.2-0.1-0.3C85.4,18.9,85.2,18.9,85.1,18.9L85.1,18.9z M85.1,18.7c0.3,0,0.5,0,0.6,0.1
	c0.1,0.1,0.2,0.2,0.2,0.4c0,0.1,0,0.3-0.1,0.3c-0.1,0.1-0.2,0.2-0.3,0.2l0.4,0.9h-0.4l-0.4-0.8h-0.4v0.8h-0.4v-2H85.1L85.1,18.7z
	 M86.6,19.7c0-0.2,0-0.4-0.1-0.6c-0.1-0.2-0.2-0.3-0.3-0.5c-0.1-0.1-0.3-0.3-0.5-0.3c-0.2-0.1-0.4-0.1-0.6-0.1c-0.2,0-0.4,0-0.6,0.1
	c-0.2,0.1-0.3,0.2-0.5,0.3c-0.1,0.1-0.3,0.3-0.3,0.5c-0.1,0.2-0.1,0.4-0.1,0.6c0,0.2,0,0.4,0.1,0.6c0.1,0.2,0.2,0.3,0.3,0.5
	c0.1,0.1,0.3,0.3,0.5,0.3c0.2,0.1,0.4,0.1,0.6,0.1c0.2,0,0.4,0,0.6-0.1c0.2-0.1,0.3-0.2,0.5-0.3c0.1-0.1,0.2-0.3,0.3-0.5
	C86.6,20.1,86.6,19.9,86.6,19.7L86.6,19.7z M85.1,18c0.2,0,0.5,0,0.7,0.1c0.2,0.1,0.4,0.2,0.6,0.4c0.2,0.2,0.3,0.3,0.4,0.6
	c0.1,0.2,0.1,0.4,0.1,0.7c0,0.2,0,0.5-0.1,0.7c-0.1,0.2-0.2,0.4-0.4,0.6c-0.2,0.2-0.4,0.3-0.6,0.4c-0.2,0.1-0.4,0.1-0.7,0.1
	c-0.2,0-0.5,0-0.7-0.1c-0.2-0.1-0.4-0.2-0.6-0.4c-0.2-0.2-0.3-0.4-0.4-0.6c-0.1-0.2-0.1-0.4-0.1-0.7c0-0.2,0-0.4,0.1-0.7
	c0.1-0.2,0.2-0.4,0.4-0.6c0.2-0.2,0.3-0.3,0.5-0.4C84.6,18,84.8,18,85.1,18L85.1,18z M83.5,27.4c-0.2-2.7-2.3-3.7-4.9-3.7
	c-2,0.1-4.1,1.1-4.9,3.6l1.3,0.4c1.1-2.9,5.8-2.7,5.9,0.2v0.5c-0.6-0.3-1.4-0.5-2.6-0.4c-2.9,0-4.7,1.7-4.8,3.9
	c-0.1,2.2,1.4,3.9,4.4,3.9c1.4,0,2.4-0.4,3-1v0.8h2.5V27.4L83.5,27.4z M79,29.9c0.8,0,1.5,0.1,2,0.5v2.9c-0.5,0.3-1.2,0.6-2.2,0.6
	c-1.6,0-2.7-0.9-2.7-2C76.2,30.8,77.4,29.9,79,29.9L79,29.9z M65.9,23.8c3.3,0,5.9,2.5,5.9,6.1c0,0.2,0,0.5,0,0.7h-8.7
	c0.5,1.9,1.9,2.8,4.3,2.7c1.6-0.1,2.5-0.7,2.9-1.4h1.3c-0.5,2.2-2,3.9-5.2,4c-4,0-6.4-2.6-6.4-5.9C59.9,26.5,62.6,23.8,65.9,23.8
	L65.9,23.8z M66,26.1c1.6,0,2.4,1,2.8,2.4h-5.7C63.6,27.1,64.4,26.1,66,26.1L66,26.1z M5,29.4c0,0-3.5-5.1-0.5-11.9
	c1.9-4.4,5.4-7.6,10.1-8.9c7.8-2.1,16.2,1.9,19,9.6c0,0-4.4-7.6-14.5-7C9.7,11.7,3.2,20.3,5,29.4L5,29.4z M52.6,26.2
	c1,0,1.9,0.4,2.5,1.1v4.9c-0.6,0.7-1.5,1.1-2.5,1.1c-1.9,0-3.4-1.6-3.4-3.6C49.2,27.8,50.7,26.2,52.6,26.2L52.6,26.2z M55.1,19.4h3
	v16.2h-3v-1.1c-1,0.9-2.3,1.4-3.7,1.4c-3.1,0-5.4-2.7-5.2-6.1s2.5-6.1,5.9-6.1c1.1,0,2.1,0.4,3,1V19.4L55.1,19.4z M41,23.7h2.9v11.9
	H41V23.7L41,23.7z M41,19.4h2.9v2.9H41V19.4L41,19.4z"/>
</svg>
