<?xml version="1.0" encoding="utf-8"?>
<!-- Generator: Adobe Illustrator 19.0.0, SVG Export Plug-In . SVG Version: 6.00 Build 0)  -->
<svg version="1.1" id="Capa_1" xmlns="http://www.w3.org/2000/svg" xmlns:xlink="http://www.w3.org/1999/xlink" x="0px" y="0px"
	 viewBox="0 0 229.2 48.7" style="enable-background:new 0 0 229.2 48.7;" xml:space="preserve">
<style type="text/css">
	.st0{fill:#FFFFFF;}
	.st1{fill:#F8A61B;}
	.st2{fill-rule:evenodd;clip-rule:evenodd;fill:#DF0612;}
	.st3{fill-rule:evenodd;clip-rule:evenodd;fill:#312781;}
	.st4{fill:#312781;}
	.st5{fill-rule:evenodd;clip-rule:evenodd;fill:#06326E;}
	.st6{fill-rule:evenodd;clip-rule:evenodd;fill:#FAB31E;}
	.st7{fill-rule:evenodd;clip-rule:evenodd;fill:#E40520;}
	.st8{fill-rule:evenodd;clip-rule:evenodd;fill:#FFFFFF;}
	.st9{fill:none;}
	.st10{fill:#06326E;}
	.st11{fill-rule:evenodd;clip-rule:evenodd;fill:#A4A4AB;}
	.st12{fill-rule:evenodd;clip-rule:evenodd;fill:#3F3388;}
	.st13{fill-rule:evenodd;clip-rule:evenodd;fill:#2564AB;}
	.st14{fill:#2564AB;}
	.st15{fill:#F3A135;}
	.st16{fill:#306EB2;}
</style>
<g id="XMLID_2323_">
	<g id="XMLID_2835_">
		<g id="XMLID_2836_">
			<path id="XMLID_2865_" class="st0" d="M1.3,6.3h4.2l3.5,10.3l3.7-10.3h2.6l3.7,10.2l3.5-10.2h4.3l-6.3,18.1h-2.7l-3.7-10.3
				l-3.8,10.3H7.5L1.3,6.3z"/>
			<path id="XMLID_2862_" class="st0" d="M42.6,16.7H28c0.2,1.3,0.8,2.3,1.7,3.1c0.9,0.8,2.1,1.1,3.5,1.1c1.7,0,3.2-0.6,4.4-1.8
				c0,0,2.9,0,4.4,0c0,1-0.6,1.8-0.6,1.8c-1,1.4-2.1,2.4-3.4,3c-1.3,0.6-2.9,1-4.7,1c-2.8,0-5.2-0.9-6.9-2.7c-1.8-1.8-2.7-4-2.7-6.7
				c0-2.8,0.9-5.1,2.7-6.9c1.8-1.8,4-2.7,6.7-2.7c2.9,0,5.2,0.9,7,2.7c1.8,1.8,2.7,4.2,2.7,7.2L42.6,16.7z M38,13.1
				c-0.3-1-0.9-1.8-1.8-2.5c-0.9-0.6-1.9-0.9-3.1-0.9c-1.3,0-2.4,0.4-3.3,1.1c-0.6,0.4-1.2,1.2-1.7,2.3H38z"/>
			<path id="XMLID_2859_" class="st0" d="M46.7,0.3v8c0.8-0.8,1.7-1.4,2.7-1.8c1-0.4,2-0.6,3.1-0.6c2.4,0,4.4,0.9,6,2.7
				c1.7,1.8,2.5,4.1,2.5,6.9c0,2.7-0.9,5-2.6,6.8c-1.7,1.8-3.7,2.7-6.1,2.7c-1,0-2-0.2-2.9-0.6c-0.9-0.4-1.8-1-2.7-1.8v1.9h-4.5V0.3
				H46.7z M51.5,10.1c-1.4,0-2.6,0.5-3.6,1.5c-0.9,1-1.4,2.3-1.4,3.8c0,1.6,0.5,2.9,1.4,3.9c0.9,1,2.1,1.5,3.6,1.5
				c1.4,0,2.6-0.5,3.5-1.5c0.9-1,1.4-2.3,1.4-3.9c0-1.6-0.5-2.8-1.4-3.8C54.1,10.5,52.9,10.1,51.5,10.1z"/>
			<path id="XMLID_2851_" class="st1" d="M12,24.2v1.9c0.8-0.8,1.7-1.4,2.6-1.8c0.9-0.4,1.9-0.6,3-0.6c2.3,0,4.3,0.9,5.9,2.6
				c1.6,1.7,2.4,4,2.4,6.7c0,2.6-0.8,4.8-2.5,6.6c-1.7,1.8-3.6,2.7-5.9,2.7c-1,0-2-0.2-2.8-0.5c-0.9-0.4-1.7-1-2.6-1.8v7.7H7.6V24.2
				H12z M16.6,27.8c-1.4,0-2.6,0.5-3.5,1.4c-0.9,1-1.4,2.2-1.4,3.7c0,1.6,0.5,2.8,1.4,3.8c0.9,1,2.1,1.5,3.5,1.5
				c1.4,0,2.5-0.5,3.4-1.5c0.9-1,1.4-2.2,1.4-3.8c0-1.5-0.5-2.8-1.4-3.7C19.1,28.3,18,27.8,16.6,27.8z"/>
			<path id="XMLID_2843_" class="st1" d="M39.4,24.2h3.9v17.7h-3.9V40c-0.9,0.8-1.8,1.4-2.8,1.8c-0.9,0.4-1.9,0.5-3,0.5
				c-2.4,0-4.5-0.9-6.3-2.7c-1.8-1.8-2.6-4-2.6-6.6c0-2.7,0.9-5,2.6-6.7c1.7-1.7,3.8-2.6,6.2-2.6c1.1,0,2.2,0.2,3.2,0.6
				c1,0.4,1.9,1,2.7,1.8V24.2z M34.5,27.8c-1.5,0-2.7,0.5-3.6,1.5c-1,1-1.4,2.2-1.4,3.7c0,1.5,0.5,2.8,1.5,3.8c1,1,2.2,1.5,3.6,1.5
				c1.5,0,2.7-0.5,3.7-1.5c1-1,1.5-2.2,1.5-3.8c0-1.5-0.5-2.8-1.5-3.7C37.2,28.3,36,27.8,34.5,27.8z"/>
			<path id="XMLID_2837_" class="st1" d="M43.3,24.2h4.5l4.6,11.1l5.1-11.1H62L50.9,48.3h-4.6l3.6-7.8L43.3,24.2z"/>
		</g>
	</g>
	<g id="XMLID_2324_">
		<g id="XMLID_2815_">
			<polygon id="XMLID_2834_" class="st2" points="71.3,27.2 111.8,27.2 107.1,44.2 71.3,44.2 71.3,27.2 			"/>
			<polygon id="XMLID_2833_" class="st3" points="155.4,27.2 150.6,44.2 107.1,44.2 111.8,27.2 155.4,27.2 			"/>
			<path id="XMLID_2823_" class="st0" d="M117.9,35.3c0.1-0.6,0.1-1,0.1-1.4c0-0.4-0.1-0.7-0.2-1c-0.1-0.3-0.2-0.5-0.4-0.6
				c-0.2-0.1-0.4-0.3-0.6-0.3c-0.2-0.1-0.4-0.1-0.6-0.1c-0.4,0-0.8,0.1-1.2,0.3c-0.4,0.2-0.8,0.4-1.1,0.8c-0.3,0.4-0.7,0.8-1,1.4
				c-0.3,0.6-0.5,1.3-0.8,2.1c-0.2,0.8-0.3,1.5-0.4,2.1c0,0.6,0,1.1,0.2,1.4c0.1,0.4,0.3,0.7,0.6,0.8c0.3,0.2,0.6,0.3,1,0.3
				c0.4,0,0.7,0,1-0.2c0.3-0.1,0.7-0.3,1-0.6c0.3-0.3,0.6-0.7,0.9-1.1c0.3-0.5,0.6-1.1,0.8-1.9c-0.5,0-1,0-1.4,0
				c-0.1,0.4-0.3,0.7-0.4,0.9c-0.2,0.3-0.4,0.5-0.6,0.6c-0.2,0.1-0.4,0.2-0.6,0.2c-0.3,0-0.5-0.1-0.7-0.3c-0.2-0.2-0.2-0.5-0.2-0.9
				c0-0.4,0.1-0.9,0.2-1.4c0.1-0.6,0.3-1,0.5-1.4c0.2-0.4,0.4-0.7,0.7-0.9c0.3-0.2,0.5-0.3,0.8-0.3c0.2,0,0.4,0,0.5,0.1
				c0.1,0.1,0.2,0.2,0.3,0.5c0.1,0.2,0.1,0.5,0,0.9C117,35.3,117.5,35.3,117.9,35.3L117.9,35.3z M118.1,36.4
				c-0.2,0.8-0.3,1.5-0.3,2.1c0,0.6,0,1.1,0.2,1.4c0.2,0.4,0.4,0.7,0.7,0.8c0.3,0.2,0.7,0.3,1.1,0.3c0.4,0,0.8-0.1,1.2-0.3
				c0.4-0.2,0.8-0.5,1.1-0.8c0.3-0.4,0.7-0.9,0.9-1.4c0.3-0.6,0.5-1.3,0.7-2.1c0.2-0.8,0.3-1.5,0.3-2.1c0-0.6-0.1-1-0.2-1.4
				c-0.2-0.4-0.4-0.6-0.7-0.8c-0.3-0.2-0.7-0.3-1.1-0.3c-0.4,0-0.8,0.1-1.2,0.3c-0.4,0.2-0.7,0.4-1.1,0.8c-0.3,0.4-0.7,0.8-0.9,1.4
				C118.6,34.9,118.3,35.6,118.1,36.4L118.1,36.4z M119.6,36.4c0.1-0.6,0.3-1,0.5-1.4c0.2-0.4,0.4-0.7,0.7-0.9
				c0.2-0.2,0.5-0.3,0.8-0.3c0.3,0,0.5,0.1,0.7,0.3c0.2,0.2,0.2,0.5,0.2,0.9c0,0.4-0.1,0.9-0.2,1.4c-0.1,0.6-0.3,1-0.5,1.4
				c-0.2,0.4-0.4,0.7-0.7,0.9c-0.3,0.2-0.5,0.3-0.8,0.3c-0.3,0-0.5-0.1-0.7-0.3c-0.1-0.2-0.2-0.5-0.2-0.9
				C119.4,37.4,119.4,36.9,119.6,36.4L119.6,36.4z M130.1,40.7c0.5,0,0.9,0,1.4,0c0.2-1,0.5-1.9,0.7-2.9c0.2-1,0.4-1.9,0.7-2.9
				c0.1-0.6,0.2-1,0.2-1.4c0-0.4-0.1-0.7-0.2-0.9c-0.1-0.2-0.2-0.4-0.4-0.5c-0.2-0.1-0.4-0.1-0.6-0.1c-0.4,0-0.8,0.1-1.1,0.4
				c-0.4,0.3-0.7,0.7-1,1.2c0-0.3,0-0.6-0.1-0.8c-0.1-0.2-0.2-0.4-0.3-0.5c-0.2-0.1-0.4-0.2-0.6-0.2c-0.2,0-0.4,0-0.6,0.1
				c-0.2,0.1-0.4,0.2-0.6,0.3c-0.2,0.1-0.3,0.3-0.5,0.5c-0.2,0.2-0.3,0.3-0.4,0.5h0c0.1-0.4,0.2-0.8,0.3-1.2c-0.4,0-0.9,0-1.3,0
				c-0.3,1.4-0.7,2.8-1,4.2c-0.4,1.4-0.7,2.9-1.1,4.3c0.5,0,0.9,0,1.4,0c0.2-0.8,0.4-1.6,0.6-2.3c0.2-0.8,0.4-1.5,0.6-2.3
				c0.1-0.3,0.2-0.6,0.3-0.9c0.1-0.2,0.2-0.4,0.4-0.6c0.1-0.2,0.3-0.3,0.4-0.4c0.1-0.1,0.3-0.1,0.4-0.1c0.1,0,0.2,0,0.3,0.1
				c0.1,0,0.2,0.1,0.2,0.2c0.1,0.1,0.1,0.3,0.1,0.4c0,0.2,0,0.4-0.1,0.7c-0.2,0.9-0.4,1.7-0.6,2.6c-0.2,0.9-0.4,1.7-0.6,2.6
				c0.5,0,0.9,0,1.4,0c0.2-0.8,0.4-1.6,0.6-2.3c0.2-0.8,0.4-1.5,0.5-2.3c0.1-0.3,0.2-0.6,0.3-0.9c0.1-0.2,0.2-0.4,0.4-0.6
				c0.1-0.2,0.3-0.3,0.4-0.4c0.1-0.1,0.3-0.1,0.4-0.1c0.1,0,0.2,0,0.3,0.1c0.1,0,0.2,0.1,0.2,0.2c0.1,0.1,0.1,0.3,0.1,0.4
				c0,0.2,0,0.4-0.1,0.7c-0.2,0.9-0.4,1.7-0.6,2.6C130.5,38.9,130.3,39.8,130.1,40.7L130.1,40.7z M134.8,36.4
				c0.1-0.4,0.2-0.8,0.3-1.1c0.1-0.3,0.3-0.6,0.5-0.8c0.2-0.2,0.3-0.4,0.5-0.5c0.2-0.1,0.4-0.2,0.5-0.2c0.2,0,0.3,0,0.5,0.2
				c0.1,0.1,0.2,0.3,0.3,0.5c0.1,0.2,0.1,0.5,0.1,0.8c0,0.3,0,0.7-0.1,1.1c-0.1,0.4-0.2,0.8-0.3,1.1c-0.1,0.3-0.3,0.6-0.5,0.8
				c-0.2,0.2-0.3,0.4-0.5,0.5c-0.2,0.1-0.4,0.2-0.5,0.2c-0.2,0-0.3-0.1-0.5-0.2c-0.1-0.1-0.2-0.3-0.3-0.5c-0.1-0.2-0.1-0.5-0.1-0.8
				C134.7,37.2,134.7,36.8,134.8,36.4L134.8,36.4z M131.8,43.9c0.5,0,0.9,0,1.4,0c0.2-0.7,0.3-1.4,0.5-2.1c0.2-0.7,0.3-1.4,0.5-2.1
				c0,0,0,0,0,0c0,0.3,0.1,0.5,0.2,0.7c0.1,0.2,0.3,0.3,0.5,0.5c0.2,0.1,0.4,0.2,0.7,0.2c0.3,0,0.7-0.1,1-0.3c0.3-0.2,0.7-0.5,1-0.9
				c0.3-0.4,0.6-0.9,0.8-1.5c0.2-0.6,0.4-1.2,0.6-1.9c0.2-0.7,0.2-1.4,0.2-1.9c0-0.6-0.1-1-0.2-1.4c-0.1-0.4-0.3-0.6-0.6-0.8
				c-0.3-0.2-0.6-0.3-0.9-0.3c-0.2,0-0.4,0-0.6,0.1c-0.2,0.1-0.4,0.2-0.6,0.4c-0.2,0.2-0.4,0.5-0.7,0.8h0c0.1-0.4,0.2-0.8,0.3-1.1
				c-0.4,0-0.9,0-1.3,0c-0.4,1.9-0.9,3.8-1.3,5.8C132.7,39.9,132.2,41.9,131.8,43.9L131.8,43.9z M138.8,40.7c0.5,0,0.9,0,1.4,0
				c0.1-0.6,0.3-1.2,0.4-1.9c0.1-0.6,0.3-1.2,0.4-1.8c0.1-0.6,0.3-1,0.5-1.4c0.2-0.4,0.4-0.7,0.7-0.9c0.2-0.2,0.5-0.3,0.8-0.3
				c0.1,0,0.3,0,0.4,0.1c0.1,0,0.2,0.1,0.3,0.2c0.2-0.9,0.4-1.7,0.5-2.6c-0.1,0-0.2-0.1-0.2-0.1c-0.1,0-0.2,0-0.2,0
				c-0.2,0-0.4,0-0.5,0.1c-0.2,0.1-0.3,0.2-0.5,0.3c-0.2,0.2-0.3,0.3-0.5,0.6c-0.2,0.2-0.3,0.5-0.5,0.8c0,0,0,0,0,0
				c0.1-0.5,0.2-1.1,0.3-1.6c-0.4,0-0.9,0-1.3,0c-0.3,1.4-0.6,2.8-0.9,4.2C139.4,37.8,139.1,39.2,138.8,40.7L138.8,40.7z
				 M147.3,37.2c-0.1,0.3-0.1,0.5-0.2,0.8c-0.1,0.2-0.2,0.4-0.4,0.6c-0.1,0.2-0.3,0.3-0.4,0.4c-0.1,0.1-0.3,0.2-0.5,0.2
				c-0.2,0.1-0.3,0.1-0.4,0.1c-0.2,0-0.3-0.1-0.4-0.1c-0.1-0.1-0.2-0.2-0.2-0.4c0-0.2,0-0.4,0-0.7c0.1-0.3,0.1-0.5,0.2-0.6
				c0.1-0.2,0.2-0.3,0.3-0.4c0.1-0.1,0.3-0.1,0.4-0.2c0.3,0,0.6-0.1,0.8-0.1c0.1,0,0.3-0.1,0.4-0.1c0.1-0.1,0.3-0.1,0.5-0.3
				C147.4,36.7,147.3,37,147.3,37.2L147.3,37.2z M145.5,34.7c0.1-0.3,0.2-0.5,0.3-0.7c0.1-0.2,0.2-0.3,0.3-0.4
				c0.1-0.1,0.2-0.1,0.3-0.2c0.1,0,0.3,0,0.4,0c0.3,0,0.5,0,0.6,0.1c0.1,0.1,0.2,0.2,0.3,0.3c0,0.1,0,0.3,0,0.6
				c0,0.2-0.1,0.4-0.2,0.5c-0.1,0.1-0.1,0.2-0.2,0.3c-0.1,0.1-0.2,0.1-0.4,0.1c-0.5,0.1-1,0.1-1.5,0.2c-0.2,0-0.4,0.1-0.5,0.1
				c-0.2,0.1-0.4,0.1-0.5,0.3c-0.2,0.1-0.3,0.3-0.5,0.5c-0.2,0.2-0.3,0.4-0.4,0.7c-0.1,0.3-0.2,0.6-0.3,1.1
				c-0.1,0.5-0.1,0.9-0.1,1.3c0,0.4,0.1,0.6,0.2,0.9c0.1,0.2,0.3,0.4,0.5,0.5c0.2,0.1,0.5,0.2,0.7,0.2c0.2,0,0.3,0,0.5-0.1
				c0.2,0,0.4-0.1,0.6-0.2c0.2-0.1,0.4-0.2,0.6-0.4c0.2-0.2,0.4-0.4,0.5-0.6c0,0.2,0,0.3-0.1,0.5c0,0.2,0,0.3,0,0.5
				c0.5,0,0.9,0,1.4,0c0-0.2,0-0.5,0-0.7c0-0.3,0.1-0.6,0.1-1c0.1-0.7,0.3-1.4,0.4-2.1c0.1-0.7,0.3-1.4,0.4-2.1
				c0.1-0.3,0.1-0.6,0.1-0.9c0-0.3,0-0.5-0.1-0.8c-0.1-0.2-0.2-0.4-0.3-0.6c-0.2-0.2-0.4-0.3-0.6-0.4c-0.3-0.1-0.6-0.1-1-0.1
				c-0.2,0-0.5,0-0.7,0.1c-0.2,0-0.5,0.1-0.7,0.2c-0.2,0.1-0.4,0.3-0.6,0.5c-0.2,0.2-0.4,0.5-0.6,0.8c-0.2,0.3-0.3,0.8-0.5,1.3
				C144.6,34.7,145.1,34.7,145.5,34.7L145.5,34.7z"/>
			<path id="XMLID_2816_" class="st0" d="M88.5,31.3c0.8,0,1.6,0,2.4,0c0.1,0,0.2,0,0.3,0.1c0.1,0,0.2,0.1,0.2,0.2
				c0.1,0.1,0.1,0.3,0.1,0.4c0,0.2,0,0.4-0.1,0.7c-0.1,0.3-0.2,0.5-0.3,0.7c-0.1,0.2-0.2,0.3-0.4,0.5c-0.1,0.1-0.2,0.2-0.4,0.2
				c-0.1,0.1-0.2,0.1-0.3,0.1c-0.8,0-1.7,0-2.5,0C87.9,33.3,88.2,32.3,88.5,31.3L88.5,31.3z M86.2,32.6h-15V34h14.5l-0.2,0.8
				l-14.3,0v1.4h13.8L84.9,37H71.3v1.4h13.2l-0.3,0.9H71.3l0,1.4l12.4,0h0h0h0h0h0h0h0h0h0h0h0h0h0h0h0h0h0h0h0h0h0h0h0h0h0h0h0h0h0
				h0h0h0h0h0h0h0h0h0h0.9l1.4-4.3c0.7,0,1.5,0,2.2,0c0.1,0,0.3,0,0.4,0.1c0.1,0.1,0.2,0.2,0.2,0.3c0,0.1,0,0.4,0,0.6
				c0,0.3-0.1,0.6-0.2,1c-0.1,0.3-0.2,0.6-0.2,0.8c-0.1,0.2-0.1,0.4-0.2,0.6c0,0.2-0.1,0.3-0.1,0.5c0,0.1,0,0.3,0,0.4
				c0.7,0,1.4,0,2.1,0c0-0.2,0-0.3,0-0.6c0-0.2,0.1-0.5,0.1-0.7c0.1-0.2,0.1-0.5,0.2-0.7c0.1-0.2,0.1-0.4,0.2-0.5
				c0.1-0.2,0.1-0.5,0.2-0.7c0.1-0.3,0.1-0.5,0.2-0.8c0-0.3,0.1-0.5,0.1-0.7c0-0.2,0-0.4-0.1-0.6c-0.1-0.1-0.2-0.2-0.3-0.3
				c0,0,0,0,0,0c0.5-0.2,0.9-0.6,1.2-1c0.3-0.5,0.6-1,0.8-1.7c0.1-0.2,0.1-0.5,0.2-0.8c0.1-0.3,0.1-0.6,0.1-0.8
				c0-0.3-0.1-0.5-0.2-0.8c-0.1-0.2-0.3-0.4-0.5-0.5c-0.2-0.1-0.5-0.2-0.9-0.2c-1.7,0-3.3,0-5,0L86.2,32.6L86.2,32.6z M97.2,38.1
				c-0.2,0.4-0.5,0.7-0.8,0.9c-0.3,0.2-0.6,0.3-1,0.3c-0.3,0-0.5-0.1-0.7-0.2c-0.2-0.1-0.3-0.3-0.4-0.5c-0.1-0.2-0.1-0.4-0.1-0.7
				c0-0.2,0-0.5,0.1-0.7c0,0,0,0,0,0c1.7,0,3.3,0,5,0c0-0.1,0.1-0.2,0.1-0.3c0.3-1.1,0.5-2,0.5-2.8c0-0.8-0.2-1.4-0.6-1.8
				c-0.4-0.4-0.9-0.6-1.7-0.6c-0.5,0-1,0.1-1.5,0.3c-0.5,0.2-0.9,0.5-1.3,0.8c-0.4,0.4-0.8,0.9-1.1,1.5c-0.3,0.6-0.6,1.3-0.9,2.1
				c-0.2,0.8-0.4,1.5-0.4,2.1c0,0.6,0.1,1.1,0.3,1.5c0.2,0.4,0.5,0.7,0.8,0.8C94,41,94.4,41,94.9,41c0.5,0,1-0.1,1.5-0.3
				c0.5-0.2,1-0.5,1.4-0.9c0.4-0.4,0.8-1,1.2-1.7C98.4,38.1,97.8,38.1,97.2,38.1L97.2,38.1z M95,35.4C95,35.4,95,35.4,95,35.4
				c0-0.1,0.1-0.2,0.1-0.3c0.1-0.1,0.2-0.3,0.3-0.5c0.1-0.2,0.3-0.4,0.5-0.5c0.2-0.2,0.4-0.3,0.6-0.4c0.2-0.1,0.5-0.2,0.7-0.2
				c0.2,0,0.4,0.1,0.6,0.2c0.2,0.1,0.3,0.2,0.3,0.4c0.1,0.2,0.1,0.3,0.1,0.5c0,0.2,0,0.3,0,0.5c0,0.2,0,0.3-0.1,0.4c0,0,0,0,0,0
				C97.1,35.4,96,35.4,95,35.4L95,35.4z M102.1,36.4c0.1-0.4,0.3-0.8,0.5-1.1c0.2-0.3,0.4-0.6,0.6-0.8c0.2-0.2,0.4-0.4,0.7-0.5
				c0.2-0.1,0.4-0.2,0.7-0.2c0.2,0,0.4,0.1,0.6,0.2c0.2,0.1,0.3,0.3,0.4,0.5c0.1,0.2,0.1,0.5,0.1,0.8c0,0.3-0.1,0.7-0.2,1.1
				c-0.1,0.4-0.3,0.8-0.5,1.1c-0.2,0.3-0.4,0.6-0.6,0.8c-0.2,0.2-0.4,0.4-0.7,0.5c-0.2,0.1-0.4,0.2-0.7,0.2c-0.2,0-0.4-0.1-0.6-0.2
				c-0.2-0.1-0.3-0.3-0.4-0.5c-0.1-0.2-0.1-0.5-0.1-0.8C101.9,37.2,101.9,36.8,102.1,36.4L102.1,36.4z M104,40.7c0.6,0,1.1,0,1.7,0
				c0.6-2,1.2-3.9,1.8-5.9c0.6-2,1.2-3.9,1.7-5.9c-0.6,0-1.1,0-1.7,0c-0.2,0.7-0.4,1.4-0.6,2.1c-0.2,0.7-0.4,1.4-0.6,2.1h0
				c0-0.3-0.1-0.5-0.2-0.7c-0.1-0.2-0.3-0.3-0.5-0.5c-0.2-0.1-0.5-0.2-0.8-0.2c-0.4,0-0.8,0.1-1.2,0.3c-0.4,0.2-0.8,0.5-1.2,0.9
				c-0.4,0.4-0.7,0.9-1.1,1.5c-0.3,0.6-0.6,1.2-0.8,1.9c-0.2,0.8-0.4,1.4-0.4,2c0,0.6,0,1,0.2,1.4c0.1,0.4,0.4,0.7,0.7,0.9
				c0.3,0.2,0.6,0.3,1,0.3c0.3,0,0.5,0,0.8-0.1c0.3-0.1,0.5-0.2,0.8-0.4c0.3-0.2,0.6-0.5,0.9-0.9c0,0,0,0,0,0
				C104.2,40,104.1,40.4,104,40.7L104,40.7z"/>
		</g>
		<g id="XMLID_2355_">
			<g id="XMLID_2666_">
				<path id="XMLID_2814_" class="st4" d="M219.5,14.1c2.7,0,4.8-2.2,4.8-4.8c0-2.7-2.2-4.8-4.8-4.8h-6.2c-2.7,0-4.8,2.2-4.8,4.8
					c0,2.7,2.2,4.8,4.8,4.8H219.5z"/>
				<path id="XMLID_2810_" class="st0" d="M213.2,4.6c2.6,0,4.7,2.1,4.7,4.7c0,2.6-2.1,4.7-4.7,4.7c-2.6,0-4.7-2.1-4.7-4.7
					C208.6,6.7,210.7,4.6,213.2,4.6L213.2,4.6z M214.2,6.4v5.8c1.2-0.4,2.1-1.5,2.1-2.9C216.3,7.9,215.4,6.8,214.2,6.4L214.2,6.4z
					 M212.4,12.2V6.4c-1.3,0.4-2.2,1.5-2.2,2.9C210.2,10.7,211.1,11.8,212.4,12.2z"/>
				<path id="XMLID_2809_" class="st4" d="M211.1,20.8l0.7-0.1c0,0,0.1,0,0,0.1l-0.2,0.8c0.3-0.4,0.3-0.5,0.5-0.7
					c0.1-0.1,0.2-0.1,0.3-0.1c0.2,0,0.2,0.3,0.1,0.4c-0.1,0.1-0.1,0.1-0.2,0.1c0,0-0.1,0-0.1,0c0,0-0.1,0-0.1-0.1c0,0,0,0,0-0.1
					c0,0,0,0,0,0c0,0-0.1,0.1-0.2,0.2c-0.1,0.2-0.2,0.3-0.3,0.6c-0.1,0.1-0.1,0.2-0.1,0.4c-0.1,0.2-0.1,0.3-0.1,0.3l-0.1,0.3h-0.3
					l0.4-1.4c0-0.2,0-0.3,0-0.3c0,0,0-0.1,0-0.1c0,0-0.1,0-0.1,0C211.2,20.9,211.2,20.8,211.1,20.8L211.1,20.8z"/>
				<path id="XMLID_2808_" class="st4" d="M209,20.1l-0.1,0.6h0.4l0,0.2h-0.4l-0.3,1.4c0,0.1,0,0.2,0,0.2c0,0,0,0,0,0.1c0,0,0,0,0,0
					c0,0,0.1,0,0.1-0.1c0,0,0.1-0.1,0.2-0.2l0.1,0.1c-0.1,0.2-0.2,0.4-0.4,0.4c-0.1,0.1-0.2,0.1-0.3,0.1c-0.1,0-0.1,0-0.1-0.1
					c0,0-0.1-0.1-0.1-0.2c0-0.1,0-0.2,0.1-0.4l0.3-1.3h-0.3l0-0.1c0.2,0,0.3-0.1,0.4-0.2C208.7,20.4,208.8,20.3,209,20.1L209,20.1z"
					/>
				<path id="XMLID_2807_" class="st4" d="M217.9,20.1l-0.2,0.6h0.4l0,0.1h-0.3l-0.3,1.4c0,0.1,0,0.2,0,0.2c0,0,0,0,0,0.1
					c0,0,0,0,0,0c0,0,0.1,0,0.1-0.1c0,0,0.1-0.1,0.2-0.2l0.1,0.1c-0.1,0.2-0.2,0.4-0.4,0.4c-0.1,0.1-0.2,0.1-0.3,0.1
					c-0.1,0-0.1,0-0.2-0.1c0,0-0.1-0.1-0.1-0.2c0-0.1,0-0.2,0.1-0.4l0.3-1.3l-0.3,0l0-0.1c0.2,0,0.3-0.1,0.4-0.2
					C217.6,20.5,217.7,20.3,217.9,20.1L217.9,20.1z"/>
				<path id="XMLID_2806_" class="st4" d="M205.2,22.6L205.2,22.6l-1.2,0.1l0-0.1c0.1,0,0.2,0,0.2,0c0.1,0,0.1-0.1,0.1-0.1
					c0-0.1,0.1-0.2,0.1-0.4l0.5-1.9c0-0.2,0.1-0.3,0.1-0.4c0,0,0-0.1,0-0.1c0,0,0-0.1-0.1-0.1c0,0-0.1,0-0.2,0l0-0.1l1.2,0l0,0.1
					c-0.1,0-0.2,0-0.2,0c-0.1,0-0.1,0.1-0.1,0.1c0,0.1-0.1,0.2-0.1,0.4l-0.5,1.9c0,0.2-0.1,0.3-0.1,0.3c0,0,0,0.1,0,0.1
					c0,0,0,0,0.1,0.1C205,22.6,205.1,22.6,205.2,22.6z"/>
				<path id="XMLID_2805_" class="st4" d="M226.4,22.2c0,0-0.2,0.5,0.1,0.3c0.1-0.1,0.2-0.1,0.2-0.3l0.1,0.1
					c-0.1,0.2-0.3,0.3-0.4,0.4c-0.1,0.1-0.4,0.1-0.5-0.1c0-0.1,0-0.2,0-0.4l0.6-2.1c0-0.2,0.1-0.4-0.1-0.4c0,0-0.1,0-0.1,0l0-0.1
					l0.7-0.1c0,0,0.1,0,0,0.1L226.4,22.2z"/>
				<path id="XMLID_2788_" class="st4" d="M218.9,19.7c0.1,0,0.1,0,0.2,0.1c0,0,0.1,0.1,0.1,0.2c0,0.1,0,0.1-0.1,0.2
					c0,0-0.1,0.1-0.2,0.1c-0.1,0-0.1,0-0.2-0.1c0,0-0.1-0.1-0.1-0.2c0-0.1,0-0.1,0.1-0.2C218.8,19.7,218.8,19.7,218.9,19.7z"/>
				<path id="XMLID_2787_" class="st4" d="M209.4,15.7c0.1,0,0.1,0,0.2,0.1c0,0,0.1,0.1,0.1,0.2c0,0.1,0,0.1-0.1,0.2
					c0,0-0.1,0.1-0.2,0.1c-0.1,0-0.1,0-0.2-0.1c0,0-0.1-0.1-0.1-0.2c0-0.1,0-0.1,0.1-0.2C209.2,15.7,209.3,15.7,209.4,15.7z"/>
				<path id="XMLID_2786_" class="st4" d="M219,20.7l-0.5,1.6c-0.1,0.3,0,0.4,0.2,0.2c0.1-0.1,0.2-0.2,0.2-0.3l0.1,0.1
					c-0.1,0.2-0.4,0.6-0.7,0.6c-0.1,0-0.1,0-0.1-0.1c0,0-0.1-0.1-0.1-0.1c0-0.1,0-0.2,0-0.3l0.3-1l0.1-0.3c0-0.1,0-0.2-0.1-0.2
					c0,0-0.1,0-0.1,0l0-0.1L219,20.7C219,20.6,219,20.6,219,20.7z"/>
				<path id="XMLID_2785_" class="st4" d="M209.4,16.8l-0.5,1.7c-0.1,0.3,0,0.4,0.2,0.2c0.1-0.1,0.2-0.2,0.2-0.3l0.1,0.1
					c-0.1,0.2-0.4,0.6-0.7,0.6c-0.1,0-0.1,0-0.1-0.1c0,0,0-0.1-0.1-0.1c0-0.1,0-0.2,0-0.3l0.3-1.1l0.1-0.3c0-0.1,0-0.2-0.1-0.2
					c0,0-0.1,0-0.1,0l0-0.1L209.4,16.8C209.4,16.8,209.4,16.8,209.4,16.8z"/>
				<path id="XMLID_2764_" class="st4" d="M210.6,16.8l-0.3,1c0.1-0.3,0.8-1.1,1.2-1c0.3,0.1,0.2,0.5,0.1,0.7l-0.3,1
					c-0.1,0.3,0.1,0.3,0.1,0.3c0.1-0.1,0.2-0.3,0.3-0.4l0.1,0c-0.1,0.2-0.4,0.7-0.7,0.7c-0.1,0-0.1,0-0.1-0.1c0,0-0.1-0.1-0.1-0.1
					c0-0.1,0-0.2,0.1-0.4l0.2-1c0-0.2,0.1-0.4-0.1-0.4c-0.5,0-1,1-1.1,1.5l-0.1,0.4h-0.4l0.4-1.5l0.1-0.3c0-0.1-0.1-0.2-0.2-0.2
					l-0.1,0l0-0.1C210.1,16.9,210.3,16.8,210.6,16.8C210.5,16.8,210.6,16.8,210.6,16.8z"/>
				<path id="XMLID_2763_" class="st4" d="M206.5,20.7l-0.2,0.8c0.1-0.3,0.7-1,1.1-0.9c0.3,0.1,0.2,0.5,0.1,0.7l-0.3,1
					c-0.1,0.3,0.1,0.3,0.1,0.2c0.1-0.1,0.2-0.3,0.3-0.3l0.1,0c-0.1,0.2-0.4,0.7-0.7,0.6c0,0-0.1,0-0.1-0.1c0,0,0-0.1,0-0.1
					c0-0.1,0-0.2,0.1-0.4l0.2-0.9c0-0.1,0.1-0.4,0-0.4c-0.5,0.1-1,1.1-1.1,1.5l-0.1,0.4l-0.3,0l0.4-1.5l0.1-0.3
					c0-0.1-0.1-0.2-0.2-0.2h-0.1l0-0.1C206,20.7,206.3,20.7,206.5,20.7C206.5,20.6,206.6,20.6,206.5,20.7z"/>
				<path id="XMLID_2762_" class="st4" d="M213.3,20.7l-0.2,0.8c0.1-0.3,0.7-1,1.1-0.9c0.3,0.1,0.2,0.5,0.1,0.7l-0.3,1
					c-0.1,0.3,0.1,0.3,0.1,0.2c0.1-0.1,0.2-0.3,0.3-0.3l0.1,0c-0.1,0.2-0.4,0.7-0.7,0.6c-0.1,0-0.1,0-0.1-0.1c0,0,0-0.1,0-0.1
					c0-0.1,0-0.2,0.1-0.4l0.2-0.9c0-0.1,0.1-0.4-0.1-0.4c-0.5,0.1-1,1-1.1,1.4l-0.1,0.4l-0.3,0l0.4-1.5l0.1-0.3
					c0-0.1-0.1-0.2-0.2-0.2h-0.1l0-0.1C212.8,20.7,213.1,20.7,213.3,20.7C213.3,20.6,213.3,20.6,213.3,20.7z"/>
				<path id="XMLID_2761_" class="st4" d="M222.3,20.6l-0.2,0.8c0.1-0.3,0.7-1,1.1-0.9c0.3,0.1,0.2,0.5,0.1,0.7l-0.3,1
					c-0.1,0.3,0.1,0.3,0.1,0.2c0.1-0.1,0.2-0.3,0.3-0.3l0.1,0c-0.1,0.2-0.4,0.7-0.7,0.6c-0.1,0-0.1,0-0.1-0.1c0,0,0-0.1,0-0.1
					c0-0.1,0-0.2,0.1-0.4l0.3-0.9c0-0.1,0-0.4-0.1-0.4c-0.5,0.1-1,1-1.1,1.4l-0.1,0.4l-0.3,0l0.4-1.5l0.1-0.3c0-0.1-0.1-0.2-0.2-0.2
					h-0.1l0-0.1C221.8,20.7,222.1,20.6,222.3,20.6C222.3,20.6,222.4,20.6,222.3,20.6z"/>
				<path id="XMLID_2760_" class="st4" d="M214,17c0.2,0,0.5-0.1,0.7-0.2c0,0,0.1,0,0.1,0l-0.2,0.9c0.1-0.2,0.4-0.7,0.6-0.9
					c0.2-0.1,0.4,0,0.3,0.3c0,0.2-0.3,0.4-0.4,0.1c-0.4,0.4-0.7,1.2-0.8,1.5l-0.1,0.3h-0.3l0.4-1.5C214.3,17.3,214.4,17,214,17
					L214,17z"/>
				<path id="XMLID_2759_" class="st4" d="M216.8,16.8l-0.1,0.7h-0.1c0-0.2-0.1-0.6-0.4-0.6c-0.3,0-0.3,0.3-0.2,0.4
					c0,0,0.1,0.1,0.1,0.2c0.2,0.3,0.3,0.5,0.3,0.6c0.2,0.4-0.1,1-0.6,1c-0.2,0-0.3-0.1-0.5-0.1c0,0-0.1,0-0.1,0.1h-0.1l0.1-0.8h0.1
					c0,0.3,0.1,0.7,0.5,0.7c0.4-0.1,0.4-0.5,0.2-0.8l-0.3-0.5c-0.2-0.2-0.2-0.6,0-0.8c0.3-0.3,0.6-0.2,0.9-0.1
					C216.7,16.9,216.7,16.9,216.8,16.8L216.8,16.8z"/>
				<path id="XMLID_2758_" class="st4" d="M220.7,15.7l-0.2,1h-0.1c0-0.4,0-0.9-0.7-0.9c-0.3,0-0.5,0.1-0.7,0.3
					c-0.5,0.5-0.7,1.1-0.7,1.8c0,0.3,0.1,0.6,0.2,0.8c0.5,0.6,1.3,0.2,1.6-0.3l0.1,0.1c-0.3,0.4-0.7,0.7-1.2,0.7
					c-0.2,0-0.5-0.1-0.6-0.2c-0.2-0.1-0.3-0.3-0.4-0.5c-0.1-0.2-0.1-0.4-0.1-0.7c0-0.4,0.1-0.7,0.3-1.1c0.3-0.6,0.9-1.1,1.6-1.1
					c0.5,0,0.5,0.1,0.7,0.2C220.5,15.8,220.6,15.7,220.7,15.7L220.7,15.7z"/>
				<path id="XMLID_2757_" class="st4" d="M221.9,15.6l-0.7,2.9c-0.1,0.5,0.2,0.3,0.4,0l0.1,0.1c-0.2,0.4-0.6,0.7-0.8,0.5
					c-0.1-0.1-0.1-0.2,0-0.5l0.6-2.3c0.1-0.3,0.1-0.5-0.2-0.5v-0.1C221.4,15.6,221.6,15.6,221.9,15.6
					C221.8,15.5,221.9,15.6,221.9,15.6z"/>
				<path id="XMLID_2756_" class="st4" d="M223.8,16.8l-0.4,1.6c-0.1,0.2-0.1,0.3-0.1,0.3c0,0,0,0.1,0,0.1c0.1,0.2,0.3-0.1,0.4-0.3
					l0.1,0.1c-0.1,0.2-0.3,0.4-0.4,0.5c-0.1,0.1-0.3,0.1-0.4,0c0,0-0.1-0.1-0.1-0.2c0-0.3,0.1-0.6,0.2-0.9c0-0.1,0-0.1,0,0
					c-0.2,0.4-0.6,1.1-1.1,1.1c-0.2,0-0.3-0.2-0.3-0.3c0-0.1,0-0.3,0.1-0.5l0.2-0.8c0-0.2,0.1-0.2,0.1-0.3c0-0.1,0-0.2-0.3-0.2
					l0-0.1c0.2,0,0.5-0.1,0.6-0.1c0.1,0,0.1,0,0.1,0.1l-0.4,1.4c0,0.1-0.1,0.5,0,0.5c0.2,0,0.7-0.6,0.9-1.1c0.1-0.4,0.2-0.7,0.3-0.9
					H223.8z"/>
				<path id="XMLID_2753_" class="st4" d="M209.6,21.7c0.2,0,0.3,0,0.4-0.1c0.2-0.1,0.3-0.2,0.4-0.3c0.1-0.1,0.1-0.2,0.1-0.3
					c0-0.1,0-0.1,0-0.2c0,0-0.1-0.1-0.1-0.1c-0.1,0-0.2,0.1-0.4,0.3C209.8,21.2,209.7,21.4,209.6,21.7L209.6,21.7z M209.6,21.8
					c0,0.1,0,0.1,0,0.2c0,0.1,0,0.3,0.1,0.4c0.1,0.1,0.2,0.1,0.3,0.1c0.1,0,0.2-0.1,0.3-0.1c0.1,0,0.2-0.1,0.3-0.3l0.1,0.1
					c-0.3,0.4-0.6,0.5-0.9,0.5c-0.2,0-0.4-0.1-0.5-0.2c-0.1-0.1-0.1-0.3-0.1-0.5c0-0.2,0.1-0.5,0.2-0.7c0.1-0.2,0.3-0.4,0.5-0.6
					c0.2-0.1,0.4-0.2,0.6-0.2c0.1,0,0.2,0,0.3,0.1c0.1,0.1,0.1,0.2,0.1,0.2c0,0.1,0,0.3-0.1,0.4c-0.1,0.2-0.3,0.3-0.5,0.4
					C210,21.8,209.8,21.8,209.6,21.8z"/>
				<path id="XMLID_2750_" class="st4" d="M215.9,20.8c0,0-0.1,0-0.2,0.1c-0.2,0.1-0.3,0.3-0.4,0.6c-0.1,0.3-0.2,0.5-0.2,0.7
					c0,0.1,0,0.2,0,0.3c0,0.1,0.1,0.1,0.2,0.1c0.1,0,0.3-0.2,0.5-0.4c0.2-0.4,0.4-0.7,0.4-1c0-0.1,0-0.2-0.1-0.3
					C216,20.7,215.9,20.7,215.9,20.8L215.9,20.8z M216.6,20.7l-0.4,1.5l0,0.2c0,0.2,0.1,0.1,0.2,0.1c0.1-0.1,0.2-0.2,0.2-0.2
					l0.1,0.1c-0.1,0.2-0.2,0.3-0.3,0.4c-0.2,0.2-0.5,0.2-0.5-0.1c0-0.2,0.1-0.4,0.1-0.5c-0.2,0.3-0.4,0.5-0.5,0.6
					c-0.1,0.1-0.2,0.1-0.4,0.1c-0.1,0-0.2,0-0.3-0.1c-0.1-0.1-0.1-0.2-0.1-0.4c0-0.2,0.1-0.5,0.2-0.8c0.1-0.3,0.3-0.5,0.5-0.7
					c0.2-0.1,0.3-0.2,0.5-0.2c0.1,0,0.2,0,0.2,0c0.1,0,0.1,0.1,0.1,0.2l0.1-0.2H216.6z"/>
				<path id="XMLID_2747_" class="st4" d="M224.9,20.8c0,0-0.1,0-0.2,0.1c-0.1,0.2-0.3,0.3-0.4,0.6c-0.1,0.3-0.2,0.5-0.2,0.7
					c0,0.1,0,0.2,0,0.3c0,0.1,0.1,0.1,0.2,0.1c0.1,0,0.3-0.2,0.5-0.4c0.2-0.4,0.4-0.7,0.4-1c0-0.1,0-0.2-0.1-0.3
					C225.1,20.7,225,20.7,224.9,20.8L224.9,20.8z M225.7,20.7l-0.4,1.5l0,0.2c0,0.2,0.1,0.2,0.2,0.1c0.1-0.1,0.2-0.2,0.2-0.2
					l0.1,0.1c-0.1,0.2-0.2,0.3-0.3,0.4c-0.2,0.2-0.5,0.2-0.5-0.1c0-0.2,0.1-0.4,0.1-0.5c-0.2,0.3-0.4,0.5-0.5,0.6
					c-0.1,0.1-0.2,0.1-0.4,0.1c-0.1,0-0.2,0-0.3-0.1c-0.1-0.1-0.1-0.2-0.1-0.4c0-0.2,0.1-0.5,0.2-0.8c0.1-0.3,0.3-0.5,0.5-0.7
					c0.2-0.1,0.3-0.2,0.5-0.2c0.1,0,0.2,0,0.2,0c0.1,0,0.1,0.1,0.1,0.2l0.1-0.2H225.7z"/>
				<path id="XMLID_2743_" class="st4" d="M220.9,21.2c0-0.1-0.1-0.3-0.1-0.4c-0.1-0.1-0.2-0.1-0.3-0.1c-0.2,0-0.4,0.1-0.6,0.5
					c-0.2,0.4-0.3,0.7-0.3,1c0,0.2,0,0.3,0.1,0.3c0.1,0.1,0.2,0.1,0.3,0.1c0.2,0,0.5-0.2,0.6-0.5C220.7,21.9,220.9,21.6,220.9,21.2
					L220.9,21.2z M221.2,21.4c0,0.2-0.1,0.5-0.2,0.7c-0.1,0.2-0.3,0.4-0.5,0.5c-0.2,0.1-0.5,0.2-0.6,0.2c-0.2,0-0.3-0.1-0.5-0.2
					c-0.1-0.1-0.2-0.3-0.2-0.5c0-0.2,0.1-0.4,0.2-0.7c0.1-0.2,0.3-0.5,0.5-0.6c0.2-0.1,0.3-0.2,0.5-0.2c0.2,0,0.4,0.1,0.5,0.2
					C221.1,21,221.2,21.2,221.2,21.4z"/>
				<path id="XMLID_2710_" class="st4" d="M225.2,15.6l-0.4,1.7c0.2-0.2,0.4-0.5,0.7-0.5c0.2,0,0.3,0.1,0.4,0.2
					c0.1,0.1,0.2,0.3,0.2,0.5c0,0.8-0.6,1.6-1.3,1.6c-0.4,0-0.7-0.1-0.6-0.5l0.6-2.3c0.1-0.3,0.1-0.5-0.2-0.4v-0.1
					C224.8,15.7,225,15.6,225.2,15.6C225.2,15.5,225.2,15.5,225.2,15.6L225.2,15.6z M224.8,19c0.1,0,0.2-0.1,0.4-0.2
					c0.4-0.3,0.7-1.3,0.4-1.6c-0.1-0.1-0.1-0.1-0.2-0.1c-0.4,0-0.6,0.4-0.6,0.7l-0.2,0.8C224.4,18.9,224.4,19,224.8,19z"/>
				<path id="XMLID_2694_" class="st4" d="M205.8,15.8L205.8,15.8l1-0.1c0.4,0,0.8,0.1,1,0.2c0.2,0.1,0.4,0.3,0.5,0.5
					c0.2,0.4,0.2,0.9,0.1,1.4c-0.3,0.9-1.1,1.3-2,1.3H205l0-0.1c0.1,0,0.2,0,0.2,0c0.1,0,0.1-0.1,0.1-0.1c0-0.1,0.1-0.2,0.1-0.4
					l0.5-2c0-0.2,0.1-0.3,0.1-0.4c0-0.1,0-0.1-0.1-0.1C206,15.8,206,15.8,205.8,15.8L205.8,15.8L205.8,15.8z M206.6,16.1l-0.6,2.2
					c0,0.2-0.1,0.3-0.1,0.3c0,0.1,0.1,0.2,0.1,0.2c1.4,0.4,2.3-1.8,1.6-2.7c-0.1-0.2-0.4-0.3-0.7-0.3
					C206.7,15.8,206.6,15.9,206.6,16.1z"/>
				<path id="XMLID_2683_" class="st4" d="M212.5,18c-0.2,1.1,0.6,1,1.1,0.4l0,0.1c-0.3,0.4-0.6,0.6-0.9,0.6c-0.2,0-0.4-0.1-0.5-0.2
					c-0.1-0.2-0.1-0.3-0.1-0.5c0-0.2,0.1-0.5,0.2-0.8c0.1-0.3,0.3-0.5,0.5-0.6c0.2-0.1,0.4-0.2,0.6-0.2c0.4,0,0.5,0.3,0.3,0.7
					C213.3,17.9,212.9,18,212.5,18L212.5,18z M212.5,17.9c0.2,0,0.4-0.1,0.5-0.1c0.2-0.1,0.4-0.4,0.4-0.6c0-0.5-0.4-0.2-0.6,0
					C212.7,17.4,212.5,17.6,212.5,17.9z"/>
				<path id="XMLID_2667_" class="st4" d="M227.6,19.5c0.2,0,0.4,0.2,0.4,0.4c0,0.2-0.2,0.4-0.4,0.4c-0.2,0-0.4-0.2-0.4-0.4
					C227.2,19.7,227.4,19.5,227.6,19.5L227.6,19.5z M227.6,19.6c-0.2,0-0.4,0.2-0.4,0.4c0,0.2,0.2,0.4,0.4,0.4
					c0.2,0,0.4-0.2,0.4-0.4C227.9,19.7,227.8,19.6,227.6,19.6L227.6,19.6z M227.8,20.2l-0.1-0.2c0.1,0,0.1-0.1,0.1-0.1
					c0,0,0-0.1-0.1-0.1c0,0-0.1,0-0.1,0h-0.2v0.5h0.1V20h0.1L227.8,20.2L227.8,20.2L227.8,20.2z M227.5,19.9h0.1c0,0,0.1,0,0.1,0
					c0,0,0,0,0-0.1c0,0,0-0.1,0-0.1c0,0,0,0-0.1,0h-0.1V19.9z"/>
			</g>
			<g id="XMLID_2543_">
				<polygon id="XMLID_2665_" class="st5" points="106,22.7 134.4,22.7 134.4,4.6 106,4.6 106,22.7 				"/>
				<path id="XMLID_2660_" class="st6" d="M132.2,18c0-0.1,0.1-0.2,0.3-0.2c0.1,0,0.2,0.1,0.2,0.2c0,0.1-0.1,0.3-0.2,0.3
					C132.3,18.2,132.2,18.1,132.2,18L132.2,18z M132.4,18.2c0.1,0,0.2-0.1,0.2-0.2c0-0.1-0.1-0.2-0.2-0.2c-0.1,0-0.2,0.1-0.2,0.2
					C132.2,18.1,132.3,18.2,132.4,18.2L132.4,18.2z M132.4,18.1L132.4,18.1l0-0.2h0.1c0,0,0,0,0.1,0c0,0,0,0,0,0c0,0,0,0.1,0,0.1
					l0,0.1H132.4L132.4,18.1L132.4,18.1L132.4,18.1L132.4,18.1z M132.4,18L132.4,18C132.4,18,132.5,18,132.4,18
					C132.5,18,132.5,17.9,132.4,18C132.5,17.9,132.5,17.9,132.4,18C132.5,17.9,132.4,17.9,132.4,18L132.4,18L132.4,18L132.4,18z"/>
				<g id="XMLID_2657_">
					<path id="XMLID_2659_" class="st6" d="M120.2,19.4c1.4,1.3,3.2,2,5.2,2c4.3,0,7.8-3.5,7.8-7.8c0-4.3-3.5-7.8-7.8-7.8
						c-2,0-3.8,0.8-5.2,2c-1.6,1.4-2.6,3.5-2.6,5.8C117.6,15.9,118.6,18,120.2,19.4L120.2,19.4z"/>
					<path id="XMLID_2658_" class="st7" d="M122.7,12.8c0-0.3-0.1-0.5-0.1-0.8h-4.8c0.1-0.3,0.1-0.5,0.2-0.8h4.3
						c-0.1-0.3-0.2-0.5-0.3-0.8h-3.7c0.1-0.3,0.3-0.5,0.5-0.8h2.7c-0.2-0.3-0.4-0.6-0.6-0.8h-1.6c0.2-0.3,0.5-0.6,0.8-0.8
						c-1.4-1.3-3.2-2-5.2-2c-4.3,0-7.8,3.5-7.8,7.8c0,4.3,3.5,7.8,7.8,7.8c2,0,3.8-0.8,5.2-2l0,0c0.3-0.3,0.5-0.5,0.8-0.8h-1.6
						c-0.2-0.3-0.4-0.5-0.6-0.8h2.7c0.2-0.3,0.3-0.5,0.5-0.8h-3.7c-0.1-0.3-0.2-0.5-0.3-0.8h4.3c0.1-0.3,0.2-0.5,0.2-0.8
						c0.1-0.3,0.1-0.5,0.1-0.8c0-0.3,0-0.5,0-0.8C122.8,13.4,122.8,13.1,122.7,12.8L122.7,12.8z"/>
				</g>
				<g id="XMLID_2544_">
					<path id="XMLID_2594_" class="st8" d="M132.2,15.4c0-0.1,0.1-0.2,0.3-0.2c0.1,0,0.2,0.1,0.2,0.2c0,0.1-0.1,0.3-0.2,0.3
						C132.3,15.7,132.2,15.6,132.2,15.4L132.2,15.4z M132.4,15.6c0.1,0,0.2-0.1,0.2-0.2c0-0.1-0.1-0.2-0.2-0.2
						c-0.1,0-0.2,0.1-0.2,0.2C132.2,15.5,132.3,15.6,132.4,15.6L132.4,15.6z M132.4,15.6L132.4,15.6l0-0.2h0.1c0,0,0,0,0.1,0
						c0,0,0,0,0,0c0,0,0,0.1,0,0.1l0,0.1H132.4L132.4,15.6L132.4,15.6L132.4,15.6L132.4,15.6z M132.4,15.4L132.4,15.4
						C132.4,15.4,132.5,15.4,132.4,15.4C132.5,15.4,132.5,15.4,132.4,15.4C132.5,15.4,132.5,15.4,132.4,15.4
						C132.5,15.4,132.4,15.4,132.4,15.4L132.4,15.4L132.4,15.4L132.4,15.4z"/>
					<g id="XMLID_2545_">
						<path id="XMLID_2593_" class="st9" d="M119.3,13.4c-0.1,0-0.2,0-0.2,0.1c0,0.1-0.1,0.2-0.1,0.3h0.7
							C119.6,13.5,119.5,13.4,119.3,13.4z"/>
						<path id="XMLID_2592_" class="st9" d="M126.3,14.5c-0.2,0-0.3,0-0.4,0.1c0,0,0,0.1,0,0.2c0,0.2,0.1,0.3,0.3,0.3
							c0.1,0,0.2,0,0.2-0.1c0.1-0.1,0.1-0.3,0.1-0.5C126.4,14.5,126.4,14.5,126.3,14.5z"/>
						<path id="XMLID_2591_" class="st9" d="M113,14.5c-0.2,0-0.3,0-0.4,0.1c0,0,0,0.1,0,0.2c0,0.2,0.1,0.3,0.3,0.3
							c0.1,0,0.2,0,0.2-0.1c0.1-0.1,0.1-0.3,0.1-0.5C113.1,14.5,113,14.5,113,14.5z"/>
						<path id="XMLID_2590_" class="st9" d="M114.9,14.6c-0.4-0.2-0.6-0.5-0.6-0.9c0,0,0,0,0-0.1c0,0.1,0,0.2,0,0.3l-0.2,1.1l0,0
							c0.1,0,0.1,0,0.2,0l0-0.3c0.3,0.1,0.5,0.1,0.7,0.1c0.1,0,0.2,0,0.3,0c0,0,0,0,0,0C115.4,14.8,115.3,14.8,114.9,14.6z"/>
						<path id="XMLID_2589_" class="st9" d="M130.6,13.4c-0.1,0-0.2,0-0.3,0.1c-0.1,0.2-0.2,0.5-0.2,0.8c0,0.4,0.1,0.6,0.4,0.6
							c0.1,0,0.2,0,0.3-0.1c0.1-0.2,0.2-0.4,0.2-0.7C131,13.7,130.9,13.4,130.6,13.4z"/>
						<polygon id="XMLID_2588_" class="st10" points="117.6,13.5 117.9,13.5 117.9,13.2 117.6,13.2 						"/>
						<path id="XMLID_2587_" class="st10" d="M116.5,15c0-0.1,0-0.2,0-0.3l0-0.3l0-0.2l0.3-2h-0.2l-0.4,2.2l0,0.1c0,0,0,0.1,0,0.1
							c0,0.2,0,0.4-0.1,0.5c0,0,0,0.1,0,0.1c0,0.5,0.2,0.7,0.6,0.7c0.2,0,0.4,0,0.6-0.1l0-0.2c-0.1,0-0.3,0.1-0.4,0.1
							C116.7,15.7,116.5,15.5,116.5,15z"/>
						<path id="XMLID_2586_" class="st10" d="M118.1,14.3c0-0.5,0.1-0.9,0.3-1.2c-0.3,0.3-0.5,0.9-0.5,1.5c0,0.9,0.5,1.4,1.4,1.4
							c0.3,0,0.6,0,0.9-0.1l0-0.2c-0.2,0.1-0.5,0.1-0.7,0.1C118.5,15.7,118.1,15.2,118.1,14.3z"/>
						<path id="XMLID_2585_" class="st10" d="M119.5,13.1c-0.2,0-0.3,0.1-0.4,0.3c0.1,0,0.1-0.1,0.2-0.1c0.2,0,0.4,0.1,0.4,0.3h0.2
							c0-0.1,0-0.1,0-0.2C119.9,13.3,119.8,13.1,119.5,13.1z"/>
						<path id="XMLID_2584_" class="st10" d="M118.9,14.4c0,0.1,0,0.1,0,0.2h1.5c0-0.1,0-0.2,0.1-0.2L118.9,14.4
							C118.9,14.4,118.9,14.4,118.9,14.4z"/>
						<polygon id="XMLID_2583_" class="st10" points="110.6,12 110.4,12 109.9,13.7 109.9,14.2 						"/>
						<polygon id="XMLID_2582_" class="st10" points="109.3,12.7 109.1,13.8 109.1,15.9 109.7,15.9 109.8,15.7 109.3,15.7 						"/>
						<polygon id="XMLID_2581_" class="st10" points="111,12.6 110.7,13.5 110.3,15.9 111.1,15.9 111.2,15.7 110.5,15.7 						"/>
						<polygon id="XMLID_2580_" class="st10" points="108.6,12 108.4,12 107.7,15.9 108.5,15.9 108.6,15.7 108,15.7 						"/>
						<path id="XMLID_2579_" class="st10" d="M113.5,13.4c0-0.2-0.1-0.3-0.5-0.3c-0.2,0-0.5,0-0.7,0.1l-0.1,0l-0.1,0l0.1-0.5
							c-0.1,0-0.1,0-0.2,0.1l-0.1,0.7h0.1l0.1,0c0.2,0,0.5-0.1,0.7-0.1c0.4,0,0.5,0.1,0.6,0.2c0.1,0,0.1,0,0.2,0
							C113.5,13.5,113.5,13.5,113.5,13.4z"/>
						<path id="XMLID_2578_" class="st10" d="M112.5,14.5c0.1-0.1,0.3-0.1,0.4-0.1c0.1,0,0.1,0,0.2,0c0,0.2,0,0.4-0.1,0.5
							c0.2-0.1,0.4-0.4,0.4-0.8c-0.1,0-0.1,0-0.2,0C112.8,14.2,112.6,14.3,112.5,14.5z"/>
						<path id="XMLID_2577_" class="st10" d="M113.3,15.3c-0.2,0.3-0.5,0.4-0.9,0.4c-0.5,0-0.8-0.4-0.8-0.9c0-0.3,0.1-0.5,0.2-0.7
							c-0.2,0.1-0.3,0.3-0.4,0.5c0,0.1-0.1,0.3-0.1,0.4c0,0.5,0.3,0.9,0.7,0.9c0.5,0,0.7-0.1,0.9-0.4l0,0.3h0.7l0-0.1v-0.1l0,0h-0.5
							L113.3,15.3z"/>
						<polygon id="XMLID_2576_" class="st10" points="121.1,12.7 121,12.7 120.5,15.9 121.3,15.9 121.3,15.7 120.7,15.7 						"/>
						<path id="XMLID_2575_" class="st10" d="M123.6,13c0.2-0.1,0.4-0.2,0.6-0.2c0.2,0,0.4,0.1,0.7,0.2l0.1-0.3
							c-0.2-0.1-0.4-0.1-0.6-0.1C124.1,12.5,123.8,12.7,123.6,13z"/>
						<path id="XMLID_2574_" class="st10" d="M122.5,14c0-0.9,0.3-1.6,0.8-2c0,0-0.1,0-0.1,0c-0.1,0.1-0.3,0.2-0.5,0.4l-0.1,0
							c-0.2,0.3-0.2,0.5-0.3,0.9c0,0,0,0-0.1,0c-0.2,0-0.3,0.1-0.4,0.4c0.1-0.1,0.2-0.1,0.4-0.1c0,0,0.1,0,0.1,0c0,0.2,0,0.4,0,0.6
							c0,1.1,0.6,1.7,1.5,1.7c0.2,0,0.4,0,0.7-0.1l0-0.2c-0.2,0-0.4,0.1-0.6,0.1C123.1,15.7,122.5,15.1,122.5,14z"/>
						<path id="XMLID_2573_" class="st10" d="M131.4,12.8l0.1-0.9h-0.2l-0.1,0.7C131.3,12.7,131.4,12.8,131.4,12.8z"/>
						<path id="XMLID_2572_" class="st10" d="M131.1,15.4c-0.2,0.2-0.5,0.4-0.8,0.4c-0.6,0-1-0.5-1-1.3c0-0.6,0.2-1.1,0.5-1.5
							c-0.2,0.1-0.3,0.3-0.4,0.5c0,0,0,0-0.1,0c-0.2,0-0.3,0.1-0.5,0.5c0,0,0,0,0,0c0.1-0.2,0.3-0.2,0.4-0.2
							c-0.1,0.3-0.2,0.6-0.2,0.9c0,0.8,0.4,1.3,1,1.3c0.3,0,0.5-0.1,0.8-0.4l0,0.3h0.8l0-0.2H131L131.1,15.4z"/>
						<polygon id="XMLID_2571_" class="st10" points="128.1,12.7 127.9,12.7 127.4,15.9 128.3,15.9 128.3,15.7 127.6,15.7 						"/>
						<path id="XMLID_2570_" class="st10" d="M130.8,13.2c-0.2,0-0.4,0.1-0.5,0.3c0.1-0.1,0.2-0.1,0.3-0.1c0.3,0,0.4,0.2,0.4,0.6
							c0,0.3-0.1,0.5-0.2,0.7c0.2-0.2,0.4-0.5,0.4-1C131.2,13.4,131.1,13.2,130.8,13.2z"/>
						<path id="XMLID_2569_" class="st10" d="M125.8,14.5c0.1-0.1,0.3-0.1,0.4-0.1c0.1,0,0.1,0,0.2,0c0,0.2,0,0.4-0.1,0.5
							c0.2-0.1,0.4-0.4,0.4-0.7c-0.1,0-0.1,0-0.2,0C126.2,14.2,125.9,14.3,125.8,14.5z"/>
						<path id="XMLID_2568_" class="st10" d="M126.9,13.4c0-0.2-0.1-0.3-0.5-0.3c-0.2,0-0.5,0-0.7,0.1l-0.1,0l-0.1,0l0.1-0.5
							c-0.1,0-0.1,0-0.2,0.1l-0.1,0.7h0l0.1,0c0.2,0,0.5-0.1,0.7-0.1c0.4,0,0.5,0.1,0.6,0.2c0.1,0,0.1,0,0.2,0
							C126.9,13.5,126.9,13.5,126.9,13.4z"/>
						<path id="XMLID_2567_" class="st10" d="M126.7,15.3c-0.2,0.3-0.5,0.4-0.9,0.4c-0.5,0-0.8-0.4-0.8-0.9c0-0.3,0.1-0.5,0.2-0.7
							c-0.2,0.2-0.3,0.4-0.4,0.6c0,0,0.1,0,0.1-0.1l-0.1,0.7c0.1,0.4,0.4,0.6,0.7,0.6c0.5,0,0.7-0.1,0.9-0.4l0,0.3h0.7v-0.1l0-0.1
							l0,0h-0.5L126.7,15.3z"/>
						<path id="XMLID_2566_" class="st10" d="M114.6,15.7c-0.1,0-0.2,0-0.2,0l-0.2,0h0l0.1-0.4c-0.1,0-0.1,0-0.2,0l0,0.2l0,0.2
							l0,0.1l0,0.1h0l0,0.2h0l0.2,0c0,0,0.1,0,0.2,0c0.2,0,0.4,0,0.5,0c0.6,0,1-0.2,1.2-0.5c-0.2,0.2-0.5,0.3-1,0.3
							C115,15.7,114.8,15.7,114.6,15.7z"/>
						<path id="XMLID_2565_" class="st10" d="M114.3,13.7c0,0.4,0.2,0.7,0.6,0.9c0.4,0.2,0.4,0.2,0.4,0.3c0,0,0,0,0,0
							c0.1,0,0.2-0.1,0.2-0.3c0-0.2,0-0.2-0.4-0.4c-0.4-0.2-0.6-0.5-0.6-0.9c0-0.2,0-0.4,0.1-0.6c-0.2,0.1-0.3,0.3-0.3,0.6
							C114.3,13.5,114.3,13.6,114.3,13.7C114.3,13.7,114.3,13.7,114.3,13.7z"/>
						<path id="XMLID_2564_" class="st10" d="M115.4,13.4L115.4,13.4c0,0,0.1,0,0.2,0c0.2,0,0.4,0,0.6,0l0-0.3c-0.2,0-0.3,0-0.4,0
							C115.5,13.1,115.4,13.2,115.4,13.4z"/>
						<path id="XMLID_2563_" class="st0" d="M124.8,14.8c-0.2,0.1-0.4,0.1-0.6,0.1c-0.5,0-0.8-0.4-0.8-1c0-0.4,0.1-0.7,0.3-1
							c0.2-0.3,0.5-0.5,0.8-0.5c0.2,0,0.4,0,0.6,0.1c0.1,0,0.1,0.1,0.2,0.1l0.1-0.9c-0.1,0-0.1,0-0.2-0.1l-0.4-0.1
							c-0.1,0-0.2,0-0.4,0c-0.4,0-0.8,0.1-1.1,0.4c-0.5,0.4-0.8,1.1-0.8,2c0,1.1,0.6,1.7,1.5,1.7c0.2,0,0.3,0,0.6-0.1
							c0.1,0,0.1,0,0.2,0l0-0.2l0.1-0.7C124.9,14.7,124.8,14.8,124.8,14.8z"/>
						<path id="XMLID_2562_" class="st0" d="M122.3,13.4C122.3,13.4,122.3,13.4,122.3,13.4c0.1-0.4,0.2-0.7,0.4-0.9h0
							c0,0-0.1,0-0.1,0c-0.3,0-0.4,0.1-0.7,0.5l0.1-0.5h-0.8l0,0.3l-0.5,3h0.7h0.2c0.2-1,0.2-1.6,0.4-1.9
							C122,13.5,122.1,13.4,122.3,13.4z"/>
						<path id="XMLID_2561_" class="st0" d="M117.4,14.7c0,0,0-0.1,0-0.1l0.2-1.1l0-0.3h0.3h0.1l0.1-0.8h-0.4l0.1-0.5H117l0,0.2
							l-0.3,2l0,0.2l0,0.3c0,0.1,0,0.2,0,0.3c0,0.5,0.2,0.7,0.7,0.7c0.1,0,0.3,0,0.4-0.1c0.1,0,0.1,0,0.2-0.1l0.1-0.7
							c-0.1,0-0.1,0-0.2,0C117.5,15,117.4,14.9,117.4,14.7z"/>
						<path id="XMLID_2560_" class="st0" d="M116.4,14.5c0-0.4-0.2-0.6-0.6-0.8c-0.3-0.2-0.4-0.2-0.4-0.3v0c0-0.2,0.1-0.3,0.4-0.3
							c0.1,0,0.3,0,0.4,0c0.1,0,0.1,0,0.2,0l0.1-0.7c-0.2,0-0.5-0.1-0.7-0.1c-0.6,0-1,0.2-1.1,0.5c-0.1,0.2-0.1,0.4-0.1,0.6
							c0,0.4,0.2,0.7,0.6,0.9c0.4,0.2,0.4,0.2,0.4,0.4c0,0.1-0.1,0.2-0.2,0.3c-0.1,0-0.2,0-0.3,0c-0.2,0-0.5,0-0.7-0.1l0,0.3
							l-0.1,0.4h0l0.2,0c0,0,0.1,0,0.2,0c0.2,0,0.4,0,0.5,0c0.4,0,0.8-0.1,1-0.3c0.1-0.1,0.2-0.2,0.2-0.3c0.1-0.1,0.1-0.3,0.1-0.5
							C116.4,14.6,116.4,14.6,116.4,14.5z"/>
						<path id="XMLID_2557_" class="st0" d="M132.5,11.7h-0.8l0,0.2l-0.1,0.9c-0.1-0.1-0.1-0.1-0.2-0.2c-0.2-0.2-0.4-0.2-0.6-0.2
							c-0.3,0-0.6,0.2-0.9,0.5c-0.3,0.4-0.5,0.9-0.5,1.5c0,0.8,0.4,1.3,1,1.3c0.3,0,0.5-0.1,0.8-0.4l0,0.3h0.6h0.2L132.5,11.7z
							 M130.9,14.8c-0.1,0.1-0.2,0.1-0.3,0.1c-0.3,0-0.4-0.2-0.4-0.6c0-0.3,0.1-0.6,0.2-0.8c0.1-0.2,0.3-0.3,0.5-0.3
							c0.3,0,0.4,0.2,0.4,0.6C131.2,14.3,131.1,14.7,130.9,14.8z"/>
						<path id="XMLID_2554_" class="st0" d="M120.5,14.8c-0.3,0.1-0.6,0.2-0.9,0.2c-0.4,0-0.7-0.1-0.7-0.4c0,0,0-0.1,0-0.2
							c0,0,0,0,0-0.1h1.5h0.1c0.1-0.3,0.1-0.6,0.1-0.8c0-0.7-0.4-1.2-1.1-1.2c-0.5,0-0.9,0.3-1.2,0.7c-0.2,0.3-0.3,0.7-0.3,1.2
							c0,0.9,0.5,1.4,1.4,1.4c0.3,0,0.5,0,0.7-0.1c0,0,0.1,0,0.1,0L120.5,14.8z M119.9,13.7h-0.2H119c0-0.1,0.1-0.2,0.1-0.3
							c0.1-0.2,0.3-0.3,0.4-0.3c0.3,0,0.4,0.2,0.4,0.4C119.9,13.6,119.9,13.6,119.9,13.7z"/>
						<polygon id="XMLID_2553_" class="st0" points="112,11.7 110.7,11.7 110.6,12 109.9,14.2 109.9,13.7 109.8,11.7 108.6,11.7 
							108.6,12 108,15.7 108.6,15.7 108.7,15.7 109.1,13.8 109.3,12.7 109.3,15.7 109.8,15.7 109.9,15.7 110.7,13.5 111,12.6 
							110.5,15.7 111.2,15.7 111.3,15.7 						"/>
						<path id="XMLID_2550_" class="st0" d="M114,15.6l0-0.1l0-0.2l0-0.2l0,0l0.2-1.1c0-0.1,0-0.2,0-0.3c0-0.1,0-0.2,0-0.2
							c0,0,0-0.1,0-0.1c0-0.6-0.4-0.9-1.1-0.9c-0.3,0-0.6,0-1,0.2l0,0.2l-0.1,0.5l0.1,0l0.1,0c0.2-0.1,0.5-0.1,0.7-0.1
							c0.4,0,0.5,0.1,0.5,0.3c0,0.1,0,0.1,0,0.2c-0.1,0-0.1,0-0.2,0c-0.1,0-0.1,0-0.2,0c-0.6,0-1.1,0.2-1.3,0.5
							c-0.1,0.2-0.2,0.4-0.2,0.7c0,0.5,0.3,0.9,0.8,0.9c0.4,0,0.7-0.1,0.9-0.4l0,0.3h0.5L114,15.6L114,15.6L114,15.6z M113,15
							c-0.1,0-0.2,0.1-0.2,0.1c-0.2,0-0.3-0.1-0.3-0.3c0-0.1,0-0.1,0-0.2c0.1-0.2,0.3-0.3,0.7-0.3c0.1,0,0.1,0,0.2,0
							C113.4,14.6,113.3,14.9,113,15z"/>
						<path id="XMLID_2547_" class="st0" d="M127.6,14c0.1-0.4,0.1-0.5,0.1-0.6c0-0.6-0.4-0.9-1.1-0.9c-0.3,0-0.6,0-1,0.2l0,0.2
							l-0.1,0.5l0.1,0l0.1,0c0.2-0.1,0.5-0.1,0.7-0.1c0.4,0,0.5,0.1,0.5,0.3c0,0.1,0,0.1,0,0.2c-0.1,0-0.1,0-0.2,0
							c-0.1,0-0.1,0-0.1,0c-0.6,0-1.1,0.2-1.3,0.6c-0.1,0.2-0.2,0.4-0.2,0.7c0,0.5,0.3,0.9,0.8,0.9c0.4,0,0.7-0.1,0.9-0.4l0,0.3h0.5
							h0.2v-0.1l0-0.1l0-0.2l0-0.2L127.6,14z M126.4,15c-0.1,0-0.2,0.1-0.2,0.1c-0.2,0-0.3-0.1-0.3-0.3c0-0.1,0-0.1,0-0.2
							c0.1-0.2,0.3-0.3,0.7-0.3c0.1,0,0.1,0,0.2,0C126.7,14.6,126.6,14.9,126.4,15z"/>
						<path id="XMLID_2546_" class="st0" d="M129.3,13.4C129.3,13.4,129.3,13.4,129.3,13.4c0.1-0.4,0.2-0.7,0.4-0.9h0c0,0,0,0-0.1,0
							c-0.3,0-0.4,0.1-0.7,0.5l0.1-0.5h-0.8l0,0.3l-0.5,3h0.7h0.2c0.1-0.9,0.2-1.4,0.3-1.8C128.9,13.5,129,13.4,129.3,13.4z"/>
					</g>
				</g>
			</g>
			<g id="XMLID_2508_">
				<polygon id="XMLID_2542_" class="st11" points="140.9,4.6 169.9,4.6 169.9,22.7 140.9,22.7 140.9,4.6 				"/>
				<polygon id="XMLID_2541_" class="st12" points="142.4,15.7 145.5,10.8 168.5,10.8 165.3,15.7 142.4,15.7 				"/>
				<polygon id="XMLID_2540_" class="st8" points="143.3,15.3 145.8,11.3 146.7,11.3 146.7,13.9 148.3,11.3 149.1,11.3 149.1,15.3 
					148.3,15.3 148.3,12.5 146.7,15.3 145.8,15.3 145.8,12.5 144.2,15.3 143.3,15.3 				"/>
				<path id="XMLID_2537_" class="st8" d="M149.3,15.3l1.7-3.9h0.6l1.7,3.9h-0.9l-0.4-1h-1.4l-0.4,1H149.3L149.3,15.3z M150.9,13.5
					h0.8l-0.4-1.1L150.9,13.5L150.9,13.5z"/>
				<path id="XMLID_2536_" class="st8" d="M154.7,13.2c0,0.2,0.1,0.5,0.1,0.7c0.5,0,1,0,1.5,0c-0.5,1.1-2.4,0.7-2.4-0.6
					c0-1.3,1.7-1.7,2.3-0.7c0.3,0,0.6,0,0.9,0c-0.2-0.7-0.8-1.3-1.9-1.3c-1.2,0-2.1,0.9-2.1,1.9c0,1.3,1,2.1,2.1,2.1
					c0.9,0,2.1-0.8,2-2.1C156.4,13.2,155.5,13.2,154.7,13.2L154.7,13.2z"/>
				<polygon id="XMLID_2535_" class="st8" points="157.5,15.3 158.3,15.3 158.3,12.6 160,15.3 160.7,15.3 160.7,11.3 160,11.3 
					160,14.1 158.3,11.3 157.5,11.3 157.5,15.3 				"/>
				<path id="XMLID_2532_" class="st8" d="M162.3,14.3h1.3l0.4,1h0.9l-1.6-3.9h-0.6l-1.7,3.9h0.8L162.3,14.3L162.3,14.3z M163,12.5
					c0,0.1-0.4,1.1-0.4,1.1h0.8L163,12.5L163,12.5z"/>
				<polygon id="XMLID_2531_" class="st12" points="149.2,4.6 145.7,10.4 168.7,10.4 169.9,8.4 169.9,8.2 168.6,10.3 146,10.3 
					149.4,4.6 149.2,4.6 				"/>
				<path id="XMLID_2512_" class="st8" d="M166.4,11.3c0.3,0,0.5,0.2,0.5,0.5c0,0.3-0.2,0.5-0.5,0.5c-0.3,0-0.5-0.2-0.5-0.5
					C165.8,11.6,166.1,11.3,166.4,11.3L166.4,11.3z M166.4,11.4c0.2,0,0.4,0.2,0.4,0.4s-0.2,0.4-0.4,0.4c-0.2,0-0.4-0.2-0.4-0.4
					S166.1,11.4,166.4,11.4L166.4,11.4z"/>
				<path id="XMLID_2509_" class="st0" d="M166.2,12.1v-0.5h0.2c0,0,0.1,0,0.1,0c0,0,0,0,0.1,0c0,0,0,0.1,0,0.1c0,0,0,0.1,0,0.1
					c0,0-0.1,0-0.1,0c0,0,0,0,0,0c0,0,0,0,0.1,0.1l0.1,0.1h-0.1l-0.1-0.1c0,0,0-0.1-0.1-0.1c0,0,0,0,0,0c0,0,0,0,0,0c0,0,0,0,0,0
					h-0.1L166.2,12.1L166.2,12.1L166.2,12.1z M166.2,11.8h0.2c0,0,0.1,0,0.1,0c0,0,0,0,0,0c0,0,0,0,0,0c0,0,0,0,0-0.1c0,0,0,0-0.1,0
					h-0.2V11.8L166.2,11.8z"/>
			</g>
			<g id="XMLID_2492_">
				<polygon id="XMLID_2507_" class="st8" points="72.1,22.6 100.5,22.6 100.5,4.6 72.1,4.6 72.1,22.6 				"/>
				<polygon id="XMLID_2506_" class="st13" points="72.1,22.6 100.5,22.6 100.5,19.4 72.1,19.4 72.1,22.6 				"/>
				<polygon id="XMLID_2505_" class="st13" points="71.3,4.6 71.3,22.7 72.1,22.7 72.1,4.6 71.3,4.6 				"/>
				<g id="XMLID_2493_">
					<g id="XMLID_2495_">
						<polygon id="XMLID_2502_" class="st14" points="84.1,15.9 82,15.9 83.3,7.8 85.4,7.8 						"/>
						<path id="XMLID_2501_" class="st14" d="M80.2,7.8l-2,5.6L78,12.2l0,0l-0.7-3.7c0,0-0.1-0.7-1-0.7h-3.3l0,0.1
							c0,0,1,0.2,2.2,0.9l1.8,7.1h2.2l3.4-8.1H80.2z"/>
						<path id="XMLID_2497_" class="st14" d="M96.9,15.9h1.9l-1.7-8.1h-1.7c-0.8,0-1,0.6-1,0.6l-3.2,7.5h2.2l0.4-1.2h2.7L96.9,15.9z
							 M94.5,13.1l1.1-3l0.6,3H94.5z"/>
						<path id="XMLID_2496_" class="st14" d="M91.4,9.8L91.7,8c0,0-0.9-0.4-1.9-0.4c-1.1,0-3.5,0.5-3.5,2.7c0,2.1,2.9,2.1,2.9,3.2
							c0,1.1-2.6,0.9-3.5,0.2l-0.3,1.8c0,0,0.9,0.5,2.4,0.5c1.4,0,3.6-0.7,3.6-2.8c0-2.1-3-2.3-3-3.2C88.5,9.1,90.5,9.3,91.4,9.8z"
							/>
					</g>
					<path id="XMLID_2494_" class="st15" d="M78,12.2l-0.7-3.7c0,0-0.1-0.7-1-0.7h-3.3l0,0.1c0,0,1.6,0.3,3.1,1.6
						C77.5,10.7,78,12.2,78,12.2z"/>
				</g>
			</g>
			<g id="XMLID_2360_">
				<path id="XMLID_2491_" class="st16" d="M195.9,4.6h-18v18h18v-5.9c0.1-0.1,0.1-0.2,0.1-0.4c0-0.2,0-0.3-0.1-0.4"/>
				<path id="XMLID_2458_" class="st0" d="M179.6,12.4l-0.3-0.8l-0.3,0.8 M187.2,12.1c-0.1,0-0.2,0-0.2,0h-0.6v-0.5h0.6
					c0.1,0,0.2,0,0.2,0c0.1,0,0.1,0.1,0.1,0.2C187.3,12,187.3,12.1,187.2,12.1z M191.6,12.4l-0.4-0.8l-0.3,0.8H191.6z M183.4,13.3
					h-0.5l0-1.7l-0.7,1.7h-0.4l-0.7-1.7v1.7h-1l-0.2-0.5h-1.1l-0.2,0.5H178l0.9-2.1h0.8l0.9,2v-2h0.8l0.7,1.4l0.6-1.4h0.8V13.3
					L183.4,13.3z M185.5,13.3h-1.7v-2.1h1.7v0.4h-1.2v0.4h1.2v0.4h-1.2v0.4h1.2V13.3z M187.9,11.8c0,0.3-0.2,0.5-0.4,0.6
					c0.1,0,0.2,0.1,0.2,0.2c0.1,0.1,0.1,0.2,0.1,0.4v0.4h-0.5l0-0.3c0-0.1,0-0.3-0.1-0.4c-0.1-0.1-0.2-0.1-0.4-0.1h-0.5v0.8h-0.5
					v-2.1h1.2c0.3,0,0.4,0,0.6,0.1C187.8,11.4,187.9,11.6,187.9,11.8z M188.7,13.3h-0.5v-2.1h0.5V13.3z M194.6,13.3h-0.7l-1-1.6v1.6
					h-1l-0.2-0.5h-1l-0.2,0.5h-0.6c-0.2,0-0.6-0.1-0.7-0.2c-0.2-0.2-0.3-0.4-0.3-0.8c0-0.3,0.1-0.6,0.3-0.8c0.2-0.2,0.4-0.2,0.8-0.2
					h0.5v0.5H190c-0.2,0-0.3,0-0.4,0.1c-0.1,0.1-0.1,0.3-0.1,0.5c0,0.2,0,0.4,0.1,0.5c0.1,0.1,0.2,0.1,0.4,0.1h0.2l0.7-1.7h0.8
					l0.9,2v-2h0.8l0.9,1.5v-1.5h0.5V13.3L194.6,13.3z M178,13.8h0.9l0.2-0.5h0.4l0.2,0.5h1.7v-0.4l0.2,0.4h0.9l0.2-0.4v0.4h4.2
					l0-0.8h0.1c0.1,0,0.1,0,0.1,0.1v0.7h2.2v-0.2c0.2,0.1,0.4,0.2,0.8,0.2h0.9l0.2-0.5h0.4l0.2,0.5h1.8v-0.4l0.3,0.4h1.4v-2.9h-1.4
					v0.3l-0.2-0.3h-1.4v0.3l-0.2-0.3h-1.9c-0.3,0-0.6,0-0.8,0.2v-0.2h-1.3V11c-0.1-0.1-0.3-0.2-0.6-0.2h-4.9l-0.3,0.8l-0.3-0.8h-1.5
					v0.3l-0.2-0.3h-1.3l-0.6,1.4V13.8L178,13.8z"/>
				<path id="XMLID_2412_" class="st0" d="M195.9,15.3H195c-0.1,0-0.2,0-0.2,0c-0.1,0-0.1,0.1-0.1,0.2c0,0.1,0,0.1,0.1,0.2
					c0.1,0,0.1,0,0.2,0l0.3,0c0.3,0,0.5,0.1,0.6,0.2c0,0,0,0,0,0.1 M195.9,16.7c-0.1,0.2-0.4,0.3-0.7,0.3h-1v-0.5h1
					c0.1,0,0.2,0,0.2-0.1c0,0,0.1-0.1,0.1-0.1c0-0.1,0-0.1-0.1-0.1c0,0-0.1,0-0.2,0c-0.5,0-1.1,0-1.1-0.7c0-0.3,0.2-0.6,0.7-0.6h1
					v-0.4H195c-0.3,0-0.5,0.1-0.6,0.2v-0.2H193c-0.2,0-0.5,0.1-0.6,0.2v-0.2h-2.5v0.2c-0.2-0.1-0.5-0.2-0.7-0.2h-1.6v0.2
					c-0.2-0.1-0.5-0.2-0.7-0.2h-1.8l-0.4,0.5l-0.4-0.5h-2.7v2.9h2.7l0.4-0.5l0.4,0.5l1.6,0v-0.7h0.2c0.2,0,0.5,0,0.7-0.1v0.8h1.4
					v-0.8h0.1c0.1,0,0.1,0,0.1,0.1v0.7h4.1c0.3,0,0.5-0.1,0.7-0.2v0.2h1.3c0.3,0,0.5,0,0.7-0.1V16.7L195.9,16.7z M193.9,15.9
					c0.1,0.1,0.1,0.2,0.1,0.4c0,0.5-0.3,0.7-0.8,0.7h-1v-0.5h1c0.1,0,0.2,0,0.2-0.1c0,0,0.1-0.1,0.1-0.1c0-0.1,0-0.1-0.1-0.1
					c0,0-0.1,0-0.2,0c-0.5,0-1.1,0-1.1-0.7c0-0.3,0.2-0.6,0.7-0.6h1v0.4H193c-0.1,0-0.2,0-0.2,0c-0.1,0-0.1,0.1-0.1,0.2
					c0,0.1,0,0.1,0.1,0.2c0.1,0,0.1,0,0.2,0l0.3,0C193.6,15.7,193.8,15.7,193.9,15.9z M189.4,15.7c-0.1,0-0.2,0-0.2,0h-0.6v-0.5h0.6
					c0.1,0,0.2,0,0.2,0c0.1,0,0.1,0.1,0.1,0.2C189.5,15.6,189.4,15.7,189.4,15.7z M189.7,16c0.1,0,0.2,0.1,0.2,0.2
					c0.1,0.1,0.1,0.2,0.1,0.4V17h-0.5v-0.3c0-0.1,0-0.3-0.1-0.4c-0.1-0.1-0.2-0.1-0.4-0.1h-0.5V17H188v-2.1h1.2c0.3,0,0.4,0,0.6,0.1
					c0.2,0.1,0.3,0.2,0.3,0.5C190,15.8,189.8,15.9,189.7,16z M190.3,14.9h1.7v0.4h-1.2v0.4h1.2v0.4h-1.2v0.4l1.2,0V17h-1.7V14.9z
					 M186.9,15.8h-0.7v-0.5h0.7c0.2,0,0.3,0.1,0.3,0.3S187.1,15.8,186.9,15.8z M185.7,16.8l-0.8-0.9l0.8-0.8V16.8z M183.7,16.5h-1.2
					v-0.4h1.1v-0.4h-1.1v-0.4h1.3l0.6,0.6L183.7,16.5z M187.8,15.6c0,0.6-0.4,0.7-0.9,0.7h-0.6V17h-1l-0.6-0.7L184,17h-2v-2.1h2
					l0.6,0.7l0.6-0.7h1.6C187.3,14.9,187.8,15,187.8,15.6z"/>
			</g>
		</g>
	</g>
</g>
</svg>
