<?xml version="1.0" encoding="utf-8"?>
<!-- Generator: Adobe Illustrator 19.0.0, SVG Export Plug-In . SVG Version: 6.00 Build 0)  -->
<svg version="1.1" id="Capa_1" xmlns="http://www.w3.org/2000/svg" xmlns:xlink="http://www.w3.org/1999/xlink" x="0px" y="0px"
	 viewBox="0 0 140 80" style="enable-background:new 0 0 140 80;" xml:space="preserve">
<style type="text/css">
	.st0{fill:#015068;}
	.st1{fill:#00587A;}
	.st2{fill:#FFFFFF;}
	.st3{clip-path:url(#XMLID_54_);fill:#FFFFFF;}
	.st4{clip-path:url(#XMLID_55_);fill:#FFFFFF;}
	.st5{fill-rule:evenodd;clip-rule:evenodd;fill:#015068;}
	.st6{opacity:0.8;}
	.st7{opacity:0.5;fill-rule:evenodd;clip-rule:evenodd;fill:#015068;}
	.st8{opacity:0.5;fill-rule:evenodd;clip-rule:evenodd;fill:#00587A;}
</style>
<g id="XMLID_270_">
	<path id="XMLID_2003_" class="st0" d="M-229.9-173.4c-0.4,0.9,0.4,2.4-0.7,2.6l-34.4-0.1l-3.6,0.1l-0.5,0.8l-4.3,16.1l-0.6,0.3
		l-5.8-0.1l-0.5-1.1c-1.6-6.6-3.4-13-5-19.5c1.5-0.2,3.2-0.3,4.7,0c1.6,4.8,2.3,9.9,3.7,14.8l0.2,0.1l0.4-0.5l3.7-14.3l0.4-0.3
		l39,0.1C-232.2-174.1-229.8-175.3-229.9-173.4"/>
	<path id="XMLID_2000_" class="st0" d="M-229.9-166.8c0.1,1-1,1.9-1.8,2.5c-1.5-0.6-3.3-1.8-5.1-0.9c-0.6,0.4-1,1-0.5,1.6
		c2.5,1.6,6.9,0.7,7.9,4.1c0.5,1.4,0.1,3.3-1.2,4.3c-2.1,1.7-5.1,2.1-8,1.3c-1.3-0.5-2.7-0.8-3.8-1.7c0.4-1,1.2-1.9,2-2.7
		c1.6,0.4,3,1.5,5,1.3c0.7,0,1.5-0.4,1.8-1c0.2-2.5-3.4-1.5-5-2.2c-1.7-0.4-3-1.6-3.3-3c-0.3-1.5,0.1-2.9,1.4-3.9
		C-237.5-169-232.8-168.7-229.9-166.8"/>
	<path id="XMLID_1999_" class="st0" d="M-243.2-168c0.1,4.6,0.1,9.4,0,14c-1.5,0.4-3.2,0.1-4.8,0c-1.3-2.1-2.1-4.1-3.6-6.3
		c-0.2-0.1-0.3,0.2-0.4,0.2l-0.1,5.9c-1,0.5-2.4,0.1-3.6,0.3l-0.3-0.8c0-4.3-0.1-9.1,0.2-13.3c1.3-0.3,2.8-0.3,4.2-0.2l0.4,0.3
		l3.3,5.8l0.5-0.1c-0.1-1.7,0.3-3.9,0.2-5.8C-246-168.4-244.4-168.2-243.2-168"/>
	<path id="XMLID_1996_" class="st0" d="M-259.7-164.5l2.6,10.5c-1.1,0.4-2.6,0.1-3.8,0.1c-0.6-0.9-0.2-2.5-1.7-2.7
		c-1.4,0.1-3.1-0.4-4,0.6l-0.6,2.1c-1.2,0.2-2.7,0.2-3.8-0.1c1.2-4.7,2.7-9.4,4.1-14.1c1.8-0.4,4.2-0.2,6.1,0L-259.7-164.5
		L-259.7-164.5z M-263.2-160.5c-0.1-1.1-0.6-2.2-1.1-3.2c-0.7,0.9-0.6,2.1-0.9,3.2C-264.6-160-263.8-160.3-263.2-160.5"/>
	<path id="XMLID_1991_" class="st0" d="M-228.8-168.9c-0.1,0.1-0.3,0.2-0.5,0.2c-0.2,0-0.4-0.1-0.5-0.2c-0.1-0.1-0.2-0.3-0.2-0.5
		c0-0.2,0.1-0.4,0.2-0.5c0.1-0.1,0.3-0.2,0.5-0.2c0.2,0,0.4,0.1,0.5,0.2c0.1,0.1,0.2,0.3,0.2,0.5
		C-228.6-169.2-228.7-169-228.8-168.9 M-229.8-169.8c-0.1,0.1-0.2,0.3-0.2,0.4c0,0.2,0.1,0.3,0.2,0.4c0.1,0.1,0.3,0.2,0.4,0.2
		c0.2,0,0.3-0.1,0.4-0.2c0.1-0.1,0.2-0.3,0.2-0.4c0-0.2-0.1-0.3-0.2-0.4c-0.1-0.1-0.3-0.2-0.4-0.2
		C-229.5-170-229.6-169.9-229.8-169.8 M-229.6-169v-0.8c0.1,0,0.1,0,0.2,0c0.1,0,0.2,0,0.2,0c0.1,0,0.1,0,0.2,0
		c0.1,0,0.1,0.1,0.1,0.2c0,0.1,0,0.1-0.1,0.1c0,0-0.1,0-0.1,0.1c0.1,0,0.1,0,0.1,0c0,0,0.1,0.1,0.1,0.2l0,0.1c0,0,0,0,0,0
		c0,0,0,0,0,0l0,0l-0.2,0c0,0,0-0.1,0-0.1c0,0,0-0.1,0-0.1c0,0,0,0-0.1-0.1c0,0,0,0-0.1,0h0l0,0v0.3L-229.6-169L-229.6-169z
		 M-229.3-169.6c0,0-0.1,0-0.1,0h-0.1v0.2h0.1c0.1,0,0.1,0,0.1,0C-229.2-169.5-229.2-169.5-229.3-169.6
		C-229.2-169.6-229.2-169.6-229.3-169.6"/>
</g>
<g id="XMLID_265_">
	<path id="XMLID_1552_" class="st0" d="M-359.5-157.4c-2.2,0-3.1-1.5-3.1-2.9v-11.1h2.6v11c0,0.6,0.3,0.9,0.9,0.9h1v2.2H-359.5z"/>
	<path id="XMLID_1585_" class="st0" d="M-435.9-162.1c0,2.5,1.6,4.3,4.3,4.3c2.2,0,3.2-0.6,4.5-1.8l3,2.9c-2,2-3.9,3.1-7.5,3.1
		c-4.7,0-9.1-2.1-9.1-10c0-6.4,3.5-10,8.6-10c5.5,0,8.6,4,8.6,9.3v2.2H-435.9z M-428.9-167.6c-0.5-1.2-1.6-2-3.3-2
		c-1.7,0-2.8,0.9-3.3,2c-0.3,0.7-0.4,1.2-0.5,2.1h7.5C-428.5-166.3-428.6-166.9-428.9-167.6"/>
	<path id="XMLID_1580_" class="st0" d="M-372-162.3c0,1.5,0.9,2.6,2.6,2.6c1.3,0,2-0.4,2.7-1.1l1.8,1.7c-1.2,1.2-2.4,1.8-4.6,1.8
		c-2.8,0-5.6-1.2-5.6-5.9c0-3.8,2.1-5.9,5.2-5.9c3.3,0,5.2,2.4,5.2,5.5v1.3H-372z M-367.7-165.5c-0.3-0.7-1-1.2-2-1.2
		c-1,0-1.7,0.5-2,1.2c-0.2,0.4-0.3,0.7-0.3,1.2h4.6C-367.4-164.8-367.5-165.1-367.7-165.5"/>
	<path id="XMLID_515_" class="st0" d="M-384-157.4h-2.9v-7c0-0.7-0.2-1.3-0.6-1.6c-0.3-0.3-0.8-0.5-1.3-0.5c-0.5,0-1,0.2-1.3,0.5
		c-0.4,0.4-0.6,0.9-0.6,1.6v7h-2.9V-169h2.8v1.1c0.8-0.8,1.7-1.2,2.9-1.2c1.1,0,2.1,0.3,2.7,1c0.8,0.8,1.2,1.9,1.2,3.3V-157.4z"/>
	<path id="XMLID_269_" class="st0" d="M-381.4-171.4h3.3v2.5h1.6v2.4h-1.9v6c0,0.5,0.3,0.7,0.8,0.7h1.2v2.3h-1.6
		c-2.4,0-3.4-1.9-3.4-3.5"/>
	<path id="XMLID_1565_" class="st0" d="M-396-162.3h-7.5c0,0.8,0.2,1.4,0.7,1.9c0.5,0.5,1.1,0.7,1.9,0.7c1.1,0,2-0.4,2.7-1.1
		l1.8,1.7c-0.7,0.6-1.3,1.1-1.9,1.4c-0.7,0.3-1.6,0.5-2.6,0.5c-3.7,0-5.6-2-5.6-5.9c0-1.9,0.5-3.3,1.5-4.4c0.9-1,2.2-1.5,3.8-1.5
		c1.6,0,2.9,0.5,3.9,1.6c0.9,1,1.4,2.3,1.4,4V-162.3z M-398.9-164.3c0-0.5-0.1-0.9-0.3-1.2c-0.4-0.8-1-1.2-2-1.2s-1.6,0.4-2,1.2
		c-0.2,0.4-0.3,0.8-0.3,1.2H-398.9z"/>
	<path id="XMLID_266_" class="st0" d="M-418.8-172.3l-2.8,2.8c2,1.5,3.3,3.9,3.3,6.6c0,2.7-1.3,5.1-3.3,6.6l2.8,2.8
		c2.7-2.2,4.4-5.6,4.4-9.4C-414.5-166.7-416.2-170.1-418.8-172.3"/>
</g>
<g id="XMLID_264_">
	<rect id="XMLID_2106_" x="2.3" y="-177.6" class="st1" width="59.9" height="25.5"/>
	<g id="XMLID_2087_">
		<path id="XMLID_2105_" class="st2" d="M7.1-169.7H7c-0.1,0.5-0.1,1.1-0.2,1.6c-0.1,0.6-0.1,1.1-0.2,1.7c-0.1,0.6-0.2,1.2-0.3,1.8
			c-0.1,0.6-0.4,2.5-0.4,3.1c0.1,0,0.6,0,0.7,0c0-0.3,0.2-2,0.2-2.4c0-0.4,0.1-0.8,0.1-1.3c0-0.5,0.1-0.9,0.1-1.4
			c0.1-0.5,0.1-0.9,0.2-1.3h0c0.4,0.9,0.8,1.7,1.3,2.5c0.4,0.8,0.8,1.6,1.2,2.4h0.1c0.4-0.9,0.8-1.7,1.2-2.5
			c0.4-0.8,0.9-1.6,1.3-2.4h0c0.1,0.8,0.2,1.7,0.3,2.5c0.1,0.8,0.3,3.1,0.4,3.9c0.1,0,0.8,0,0.9,0c-0.1-0.5-0.3-2.5-0.4-3
			c-0.1-0.5-0.1-1.1-0.2-1.7c-0.1-0.6-0.1-1.1-0.2-1.7c-0.1-0.6-0.1-1.2-0.2-1.8h-0.1c-0.2,0.3-0.3,0.6-0.5,1
			c-0.2,0.3-0.4,0.7-0.6,1c-0.2,0.4-0.4,0.7-0.6,1.1c-0.2,0.3-0.4,0.7-0.5,1c-0.2,0.3-0.3,0.6-0.4,0.8c-0.1,0.2-0.2,0.4-0.3,0.5
			c-0.5-0.9-1-1.8-1.4-2.7C8-167.9,7.6-168.8,7.1-169.7"/>
		<path id="XMLID_2102_" class="st2" d="M20.8-161.5c-0.1,0-0.2,0-0.3,0h-0.3H20c-0.1,0-0.2,0-0.3,0c0-0.1-0.1-0.3-0.2-0.5
			c-0.1-0.2-0.2-0.4-0.3-0.7c-0.1-0.2-0.2-0.5-0.3-0.7c-0.1-0.2-0.2-0.5-0.3-0.7c-0.2,0-0.4,0-0.6,0c-0.2,0-0.4,0-0.6,0
			c-0.2,0-0.4,0-0.6,0c-0.2,0-0.4,0-0.6,0c-0.2,0.5-0.4,1-0.6,1.4c-0.2,0.5-0.3,0.8-0.4,1.1c-0.1,0-0.2,0-0.4,0c-0.1,0-0.2,0-0.4,0
			c0.5-1.1,1-2.3,1.5-3.4c0.5-1.1,1-2.3,1.5-3.4h0.2c0.2,0.4,0.3,0.8,0.5,1.2c0.2,0.4,0.4,0.9,0.6,1.3c0.2,0.4,0.4,0.9,0.6,1.3
			c0.2,0.4,0.4,0.8,0.5,1.2c0.2,0.4,0.3,0.7,0.4,1C20.6-161.9,20.7-161.7,20.8-161.5 M16.5-164.6c0.2,0,0.3,0,0.5,0
			c0.2,0,0.4,0,0.5,0h0.5c0.2,0,0.4,0,0.5,0l-1.1-2.5L16.5-164.6z"/>
		<path id="XMLID_2101_" class="st2" d="M21.6-165.7v1.7c0,0.4,0,0.8,0,1.3c0,0.4,0,0.8,0,1.2c0.3,0,0.6,0,0.9,0h0.9h0.9
			c0.3,0,0.6,0,0.9,0c0-0.1,0-0.2,0-0.3c0-0.1,0-0.2,0-0.3c-0.5,0.1-0.9,0.1-1.4,0.1c-0.4,0-0.9,0-1.3,0c0-0.5,0-1,0-1.6
			c0-0.6,0-1.3,0-2.1c0-0.4,0-0.8,0-1.2c0-0.4,0-0.8,0.1-1.3c-0.1,0-0.2,0-0.2,0c-0.1,0-0.2,0-0.2,0c-0.1,0-0.2,0-0.2,0
			c-0.1,0-0.2,0-0.2,0c0,0.4,0,0.8,0,1.3C21.6-166.5,21.6-166.1,21.6-165.7"/>
		<path id="XMLID_2100_" class="st2" d="M26.1-165.7v1.7c0,0.4,0,0.8,0,1.3c0,0.4,0,0.8,0,1.2c0.3,0,0.6,0,0.9,0h0.9h0.9
			c0.3,0,0.6,0,0.9,0c0-0.1,0-0.2,0-0.3c0-0.1,0-0.2,0-0.3c-0.5,0.1-0.9,0.1-1.4,0.1c-0.4,0-0.9,0-1.3,0c0-0.5,0-1,0-1.6
			c0-0.6,0-1.3,0-2.1c0-0.4,0-0.8,0-1.2c0-0.4,0-0.8,0.1-1.3c-0.1,0-0.2,0-0.2,0c-0.1,0-0.2,0-0.2,0c-0.1,0-0.2,0-0.2,0
			c-0.1,0-0.2,0-0.2,0c0,0.4,0,0.8,0,1.3C26.1-166.5,26.1-166.1,26.1-165.7"/>
		<path id="XMLID_2097_" class="st2" d="M30.7-167.1v1.7c0,0.4,0,0.8,0,1.3c0,0.4,0,2.2,0,2.6c0.1,0,0.8,0,0.9,0
			c0-0.4,0-2.2-0.1-2.6c0-0.4,0-0.8,0-1.3v-0.5c0.1,0,0.3,0,0.4,0h0.4c0.2,0,0.5,0,0.8-0.1c0.3-0.1,0.6-0.2,0.9-0.3
			c0.3-0.1,0.5-0.4,0.7-0.6c0.2-0.3,0.3-0.6,0.3-1c0-0.3,0-0.5-0.1-0.7c-0.1-0.2-0.2-0.3-0.3-0.5c-0.1-0.1-0.3-0.2-0.4-0.3
			c-0.2-0.1-0.3-0.1-0.5-0.1c-0.2,0-0.3-0.1-0.4-0.1c-0.1,0-0.3,0-0.4,0c-0.1,0-0.2,0-0.3,0c-0.1,0-0.2,0-0.3,0c-0.1,0-0.2,0-0.3,0
			c-0.1,0-0.2,0-0.3,0c-0.2,0-0.3,0-0.5,0c-0.2,0-0.3,0-0.5,0c0,0.4,0,0.8,0,1.3C30.7-167.9,30.7-167.5,30.7-167.1 M31.5-166.4v-2.9
			h0.9c0.3,0,0.5,0,0.7,0.1c0.2,0,0.4,0.1,0.5,0.2c0.1,0.1,0.3,0.2,0.3,0.4c0.1,0.2,0.1,0.4,0.1,0.7c0,0.3-0.1,0.6-0.2,0.8
			c-0.1,0.2-0.3,0.4-0.4,0.5c-0.2,0.1-0.4,0.2-0.6,0.2c-0.2,0-0.4,0.1-0.6,0.1C31.9-166.3,31.7-166.3,31.5-166.4"/>
		<path id="XMLID_2096_" class="st2" d="M35.8-165.7v1.7c0,0.4,0,0.8,0,1.3c0,0.4,0,0.8,0,1.2c0.3,0,0.6,0,0.9,0h0.9h0.9
			c0.3,0,0.6,0,0.9,0c0-0.1,0-0.2,0-0.3c0-0.1,0-0.2,0-0.3c-0.5,0.1-0.9,0.1-1.4,0.1c-0.4,0-0.9,0-1.3,0c0-0.5,0-1,0-1.6
			c0-0.6,0-1.3,0-2.1c0-0.4,0-0.8,0-1.2c0-0.4,0-0.8,0.1-1.3c-0.1,0-0.2,0-0.2,0c-0.1,0-0.2,0-0.2,0c-0.1,0-0.2,0-0.2,0
			c-0.1,0-0.2,0-0.2,0c0,0.4,0,0.8,0,1.3C35.8-166.5,35.8-166.1,35.8-165.7"/>
		<path id="XMLID_2093_" class="st2" d="M46-161.5c-0.1,0-0.2,0-0.3,0h-0.3h-0.3c-0.1,0-0.2,0-0.3,0c0-0.1-0.1-0.3-0.2-0.5
			c-0.1-0.2-0.2-0.4-0.3-0.7c-0.1-0.2-0.2-0.5-0.3-0.7c-0.1-0.2-0.2-0.5-0.3-0.7c-0.2,0-0.4,0-0.6,0c-0.2,0-0.4,0-0.6,0
			c-0.2,0-0.4,0-0.6,0c-0.2,0-0.4,0-0.6,0c-0.2,0.5-0.4,1-0.6,1.4c-0.2,0.5-0.3,0.8-0.4,1.1c-0.1,0-0.2,0-0.4,0c-0.1,0-0.2,0-0.4,0
			c0.5-1.1,1-2.3,1.5-3.4c0.5-1.1,1-2.3,1.5-3.4H43c0.2,0.4,0.3,0.8,0.5,1.2c0.2,0.4,0.4,0.9,0.6,1.3c0.2,0.4,0.4,0.9,0.6,1.3
			c0.2,0.4,0.4,0.8,0.5,1.2c0.2,0.4,0.3,0.7,0.4,1C45.8-161.9,45.9-161.7,46-161.5 M41.7-164.6c0.2,0,0.3,0,0.5,0c0.2,0,0.4,0,0.5,0
			h0.5c0.2,0,0.4,0,0.5,0l-1.1-2.5L41.7-164.6z"/>
		<path id="XMLID_2092_" class="st2" d="M46.5-161.7v0.1c0.1,0,0.3,0,0.6,0h0.8h0.9h0.9h0.5h0.5h0.6c0.2,0,0.4,0,0.6,0
			c0-0.1,0-0.2,0-0.3c0-0.1,0-0.1,0-0.2c0-0.1,0-0.1,0-0.2c-0.2,0-0.4,0-0.7,0.1c-0.3,0-0.6,0-0.9,0.1c-0.3,0-0.6,0-1,0
			c-0.3,0-0.6,0-0.9,0h-0.4c-0.1,0-0.3,0-0.4,0c0.1-0.2,0.2-0.4,0.5-0.7c0.2-0.3,0.5-0.7,0.7-1.1c0.3-0.4,0.6-0.8,0.9-1.3
			c0.3-0.4,0.6-0.9,0.9-1.3c0.3-0.4,0.5-0.7,0.8-1.1c0.2-0.3,0.4-0.5,0.5-0.7v-0.2c-0.2,0-0.3,0-0.5,0c-0.2,0-0.3,0-0.5,0h-2.5
			c-0.7,0-1.2,0-1.5,0c0,0.1,0,0.2,0,0.3s0,0.2,0,0.3c0.2,0,0.4,0,0.7,0c0.3,0,0.5,0,0.8,0c0.3,0,0.6,0,0.9,0c0.3,0,0.5,0,0.8,0
			c0.1,0,0.2,0,0.3,0c0.1,0,0.2,0,0.3,0c-0.1,0.1-0.2,0.3-0.4,0.6c-0.2,0.2-0.4,0.5-0.6,0.9c-0.2,0.3-0.5,0.7-0.7,1.1
			c-0.3,0.4-0.5,0.8-0.8,1.2c-0.3,0.4-0.6,0.8-0.9,1.2C47-162.4,46.7-162,46.5-161.7"/>
		<path id="XMLID_2089_" class="st2" d="M58.6-161.5c-0.1,0-0.2,0-0.3,0H58h-0.3c-0.1,0-0.2,0-0.3,0c0-0.1-0.1-0.3-0.2-0.5
			c-0.1-0.2-0.2-0.4-0.3-0.7c-0.1-0.2-0.2-0.5-0.3-0.7c-0.1-0.2-0.2-0.5-0.3-0.7c-0.2,0-0.4,0-0.6,0c-0.2,0-0.4,0-0.6,0
			c-0.2,0-0.4,0-0.6,0c-0.2,0-0.4,0-0.6,0c-0.2,0.5-0.4,1-0.6,1.4c-0.2,0.5-0.3,0.8-0.4,1.1c-0.1,0-0.2,0-0.4,0c-0.1,0-0.2,0-0.4,0
			c0.5-1.1,1-2.3,1.5-3.4c0.5-1.1,1-2.3,1.5-3.4h0.2c0.2,0.4,0.3,0.8,0.5,1.2c0.2,0.4,0.4,0.9,0.6,1.3c0.2,0.4,0.4,0.9,0.6,1.3
			c0.2,0.4,0.4,0.8,0.5,1.2c0.2,0.4,0.3,0.7,0.4,1C58.4-161.9,58.5-161.7,58.6-161.5 M54.3-164.6c0.2,0,0.3,0,0.5,0
			c0.2,0,0.4,0,0.5,0h0.5c0.2,0,0.4,0,0.5,0l-1.1-2.5L54.3-164.6z"/>
	</g>
	<g id="XMLID_2075_">
		<defs>
			<path id="XMLID_2076_" d="M42.6-160.5c-1.9,0-3.9,0.1-5.7,0.2c-1.9,0-3.8,0.1-5.7,0.2c-4,0.1-8,0.4-11.5,0.7l0,0
				c0.2,0,0.5,0,0.7-0.1c5.7-0.5,11.9-0.8,14.4-0.8c-0.9,0-1.9,0.1-2.8,0.1c-2.6,0.1-6.1,0.3-9.7,0.6c-0.9,0.1-1.7,0.1-2.6,0.2
				l0,0.2c0.7-0.1,1.3-0.1,1.9-0.2l-1.9,0.3l0,0.4c6.5-0.6,12.3-0.7,17.3-0.9c6.9,0,16.1,0,21.4,0.6c0,0,0.2-0.1,0.3-0.2
				c0.2-0.2,0.2-0.5,0-0.7c-0.1-0.1-0.2-0.3-0.3-0.3c0,0-0.1,0-0.2,0c-0.5,0-0.2-0.1-0.2-0.1c-0.9,0-1.3,0-2.3-0.1l0.2,0
				c-0.3,0-0.5,0-0.7,0c-1.2,0-2.4-0.1-3.6-0.1c-3.6-0.1-7.1-0.1-9.7,0c-0.9,0-1.8,0-2.8,0c1.8-0.1,6.1-0.2,6-0.2
				C44.9-160.6,44.3-160.5,42.6-160.5"/>
		</defs>
		<use xlink:href="#XMLID_2076_"  style="overflow:visible;fill:#FFFFFF;"/>
		<clipPath id="XMLID_54_">
			<use xlink:href="#XMLID_2076_"  style="overflow:visible;"/>
		</clipPath>
		
			<rect id="XMLID_2086_" x="19.7" y="-162.8" transform="matrix(-0.9976 -6.970186e-02 6.970186e-02 -0.9976 54.3281 -317.7417)" class="st3" width="3.9" height="6"/>
		
			<rect id="XMLID_2085_" x="23.6" y="-162.6" transform="matrix(-0.9976 -6.994478e-02 6.994478e-02 -0.9976 62.1253 -316.9179)" class="st3" width="3.9" height="6"/>
		
			<rect id="XMLID_2084_" x="27.5" y="-162.3" transform="matrix(-0.9976 -6.965931e-02 6.965931e-02 -0.9976 69.8397 -316.1117)" class="st3" width="3.9" height="6"/>
		
			<rect id="XMLID_2083_" x="31.4" y="-162" transform="matrix(-0.9976 -6.970674e-02 6.970674e-02 -0.9976 77.6071 -315.2949)" class="st3" width="3.9" height="6"/>
		
			<rect id="XMLID_2082_" x="35.2" y="-161.7" transform="matrix(-0.9976 -6.968479e-02 6.968479e-02 -0.9976 85.3632 -314.481)" class="st3" width="3.9" height="6"/>
		
			<rect id="XMLID_2081_" x="39.1" y="-161.5" transform="matrix(-0.9976 -6.994724e-02 6.994724e-02 -0.9976 93.1637 -313.6524)" class="st3" width="3.9" height="6"/>
		
			<rect id="XMLID_2080_" x="43" y="-161.2" transform="matrix(-0.9976 -6.969939e-02 6.969939e-02 -0.9976 100.8856 -312.8486)" class="st3" width="3.9" height="6"/>
		
			<rect id="XMLID_2079_" x="46.9" y="-160.9" transform="matrix(-0.9976 -6.966419e-02 6.966419e-02 -0.9976 108.6391 -312.0357)" class="st3" width="3.9" height="6"/>
		
			<rect id="XMLID_2078_" x="50.8" y="-160.6" transform="matrix(-0.9976 -6.969939e-02 6.969939e-02 -0.9976 116.4037 -311.2188)" class="st3" width="3.9" height="6"/>
		
			<rect id="XMLID_2077_" x="54.7" y="-160.4" transform="matrix(-0.9976 -6.994478e-02 6.994478e-02 -0.9976 124.2008 -310.3864)" class="st3" width="3.9" height="6"/>
	</g>
	<g id="XMLID_2049_">
		<defs>
			<path id="XMLID_2050_" d="M8.3-157.9L8.3-157.9L8.3-157.9z M7.2-158L7.2-158L7.2-158z M14.2-158C12.5-157.8,13.8-157.9,14.2-158
				 M14.7-158.3c-2.4,0.3-3.9,0.5-4.5,0.6c0.1,0,3.8-0.5,5.1-0.6l0,0l-1.8,0.2c0.7-0.1,1.3-0.1,2-0.2l0.2,0
				c-0.6,0.1-1.2,0.2-1.6,0.2c0.4,0,1-0.2,1.9-0.3l0.8-0.1c1-0.1,1.9-0.2,2.9-0.3l0-0.4L14.7-158.3z M18.6-159.2
				c-0.2,0-0.4,0-0.7,0.1l0.2,0c-5,0.5-9.1,1.1-9.7,1.3c0,0,6.6-0.7,11.4-1.2l0-0.2C19.4-159.3,19-159.2,18.6-159.2 M7.2-158
				c0.1,0,5.9-0.9,12.6-1.4l0,0C13.1-158.9,8-158.2,7.2-158"/>
		</defs>
		<use xlink:href="#XMLID_2050_"  style="overflow:visible;fill:#FFFFFF;"/>
		<clipPath id="XMLID_55_">
			<use xlink:href="#XMLID_2050_"  style="overflow:visible;"/>
		</clipPath>
		
			<rect id="XMLID_2074_" x="7.3" y="-163.8" transform="matrix(-0.9975 -7.010310e-02 7.010310e-02 -0.9975 26.5813 -320.6559)" class="st4" width="0.7" height="6"/>
		
			<rect id="XMLID_2073_" x="8" y="-163.8" transform="matrix(-0.9976 -6.948977e-02 6.948977e-02 -0.9976 27.8672 -320.5213)" class="st4" width="0.7" height="6"/>
		
			<rect id="XMLID_2072_" x="8.7" y="-163.7" transform="matrix(-0.9975 -7.011686e-02 7.011686e-02 -0.9975 29.3518 -320.364)" class="st4" width="0.7" height="6"/>
		
			<rect id="XMLID_2071_" x="9.4" y="-163.7" transform="matrix(-0.9975 -7.010315e-02 7.010315e-02 -0.9975 30.734 -320.2189)" class="st4" width="0.7" height="6"/>
		
			<rect id="XMLID_2070_" x="10.1" y="-163.6" transform="matrix(-0.9975 -7.068912e-02 7.068912e-02 -0.9975 32.2114 -320.0602)" class="st4" width="0.7" height="6"/>
		
			<rect id="XMLID_2069_" x="10.8" y="-163.6" transform="matrix(-0.9975 -7.011691e-02 7.011691e-02 -0.9975 33.5042 -319.9267)" class="st4" width="0.7" height="6"/>
		
			<rect id="XMLID_2068_" x="11.5" y="-163.5" transform="matrix(-0.9975 -7.010315e-02 7.010315e-02 -0.9975 34.8863 -319.7808)" class="st4" width="0.7" height="6"/>
		
			<rect id="XMLID_2067_" x="12.2" y="-163.5" transform="matrix(-0.9976 -6.968112e-02 6.968112e-02 -0.9976 36.2031 -319.6458)" class="st4" width="0.7" height="6"/>
		
			<rect id="XMLID_2066_" x="12.9" y="-163.4" transform="matrix(-0.9975 -7.007564e-02 7.007564e-02 -0.9975 37.6507 -319.491)" class="st4" width="0.7" height="6"/>
		
			<rect id="XMLID_2065_" x="13.6" y="-163.4" transform="matrix(-0.9976 -6.977697e-02 6.977697e-02 -0.9976 38.9871 -319.3517)" class="st4" width="0.7" height="6"/>
		
			<rect id="XMLID_2064_" x="14.3" y="-163.3" transform="matrix(-0.9975 -7.007564e-02 7.007564e-02 -0.9975 40.4189 -319.1994)" class="st4" width="0.7" height="6"/>
		
			<rect id="XMLID_2063_" x="15" y="-163.3" transform="matrix(-0.9975 -7.007564e-02 7.007564e-02 -0.9975 41.8027 -319.0539)" class="st4" width="0.7" height="6"/>
		
			<rect id="XMLID_2062_" x="15.7" y="-163.2" transform="matrix(-0.9975 -7.068912e-02 7.068912e-02 -0.9975 43.2847 -318.8911)" class="st4" width="0.7" height="6"/>
		
			<rect id="XMLID_2061_" x="16.3" y="-163.2" transform="matrix(-0.9975 -7.013069e-02 7.013069e-02 -0.9975 44.5805 -318.7606)" class="st4" width="0.7" height="6"/>
		
			<rect id="XMLID_2060_" x="17" y="-163.1" transform="matrix(-0.9975 -7.027289e-02 7.027289e-02 -0.9975 45.9866 -318.6101)" class="st4" width="0.7" height="6"/>
		
			<rect id="XMLID_2059_" x="17.7" y="-163.1" transform="matrix(-0.9975 -7.071689e-02 7.071689e-02 -0.9975 47.4418 -318.4518)" class="st4" width="0.7" height="6"/>
		
			<rect id="XMLID_2058_" x="18.4" y="-163" transform="matrix(-0.9975 -7.068923e-02 7.068923e-02 -0.9975 48.8209 -318.3076)" class="st4" width="0.7" height="6"/>
		
			<rect id="XMLID_2057_" x="19.1" y="-163" transform="matrix(-0.9976 -6.968112e-02 6.968112e-02 -0.9976 50.0453 -318.1909)" class="st4" width="0.7" height="6"/>
	</g>
	<g id="XMLID_2042_">
		<path id="XMLID_2044_" class="st2" d="M58.1-168c0,0-0.1,0-0.1,0h-0.1v0.2H58c0,0,0.1,0,0.1,0C58.1-167.8,58.2-167.9,58.1-168
			C58.2-167.9,58.1-168,58.1-168 M58-168.1c0.1,0,0.1,0,0.2,0c0.1,0,0.1,0.1,0.1,0.2c0,0.1,0,0.1-0.1,0.1c0,0-0.1,0-0.1,0
			c0,0,0.1,0,0.1,0.1c0,0,0,0.1,0,0.1v0c0,0,0,0,0,0c0,0,0,0,0,0l0,0h-0.1c0,0,0,0,0,0c0,0,0,0,0,0l0,0v0c0-0.1,0-0.1-0.1-0.1
			c0,0-0.1,0-0.1,0h-0.1v0.2h-0.1v-0.6H58z M57.7-168.1c-0.1,0.1-0.1,0.2-0.1,0.3c0,0.1,0,0.2,0.1,0.3c0.1,0.1,0.2,0.1,0.3,0.1
			c0.1,0,0.2,0,0.3-0.1c0.1-0.1,0.1-0.2,0.1-0.3c0-0.1,0-0.2-0.1-0.3c-0.1-0.1-0.2-0.1-0.3-0.1C57.9-168.3,57.8-168.2,57.7-168.1
			 M58.4-167.4c-0.1,0.1-0.2,0.2-0.4,0.2c-0.2,0-0.3-0.1-0.4-0.2c-0.1-0.1-0.2-0.2-0.2-0.4c0-0.2,0.1-0.3,0.2-0.4
			c0.1-0.1,0.2-0.2,0.4-0.2c0.2,0,0.3,0.1,0.4,0.2c0.1,0.1,0.2,0.2,0.2,0.4C58.6-167.6,58.5-167.5,58.4-167.4"/>
	</g>
</g>
<g id="XMLID_263_">
	<path id="XMLID_2356_" class="st5" d="M-127.4-173.5c0-3.9,3.2-7.1,7.1-7.1c0.8,0,1.6,0.1,2.3,0.4c-0.3-0.8-0.5-1.7-0.5-2.6
		c0-3.9,3.2-7.1,7.1-7.1c3.9,0,7.1,3.2,7.1,7.1c0,0.9-0.2,1.9-0.5,2.7c0.8-0.3,1.6-0.5,2.5-0.5c3.9,0,7.1,3.2,7.1,7.1l0,0l0,7.1H-99
		v-7.1h0l0,0c0-1.9-1.5-3.4-3.4-3.4c-1.9,0-3.4,1.5-3.4,3.4c0,1.9,1.5,3.4,3.4,3.4c0.7,0,1.3-0.2,1.9-0.6v4.1
		c-0.6,0.2-1.2,0.3-1.9,0.3c-0.9,0-1.7-0.2-2.5-0.5c0.3,0.8,0.5,1.7,0.5,2.7c0,3.9-3.2,7.1-7.1,7.1c-3.9,0-7.1-3.2-7.1-7.1
		c0-0.9,0.2-1.8,0.5-2.6c-0.7,0.2-1.5,0.4-2.3,0.4C-124.2-166.4-127.4-169.5-127.4-173.5L-127.4-173.5z M-114.8-164.1
		c0-1.9,1.5-3.4,3.4-3.4c0,0,0.1,0,0.1,0l-3.4-5.5h-2.3c-0.2,1.6-1.6,2.9-3.3,2.9c-1.9,0-3.4-1.5-3.4-3.4c0-1.9,1.5-3.4,3.4-3.4
		c1.5,0,2.8,1,3.2,2.4h3.2l5,8.1c0.5,0.6,0.8,1.4,0.8,2.2c0,1.9-1.5,3.4-3.4,3.4C-113.3-160.8-114.8-162.3-114.8-164.1L-114.8-164.1
		z M-114.8-182.8c0-1.9,1.5-3.4,3.4-3.4c1.9,0,3.4,1.5,3.4,3.4c0,1.9-1.5,3.4-3.4,3.4l-0.1,0l2.9,4.3l-1.7,0l-4.1-6.1l0,0
		C-114.7-181.7-114.8-182.2-114.8-182.8L-114.8-182.8z"/>
	<path id="XMLID_2349_" class="st5" d="M-74.7-143.6h0.3c0.2,0,0.4,0,0.4,0.2c0,0.2-0.2,0.3-0.4,0.3h-0.3V-143.6L-74.7-143.6z
		 M-75.1-142h0.3v-0.8h0.2l0.5,0.8h0.3l-0.5-0.8c0.3,0,0.5-0.2,0.5-0.5c0-0.4-0.2-0.5-0.7-0.5h-0.7V-142L-75.1-142z M-74.4-141.6
		c-0.7,0-1.2-0.5-1.2-1.3c0-0.8,0.5-1.3,1.2-1.3c0.7,0,1.2,0.5,1.2,1.3C-73.2-142.2-73.8-141.6-74.4-141.6L-74.4-141.6z
		 M-74.4-141.3c0.9,0,1.6-0.7,1.6-1.6s-0.7-1.6-1.6-1.6c-0.9,0-1.6,0.7-1.6,1.6S-75.3-141.3-74.4-141.3L-74.4-141.3z"/>
	<path id="XMLID_2346_" class="st5" d="M-136.7-145.5h-2.6l1.3-4h0L-136.7-145.5L-136.7-145.5z M-143.5-141.3h2.8l0.8-2.2h3.9
		l0.8,2.2h3l-4-10.3h-3.4L-143.5-141.3L-143.5-141.3z"/>
	<polygon id="XMLID_2345_" class="st5" points="-131.5,-141.3 -128.9,-141.3 -128.9,-152.4 -131.5,-152.4 -131.5,-141.3 	"/>
	<path id="XMLID_2342_" class="st5" d="M-125.1-145.9c0.1-0.9,0.5-1.6,1.5-1.6c1.1,0,1.5,0.7,1.5,1.6H-125.1L-125.1-145.9z
		 M-119.8-144.4v-0.5c0-2.3-1-4.3-3.9-4.3c-2.4,0-4.1,1.5-4.1,4c0,2.5,1.9,4,4.5,4c1,0,2-0.1,2.8-0.5v-1.9c-0.8,0.4-1.6,0.6-2.3,0.6
		c-1.3,0-2.1-0.4-2.3-1.5H-119.8L-119.8-144.4z"/>
	<path id="XMLID_2341_" class="st5" d="M-118.8-141.3h2.7v-3.2c0-1.7,0.6-2.4,1.5-2.4c0.8,0,1.1,0.6,1.1,1.5v4.1h2.7v-3.2
		c0-1.7,0.6-2.4,1.5-2.4c0.8,0,1.1,0.6,1.1,1.5v4.1h2.7v-4.5c0-2.1-0.5-3.3-2.7-3.3c-1.1,0-2.1,0.4-2.7,1.5c-0.4-1-1.3-1.5-2.4-1.5
		c-1.2,0-2.3,0.5-2.8,1.6h0v-1.4h-2.4V-141.3L-118.8-141.3z"/>
	<path id="XMLID_2338_" class="st5" d="M-102.4-143.8c0-0.7,0.7-1,1.6-1c0.4,0,0.8,0,1.1,0c0,0.9-0.6,1.8-1.6,1.8
		C-101.9-142.9-102.4-143.2-102.4-143.8L-102.4-143.8z M-97.1-141.3c-0.1-0.6-0.1-1.2-0.1-1.8v-2.9c0-2.3-1.7-3.2-3.7-3.2
		c-1.1,0-2.1,0.2-3.1,0.5l0,1.8c0.7-0.4,1.6-0.6,2.4-0.6c1,0,1.7,0.3,1.8,1.3c-0.3-0.1-0.8-0.1-1.2-0.1c-1.4,0-4,0.3-4,2.6
		c0,1.7,1.4,2.4,2.9,2.4c1.1,0,1.8-0.4,2.4-1.4h0c0,0.4,0,0.8,0.1,1.2H-97.1L-97.1-141.3z"/>
	<path id="XMLID_2337_" class="st5" d="M-96-141.3h2.7v-3.2c0-1.7,0.6-2.4,1.7-2.4c0.7,0,1.2,0.5,1.2,1.9v3.7h2.7v-4.8
		c0-1.6-0.8-3.1-2.9-3.1c-1.2,0-2.3,0.5-2.8,1.6h0v-1.4H-96V-141.3L-96-141.3z"/>
	<path id="XMLID_2334_" class="st5" d="M-84.4-143.8c0-0.7,0.7-1,1.6-1c0.4,0,0.8,0,1.1,0c0,0.9-0.6,1.8-1.6,1.8
		C-84-142.9-84.4-143.2-84.4-143.8L-84.4-143.8z M-79.1-141.3c-0.1-0.6-0.1-1.2-0.1-1.8v-2.9c0-2.3-1.7-3.2-3.7-3.2
		c-1.1,0-2.1,0.2-3.1,0.5l0,1.8c0.7-0.4,1.6-0.6,2.4-0.6c1,0,1.7,0.3,1.8,1.3c-0.3-0.1-0.8-0.1-1.2-0.1c-1.4,0-4,0.3-4,2.6
		c0,1.7,1.4,2.4,2.9,2.4c1.1,0,1.8-0.4,2.4-1.4h0c0,0.4,0,0.8,0.1,1.2H-79.1L-79.1-141.3z"/>
	<path id="XMLID_2331_" class="st5" d="M-81.1-151H-82l0.4-0.9h0L-81.1-151L-81.1-151z M-83.4-150.1h0.9l0.3-0.5h1.3l0.3,0.5h1
		l-1.3-2.2h-1.1L-83.4-150.1L-83.4-150.1z"/>
	<path id="XMLID_2330_" class="st5" d="M-86.2-150.6c-0.3,0.1-0.6,0.1-0.9,0.1c-0.7,0-1.2-0.3-1.2-0.7c0-0.4,0.4-0.7,1.1-0.7
		c0.3,0,0.6,0.1,0.9,0.2l0.1-0.5c-0.3-0.1-0.7-0.1-1-0.1c-1.1,0-2,0.4-2,1.2c0,0.8,1.1,1.1,2,1.1c0.5,0,0.8,0,1-0.1L-86.2-150.6
		L-86.2-150.6z"/>
	<polygon id="XMLID_2329_" class="st5" points="-93.9,-150.1 -93,-150.1 -93,-152.3 -93.9,-152.3 -93.9,-150.1 	"/>
	<polygon id="XMLID_2328_" class="st5" points="-101.2,-150.1 -100.4,-150.1 -100.4,-151.6 -100.4,-151.6 -99.2,-150.1 -98,-150.1 
		-98,-152.3 -98.9,-152.3 -98.9,-150.8 -98.9,-150.8 -100,-152.3 -101.2,-152.3 -101.2,-150.1 	"/>
	<polygon id="XMLID_2327_" class="st5" points="-106.1,-150.1 -105.1,-150.1 -105.1,-152.3 -106.1,-152.3 -106.1,-150.1 	"/>
	<polygon id="XMLID_2326_" class="st5" points="-112,-150.1 -109.7,-150.1 -109.7,-150.5 -111.1,-150.5 -111.1,-152.3 -112,-152.3 
		-112,-150.1 	"/>
	<path id="XMLID_2325_" class="st5" d="M-115.9-150.6c-0.3,0.1-0.6,0.1-0.9,0.1c-0.7,0-1.2-0.3-1.2-0.7c0-0.4,0.4-0.7,1.1-0.7
		c0.3,0,0.6,0.1,0.9,0.2l0.1-0.5c-0.3-0.1-0.7-0.1-1-0.1c-1.1,0-2,0.4-2,1.2c0,0.8,1.1,1.1,2,1.1c0.5,0,0.8,0,1-0.1L-115.9-150.6
		L-115.9-150.6z"/>
</g>
<g id="XMLID_257_">
	<g id="XMLID_262_" class="st6">
		<g id="XMLID_2738_">
			<rect id="XMLID_2040_" x="33.6" y="60.9" class="st5" width="0.4" height="3.5"/>
		</g>
		<g id="XMLID_2737_">
			<path id="XMLID_2038_" class="st5" d="M37.1,64.4h0.4v-1.8c0-0.4,0.3-0.5,0.5-0.5c0.4,0,0.4,0.3,0.4,0.5v1.8h0.4v-1.9
				c0-0.3,0-0.8-0.7-0.8c-0.3,0-0.5,0.1-0.6,0.4h0v-0.3h-0.4V64.4z"/>
		</g>
		<g id="XMLID_2736_">
			<path id="XMLID_2036_" class="st5" d="M41.9,64.4h0.4v-1.8c0-0.4,0.3-0.5,0.5-0.5c0.3,0,0.4,0.3,0.4,0.5v1.8h0.4v-1.8
				c0-0.4,0.3-0.5,0.5-0.5c0.3,0,0.4,0.3,0.4,0.5v1.8h0.4v-1.9c0-0.3,0-0.8-0.7-0.8c-0.3,0-0.5,0.2-0.6,0.4
				c-0.1-0.3-0.3-0.4-0.6-0.4c-0.3,0-0.5,0.1-0.6,0.4h0v-0.3h-0.4V64.4z"/>
		</g>
		<g id="XMLID_2733_">
			<path id="XMLID_2032_" class="st5" d="M47.8,63.1c0,0.7,0.2,1.4,1,1.4c0.8,0,1-0.7,1-1.4c0-0.7-0.2-1.4-1-1.4
				C48,61.7,47.8,62.4,47.8,63.1 M48.8,64.2c-0.4,0-0.5-0.5-0.5-1.1c0-0.6,0.1-1.1,0.5-1.1c0.4,0,0.5,0.5,0.5,1.1
				C49.3,63.7,49.2,64.2,48.8,64.2"/>
		</g>
		<g id="XMLID_2730_">
			<path id="XMLID_2028_" class="st5" d="M53,63.1c0-0.5,0.1-1,0.5-1c0.4,0,0.5,0.4,0.5,1c0,0.6-0.1,1-0.5,1
				C53.1,64.2,53,63.7,53,63.1 M52.6,64.4H53v-0.3h0c0.1,0.2,0.3,0.4,0.6,0.4c0.6,0,0.9-0.7,0.9-1.4c0-0.6-0.1-1.4-0.8-1.4
				c-0.3,0-0.5,0.1-0.6,0.4h0v-1.2h-0.4V64.4z"/>
		</g>
		<g id="XMLID_2727_">
			<path id="XMLID_2024_" class="st5" d="M57.4,64.4h0.4v-2.7h-0.4V64.4z M57.4,61.4h0.4v-0.5h-0.4V61.4z"/>
		</g>
		<g id="XMLID_2726_">
			<rect id="XMLID_2022_" x="60.9" y="60.9" class="st5" width="0.4" height="3.5"/>
		</g>
		<g id="XMLID_2723_">
			<path id="XMLID_2018_" class="st5" d="M64.4,64.4h0.4v-2.7h-0.4V64.4z M64.4,61.4h0.4v-0.5h-0.4V61.4z"/>
		</g>
		<g id="XMLID_2720_">
			<path id="XMLID_2014_" class="st5" d="M68.2,62.6L68.2,62.6c0-0.1,0-0.5,0.5-0.5c0.3,0,0.4,0.1,0.4,0.4c0,0.2,0,0.3-0.3,0.4
				L68.3,63c-0.3,0.1-0.5,0.4-0.5,0.7c0,0.5,0.2,0.8,0.7,0.8c0.2,0,0.5-0.1,0.6-0.4h0c0,0.3,0.2,0.3,0.4,0.3c0.1,0,0.2,0,0.2,0v-0.3
				c0,0,0,0-0.1,0c-0.1,0-0.1-0.1-0.1-0.2v-1.5c0-0.3,0-0.8-0.8-0.8c-0.6,0-0.9,0.3-0.9,0.9H68.2z M69.1,63.7c0,0.3-0.3,0.5-0.5,0.5
				c-0.3,0-0.4-0.2-0.4-0.5c0-0.2,0.1-0.3,0.2-0.4c0.2-0.1,0.6-0.1,0.7-0.3V63.7z"/>
		</g>
		<g id="XMLID_2719_">
			<path id="XMLID_2012_" class="st5" d="M72.6,64.4H73v-1.7c0-0.4,0.3-0.6,0.5-0.6c0.1,0,0.2,0,0.2,0v-0.4c0,0-0.1,0-0.2,0
				c-0.3,0-0.5,0.2-0.6,0.5h0v-0.4h-0.4V64.4z"/>
		</g>
		<g id="XMLID_2716_">
			<path id="XMLID_2008_" class="st5" d="M76.6,64.4H77v-2.7h-0.4V64.4z M76.6,61.4H77v-0.5h-0.4V61.4z"/>
		</g>
		<g id="XMLID_2713_">
			<path id="XMLID_2004_" class="st5" d="M80.4,62.6L80.4,62.6c0-0.1,0-0.5,0.5-0.5c0.3,0,0.4,0.1,0.4,0.4c0,0.2,0,0.3-0.3,0.4
				L80.4,63c-0.3,0.1-0.5,0.4-0.5,0.7c0,0.5,0.2,0.8,0.7,0.8c0.2,0,0.5-0.1,0.6-0.4h0c0,0.3,0.2,0.3,0.4,0.3c0.1,0,0.2,0,0.2,0v-0.3
				c0,0,0,0-0.1,0c-0.1,0-0.1-0.1-0.1-0.2v-1.5c0-0.3,0-0.8-0.8-0.8c-0.6,0-0.9,0.3-0.9,0.9H80.4z M81.3,63.7c0,0.3-0.3,0.5-0.5,0.5
				c-0.3,0-0.4-0.2-0.4-0.5c0-0.2,0.1-0.3,0.2-0.4c0.2-0.1,0.6-0.1,0.7-0.3V63.7z"/>
		</g>
	</g>
	<g id="XMLID_2706_">
		<path id="XMLID_2130_" class="st0" d="M62.3,36.5c0.8,0,1.5-0.4,1.8-1.2c0,0,0,0,0.2-0.4c1.7-3.6,3.1-6.2,4.2-7.9
			c0.6-0.8,1.1-1.4,1.4-1.7c0.1-0.1,0.2-0.2,0.3-0.2c0.1,0,0.4,0.3,0.7,0.7c0.4,0.4,0.8,1,1.3,1.9c1,1.7,2.2,4.3,3.7,7.5
			c0.3,0.7,1.1,1.2,1.9,1.2c0.3,0,0.6-0.1,0.8-0.2c0.7-0.3,1.2-1.1,1.2-1.9c0-0.3-0.1-0.6-0.2-0.8c-1.7-3.8-3.1-6.6-4.4-8.7
			c-0.7-1-1.3-1.9-2.1-2.6c-0.8-0.7-1.8-1.2-2.9-1.2c-1.2,0-2.2,0.5-2.9,1.2c-2.2,2-4,5.5-6.8,11.2c-0.1,0.3-0.2,0.6-0.2,0.9
			c0,0.8,0.4,1.5,1.2,1.8C61.7,36.4,62,36.5,62.3,36.5 M66.3,39.9c0.1,0.1,1.6,0.6,3.7,0.6c1.1,0,2.3-0.1,3.6-0.6
			c1.1-0.4,1.6-1.5,1.3-2.6c-0.4-1.1-1.5-1.6-2.6-1.3c-0.8,0.3-1.6,0.4-2.3,0.4c-0.7,0-1.3-0.1-1.7-0.2c-0.2,0-0.4-0.1-0.5-0.1
			l-0.1,0c-1.1-0.4-2.2,0.1-2.6,1.2C64.7,38.3,65.3,39.5,66.3,39.9 M85.3,30.8c0,8.5-6.9,15.3-15.3,15.3c-8.5,0-15.3-6.9-15.3-15.3
			c0-8.5,6.9-15.3,15.3-15.3C78.5,15.5,85.3,22.3,85.3,30.8"/>
	</g>
	<g id="XMLID_2703_">
		<path id="XMLID_2126_" class="st0" d="M41,59.6h-1.3v-1.2c-0.6,0.8-1.6,1.4-2.7,1.4c-2.2,0-3.9-1.7-3.9-4c0-2.3,1.8-4,3.9-4
			c2.2,0,3.9,1.8,3.9,4V59.6z M37,52.9c-1.5,0-2.7,1.3-2.7,2.9c0,1.6,1.2,2.8,2.7,2.8c1.4,0,2.7-1.3,2.7-2.8
			C39.7,54.2,38.5,52.9,37,52.9"/>
	</g>
	<g id="XMLID_2700_">
		<path id="XMLID_1985_" class="st0" d="M37,59.8c-2.2,0-3.9-1.8-3.9-4.1c0-2.3,1.7-4.1,4-4.1c2.2,0,4,1.8,4,4.1v3.9h-1.3v-1.1
			C39.1,59.3,38.1,59.8,37,59.8z M37,51.8c-2.2,0-3.9,1.8-3.9,4c0,2.2,1.7,4,3.9,4c1.1,0,2.1-0.5,2.7-1.4l0.1-0.1v1.3H41v-3.8
			C41,53.5,39.2,51.8,37,51.8z M37,58.7c-1.5,0-2.7-1.3-2.7-2.9c0-1.6,1.2-2.9,2.7-2.9c1.5,0,2.7,1.3,2.7,2.9
			C39.7,57.4,38.5,58.7,37,58.7z M37,52.9c-1.4,0-2.6,1.3-2.6,2.8c0,1.6,1.2,2.8,2.6,2.8c1.4,0,2.6-1.3,2.6-2.8
			C39.7,54.2,38.5,52.9,37,52.9z"/>
	</g>
	<g id="XMLID_2699_">
		<path id="XMLID_261_" class="st0" d="M45.7,59.8c-2.2,0-3.9-1.8-3.9-4c0-2.2,1.8-4,3.9-4c1.8,0,3.1,1,3.7,2.6H48
			c-0.4-0.8-1.2-1.4-2.3-1.4c-1.4,0-2.6,1.3-2.6,2.8c0,1.6,1.2,2.8,2.6,2.8c1,0,1.8-0.5,2.3-1.4h1.4C48.8,58.8,47.4,59.8,45.7,59.8"
			/>
	</g>
	<g id="XMLID_2698_">
		<path id="XMLID_1947_" class="st0" d="M45.7,59.8c-2.2,0-4-1.8-4-4c0-2.2,1.8-4.1,4-4.1c1.7,0,3.1,1,3.7,2.6l0,0h-1.4l0,0
			c-0.5-0.9-1.3-1.3-2.2-1.3c-1.4,0-2.6,1.3-2.6,2.8c0,1.5,1.2,2.8,2.6,2.8c1,0,1.8-0.5,2.2-1.3l0,0h1.4l0,0
			C48.8,58.8,47.4,59.8,45.7,59.8z M45.7,51.8c-2.2,0-3.9,1.8-3.9,4c0,2.2,1.8,4,3.9,4c1.7,0,3.1-1,3.6-2.5H48
			c-0.4,0.9-1.3,1.4-2.3,1.4c-1.5,0-2.7-1.3-2.7-2.8c0-1.6,1.2-2.9,2.7-2.9c1,0,1.8,0.5,2.3,1.4h1.3C48.8,52.7,47.4,51.8,45.7,51.8z
			"/>
	</g>
	<g id="XMLID_2695_">
		<path id="XMLID_2110_" class="st0" d="M57.6,55.8c0,2.2-1.7,4-3.9,4c-2.2,0-3.9-1.8-3.9-4c0-2.2,1.7-4.1,3.9-4.1
			C55.9,51.7,57.6,53.6,57.6,55.8 M56.3,55.8c0-1.6-1.2-2.8-2.7-2.8c-1.4,0-2.6,1.3-2.6,2.8c0,1.5,1.2,2.8,2.6,2.8
			C55.1,58.6,56.3,57.3,56.3,55.8"/>
	</g>
	<g id="XMLID_2692_">
		<path id="XMLID_1950_" class="st0" d="M53.7,59.8c-1.1,0-2.1-0.4-2.8-1.2c-0.7-0.8-1.1-1.8-1.1-2.9c0-2.3,1.7-4.1,4-4.1
			s4,1.8,4,4.1C57.7,58.1,55.9,59.8,53.7,59.8z M53.7,51.8c-2.2,0-3.9,1.8-3.9,4c0,2.2,1.7,4,3.9,4s3.9-1.7,3.9-4
			C57.6,53.5,55.9,51.8,53.7,51.8z M53.7,58.6c-1.5,0-2.7-1.3-2.7-2.8c0-1.6,1.2-2.9,2.7-2.9c1.5,0,2.7,1.3,2.7,2.9
			C56.4,57.3,55.2,58.6,53.7,58.6z M53.7,53c-1.4,0-2.6,1.3-2.6,2.8c0,1.5,1.2,2.8,2.6,2.8c1.4,0,2.6-1.2,2.6-2.8
			C56.3,54.2,55.1,53,53.7,53z"/>
	</g>
	<g id="XMLID_2691_">
		<path id="XMLID_260_" class="st0" d="M59.9,59.6h-1.3v-4.7c0-1.9,1.4-3.2,3.3-3.2c1.9,0,3.3,1.3,3.3,3.2v4.7h-1.3v-4.7
			c0-1.1-0.8-2-2-2c-1.2,0-2,0.8-2,2V59.6z"/>
	</g>
	<g id="XMLID_2690_">
		<path id="XMLID_1939_" class="st0" d="M65.1,59.6h-1.3v-4.7c0-1.2-0.8-2-1.9-2c-1.2,0-2,0.8-2,2v4.7h-1.3v-4.7
			c0-1.9,1.4-3.2,3.3-3.2c1.9,0,3.3,1.3,3.3,3.2V59.6z M63.9,59.6h1.2v-4.6c0-1.9-1.3-3.2-3.2-3.2c-1.9,0-3.2,1.3-3.2,3.2v4.6h1.2
			v-4.7c0-1.2,0.8-2,2-2c1.2,0,2,0.8,2,2V59.6z"/>
	</g>
	<g id="XMLID_2689_">
		<path id="XMLID_259_" class="st0" d="M70,59.8c-2.2,0-3.9-1.8-3.9-4c0-2.2,1.8-4,3.9-4c1.8,0,3.1,1,3.7,2.6h-1.4
			c-0.4-0.8-1.2-1.4-2.3-1.4c-1.4,0-2.6,1.3-2.6,2.8c0,1.6,1.2,2.8,2.6,2.8c1,0,1.8-0.5,2.3-1.4h1.4C73.1,58.8,71.7,59.8,70,59.8"/>
	</g>
	<g id="XMLID_2688_">
		<path id="XMLID_1594_" class="st0" d="M70,59.8c-2.2,0-4-1.8-4-4c0-2.2,1.8-4.1,4-4.1c1.7,0,3.1,1,3.7,2.6l0,0h-1.4l0,0
			C71.8,53.5,70.9,53,70,53c-1.4,0-2.6,1.3-2.6,2.8c0,1.5,1.2,2.8,2.6,2.8c1,0,1.8-0.5,2.2-1.3l0,0h1.4l0,0
			C73.1,58.8,71.7,59.8,70,59.8z M70,51.8c-2.2,0-3.9,1.8-3.9,4c0,2.2,1.7,4,3.9,4c1.7,0,3.1-1,3.6-2.5h-1.3
			c-0.4,0.9-1.3,1.4-2.3,1.4c-1.5,0-2.7-1.3-2.7-2.8c0-1.6,1.2-2.9,2.7-2.9c1,0,1.8,0.5,2.3,1.4h1.3C73,52.7,71.7,51.8,70,51.8z"/>
	</g>
	<g id="XMLID_2685_">
		<path id="XMLID_2017_" class="st0" d="M81.9,59.6h-1.3v-1.2c-0.6,0.8-1.6,1.4-2.7,1.4c-2.2,0-3.9-1.7-3.9-4c0-2.3,1.8-4,3.9-4
			c2.2,0,3.9,1.8,3.9,4V59.6z M78,52.9c-1.5,0-2.7,1.3-2.7,2.9c0,1.6,1.2,2.8,2.7,2.8c1.4,0,2.7-1.3,2.7-2.8
			C80.6,54.2,79.4,52.9,78,52.9"/>
	</g>
	<g id="XMLID_2682_">
		<path id="XMLID_1887_" class="st0" d="M77.9,59.8c-2.2,0-3.9-1.8-3.9-4.1c0-2.3,1.7-4.1,4-4.1c2.2,0,4,1.8,4,4.1v3.9h-1.3v-1.1
			C80,59.3,79,59.8,77.9,59.8z M78,51.8c-2.2,0-3.9,1.8-3.9,4c0,2.2,1.7,4,3.9,4c1.1,0,2.1-0.5,2.7-1.4l0.1-0.1v1.3h1.2v-3.8
			C81.9,53.5,80.1,51.8,78,51.8z M78,58.7c-1.5,0-2.7-1.3-2.7-2.9c0-1.6,1.2-2.9,2.7-2.9c1.5,0,2.7,1.3,2.7,2.9
			C80.6,57.4,79.4,58.7,78,58.7z M78,52.9c-1.4,0-2.6,1.3-2.6,2.8c0,1.6,1.2,2.8,2.6,2.8c1.4,0,2.6-1.3,2.6-2.8
			C80.6,54.2,79.4,52.9,78,52.9z"/>
	</g>
	<g id="XMLID_2679_">
		<path id="XMLID_2002_" class="st0" d="M90.5,59.3c0,2.5-1.6,4.1-4,4.1c-1.8,0-3.3-1-3.7-2.5h1.4c0.5,1.1,1.8,1.3,2.3,1.3
			c2,0,2.8-1.5,2.8-2.9v-0.7c-0.6,0.8-1.6,1.3-2.7,1.3c-2.2,0-3.9-1.7-3.9-4c0-2.3,1.8-4,3.9-4c2.2,0,3.9,1.8,3.9,4V59.3z
			 M86.6,52.9c-1.5,0-2.7,1.3-2.7,2.9c0,1.6,1.2,2.8,2.7,2.8c1.4,0,2.7-1.3,2.7-2.8C89.3,54.2,88,52.9,86.6,52.9"/>
	</g>
	<g id="XMLID_2676_">
		<path id="XMLID_1599_" class="st0" d="M86.5,63.4c-1.9,0-3.3-1-3.7-2.6l0,0h1.4l0,0c0.5,1.2,1.9,1.3,2.3,1.3c2,0,2.7-1.5,2.7-2.9
			v-0.6c-0.6,0.8-1.6,1.2-2.7,1.2c-2.2,0-3.9-1.8-3.9-4.1c0-2.3,1.7-4.1,4-4.1c2.2,0,4,1.8,4,4.1v3.5C90.6,61.7,88.9,63.4,86.5,63.4
			z M82.8,60.9c0.4,1.5,1.8,2.5,3.7,2.5c2.4,0,4-1.6,4-4.1v-3.5c0-2.2-1.7-4-3.9-4c-2.2,0-3.9,1.8-3.9,4c0,2.2,1.7,4,3.9,4
			c1.1,0,2-0.5,2.7-1.3l0.1-0.1v0.8c0,0.8-0.2,1.5-0.6,2c-0.5,0.6-1.2,0.9-2.2,0.9c-0.4,0-1.8-0.1-2.4-1.3H82.8z M86.6,58.7
			c-1.5,0-2.7-1.3-2.7-2.9c0-1.6,1.2-2.9,2.7-2.9c1.5,0,2.7,1.3,2.7,2.9C89.3,57.4,88.1,58.7,86.6,58.7z M86.6,52.9
			c-1.4,0-2.6,1.3-2.6,2.8c0,1.6,1.2,2.8,2.6,2.8c1.4,0,2.6-1.3,2.6-2.8C89.2,54.2,88.1,52.9,86.6,52.9z"/>
	</g>
	<g id="XMLID_2675_">
		<path id="XMLID_258_" class="st0" d="M96.8,51.9h1.3v4.6c0,1.9-1.4,3.2-3.3,3.2c-1.8,0-3.3-1.3-3.3-3.2v-4.6h1.3v4.6
			c0,1.1,0.8,2,2,2c1.2,0,2-0.8,2-2V51.9z"/>
	</g>
	<g id="XMLID_2674_">
		<path id="XMLID_1575_" class="st0" d="M94.8,59.8c-0.9,0-1.8-0.3-2.4-0.9c-0.6-0.6-1-1.4-1-2.4v-4.7h1.3v4.7c0,1.2,0.8,2,2,2
			c1.2,0,2-0.8,2-2v-4.7h1.4v4.7C98.1,58.5,96.7,59.8,94.8,59.8z M91.6,52v4.6c0,1.9,1.3,3.2,3.2,3.2c1.9,0,3.2-1.3,3.2-3.2V52h-1.2
			v4.6c0,1.2-0.8,2-2,2c-1.2,0-2-0.8-2-2V52H91.6z"/>
	</g>
	<g id="XMLID_2671_">
		<path id="XMLID_1456_" class="st0" d="M106.9,59.6h-1.2v-1.2c-0.6,0.8-1.6,1.4-2.7,1.4c-2.2,0-3.9-1.7-3.9-4c0-2.3,1.8-4,3.9-4
			c2.2,0,3.9,1.8,3.9,4V59.6z M103,52.9c-1.5,0-2.7,1.3-2.7,2.9c0,1.6,1.2,2.8,2.7,2.8c1.4,0,2.7-1.3,2.7-2.8
			C105.6,54.2,104.4,52.9,103,52.9"/>
	</g>
	<g id="XMLID_2668_">
		<path id="XMLID_1577_" class="st0" d="M102.9,59.8c-2.2,0-3.9-1.8-3.9-4.1c0-2.3,1.7-4.1,4-4.1c2.2,0,4,1.8,4,4.1v3.9h-1.3v-1.1
			C105,59.3,104,59.8,102.9,59.8z M103,51.8c-2.2,0-3.9,1.8-3.9,4c0,2.2,1.7,4,3.9,4c1.1,0,2.1-0.5,2.7-1.4l0.1-0.1v1.3h1.2v-3.8
			C106.9,53.5,105.2,51.8,103,51.8z M103,58.7c-1.5,0-2.7-1.3-2.7-2.9c0-1.6,1.2-2.9,2.7-2.9c1.5,0,2.7,1.3,2.7,2.9
			C105.7,57.4,104.4,58.7,103,58.7z M103,52.9c-1.4,0-2.6,1.3-2.6,2.8c0,1.6,1.2,2.8,2.6,2.8c1.4,0,2.6-1.3,2.6-2.8
			C105.6,54.2,104.4,52.9,103,52.9z"/>
	</g>
</g>
<g id="XMLID_2315_">
	<path id="XMLID_2366_" class="st0" d="M-277.6-59.5c-0.3,0-0.6-0.2-0.6-0.6c0-0.3,0.3-0.6,0.6-0.6c0.3,0,0.6,0.3,0.6,0.6
		C-277-59.8-277.3-59.5-277.6-59.5L-277.6-59.5z M-277.6-60.9c-0.5,0-0.8,0.3-0.8,0.8c0,0.5,0.4,0.8,0.8,0.8c0.5,0,0.8-0.3,0.8-0.8
		C-276.7-60.6-277.1-60.9-277.6-60.9L-277.6-60.9z"/>
	<polygon id="XMLID_2296_" class="st0" points="-269.3,-63.8 -273.5,-63.8 -273,-71 -275.7,-63.8 -279.5,-63.8 -273.4,-80 
		-269.3,-80 -269.8,-72.7 -267.1,-80 -263.2,-80 -269.3,-63.8 	"/>
	<g id="XMLID_2361_">
		<polygon id="XMLID_2295_" class="st0" points="-268.8,-63.8 -262.7,-80 -258.9,-80 -265,-63.8 -268.8,-63.8 		"/>
		<path id="XMLID_2294_" class="st0" d="M-280-69.4c-5.4,6.3-10.4,14.7-6,18.6c4.3,3.7,9.8,1.5,13.4,0C-268.8-52.3-228-70-228-70
			c0.4-0.2,0.3-0.4-0.2-0.3c-0.2,0-44.4,12-44.4,12C-278.2-56.7-284.6-60.1-280-69.4L-280-69.4z"/>
	</g>
	<path id="XMLID_2354_" class="st0" d="M-277.6-60.2h-0.1v-0.2h0.1c0.1,0,0.1,0,0.1,0.1C-277.5-60.2-277.5-60.2-277.6-60.2
		L-277.6-60.2z M-277.4-60c0.1,0,0.2-0.1,0.2-0.2c0-0.2-0.1-0.3-0.4-0.3h-0.3v0.9h0.2V-60h0l0.2,0.4h0.3L-277.4-60L-277.4-60z"/>
	<path id="XMLID_2322_" class="st0" d="M-239-78.7c-0.3,0-0.6-0.2-0.6-0.6c0-0.3,0.3-0.6,0.6-0.6c0.3,0,0.6,0.3,0.6,0.6
		C-238.4-78.9-238.6-78.7-239-78.7L-239-78.7z M-239-80.1c-0.5,0-0.8,0.3-0.8,0.8c0,0.5,0.4,0.8,0.8,0.8c0.5,0,0.8-0.3,0.8-0.8
		C-238.1-79.8-238.5-80.1-239-80.1L-239-80.1z"/>
	<path id="XMLID_2319_" class="st0" d="M-239-79.3h-0.1v-0.2h0.1c0.1,0,0.1,0,0.1,0.1C-238.9-79.4-238.9-79.3-239-79.3L-239-79.3z
		 M-238.8-79.2c0.1,0,0.2-0.1,0.2-0.2c0-0.2-0.1-0.3-0.4-0.3h-0.3v0.9h0.2v-0.4h0l0.2,0.4h0.3L-238.8-79.2L-238.8-79.2z"/>
	<path id="XMLID_2316_" class="st0" d="M-253.9-64.9l-0.2-8.5l5.8-6.4L-253.9-64.9L-253.9-64.9z M-241.5-77.3l1-2.7h-7.7h0h-4
		l-4,4.9l1.9-4.9h-3.9l-6,16.3h3.8l2.6-6.8l0.2,6.8l11.8,0l1.1-3.1h-4.5l1.5-3.9h3.7l1.1-3h-3.7l1.3-3.4H-241.5L-241.5-77.3z"/>
</g>
<g id="XMLID_1183_">
	<path id="XMLID_1980_" class="st5" d="M-84.4-59l2.8-10.9h3.1c0,0,0.8-0.1,1.2,0.2c0.4,0.3,0.5,0.8,0.5,0.8l1.7,5.3l2.2-6.3h3
		c0,0,0.8,0,1.1,0.3c0.4,0.3,0.5,0.8,0.5,0.8l2.5,9.8h-2.9l-2.2-8.4l-2.3,6.4h-3.1c0,0-0.4,0-0.7-0.2c-0.4-0.2-0.4-0.5-0.4-0.5
		l-1.9-5.7l-2.2,8.4L-84.4-59L-84.4-59z"/>
	<polygon id="XMLID_1979_" class="st5" points="-113.5,-69.9 -113.5,-67.7 -108.2,-67.4 -108.2,-59 -105.2,-59 -105.2,-67.4 
		-100,-67.7 -100,-69.9 -113.5,-69.9 	"/>
	<path id="XMLID_2021_" class="st5" d="M-120.3-67.6l2,4.3h-4L-120.3-67.6L-120.3-67.6L-120.3-67.6z M-122.2-69.9l-5.4,10.9h3.4l1-2
		h6.1l0.9,2l3.3,0l-5.2-10.2c0,0-0.2-0.4-0.5-0.5c-0.3-0.2-0.6-0.2-0.6-0.2L-122.2-69.9L-122.2-69.9L-122.2-69.9L-122.2-69.9z"/>
	<polygon id="XMLID_1598_" class="st5" points="-139.1,-69.9 -139.1,-59 -129.9,-59 -128.7,-61.5 -136,-61.5 -136,-69.9 
		-139.1,-69.9 	"/>
	<g id="XMLID_1344_">
		<path id="XMLID_2015_" class="st5" d="M-93.1-67.6l2,4.3h-4L-93.1-67.6L-93.1-67.6L-93.1-67.6z M-95-69.9l-5.4,10.9h3.4l1-2h6.1
			l0.9,2l3.3,0L-91-69.2c0,0-0.2-0.4-0.5-0.5c-0.3-0.2-0.6-0.2-0.6-0.2L-95-69.9L-95-69.9L-95-69.9L-95-69.9z"/>
		<path id="XMLID_1449_" class="st7" d="M-157.9-66.4l2.4-0.7c0,0,0-0.2-0.1-0.2c-0.1-0.1-0.2-0.1-0.2-0.1l-3.4-1.2c0,0-0.1,0-0.2,0
			c-0.1,0-0.1,0.2-0.1,0.2v1.6c0,0,0,0.1,0.2,0.5c0.2,0.3,0.7,0.3,0.7,0.3L-157.9-66.4L-157.9-66.4z"/>
		<path id="XMLID_1406_" class="st8" d="M-148.2-70.2l2.2-1.3c0,0,0-0.2-0.1-0.3c-0.1-0.1-0.2-0.1-0.2-0.1l-9.7-3.5c0,0-0.1,0-0.2,0
			c-0.1,0-0.1,0.2-0.1,0.2v1.3c0,0,0,0.3,0.2,0.6c0.2,0.3,0.6,0.4,0.6,0.4L-148.2-70.2L-148.2-70.2z"/>
		<path id="XMLID_1405_" class="st8" d="M-148.2-66.3l2.2-1.2c0,0,0-0.3,0-0.4c-0.1-0.1-0.2-0.1-0.2-0.1l-12.9-4.7c0,0-0.1,0-0.2,0
			c-0.1,0-0.1,0.2-0.1,0.2v1.3c0,0,0,0.3,0.2,0.6c0.2,0.3,0.6,0.4,0.6,0.4L-148.2-66.3L-148.2-66.3z"/>
		<path id="XMLID_1402_" class="st5" d="M-146.2-71.8c0,0,0.1,0,0.2,0.1c0.1,0.1,0.1,0.2,0.1,0.2v1.8c0,0,0,0.2-0.1,0.5
			c-0.1,0.2-0.2,0.3-0.2,0.3l-0.3,0.1l-9.7,3.5c0,0,0,0-0.1,0c-0.1,0-0.1,0-0.1,0l-2.7-1c0,0-0.1,0-0.2-0.2
			c-0.1-0.2-0.1-0.5-0.1-0.5s0,0.2,0.1,0.3c0.1,0.1,0.4,0,0.4,0l12.4-4.5c0,0,0.5-0.2,0.5-0.4C-146-71.8-146.2-71.8-146.2-71.8
			L-146.2-71.8L-146.2-71.8z"/>
	</g>
	<path id="XMLID_1343_" class="st5" d="M-146.2-67.9c0,0,0.1,0,0.2,0.1c0.1,0.1,0.1,0.2,0.1,0.2v1.8c0,0,0,0.2-0.1,0.5
		c-0.1,0.2-0.2,0.3-0.2,0.3l-0.3,0.1l-9.7,3.5v-2.4l9.7-3.5c0,0,0.5-0.2,0.5-0.4C-146-67.9-146.2-67.9-146.2-67.9L-146.2-67.9
		L-146.2-67.9z"/>
	<path id="XMLID_1284_" class="st5" d="M-151-61.6c0.1,0.1,0.1,0.3,0.1,0.3v1.3c0,0,0,0.2-0.1,0.5c-0.1,0.2-0.2,0.3-0.2,0.3
		l-0.3,0.1l-4.6,1.7v-2.4l4.6-1.7C-151.6-61.5-151.1-61.7-151-61.6L-151-61.6L-151-61.6z"/>
	<path id="XMLID_271_" class="st5" d="M-154-56.6c0.1,0.1,0.1,0.3,0.1,0.3v1.3c0,0,0,0.2-0.1,0.5c-0.1,0.2-0.2,0.3-0.2,0.3l-0.3,0.1
		l-1.6,0.6v-2.4l1.6-0.6C-154.6-56.6-154.1-56.7-154-56.6L-154-56.6z"/>
</g>
</svg>
