<?xml version="1.0" encoding="utf-8"?>
<!-- Generator: Adobe Illustrator 19.0.0, SVG Export Plug-In . SVG Version: 6.00 Build 0)  -->
<svg version="1.1" id="Capa_1" xmlns="http://www.w3.org/2000/svg" xmlns:xlink="http://www.w3.org/1999/xlink" x="0px" y="0px"
	 viewBox="0 0 140 80" style="enable-background:new 0 0 140 80;" xml:space="preserve">
<style type="text/css">
	.st0{fill:#015068;}
	.st1{fill:#FFFFFF;}
	.st2{fill-rule:evenodd;clip-rule:evenodd;fill:#FFFFFF;}
</style>
<g id="XMLID_1081_">
	<g id="XMLID_1085_">
		<rect id="XMLID_2246_" x="26.7" y="10.7" class="st0" width="86.6" height="58.6"/>
		<g id="XMLID_1086_">
			<path id="XMLID_2243_" class="st1" d="M52,45.4c2.6,7.8,10.1,13.2,18.7,13c8.2-0.2,15-5.6,17.6-12.8l-3.1,0
				c-2.4,5.7-8,9.7-14.6,9.9c-7,0.2-13-4-15.5-10.1L52,45.4z M55.4,32.4c2.5-5.5,8-9.3,14.4-9.5c3.5-0.1,6.8,0.9,9.5,2.8
				c0,0.2-0.1,0.4-0.1,0.6c0,1.8,1.4,3.2,3.2,3.2c0.3,0,0.5,0,0.8-0.1c0.7,1,1.3,1.9,1.8,3.1l3.2,0c-0.7-1.8-1.6-3.5-2.8-5
				c0.1-0.3,0.2-0.7,0.2-1.1c0-1.8-1.4-3.2-3.2-3.2c-0.5,0-0.9,0.1-1.3,0.3c-3.2-2.2-7.2-3.5-11.4-3.4c-8,0.2-14.8,5.3-17.5,12.4
				L55.4,32.4z"/>
			<path id="XMLID_2242_" class="st0" d="M80.8,26.5c0,0.9,0.8,1.6,1.7,1.6c0.9,0,1.6-0.8,1.6-1.7c0-0.9-0.8-1.6-1.7-1.6
				C81.4,24.9,80.7,25.6,80.8,26.5"/>
			<path id="XMLID_2228_" class="st1" d="M36.2,39c0-2.5,2-4.5,4.5-4.5c1.6,0,2.9,0.8,3.7,2l-1.4,1.2c-0.4-0.8-1.3-1.4-2.4-1.4
				c-1.5,0-2.7,1.2-2.7,2.7c0,1.5,1.2,2.7,2.7,2.7c1,0,1.9-0.6,2.4-1.5l1.3,1.3c-0.8,1.2-2.2,1.9-3.7,1.9
				C38.2,43.5,36.2,41.5,36.2,39"/>
			<path id="XMLID_2224_" class="st1" d="M50.4,36.8c-0.4-0.3-0.9-0.4-1.4-0.4c-1.5,0-2.7,1.2-2.7,2.7c0,0.2,0,0.5,0.1,0.7
				L50.4,36.8z M44.4,39.1c0-2.5,2-4.6,4.6-4.6c1.8,0,3.4,1,4.1,2.6l-5.5,4.3c0.4,0.3,0.9,0.4,1.4,0.4c1.1,0,2.1-0.7,2.5-1.6
				l1.3,1.5c-0.8,1.2-2.2,2-3.8,2C46.5,43.6,44.4,41.6,44.4,39.1"/>
			<path id="XMLID_2223_" class="st1" d="M53.3,43.6h1.9v-5.4c0.5-2.1,3.6-2.6,4.3,0v5.5h1.9v-5.8c-1.1-4.1-6.8-4.1-8.1,0V43.6z"/>
			<path id="XMLID_2222_" class="st1" d="M61.8,39c0-2.5,2-4.5,4.5-4.5c1.6,0,2.9,0.8,3.7,2l-1.4,1.2c-0.4-0.8-1.3-1.4-2.4-1.4
				c-1.5,0-2.7,1.2-2.7,2.7c0,1.5,1.2,2.7,2.7,2.7c1,0,1.9-0.6,2.4-1.5l1.3,1.3c-0.8,1.2-2.2,1.9-3.7,1.9
				C63.8,43.5,61.8,41.5,61.8,39"/>
			<path id="XMLID_2207_" class="st1" d="M71.6,39.2c0,1.5,1.2,2.8,2.8,2.8c1.5,0,2.8-1.2,2.8-2.8c0-1.5-1.2-2.8-2.8-2.8
				C72.8,36.4,71.6,37.7,71.6,39.2 M69.9,39.2c0-2.5,2-4.5,4.5-4.5c2.5,0,4.5,2,4.5,4.5c0,2.5-2,4.5-4.5,4.5
				C71.9,43.6,69.9,41.6,69.9,39.2"/>
			<path id="XMLID_2178_" class="st1" d="M95.6,35h-1.9v4.6c-0.5,2.1-3.6,2.6-4.3,0v-4.7h-1.9v5.3c1.1,4.1,6.8,4.3,8.1,0.1V35z"/>
			<path id="XMLID_2143_" class="st1" d="M86.4,35.1H81c-2.6,0.6-2.8,4.9,0.7,5.2h3.2c0.7,0.2,0.8,1.3,0,1.5h-5.1v1.8h5.1
				c3.1-0.6,3-4.6,0.4-5.1h-3.4c-1.1-0.1-1.4-1.4-0.3-1.6h4.7V35.1z"/>
			<path id="XMLID_1089_" class="st2" d="M99.8,36.8c-2.3,0.5-2.3,3-1.3,4c1.2,1.3,3.8,0.9,4.3-1v-3H99.8z M99.3,34.9h3.4v-3.4h1.9
				v8.7c-1.4,3.8-5.8,4.1-7.7,1.8C95,39.6,96.1,35.6,99.3,34.9"/>
		</g>
	</g>
</g>
</svg>
