<?xml version="1.0" encoding="utf-8"?>
<!-- Generator: Adobe Illustrator 19.0.0, SVG Export Plug-In . SVG Version: 6.00 Build 0)  -->
<svg version="1.1" id="Capa_1" xmlns="http://www.w3.org/2000/svg" xmlns:xlink="http://www.w3.org/1999/xlink" x="0px" y="0px"
	 viewBox="0 0 140 80" style="enable-background:new 0 0 140 80;" xml:space="preserve">
<style type="text/css">
	.st0{fill:#015068;}
</style>
<g id="XMLID_265_">
	<path id="XMLID_1552_" class="st0" d="M109.9,46.3c-2.2,0-3.1-1.5-3.1-2.9V32.2h2.6v11c0,0.6,0.3,0.9,0.9,0.9h1v2.2H109.9z"/>
	<path id="XMLID_1585_" class="st0" d="M33.5,41.5c0,2.5,1.6,4.3,4.3,4.3c2.2,0,3.2-0.6,4.5-1.8l3,2.9c-2,2-3.9,3.1-7.5,3.1
		c-4.7,0-9.1-2.1-9.1-10c0-6.4,3.5-10,8.6-10c5.5,0,8.6,4,8.6,9.3v2.2H33.5z M40.5,36.1c-0.5-1.2-1.6-2-3.3-2c-1.7,0-2.8,0.9-3.3,2
		c-0.3,0.7-0.4,1.2-0.5,2.1H41C40.9,37.3,40.8,36.8,40.5,36.1"/>
	<path id="XMLID_1580_" class="st0" d="M97.4,41.3c0,1.5,0.9,2.6,2.6,2.6c1.3,0,2-0.4,2.7-1.1l1.8,1.7c-1.2,1.2-2.4,1.8-4.6,1.8
		c-2.8,0-5.6-1.2-5.6-5.9c0-3.8,2.1-5.9,5.2-5.9c3.3,0,5.2,2.4,5.2,5.5v1.3H97.4z M101.7,38.1c-0.3-0.7-1-1.2-2-1.2
		c-1,0-1.7,0.5-2,1.2c-0.2,0.4-0.3,0.7-0.3,1.2h4.6C102,38.8,101.9,38.5,101.7,38.1"/>
	<path id="XMLID_515_" class="st0" d="M85.4,46.3h-2.9v-7c0-0.7-0.2-1.3-0.6-1.6c-0.3-0.3-0.8-0.5-1.3-0.5c-0.5,0-1,0.2-1.3,0.5
		c-0.4,0.4-0.6,0.9-0.6,1.6v7h-2.9V34.7h2.8v1.1c0.8-0.8,1.7-1.2,2.9-1.2c1.1,0,2.1,0.3,2.7,1c0.8,0.8,1.2,1.9,1.2,3.3V46.3z"/>
	<path id="XMLID_269_" class="st0" d="M87.9,32.2h3.3v2.5h1.6v2.4H91v6c0,0.5,0.3,0.7,0.8,0.7h1.2v2.3h-1.6c-2.4,0-3.4-1.9-3.4-3.5"
		/>
	<path id="XMLID_1565_" class="st0" d="M73.4,41.3h-7.5c0,0.8,0.2,1.4,0.7,1.9c0.5,0.5,1.1,0.7,1.9,0.7c1.1,0,2-0.4,2.7-1.1l1.8,1.7
		c-0.7,0.6-1.3,1.1-1.9,1.4c-0.7,0.3-1.6,0.5-2.6,0.5c-3.7,0-5.6-2-5.6-5.9c0-1.9,0.5-3.3,1.5-4.4c0.9-1,2.2-1.5,3.8-1.5
		c1.6,0,2.9,0.5,3.9,1.6c0.9,1,1.4,2.3,1.4,4V41.3z M70.5,39.3c0-0.5-0.1-0.9-0.3-1.2c-0.4-0.8-1-1.2-2-1.2c-1,0-1.6,0.4-2,1.2
		c-0.2,0.4-0.3,0.8-0.3,1.2H70.5z"/>
	<path id="XMLID_266_" class="st0" d="M50.6,31.3L47.8,34c2,1.5,3.3,3.9,3.3,6.6c0,2.7-1.3,5.1-3.3,6.6l2.8,2.8
		c2.7-2.2,4.4-5.6,4.4-9.4C54.9,36.9,53.2,33.5,50.6,31.3"/>
</g>
</svg>
