<?xml version="1.0" encoding="utf-8"?>
<!-- Generator: Adobe Illustrator 19.0.0, SVG Export Plug-In . SVG Version: 6.00 Build 0)  -->
<svg version="1.1" id="Capa_1" xmlns="http://www.w3.org/2000/svg" xmlns:xlink="http://www.w3.org/1999/xlink" x="0px" y="0px"
	 viewBox="0 0 140 80" style="enable-background:new 0 0 140 80;" xml:space="preserve">
<style type="text/css">
	.st0{fill:#015068;}
	.st1{fill-rule:evenodd;clip-rule:evenodd;fill:#015068;}
	.st2{opacity:0.5;fill-rule:evenodd;clip-rule:evenodd;fill:#015068;}
	.st3{opacity:0.5;fill-rule:evenodd;clip-rule:evenodd;fill:#00587A;}
</style>
<g id="XMLID_270_">
	<path id="XMLID_2003_" class="st0" d="M-229.9-173.4c-0.4,0.9,0.4,2.4-0.7,2.6l-34.4-0.1l-3.6,0.1l-0.5,0.8l-4.3,16.1l-0.6,0.3
		l-5.8-0.1l-0.5-1.1c-1.6-6.6-3.4-13-5-19.5c1.5-0.2,3.2-0.3,4.7,0c1.6,4.8,2.3,9.9,3.7,14.8l0.2,0.1l0.4-0.5l3.7-14.3l0.4-0.3
		l39,0.1C-232.2-174.1-229.8-175.3-229.9-173.4"/>
	<path id="XMLID_2000_" class="st0" d="M-229.9-166.8c0.1,1-1,1.9-1.8,2.5c-1.5-0.6-3.3-1.8-5.1-0.9c-0.6,0.4-1,1-0.5,1.6
		c2.5,1.6,6.9,0.7,7.9,4.1c0.5,1.4,0.1,3.3-1.2,4.3c-2.1,1.7-5.1,2.1-8,1.3c-1.3-0.5-2.7-0.8-3.8-1.7c0.4-1,1.2-1.9,2-2.7
		c1.6,0.4,3,1.5,5,1.3c0.7,0,1.5-0.4,1.8-1c0.2-2.5-3.4-1.5-5-2.2c-1.7-0.4-3-1.6-3.3-3c-0.3-1.5,0.1-2.9,1.4-3.9
		C-237.5-169-232.8-168.7-229.9-166.8"/>
	<path id="XMLID_1999_" class="st0" d="M-243.2-168c0.1,4.6,0.1,9.4,0,14c-1.5,0.4-3.2,0.1-4.8,0c-1.3-2.1-2.1-4.1-3.6-6.3
		c-0.2-0.1-0.3,0.2-0.4,0.2l-0.1,5.9c-1,0.5-2.4,0.1-3.6,0.3l-0.3-0.8c0-4.3-0.1-9.1,0.2-13.3c1.3-0.3,2.8-0.3,4.2-0.2l0.4,0.3
		l3.3,5.8l0.5-0.1c-0.1-1.7,0.3-3.9,0.2-5.8C-246-168.4-244.4-168.2-243.2-168"/>
	<path id="XMLID_1996_" class="st0" d="M-259.7-164.5l2.6,10.5c-1.1,0.4-2.6,0.1-3.8,0.1c-0.6-0.9-0.2-2.5-1.7-2.7
		c-1.4,0.1-3.1-0.4-4,0.6l-0.6,2.1c-1.2,0.2-2.7,0.2-3.8-0.1c1.2-4.7,2.7-9.4,4.1-14.1c1.8-0.4,4.2-0.2,6.1,0L-259.7-164.5
		L-259.7-164.5z M-263.2-160.5c-0.1-1.1-0.6-2.2-1.1-3.2c-0.7,0.9-0.6,2.1-0.9,3.2C-264.6-160-263.8-160.3-263.2-160.5"/>
	<path id="XMLID_1991_" class="st0" d="M-228.8-168.9c-0.1,0.1-0.3,0.2-0.5,0.2c-0.2,0-0.4-0.1-0.5-0.2c-0.1-0.1-0.2-0.3-0.2-0.5
		c0-0.2,0.1-0.4,0.2-0.5c0.1-0.1,0.3-0.2,0.5-0.2c0.2,0,0.4,0.1,0.5,0.2c0.1,0.1,0.2,0.3,0.2,0.5
		C-228.6-169.2-228.7-169-228.8-168.9 M-229.8-169.8c-0.1,0.1-0.2,0.3-0.2,0.4c0,0.2,0.1,0.3,0.2,0.4c0.1,0.1,0.3,0.2,0.4,0.2
		c0.2,0,0.3-0.1,0.4-0.2c0.1-0.1,0.2-0.3,0.2-0.4c0-0.2-0.1-0.3-0.2-0.4c-0.1-0.1-0.3-0.2-0.4-0.2
		C-229.5-170-229.6-169.9-229.8-169.8 M-229.6-169v-0.8c0.1,0,0.1,0,0.2,0c0.1,0,0.2,0,0.2,0c0.1,0,0.1,0,0.2,0
		c0.1,0,0.1,0.1,0.1,0.2c0,0.1,0,0.1-0.1,0.1c0,0-0.1,0-0.1,0.1c0.1,0,0.1,0,0.1,0c0,0,0.1,0.1,0.1,0.2l0,0.1c0,0,0,0,0,0
		c0,0,0,0,0,0l0,0l-0.2,0c0,0,0-0.1,0-0.1c0,0,0-0.1,0-0.1c0,0,0,0-0.1-0.1c0,0,0,0-0.1,0h0l0,0v0.3L-229.6-169L-229.6-169z
		 M-229.3-169.6c0,0-0.1,0-0.1,0h-0.1v0.2h0.1c0.1,0,0.1,0,0.1,0C-229.2-169.5-229.2-169.5-229.3-169.6
		C-229.2-169.6-229.2-169.6-229.3-169.6"/>
</g>
<g id="XMLID_265_">
	<path id="XMLID_1552_" class="st0" d="M-359.5-157.4c-2.2,0-3.1-1.5-3.1-2.9v-11.1h2.6v11c0,0.6,0.3,0.9,0.9,0.9h1v2.2H-359.5z"/>
	<path id="XMLID_1585_" class="st0" d="M-435.9-162.1c0,2.5,1.6,4.3,4.3,4.3c2.2,0,3.2-0.6,4.5-1.8l3,2.9c-2,2-3.9,3.1-7.5,3.1
		c-4.7,0-9.1-2.1-9.1-10c0-6.4,3.5-10,8.6-10c5.5,0,8.6,4,8.6,9.3v2.2H-435.9z M-428.9-167.6c-0.5-1.2-1.6-2-3.3-2
		c-1.7,0-2.8,0.9-3.3,2c-0.3,0.7-0.4,1.2-0.5,2.1h7.5C-428.5-166.3-428.6-166.9-428.9-167.6"/>
	<path id="XMLID_1580_" class="st0" d="M-372-162.3c0,1.5,0.9,2.6,2.6,2.6c1.3,0,2-0.4,2.7-1.1l1.8,1.7c-1.2,1.2-2.4,1.8-4.6,1.8
		c-2.8,0-5.6-1.2-5.6-5.9c0-3.8,2.1-5.9,5.2-5.9c3.3,0,5.2,2.4,5.2,5.5v1.3H-372z M-367.7-165.5c-0.3-0.7-1-1.2-2-1.2
		c-1,0-1.7,0.5-2,1.2c-0.2,0.4-0.3,0.7-0.3,1.2h4.6C-367.4-164.8-367.5-165.1-367.7-165.5"/>
	<path id="XMLID_515_" class="st0" d="M-384-157.4h-2.9v-7c0-0.7-0.2-1.3-0.6-1.6c-0.3-0.3-0.8-0.5-1.3-0.5c-0.5,0-1,0.2-1.3,0.5
		c-0.4,0.4-0.6,0.9-0.6,1.6v7h-2.9V-169h2.8v1.1c0.8-0.8,1.7-1.2,2.9-1.2c1.1,0,2.1,0.3,2.7,1c0.8,0.8,1.2,1.9,1.2,3.3V-157.4z"/>
	<path id="XMLID_269_" class="st0" d="M-381.4-171.4h3.3v2.5h1.6v2.4h-1.9v6c0,0.5,0.3,0.7,0.8,0.7h1.2v2.3h-1.6
		c-2.4,0-3.4-1.9-3.4-3.5"/>
	<path id="XMLID_1565_" class="st0" d="M-396-162.3h-7.5c0,0.8,0.2,1.4,0.7,1.9c0.5,0.5,1.1,0.7,1.9,0.7c1.1,0,2-0.4,2.7-1.1
		l1.8,1.7c-0.7,0.6-1.3,1.1-1.9,1.4c-0.7,0.3-1.6,0.5-2.6,0.5c-3.7,0-5.6-2-5.6-5.9c0-1.9,0.5-3.3,1.5-4.4c0.9-1,2.2-1.5,3.8-1.5
		c1.6,0,2.9,0.5,3.9,1.6c0.9,1,1.4,2.3,1.4,4V-162.3z M-398.9-164.3c0-0.5-0.1-0.9-0.3-1.2c-0.4-0.8-1-1.2-2-1.2s-1.6,0.4-2,1.2
		c-0.2,0.4-0.3,0.8-0.3,1.2H-398.9z"/>
	<path id="XMLID_266_" class="st0" d="M-418.8-172.3l-2.8,2.8c2,1.5,3.3,3.9,3.3,6.6c0,2.7-1.3,5.1-3.3,6.6l2.8,2.8
		c2.7-2.2,4.4-5.6,4.4-9.4C-414.5-166.7-416.2-170.1-418.8-172.3"/>
</g>
<g id="XMLID_263_">
	<path id="XMLID_2356_" class="st1" d="M-127.4-173.5c0-3.9,3.2-7.1,7.1-7.1c0.8,0,1.6,0.1,2.3,0.4c-0.3-0.8-0.5-1.7-0.5-2.6
		c0-3.9,3.2-7.1,7.1-7.1c3.9,0,7.1,3.2,7.1,7.1c0,0.9-0.2,1.9-0.5,2.7c0.8-0.3,1.6-0.5,2.5-0.5c3.9,0,7.1,3.2,7.1,7.1l0,0l0,7.1H-99
		v-7.1h0l0,0c0-1.9-1.5-3.4-3.4-3.4c-1.9,0-3.4,1.5-3.4,3.4c0,1.9,1.5,3.4,3.4,3.4c0.7,0,1.3-0.2,1.9-0.6v4.1
		c-0.6,0.2-1.2,0.3-1.9,0.3c-0.9,0-1.7-0.2-2.5-0.5c0.3,0.8,0.5,1.7,0.5,2.7c0,3.9-3.2,7.1-7.1,7.1c-3.9,0-7.1-3.2-7.1-7.1
		c0-0.9,0.2-1.8,0.5-2.6c-0.7,0.2-1.5,0.4-2.3,0.4C-124.2-166.4-127.4-169.5-127.4-173.5L-127.4-173.5z M-114.8-164.1
		c0-1.9,1.5-3.4,3.4-3.4c0,0,0.1,0,0.1,0l-3.4-5.5h-2.3c-0.2,1.6-1.6,2.9-3.3,2.9c-1.9,0-3.4-1.5-3.4-3.4c0-1.9,1.5-3.4,3.4-3.4
		c1.5,0,2.8,1,3.2,2.4h3.2l5,8.1c0.5,0.6,0.8,1.4,0.8,2.2c0,1.9-1.5,3.4-3.4,3.4C-113.3-160.8-114.8-162.3-114.8-164.1L-114.8-164.1
		z M-114.8-182.8c0-1.9,1.5-3.4,3.4-3.4c1.9,0,3.4,1.5,3.4,3.4c0,1.9-1.5,3.4-3.4,3.4l-0.1,0l2.9,4.3l-1.7,0l-4.1-6.1l0,0
		C-114.7-181.7-114.8-182.2-114.8-182.8L-114.8-182.8z"/>
	<path id="XMLID_2349_" class="st1" d="M-74.7-143.6h0.3c0.2,0,0.4,0,0.4,0.2c0,0.2-0.2,0.3-0.4,0.3h-0.3V-143.6L-74.7-143.6z
		 M-75.1-142h0.3v-0.8h0.2l0.5,0.8h0.3l-0.5-0.8c0.3,0,0.5-0.2,0.5-0.5c0-0.4-0.2-0.5-0.7-0.5h-0.7V-142L-75.1-142z M-74.4-141.6
		c-0.7,0-1.2-0.5-1.2-1.3c0-0.8,0.5-1.3,1.2-1.3c0.7,0,1.2,0.5,1.2,1.3C-73.2-142.2-73.8-141.6-74.4-141.6L-74.4-141.6z
		 M-74.4-141.3c0.9,0,1.6-0.7,1.6-1.6s-0.7-1.6-1.6-1.6c-0.9,0-1.6,0.7-1.6,1.6S-75.3-141.3-74.4-141.3L-74.4-141.3z"/>
	<path id="XMLID_2346_" class="st1" d="M-136.7-145.5h-2.6l1.3-4h0L-136.7-145.5L-136.7-145.5z M-143.5-141.3h2.8l0.8-2.2h3.9
		l0.8,2.2h3l-4-10.3h-3.4L-143.5-141.3L-143.5-141.3z"/>
	<polygon id="XMLID_2345_" class="st1" points="-131.5,-141.3 -128.9,-141.3 -128.9,-152.4 -131.5,-152.4 -131.5,-141.3 	"/>
	<path id="XMLID_2342_" class="st1" d="M-125.1-145.9c0.1-0.9,0.5-1.6,1.5-1.6c1.1,0,1.5,0.7,1.5,1.6H-125.1L-125.1-145.9z
		 M-119.8-144.4v-0.5c0-2.3-1-4.3-3.9-4.3c-2.4,0-4.1,1.5-4.1,4c0,2.5,1.9,4,4.5,4c1,0,2-0.1,2.8-0.5v-1.9c-0.8,0.4-1.6,0.6-2.3,0.6
		c-1.3,0-2.1-0.4-2.3-1.5H-119.8L-119.8-144.4z"/>
	<path id="XMLID_2341_" class="st1" d="M-118.8-141.3h2.7v-3.2c0-1.7,0.6-2.4,1.5-2.4c0.8,0,1.1,0.6,1.1,1.5v4.1h2.7v-3.2
		c0-1.7,0.6-2.4,1.5-2.4c0.8,0,1.1,0.6,1.1,1.5v4.1h2.7v-4.5c0-2.1-0.5-3.3-2.7-3.3c-1.1,0-2.1,0.4-2.7,1.5c-0.4-1-1.3-1.5-2.4-1.5
		c-1.2,0-2.3,0.5-2.8,1.6h0v-1.4h-2.4V-141.3L-118.8-141.3z"/>
	<path id="XMLID_2338_" class="st1" d="M-102.4-143.8c0-0.7,0.7-1,1.6-1c0.4,0,0.8,0,1.1,0c0,0.9-0.6,1.8-1.6,1.8
		C-101.9-142.9-102.4-143.2-102.4-143.8L-102.4-143.8z M-97.1-141.3c-0.1-0.6-0.1-1.2-0.1-1.8v-2.9c0-2.3-1.7-3.2-3.7-3.2
		c-1.1,0-2.1,0.2-3.1,0.5l0,1.8c0.7-0.4,1.6-0.6,2.4-0.6c1,0,1.7,0.3,1.8,1.3c-0.3-0.1-0.8-0.1-1.2-0.1c-1.4,0-4,0.3-4,2.6
		c0,1.7,1.4,2.4,2.9,2.4c1.1,0,1.8-0.4,2.4-1.4h0c0,0.4,0,0.8,0.1,1.2H-97.1L-97.1-141.3z"/>
	<path id="XMLID_2337_" class="st1" d="M-96-141.3h2.7v-3.2c0-1.7,0.6-2.4,1.7-2.4c0.7,0,1.2,0.5,1.2,1.9v3.7h2.7v-4.8
		c0-1.6-0.8-3.1-2.9-3.1c-1.2,0-2.3,0.5-2.8,1.6h0v-1.4H-96V-141.3L-96-141.3z"/>
	<path id="XMLID_2334_" class="st1" d="M-84.4-143.8c0-0.7,0.7-1,1.6-1c0.4,0,0.8,0,1.1,0c0,0.9-0.6,1.8-1.6,1.8
		C-84-142.9-84.4-143.2-84.4-143.8L-84.4-143.8z M-79.1-141.3c-0.1-0.6-0.1-1.2-0.1-1.8v-2.9c0-2.3-1.7-3.2-3.7-3.2
		c-1.1,0-2.1,0.2-3.1,0.5l0,1.8c0.7-0.4,1.6-0.6,2.4-0.6c1,0,1.7,0.3,1.8,1.3c-0.3-0.1-0.8-0.1-1.2-0.1c-1.4,0-4,0.3-4,2.6
		c0,1.7,1.4,2.4,2.9,2.4c1.1,0,1.8-0.4,2.4-1.4h0c0,0.4,0,0.8,0.1,1.2H-79.1L-79.1-141.3z"/>
	<path id="XMLID_2331_" class="st1" d="M-81.1-151H-82l0.4-0.9h0L-81.1-151L-81.1-151z M-83.4-150.1h0.9l0.3-0.5h1.3l0.3,0.5h1
		l-1.3-2.2h-1.1L-83.4-150.1L-83.4-150.1z"/>
	<path id="XMLID_2330_" class="st1" d="M-86.2-150.6c-0.3,0.1-0.6,0.1-0.9,0.1c-0.7,0-1.2-0.3-1.2-0.7c0-0.4,0.4-0.7,1.1-0.7
		c0.3,0,0.6,0.1,0.9,0.2l0.1-0.5c-0.3-0.1-0.7-0.1-1-0.1c-1.1,0-2,0.4-2,1.2c0,0.8,1.1,1.1,2,1.1c0.5,0,0.8,0,1-0.1L-86.2-150.6
		L-86.2-150.6z"/>
	<polygon id="XMLID_2329_" class="st1" points="-93.9,-150.1 -93,-150.1 -93,-152.3 -93.9,-152.3 -93.9,-150.1 	"/>
	<polygon id="XMLID_2328_" class="st1" points="-101.2,-150.1 -100.4,-150.1 -100.4,-151.6 -100.4,-151.6 -99.2,-150.1 -98,-150.1 
		-98,-152.3 -98.9,-152.3 -98.9,-150.8 -98.9,-150.8 -100,-152.3 -101.2,-152.3 -101.2,-150.1 	"/>
	<polygon id="XMLID_2327_" class="st1" points="-106.1,-150.1 -105.1,-150.1 -105.1,-152.3 -106.1,-152.3 -106.1,-150.1 	"/>
	<polygon id="XMLID_2326_" class="st1" points="-112,-150.1 -109.7,-150.1 -109.7,-150.5 -111.1,-150.5 -111.1,-152.3 -112,-152.3 
		-112,-150.1 	"/>
	<path id="XMLID_2325_" class="st1" d="M-115.9-150.6c-0.3,0.1-0.6,0.1-0.9,0.1c-0.7,0-1.2-0.3-1.2-0.7c0-0.4,0.4-0.7,1.1-0.7
		c0.3,0,0.6,0.1,0.9,0.2l0.1-0.5c-0.3-0.1-0.7-0.1-1-0.1c-1.1,0-2,0.4-2,1.2c0,0.8,1.1,1.1,2,1.1c0.5,0,0.8,0,1-0.1L-115.9-150.6
		L-115.9-150.6z"/>
</g>
<g id="XMLID_2315_">
	<path id="XMLID_2366_" class="st0" d="M-277.6-59.5c-0.3,0-0.6-0.2-0.6-0.6c0-0.3,0.3-0.6,0.6-0.6c0.3,0,0.6,0.3,0.6,0.6
		C-277-59.8-277.3-59.5-277.6-59.5L-277.6-59.5z M-277.6-60.9c-0.5,0-0.8,0.3-0.8,0.8c0,0.5,0.4,0.8,0.8,0.8c0.5,0,0.8-0.3,0.8-0.8
		C-276.7-60.6-277.1-60.9-277.6-60.9L-277.6-60.9z"/>
	<polygon id="XMLID_2296_" class="st0" points="-269.3,-63.8 -273.5,-63.8 -273,-71 -275.7,-63.8 -279.5,-63.8 -273.4,-80 
		-269.3,-80 -269.8,-72.7 -267.1,-80 -263.2,-80 -269.3,-63.8 	"/>
	<g id="XMLID_2361_">
		<polygon id="XMLID_2295_" class="st0" points="-268.8,-63.8 -262.7,-80 -258.9,-80 -265,-63.8 -268.8,-63.8 		"/>
		<path id="XMLID_2294_" class="st0" d="M-280-69.4c-5.4,6.3-10.4,14.7-6,18.6c4.3,3.7,9.8,1.5,13.4,0C-268.8-52.3-228-70-228-70
			c0.4-0.2,0.3-0.4-0.2-0.3c-0.2,0-44.4,12-44.4,12C-278.2-56.7-284.6-60.1-280-69.4L-280-69.4z"/>
	</g>
	<path id="XMLID_2354_" class="st0" d="M-277.6-60.2h-0.1v-0.2h0.1c0.1,0,0.1,0,0.1,0.1C-277.5-60.2-277.5-60.2-277.6-60.2
		L-277.6-60.2z M-277.4-60c0.1,0,0.2-0.1,0.2-0.2c0-0.2-0.1-0.3-0.4-0.3h-0.3v0.9h0.2V-60h0l0.2,0.4h0.3L-277.4-60L-277.4-60z"/>
	<path id="XMLID_2322_" class="st0" d="M-239-78.7c-0.3,0-0.6-0.2-0.6-0.6c0-0.3,0.3-0.6,0.6-0.6c0.3,0,0.6,0.3,0.6,0.6
		C-238.4-78.9-238.6-78.7-239-78.7L-239-78.7z M-239-80.1c-0.5,0-0.8,0.3-0.8,0.8c0,0.5,0.4,0.8,0.8,0.8c0.5,0,0.8-0.3,0.8-0.8
		C-238.1-79.8-238.5-80.1-239-80.1L-239-80.1z"/>
	<path id="XMLID_2319_" class="st0" d="M-239-79.3h-0.1v-0.2h0.1c0.1,0,0.1,0,0.1,0.1C-238.9-79.4-238.9-79.3-239-79.3L-239-79.3z
		 M-238.8-79.2c0.1,0,0.2-0.1,0.2-0.2c0-0.2-0.1-0.3-0.4-0.3h-0.3v0.9h0.2v-0.4h0l0.2,0.4h0.3L-238.8-79.2L-238.8-79.2z"/>
	<path id="XMLID_2316_" class="st0" d="M-253.9-64.9l-0.2-8.5l5.8-6.4L-253.9-64.9L-253.9-64.9z M-241.5-77.3l1-2.7h-7.7h0h-4
		l-4,4.9l1.9-4.9h-3.9l-6,16.3h3.8l2.6-6.8l0.2,6.8l11.8,0l1.1-3.1h-4.5l1.5-3.9h3.7l1.1-3h-3.7l1.3-3.4H-241.5L-241.5-77.3z"/>
</g>
<g id="XMLID_1183_">
	<path id="XMLID_1980_" class="st1" d="M98.1,45.4l2.8-10.9h3.1c0,0,0.8-0.1,1.2,0.2c0.4,0.3,0.5,0.8,0.5,0.8l1.7,5.3l2.2-6.3h3
		c0,0,0.8,0,1.1,0.3c0.4,0.3,0.5,0.8,0.5,0.8l2.5,9.8h-2.9l-2.2-8.4l-2.3,6.4h-3.1c0,0-0.4,0-0.7-0.2c-0.4-0.2-0.4-0.5-0.4-0.5
		l-1.9-5.7l-2.2,8.4L98.1,45.4L98.1,45.4z"/>
	<polygon id="XMLID_1979_" class="st1" points="69.1,34.5 69.1,36.7 74.3,37 74.3,45.4 77.4,45.4 77.4,37 82.6,36.7 82.6,34.5 
		69.1,34.5 	"/>
	<path id="XMLID_2021_" class="st1" d="M62.3,36.9l2,4.3h-4L62.3,36.9L62.3,36.9L62.3,36.9z M60.4,34.5L55,45.4h3.3l1-2h6.1l0.9,2
		l3.3,0l-5.2-10.2c0,0-0.2-0.4-0.5-0.5c-0.3-0.2-0.6-0.2-0.6-0.2L60.4,34.5L60.4,34.5L60.4,34.5L60.4,34.5z"/>
	<polygon id="XMLID_1598_" class="st1" points="43.4,34.5 43.4,45.4 52.6,45.4 53.9,42.9 46.6,42.9 46.6,34.5 43.4,34.5 	"/>
	<g id="XMLID_1344_">
		<path id="XMLID_2015_" class="st1" d="M89.4,36.9l2,4.3h-4L89.4,36.9L89.4,36.9L89.4,36.9z M87.6,34.5l-5.4,10.9h3.4l1-2h6.1
			l0.9,2l3.3,0l-5.2-10.2c0,0-0.2-0.4-0.5-0.5c-0.3-0.2-0.6-0.2-0.6-0.2L87.6,34.5L87.6,34.5L87.6,34.5L87.6,34.5z"/>
		<path id="XMLID_1449_" class="st2" d="M24.7,38l2.4-0.7c0,0,0-0.2-0.1-0.2C26.9,37,26.8,37,26.8,37l-3.4-1.2c0,0-0.1,0-0.2,0
			c-0.1,0-0.1,0.2-0.1,0.2v1.6c0,0,0,0.1,0.2,0.5c0.2,0.3,0.7,0.3,0.7,0.3L24.7,38L24.7,38z"/>
		<path id="XMLID_1406_" class="st3" d="M34.3,34.3l2.2-1.3c0,0,0-0.2-0.1-0.3c-0.1-0.1-0.2-0.1-0.2-0.1l-9.7-3.5c0,0-0.1,0-0.2,0
			c-0.1,0-0.1,0.2-0.1,0.2v1.3c0,0,0,0.3,0.2,0.6c0.2,0.3,0.6,0.4,0.6,0.4L34.3,34.3L34.3,34.3z"/>
		<path id="XMLID_1405_" class="st3" d="M34.3,38.2l2.2-1.2c0,0,0-0.3,0-0.4c-0.1-0.1-0.2-0.1-0.2-0.1l-12.9-4.7c0,0-0.1,0-0.2,0
			c-0.1,0-0.1,0.2-0.1,0.2v1.3c0,0,0,0.3,0.2,0.6c0.2,0.3,0.6,0.4,0.6,0.4L34.3,38.2L34.3,38.2z"/>
		<path id="XMLID_1402_" class="st1" d="M36.3,32.6c0,0,0.1,0,0.2,0.1c0.1,0.1,0.1,0.2,0.1,0.2v1.8c0,0,0,0.2-0.1,0.5
			c-0.1,0.2-0.2,0.3-0.2,0.3L36,35.6l-9.7,3.5c0,0,0,0-0.1,0c-0.1,0-0.1,0-0.1,0l-2.7-1c0,0-0.1,0-0.2-0.2c-0.1-0.2-0.1-0.5-0.1-0.5
			s0,0.2,0.1,0.3c0.1,0.1,0.4,0,0.4,0L36,33.2c0,0,0.5-0.2,0.5-0.4C36.5,32.7,36.3,32.6,36.3,32.6L36.3,32.6L36.3,32.6z"/>
	</g>
	<path id="XMLID_1343_" class="st1" d="M36.3,36.5c0,0,0.1,0,0.2,0.1c0.1,0.1,0.1,0.2,0.1,0.2v1.8c0,0,0,0.2-0.1,0.5
		c-0.1,0.2-0.2,0.3-0.2,0.3L36,39.5L26.3,43v-2.4l9.7-3.5c0,0,0.5-0.2,0.5-0.4C36.5,36.6,36.3,36.5,36.3,36.5L36.3,36.5L36.3,36.5z"
		/>
	<path id="XMLID_1284_" class="st1" d="M31.5,42.8c0.1,0.1,0.1,0.3,0.1,0.3v1.3c0,0,0,0.2-0.1,0.5c-0.1,0.2-0.2,0.3-0.2,0.3L31,45.3
		L26.3,47v-2.4l4.6-1.7C31,42.9,31.4,42.7,31.5,42.8L31.5,42.8L31.5,42.8z"/>
	<path id="XMLID_271_" class="st1" d="M28.5,47.8c0.1,0.1,0.1,0.3,0.1,0.3v1.3c0,0,0,0.2-0.1,0.5c-0.1,0.2-0.2,0.3-0.2,0.3L28,50.3
		l-1.6,0.6v-2.4l1.6-0.6C28,47.9,28.4,47.7,28.5,47.8L28.5,47.8z"/>
</g>
</svg>
