<?xml version="1.0" encoding="utf-8"?>
<!-- Generator: Adobe Illustrator 19.0.0, SVG Export Plug-In . SVG Version: 6.00 Build 0)  -->
<svg version="1.1" id="Capa_1" xmlns="http://www.w3.org/2000/svg" xmlns:xlink="http://www.w3.org/1999/xlink" x="0px" y="0px"
	 viewBox="0 0 180 120" style="enable-background:new 0 0 180 120;" xml:space="preserve">
<style type="text/css">
	.st0{fill:#015068;}
	.st1{fill:#FFFFFF;}
</style>
<g id="XMLID_1081_">
	<path id="XMLID_2266_" class="st0" d="M117.2,75.8c0,6.3-5.1,11.3-11.3,11.3H74.2c-6.3,0-11.3-5.1-11.3-11.3V44.2
		c0-6.3,5.1-11.3,11.3-11.3h31.7c6.3,0,11.3,5.1,11.3,11.3V75.8L117.2,75.8z"/>
	<path id="XMLID_2263_" class="st1" d="M70.9,68.5c0.2,0,0.3,0,0.5,0c0.2,0,0.3-0.1,0.4-0.2c0.1-0.1,0.2-0.2,0.3-0.3
		c0.1-0.1,0.1-0.3,0.1-0.5s0-0.4-0.1-0.5c-0.1-0.1-0.2-0.2-0.3-0.3c-0.1-0.1-0.3-0.1-0.4-0.2c-0.2,0-0.3,0-0.5,0h-1.2v2.1H70.9
		L70.9,68.5z M71.5,65c0.5,0,0.9,0.1,1.2,0.2c0.3,0.1,0.6,0.3,0.8,0.5c0.2,0.2,0.4,0.5,0.4,0.8c0.1,0.3,0.1,0.6,0.1,0.9
		c0,0.3,0,0.6-0.1,0.9c-0.1,0.3-0.2,0.5-0.4,0.8c-0.2,0.2-0.5,0.4-0.8,0.5c-0.3,0.1-0.7,0.2-1.2,0.2h-1.7v2.7H68c0,0,0-6.6,0-6.9
		c0-0.4,0.3-0.6,0.6-0.6C68.9,65,71.5,65,71.5,65L71.5,65z"/>
	<path id="XMLID_2262_" class="st1" d="M77.4,66.8c0,0.8,0,4.7,0,5.6c0,0.1-0.2,0.2-0.2,0.2s-1.2,0-1.3,0c-0.1,0-0.2-0.1-0.2-0.2
		c0-0.1,0-7.3,0-7.3S77.4,64.9,77.4,66.8L77.4,66.8z"/>
	<path id="XMLID_2258_" class="st1" d="M86.3,69.6l0.9-3.1l0.9,3.1H86.3L86.3,69.6z M88.3,65.3c0,0-0.1-0.3-0.5-0.3
		c-0.3,0-0.9,0-1.2,0c-0.4,0-0.5,0.3-0.5,0.3l-2,5.8c-0.8,0-2.5,0-2.6,0c-0.1,0-0.7-0.1-0.7-0.6c0-0.5,0-5.3,0-5.3
		c0-0.1-0.1-0.2-0.2-0.2c-0.1,0-1.3,0-1.3,0c-0.1,0-0.2,0-0.2,0.2c0,0.1,0,5.2,0,5.7c0,0.8,0.5,1.7,1.6,1.7c0.7,0,2,0,2.9,0h0.8h0.9
		l0.4-1.6h2.6l0.5,1.6h1.7L88.3,65.3L88.3,65.3z"/>
	<path id="XMLID_2254_" class="st1" d="M94.8,68.1c0.3,0,0.6-0.1,0.7-0.2c0.2-0.1,0.2-0.4,0.2-0.7c0-0.3-0.1-0.5-0.2-0.6
		c-0.2-0.1-0.4-0.2-0.7-0.2h-1.5v1.7H94.8L94.8,68.1z M94.9,65c0.3,0,1.1,0.1,1.4,0.2c0.3,0.1,0.5,0.3,0.7,0.4
		c0.2,0.2,0.3,0.4,0.4,0.7c0.1,0.2,0.2,0.5,0.2,0.8c0,0.4-0.1,0.8-0.3,1.1c-0.2,0.3-0.4,0.6-0.8,0.7v0c0.2,0.1,0.4,0.2,0.5,0.4
		c0.4,0.5,0.5,1.6,0.6,1.8c0.2,0.7,0.3,1.2,0.3,1.3h-1.8c-0.1-0.2-0.3-1.4-0.4-1.7c-0.1-0.3-0.2-0.8-0.4-1c-0.2-0.2-0.5-0.4-0.9-0.4
		l-1.2,0v3.1h-1.7v-7c0,0,0-0.5,0.7-0.5C92.7,65,94.9,65,94.9,65L94.9,65z"/>
	<path id="XMLID_2253_" class="st1" d="M104.5,65v1.4c0,0-2.8,0-3.3,0c-0.5,0-0.5,0.5-0.5,0.5v1h3.5v1.3h-3.5v1.4
		c0,0-0.1,0.6,0.6,0.6c0.6,0,3.3,0,3.3,0v1.4c0,0-2.9,0-4,0c-1.2,0-1.6-1.1-1.6-1.6c0-0.5,0-2.7,0-4c0-1.3,1.1-1.8,1.4-1.8
		C100.7,65,104.5,65,104.5,65L104.5,65z"/>
	<path id="XMLID_2252_" class="st1" d="M109.1,71.2c0.1,0,1.1-0.1,1.1-0.7c0-0.5-0.5-0.8-1.7-1.2c-1-0.3-2.2-0.9-2.2-2.1
		c0-0.4,0.1-0.8,0.3-1.1c0.2-0.3,0.7-1.2,2.5-1.2c0.4,0,2,0.2,2.6,0.6l-0.5,1.3c-0.8-0.2-1.7-0.4-2.1-0.4c-1,0-1,0.4-1,0.6
		c0,0.6,1.5,1,2,1.2c1.1,0.4,2,0.9,2,2.4c0,1.1-0.9,2.1-2.8,2.1c-0.4,0-2.1-0.1-3.2-0.8l0.6-1.3C107.8,71.1,108.9,71.2,109.1,71.2
		L109.1,71.2z"/>
	<polygon id="XMLID_2251_" class="st1" points="68.5,78.6 68,78.6 68,74.8 68.5,74.8 68.5,78.6 	"/>
	<polygon id="XMLID_2249_" class="st1" points="70.4,74.6 73.3,77.6 73.3,74.8 73.8,74.8 73.8,78.8 70.9,75.7 70.9,78.6 70.4,78.6 
		70.4,74.6 	"/>
	<polygon id="XMLID_2248_" class="st1" points="76.4,76.1 76.4,76.1 75.9,78.6 75.4,78.6 76.2,74.6 77.6,77.6 78.9,74.6 79.7,78.6 
		79.2,78.6 78.7,76.1 78.7,76.1 77.6,78.7 76.4,76.1 	"/>
	<path id="XMLID_2245_" class="st1" d="M84.7,76.7c0-0.8-0.6-1.6-1.5-1.6c-0.9,0-1.5,0.7-1.5,1.6c0,0.9,0.7,1.6,1.5,1.6
		C83.9,78.2,84.7,77.6,84.7,76.7L84.7,76.7z M85.1,76.7c0,1.1-0.9,2-2,2c-1.1,0-2-0.9-2-2c0-1.1,0.9-2,2-2
		C84.2,74.7,85.1,75.6,85.1,76.7L85.1,76.7z"/>
	<path id="XMLID_2228_" class="st1" d="M87.3,78.2h0.4c0.4,0,0.9-0.1,0.9-0.7c0-0.5-0.6-0.7-1-0.7h-0.3V78.2L87.3,78.2z M87.3,76.5
		h0.1c0.5,0,0.8-0.1,0.8-0.6c0-0.5-0.4-0.6-0.8-0.6h-0.1V76.5L87.3,76.5z M86.8,74.8h0.5c0.7,0,1.4,0.2,1.4,1.1
		c0,0.3-0.2,0.6-0.4,0.7v0c0.5,0.1,0.8,0.5,0.8,1c0,0.8-0.7,1.1-1.3,1.1h-0.9V74.8L86.8,74.8z"/>
	<polygon id="XMLID_2227_" class="st1" points="91.4,78.6 90.9,78.6 90.9,74.8 91.4,74.8 91.4,78.6 	"/>
	<polygon id="XMLID_2225_" class="st1" points="93.5,78.2 94.6,78.2 94.6,78.6 93,78.6 93,74.8 93.5,74.8 93.5,78.2 	"/>
	<polygon id="XMLID_2224_" class="st1" points="96.5,78.6 96,78.6 96,74.8 96.5,74.8 96.5,78.6 	"/>
	<path id="XMLID_2221_" class="st1" d="M99.7,75.6L99,77.2h1.4L99.7,75.6L99.7,75.6z M98.8,77.6l-0.4,1h-0.5l1.8-4l1.8,4H101l-0.4-1
		H98.8L98.8,77.6z"/>
	<path id="XMLID_2178_" class="st1" d="M103.4,76.6h0.2c0.5,0,1-0.1,1-0.7c0-0.6-0.6-0.7-1-0.7h-0.1V76.6L103.4,76.6z M105.3,78.6
		h-0.6l-1.1-1.6h-0.2v1.6h-0.5v-3.9h0.6c0.3,0,0.7,0,1,0.2c0.3,0.2,0.5,0.6,0.5,0.9c0,0.6-0.4,1-0.9,1.1L105.3,78.6L105.3,78.6z"/>
	<polygon id="XMLID_2143_" class="st1" points="107.3,78.6 106.8,78.6 106.8,74.8 107.3,74.8 107.3,78.6 	"/>
	<path id="XMLID_1089_" class="st1" d="M110.5,75.6l-0.7,1.6h1.4L110.5,75.6L110.5,75.6z M109.6,77.6l-0.4,1h-0.5l1.8-4l1.8,4h-0.5
		l-0.4-1H109.6L109.6,77.6z"/>
	<polygon id="XMLID_1086_" class="st1" points="97.7,42.6 99.4,44.9 102.4,44.9 102.4,56.1 104.4,53.5 104.4,42.6 97.7,42.6 	"/>
	<polygon id="XMLID_1085_" class="st1" points="110.6,58.3 108,58.3 104.4,53.5 106.9,53.5 110.6,58.3 	"/>
</g>
</svg>
