<?xml version="1.0" encoding="utf-8"?>
<!-- Generator: Adobe Illustrator 19.0.0, SVG Export Plug-In . SVG Version: 6.00 Build 0)  -->
<svg version="1.1" id="Capa_1" xmlns="http://www.w3.org/2000/svg" xmlns:xlink="http://www.w3.org/1999/xlink" x="0px" y="0px"
	 viewBox="0 0 140 80" style="enable-background:new 0 0 140 80;" xml:space="preserve">
<style type="text/css">
	.st0{fill:#015068;}
</style>
<g id="XMLID_270_">
	<path id="XMLID_2003_" class="st0" d="M97.1,30.7c-0.4,0.9,0.4,2.4-0.7,2.6L62,33.2l-3.6,0.1l-0.5,0.8l-4.3,16.1l-0.6,0.3l-5.8-0.1
		l-0.5-1.1c-1.6-6.6-3.4-13-5-19.5c1.5-0.2,3.2-0.3,4.7,0c1.6,4.8,2.3,9.9,3.7,14.8l0.2,0.1l0.4-0.5l3.7-14.3l0.4-0.3l39,0.1
		C94.9,29.9,97.2,28.8,97.1,30.7"/>
	<path id="XMLID_2000_" class="st0" d="M97.1,37.3c0.1,1-1,1.9-1.8,2.5c-1.5-0.6-3.3-1.8-5.1-0.9c-0.6,0.4-1,1-0.5,1.6
		c2.5,1.6,6.9,0.7,7.9,4.1c0.5,1.4,0.1,3.3-1.2,4.3c-2.1,1.7-5.1,2.1-8,1.3c-1.3-0.5-2.7-0.8-3.8-1.7c0.4-1,1.2-1.9,2-2.7
		c1.6,0.4,3,1.5,5,1.3c0.7,0,1.5-0.4,1.8-1c0.2-2.5-3.4-1.5-5-2.2c-1.7-0.4-3-1.6-3.3-3c-0.3-1.5,0.1-2.9,1.4-3.9
		C89.5,35.1,94.3,35.4,97.1,37.3"/>
	<path id="XMLID_1999_" class="st0" d="M83.9,36.1c0.1,4.6,0.1,9.4,0,14c-1.5,0.4-3.2,0.1-4.8,0C77.7,48,77,46,75.5,43.8
		c-0.2-0.1-0.3,0.2-0.4,0.2L75,50c-1,0.5-2.4,0.1-3.6,0.3l-0.3-0.8c0-4.3-0.1-9.1,0.2-13.3c1.3-0.3,2.8-0.3,4.2-0.2l0.4,0.3l3.3,5.8
		l0.5-0.1c-0.1-1.7,0.3-3.9,0.2-5.8C81,35.7,82.7,35.9,83.9,36.1"/>
	<path id="XMLID_1996_" class="st0" d="M67.3,39.6L70,50.1c-1.1,0.4-2.6,0.1-3.8,0.1c-0.6-0.9-0.2-2.5-1.7-2.7
		c-1.4,0.1-3.1-0.4-4,0.6l-0.6,2.1c-1.2,0.2-2.7,0.2-3.8-0.1c1.2-4.7,2.7-9.4,4.1-14.1c1.8-0.4,4.2-0.2,6.1,0L67.3,39.6L67.3,39.6z
		 M63.9,43.6c-0.1-1.1-0.6-2.2-1.1-3.2c-0.7,0.9-0.6,2.1-0.9,3.2C62.4,44.1,63.3,43.8,63.9,43.6"/>
	<path id="XMLID_1991_" class="st0" d="M98.2,35.2c-0.1,0.1-0.3,0.2-0.5,0.2c-0.2,0-0.4-0.1-0.5-0.2C97,35.1,97,34.9,97,34.7
		c0-0.2,0.1-0.4,0.2-0.5c0.1-0.1,0.3-0.2,0.5-0.2c0.2,0,0.4,0.1,0.5,0.2c0.1,0.1,0.2,0.3,0.2,0.5C98.4,34.9,98.3,35.1,98.2,35.2
		 M97.3,34.3c-0.1,0.1-0.2,0.3-0.2,0.4c0,0.2,0.1,0.3,0.2,0.4c0.1,0.1,0.3,0.2,0.4,0.2c0.2,0,0.3-0.1,0.4-0.2
		c0.1-0.1,0.2-0.3,0.2-0.4c0-0.2-0.1-0.3-0.2-0.4c-0.1-0.1-0.3-0.2-0.4-0.2C97.5,34.1,97.4,34.2,97.3,34.3 M97.4,35.1v-0.8
		c0.1,0,0.1,0,0.2,0c0.1,0,0.2,0,0.2,0c0.1,0,0.1,0,0.2,0c0.1,0,0.1,0.1,0.1,0.2c0,0.1,0,0.1-0.1,0.1c0,0-0.1,0-0.1,0.1
		c0.1,0,0.1,0,0.1,0c0,0,0.1,0.1,0.1,0.2l0,0.1c0,0,0,0,0,0c0,0,0,0,0,0l0,0l-0.2,0c0,0,0-0.1,0-0.1c0,0,0-0.1,0-0.1
		c0,0,0,0-0.1-0.1c0,0,0,0-0.1,0h0l0,0v0.3L97.4,35.1L97.4,35.1z M97.8,34.4c0,0-0.1,0-0.1,0h-0.1v0.2h0.1c0.1,0,0.1,0,0.1,0
		C97.8,34.6,97.8,34.6,97.8,34.4C97.8,34.5,97.8,34.5,97.8,34.4"/>
</g>
<g id="XMLID_265_">
	<path id="XMLID_1552_" class="st0" d="M-359.5-157.4c-2.2,0-3.1-1.5-3.1-2.9v-11.1h2.6v11c0,0.6,0.3,0.9,0.9,0.9h1v2.2H-359.5z"/>
	<path id="XMLID_1585_" class="st0" d="M-435.9-162.1c0,2.5,1.6,4.3,4.3,4.3c2.2,0,3.2-0.6,4.5-1.8l3,2.9c-2,2-3.9,3.1-7.5,3.1
		c-4.7,0-9.1-2.1-9.1-10c0-6.4,3.5-10,8.6-10c5.5,0,8.6,4,8.6,9.3v2.2H-435.9z M-428.9-167.6c-0.5-1.2-1.6-2-3.3-2
		c-1.7,0-2.8,0.9-3.3,2c-0.3,0.7-0.4,1.2-0.5,2.1h7.5C-428.5-166.3-428.6-166.9-428.9-167.6"/>
	<path id="XMLID_1580_" class="st0" d="M-372-162.3c0,1.5,0.9,2.6,2.6,2.6c1.3,0,2-0.4,2.7-1.1l1.8,1.7c-1.2,1.2-2.4,1.8-4.6,1.8
		c-2.8,0-5.6-1.2-5.6-5.9c0-3.8,2.1-5.9,5.2-5.9c3.3,0,5.2,2.4,5.2,5.5v1.3H-372z M-367.7-165.5c-0.3-0.7-1-1.2-2-1.2
		c-1,0-1.7,0.5-2,1.2c-0.2,0.4-0.3,0.7-0.3,1.2h4.6C-367.4-164.8-367.5-165.1-367.7-165.5"/>
	<path id="XMLID_515_" class="st0" d="M-384-157.4h-2.9v-7c0-0.7-0.2-1.3-0.6-1.6c-0.3-0.3-0.8-0.5-1.3-0.5c-0.5,0-1,0.2-1.3,0.5
		c-0.4,0.4-0.6,0.9-0.6,1.6v7h-2.9V-169h2.8v1.1c0.8-0.8,1.7-1.2,2.9-1.2c1.1,0,2.1,0.3,2.7,1c0.8,0.8,1.2,1.9,1.2,3.3V-157.4z"/>
	<path id="XMLID_269_" class="st0" d="M-381.4-171.4h3.3v2.5h1.6v2.4h-1.9v6c0,0.5,0.3,0.7,0.8,0.7h1.2v2.3h-1.6
		c-2.4,0-3.4-1.9-3.4-3.5"/>
	<path id="XMLID_1565_" class="st0" d="M-396-162.3h-7.5c0,0.8,0.2,1.4,0.7,1.9c0.5,0.5,1.1,0.7,1.9,0.7c1.1,0,2-0.4,2.7-1.1
		l1.8,1.7c-0.7,0.6-1.3,1.1-1.9,1.4c-0.7,0.3-1.6,0.5-2.6,0.5c-3.7,0-5.6-2-5.6-5.9c0-1.9,0.5-3.3,1.5-4.4c0.9-1,2.2-1.5,3.8-1.5
		c1.6,0,2.9,0.5,3.9,1.6c0.9,1,1.4,2.3,1.4,4V-162.3z M-398.9-164.3c0-0.5-0.1-0.9-0.3-1.2c-0.4-0.8-1-1.2-2-1.2s-1.6,0.4-2,1.2
		c-0.2,0.4-0.3,0.8-0.3,1.2H-398.9z"/>
	<path id="XMLID_266_" class="st0" d="M-418.8-172.3l-2.8,2.8c2,1.5,3.3,3.9,3.3,6.6c0,2.7-1.3,5.1-3.3,6.6l2.8,2.8
		c2.7-2.2,4.4-5.6,4.4-9.4C-414.5-166.7-416.2-170.1-418.8-172.3"/>
</g>
</svg>
