<?xml version="1.0" encoding="iso-8859-1"?>
<!-- Generator: Adobe Illustrator 19.0.0, SVG Export Plug-In . SVG Version: 6.00 Build 0)  -->
<svg version="1.1" id="Layer_1" xmlns="http://www.w3.org/2000/svg" xmlns:xlink="http://www.w3.org/1999/xlink" x="0px" y="0px"
	 viewBox="-49 141 512 512" style="enable-background:new -49 141 512 512;" xml:space="preserve">
<path style="fill:#3FA7F3;" d="M-189.499,320.527l53.524-53.524c3.95-3.95,3.95-10.349,0-14.299c-3.95-3.95-10.349-3.95-14.299,0
	l-57.711,57.711h-97.743c-1.723-11.962-6.43-22.945-13.368-32.202l69.136-69.127h81.614c5.584,0,10.112-4.523,10.112-10.112
	s-4.528-10.112-10.112-10.112h-75.689v-75.694c0-5.589-4.528-10.112-10.112-10.112s-10.112,4.523-10.112,10.112v81.618
	l-69.137,69.128c-9.256-6.936-20.237-11.642-32.198-13.365v-97.742l57.711-57.711c3.95-3.95,3.95-10.349,0-14.299
	c-3.95-3.95-10.349-3.95-14.299,0l-53.524,53.524l-53.524-53.524c-3.95-3.95-10.349-3.95-14.299,0c-3.95,3.95-3.95,10.349,0,14.299
	l57.711,57.711v97.742c-11.961,1.723-22.941,6.429-32.198,13.365l-69.137-69.128v-81.618c0-5.589-4.528-10.112-10.112-10.112
	c-5.584,0-10.112,4.523-10.112,10.112v75.693h-75.688c-5.584,0-10.112,4.523-10.112,10.112s4.528,10.112,10.112,10.112h81.614
	l69.136,69.127c-6.938,9.257-11.645,20.24-13.368,32.202h-97.743l-57.711-57.711c-3.95-3.95-10.349-3.95-14.299,0
	c-3.95,3.95-3.95,10.349,0,14.299l53.524,53.524l-53.524,53.524c-3.95,3.95-3.95,10.349,0,14.299
	c1.975,1.975,4.562,2.963,7.15,2.963c2.587,0,5.175-0.987,7.15-2.963l57.711-57.711h97.743c1.723,11.96,6.428,22.94,13.364,32.197
	l-69.133,69.133h-81.613c-5.584,0-10.112,4.523-10.112,10.112c0,5.589,4.528,10.112,10.112,10.112h75.688v75.693
	c0,5.589,4.528,10.112,10.112,10.112c5.584,0,10.112-4.523,10.112-10.112v-81.619l69.131-69.131
	c9.257,6.938,20.24,11.645,32.203,13.368v97.743l-57.711,57.711c-3.95,3.95-3.95,10.349,0,14.299c3.95,3.95,10.349,3.95,14.299,0
	l53.524-53.523l53.524,53.524c1.975,1.975,4.562,2.963,7.15,2.963c2.587,0,5.175-0.987,7.15-2.963c3.95-3.95,3.95-10.349,0-14.299
	l-57.711-57.711v-97.743c11.963-1.723,22.946-6.43,32.203-13.368l69.131,69.131v81.619c0,5.589,4.528,10.112,10.112,10.112
	s10.112-4.523,10.112-10.112v-75.693h75.689c5.584,0,10.112-4.523,10.112-10.112c0-5.589-4.528-10.112-10.112-10.112h-81.614
	l-69.133-69.133c6.936-9.257,11.641-20.237,13.364-32.197h97.743l57.711,57.711c1.975,1.975,4.562,2.963,7.15,2.963
	c2.587,0,5.175-0.987,7.15-2.963c3.95-3.95,3.95-10.349,0-14.299L-189.499,320.527z M-375.706,371.088
	c-27.878,0-50.561-22.683-50.561-50.561s22.683-50.561,50.561-50.561s50.561,22.683,50.561,50.561S-347.828,371.088-375.706,371.088
	z"/>
<path style="fill:#7AC743;stroke:#9AC677;stroke-width:0.4752;stroke-miterlimit:10;" d="M-170.649,157.244
	c-18.549,0-33.64-15.091-33.64-33.64s15.091-33.64,33.64-33.64s33.64,15.091,33.64,33.64S-152.099,157.244-170.649,157.244z
	 M-170.649,109.186c-7.95,0-14.417,6.467-14.417,14.417s6.467,14.417,14.417,14.417s14.417-6.467,14.417-14.417
	S-162.698,109.186-170.649,109.186z"/>
<path style="fill:#FF911E;" d="M-575.117,563.134L-575.117,563.134c-2.682,0-5.255-1.067-7.151-2.963l-28.601-28.604
	c-3.949-3.948-3.949-10.352,0-14.299l28.601-28.601c3.95-3.95,10.353-3.95,14.3,0l28.602,28.601c1.897,1.896,2.963,4.469,2.963,7.15
	c0,2.681-1.065,5.254-2.961,7.15l-28.602,28.604C-569.862,562.067-572.435,563.134-575.117,563.134z M-589.418,524.418l14.3,14.302
	l14.302-14.302l-14.302-14.299L-589.418,524.418z"/>
<g>
	<g>
		<path style="fill:#3FA7F3;" d="M-792.026,429.323v-18.359V401.7V182.909c0-23.109-18.791-41.909-41.891-41.909
			s-41.891,18.8-41.891,41.909V401.7v9.264v18.359c-44.818,17.127-74.473,59.695-74.473,107.977c0,63.795,52.2,115.7,116.364,115.7
			s116.364-51.904,116.364-115.7C-717.554,489.018-747.208,446.45-792.026,429.323z M-833.917,159.618
			c12.832,0,23.273,10.45,23.273,23.291v209.436h-27.927h-18.618V345.8h18.618c5.141,0,9.309-4.168,9.309-9.309
			c0-5.141-4.168-9.309-9.309-9.309h-18.618v-46.545h18.618c5.141,0,9.309-4.168,9.309-9.309c0-5.141-4.168-9.309-9.309-9.309
			h-18.618v-46.545h18.618c5.141,0,9.309-4.168,9.309-9.309c0-5.141-4.168-9.309-9.309-9.309h-18.618v-13.945
			C-857.19,170.068-846.749,159.618-833.917,159.618z M-833.917,634.382c-53.895,0-97.745-43.55-97.745-97.082
			c0-42.427,27.318-79.6,67.977-92.5c3.868-1.227,6.495-4.814,6.495-8.873v-24.918h46.545v24.918c0,4.059,2.627,7.646,6.495,8.873
			c40.659,12.9,67.977,50.073,67.977,92.5C-736.172,590.832-780.022,634.382-833.917,634.382z"/>
		<path style="fill:#3FA7F3;" d="M-1037.349,168.332c2.877-1.664,4.65-4.736,4.65-8.059s-1.773-6.395-4.65-8.059
			c-12.682-7.336-27.168-11.213-41.895-11.213c-46.195,0-83.782,37.586-83.782,83.782s37.586,83.782,83.782,83.782
			c14.727,0,29.214-3.877,41.896-11.214c2.877-1.664,4.65-4.736,4.65-8.059s-1.773-6.395-4.65-8.059
			c-20.1-11.627-32.587-33.254-32.587-56.45S-1057.449,179.959-1037.349,168.332z M-1088.554,224.782
			c0,24.009,10.405,46.714,27.945,62.45c-6.014,1.791-12.295,2.714-18.636,2.714c-35.932,0-65.164-29.232-65.164-65.164
			s29.232-65.164,65.164-65.164c6.341,0,12.623,0.923,18.636,2.714C-1078.149,178.068-1088.554,200.773-1088.554,224.782z"/>
		<path style="fill:#3FA7F3;" d="M-1060.863,372.596c-3.636-3.636-9.527-3.636-13.163,0l-6.584,6.584l-6.58-6.579
			c-3.636-3.636-9.527-3.636-13.163,0c-3.636,3.636-3.636,9.527,0,13.164l6.581,6.582l-6.581,6.582
			c-3.636,3.636-3.636,9.532,0,13.164c1.818,1.818,4.2,2.727,6.582,2.727c2.382,0,4.764-0.909,6.582-2.727l6.581-6.582l6.583,6.582
			c1.818,1.818,4.2,2.727,6.582,2.727c2.382,0,4.764-0.909,6.582-2.727c3.636-3.636,3.636-9.527,0-13.164l-6.584-6.584l6.584-6.584
			C-1057.226,382.123-1057.226,376.227-1060.863,372.596z"/>
		<path style="fill:#E6F5FF;" d="M-949.154,222.054l-6.584-6.584l6.584-6.584c3.636-3.636,3.636-9.532,0-13.164
			c-3.636-3.636-9.527-3.636-13.164,0l-6.584,6.584l-6.58-6.579c-3.636-3.636-9.527-3.636-13.164,0s-3.636,9.527,0,13.164
			l6.581,6.582l-6.581,6.582c-3.636,3.636-3.636,9.532,0,13.164c1.818,1.818,4.2,2.727,6.582,2.727s4.764-0.909,6.582-2.727
			l6.581-6.582l6.582,6.582c1.818,1.818,4.2,2.727,6.582,2.727s4.764-0.909,6.582-2.727
			C-945.517,231.582-945.517,225.691-949.154,222.054z"/>
	</g>
	<g>
		<path style="fill:#E6F5FF;" d="M-1154.184,497.399c-2.383,0-4.765-0.909-6.583-2.726c-3.635-3.636-3.635-9.529,0-13.166
			l32.912-32.913c3.636-3.634,9.53-3.634,13.166,0c3.635,3.636,3.635,9.529,0,13.166l-32.913,32.913
			C-1149.419,496.49-1151.801,497.399-1154.184,497.399z"/>
		<path style="fill:#E6F5FF;" d="M-1121.271,497.405c-2.383,0-4.765-0.909-6.583-2.726l-32.912-32.914
			c-3.635-3.636-3.635-9.531,0-13.166c3.639-3.634,9.532-3.632,13.166,0l32.913,32.914c3.635,3.636,3.635,9.531,0,13.166
			C-1116.507,496.496-1118.89,497.405-1121.271,497.405z"/>
	</g>
	<path style="fill:#015068;" d="M-954.039,385.69c-17.966,0-32.582-14.616-32.582-32.582s14.616-32.582,32.582-32.582
		c17.966,0,32.582,14.616,32.582,32.582S-936.073,385.69-954.039,385.69z M-954.039,339.145c-7.7,0-13.964,6.264-13.964,13.964
		s6.264,13.964,13.964,13.964s13.964-6.264,13.964-13.964S-946.339,339.145-954.039,339.145z"/>
	<path style="fill:#015068;" d="M-1044.073,591.229c-2.383,0-4.765-0.909-6.583-2.726l-26.33-26.33
		c-3.635-3.636-3.635-9.529,0-13.166l26.33-26.33c3.636-3.634,9.531-3.634,13.165,0l26.331,26.33
		c1.747,1.747,2.727,4.114,2.727,6.583c0,2.469-0.981,4.836-2.727,6.583l-26.331,26.33
		C-1039.308,590.32-1041.691,591.229-1044.073,591.229z M-1057.237,555.59l13.165,13.165l13.166-13.165l-13.166-13.165
		L-1057.237,555.59z"/>
</g>
<g style="opacity:0.4;">
	<path style="fill:#3FA7F3;" d="M1.627,420.331c-2.588,0-5.176-0.987-7.151-2.963c-3.949-3.948-3.949-10.352,0-14.299l35.752-35.751
		c3.953-3.95,10.354-3.948,14.302,0c3.949,3.948,3.949,10.352,0,14.299L8.778,417.369C6.803,419.344,4.214,420.331,1.627,420.331z"
		/>
	<path style="fill:#3FA7F3;" d="M37.379,420.334c-2.588,0-5.176-0.987-7.151-2.963l-35.752-35.753
		c-3.949-3.948-3.949-10.352,0-14.299c3.953-3.95,10.354-3.948,14.302,0l35.752,35.753c3.949,3.948,3.949,10.352,0,14.299
		C42.555,419.346,39.966,420.334,37.379,420.334z"/>
</g>
<path style="fill:#3FA7F3;" d="M398.953,200.077H15.048c-10.884,0-19.74-8.836-19.74-19.692s8.856-19.692,19.74-19.692h383.903
	c10.885,0,19.741,8.836,19.741,19.692S409.837,200.077,398.953,200.077L398.953,200.077z M398.953,141H15.048
	c-21.74,0-39.433,17.663-39.433,39.385s17.692,39.385,39.433,39.385h383.903c21.741,0,39.433-17.664,39.433-39.385
	S420.692,141,398.953,141L398.953,141z"/>
<path style="fill:#3FA7F3;" d="M349.779,308.385H64.221c-10.856,0-19.683-8.837-19.683-19.693c0-10.856,8.827-19.692,19.683-19.692
	h285.557c10.856,0,19.683,8.836,19.683,19.692C369.462,299.548,360.635,308.385,349.779,308.385L349.779,308.385z M349.779,249.308
	H64.221c-21.712,0-39.375,17.663-39.375,39.384c0,21.721,17.664,39.385,39.375,39.385h285.557c21.712,0,39.375-17.664,39.375-39.385
	C389.154,266.971,371.491,249.308,349.779,249.308L349.779,249.308z"/>
<path style="fill:#3FA7F3;" d="M300.625,416.692h-187.26c-10.808,0-19.596-8.836-19.596-19.692c0-10.856,8.788-19.692,19.596-19.692
	h187.259c10.808,0,19.606,8.836,19.606,19.692C320.23,407.856,311.432,416.692,300.625,416.692L300.625,416.692z M300.625,357.615
	h-187.26c-21.663,0-39.288,17.664-39.288,39.385c0,21.721,17.626,39.385,39.288,39.385h187.259
	c21.674,0,39.299-17.664,39.299-39.385C339.923,375.279,322.298,357.615,300.625,357.615L300.625,357.615z"/>
<path style="fill:#3FA7F3;" d="M275.98,525H138.019c-10.827,0-19.635-8.836-19.635-19.692c0-10.856,8.808-19.693,19.635-19.693
	H275.98c10.827,0,19.635,8.837,19.635,19.693C295.615,516.164,286.807,525,275.98,525L275.98,525z M275.98,465.923H138.019
	c-21.683,0-39.327,17.664-39.327,39.385s17.644,39.384,39.327,39.384H275.98c21.683,0,39.327-17.663,39.327-39.384
	S297.664,465.923,275.98,465.923L275.98,465.923z"/>
<path style="fill:#3FA7F3;" d="M236.568,633.308h-59.135c-10.846,0-19.663-8.837-19.663-19.693c0-10.855,8.817-19.692,19.663-19.692
	h59.135c10.846,0,19.663,8.837,19.663,19.692C256.23,624.471,247.414,633.308,236.568,633.308L236.568,633.308z M236.568,574.231
	h-59.135c-21.702,0-39.356,17.663-39.356,39.384c0,21.722,17.654,39.385,39.356,39.385h59.135c21.702,0,39.356-17.663,39.356-39.385
	C275.924,591.894,258.27,574.231,236.568,574.231L236.568,574.231z"/>
<g>
	<path style="fill:#FF911E;" d="M407.94,412.941c-2.519,0-5.041-0.962-6.961-2.885c-3.846-3.844-3.846-10.079,0-13.923l34.812-34.81
		c3.846-3.846,10.082-3.846,13.923,0c3.846,3.844,3.846,10.079,0,13.923l-34.812,34.81
		C412.979,411.979,410.459,412.941,407.94,412.941L407.94,412.941z"/>
	<path style="fill:#FF911E;" d="M442.753,412.941c-2.519,0-5.039-0.962-6.962-2.885l-34.812-34.81
		c-3.846-3.844-3.846-10.079,0-13.923c3.841-3.846,10.077-3.846,13.923,0l34.812,34.81c3.846,3.844,3.846,10.079,0,13.923
		C447.793,411.979,445.272,412.941,442.753,412.941L442.753,412.941z"/>
</g>
<path style="fill:#7AC743;stroke:#9AC677;stroke-width:0.4752;stroke-miterlimit:10;" d="M389.153,559.462
	c-8.144,0-14.769,6.625-14.769,14.769S381.009,589,389.153,589c8.145,0,14.77-6.625,14.77-14.769S397.298,559.462,389.153,559.462
	L389.153,559.462z M389.153,608.692c-19.002,0-34.461-15.459-34.461-34.461s15.459-34.462,34.461-34.462
	c19.003,0,34.462,15.46,34.462,34.462S408.156,608.692,389.153,608.692L389.153,608.692z"/>
<path style="fill:#015068;" d="M20.412,588.999l13.925,13.926l13.925-13.926l-13.925-13.922L20.412,588.999L20.412,588.999z
	 M34.338,626.697c-2.611,0-5.115-1.039-6.962-2.885l-27.849-27.851c-3.846-3.843-3.846-10.079,0-13.923l27.849-27.848
	c3.841-3.847,10.082-3.847,13.923,0l27.849,27.848c3.846,3.844,3.846,10.079,0,13.923L41.3,623.812
	C39.453,625.658,36.949,626.697,34.338,626.697L34.338,626.697z"/>
<g id="XMLID_4560_">
	<path id="XMLID_4564_" style="fill:#FF911E;" d="M-121.198-133.618c-0.212-2.188-0.842-4.473-1.82-6.609
		c-0.89-1.947-2.057-3.806-3.464-5.526c-0.396-0.487-0.797-0.952-1.004-1.164l-0.48-0.525c-0.117-0.133-0.214-0.241-0.312-0.336
		l-0.144-0.146c-0.155-0.155-0.317-0.319-0.451-0.482c-0.01-0.014-0.021-0.026-0.034-0.038c-0.064-0.072-0.136-0.144-0.212-0.225
		c-0.103-0.102-0.217-0.217-0.32-0.346c-0.014-0.016-0.026-0.031-0.04-0.048c-0.731-0.802-1.343-1.529-1.876-2.226
		c-0.622-0.818-1.062-1.498-1.426-2.204c-0.423-0.804-0.74-1.699-0.941-2.667c-0.191-0.878-0.301-1.885-0.331-2.997
		c-0.029-0.986,0.031-1.935,0.093-2.725c0.045-0.528,0.098-0.995,0.145-1.405c0.041-0.322-0.084-0.642-0.327-0.855
		c-0.243-0.212-0.577-0.291-0.89-0.209c-0.465,0.122-0.945,0.284-1.417,0.479c-0.993,0.406-1.971,0.969-2.906,1.677
		c-1.193,0.904-2.238,2.023-3.106,3.321c-1.064,1.587-1.818,3.453-2.179,5.39c-0.41,2.133-0.365,4.538,0.126,6.771
		c0.468,2.159,1.374,4.366,2.622,6.387c0.661,1.052,1.294,1.933,1.921,2.67c0.186,0.231,0.699,0.833,0.706,0.84l0.205,0.234
		c0.144,0.162,0.246,0.286,0.351,0.41c0.096,0.115,0.177,0.21,0.265,0.305l0.014,0.017c0.979,1.167,1.668,2.025,2.236,2.784
		c0.627,0.837,1.181,1.647,1.689,2.477c0.542,0.887,0.928,1.661,1.215,2.436c0.327,0.881,0.541,1.835,0.639,2.842
		c0.091,0.885,0.091,1.878,0.002,3.03c-0.09,1.045-0.253,1.997-0.382,2.694c-0.095,0.475-0.188,0.916-0.274,1.298
		c-0.071,0.322,0.021,0.658,0.253,0.895c0.186,0.191,0.439,0.296,0.702,0.296c0.062,0,0.124-0.005,0.186-0.016
		c0.458-0.091,0.9-0.208,1.339-0.355c1.021-0.332,2.028-0.816,2.989-1.434c1.25-0.79,2.377-1.801,3.35-3.006
		c1.181-1.46,2.104-3.212,2.667-5.068C-121.185-129.042-120.971-131.339-121.198-133.618L-121.198-133.618z M-121.198-133.618"/>
	<path id="XMLID_4561_" style="fill:#FF911E;" d="M-138.401-127.634c-0.406-0.89-0.94-1.74-1.579-2.522
		c-0.162-0.198-0.355-0.424-0.451-0.522l-0.227-0.249c-0.057-0.064-0.1-0.109-0.145-0.157l-0.062-0.062
		c-0.071-0.071-0.143-0.143-0.203-0.215c-0.012-0.014-0.021-0.026-0.034-0.038l-0.086-0.089c-0.048-0.05-0.098-0.1-0.139-0.153
		c-0.012-0.012-0.021-0.026-0.034-0.038c-0.322-0.353-0.599-0.682-0.842-1c-0.208-0.274-0.447-0.606-0.657-1.014
		c-0.193-0.368-0.338-0.776-0.429-1.219c-0.086-0.398-0.136-0.859-0.15-1.364c-0.012-0.42,0.012-0.818,0.031-1.081
		c0.024-0.346-0.139-0.68-0.424-0.876c-0.286-0.198-0.657-0.224-0.971-0.076c-0.363,0.172-0.716,0.389-1.057,0.647
		c-0.544,0.413-1.021,0.924-1.415,1.515c-0.341,0.504-0.787,1.344-0.995,2.458c-0.189,0.976-0.169,2.075,0.055,3.092
		c0.214,0.988,0.627,1.997,1.2,2.923c0.301,0.479,0.589,0.88,0.866,1.207c0.083,0.1,0.26,0.305,0.338,0.398h-0.002l0.089,0.101
		c0.067,0.076,0.117,0.133,0.164,0.191c0.041,0.05,0.076,0.093,0.107,0.126l0.017,0.016c0.301,0.36,0.689,0.831,1.021,1.274
		c0.289,0.382,0.539,0.752,0.771,1.131c0.246,0.401,0.423,0.754,0.553,1.107c0.148,0.404,0.246,0.84,0.291,1.303
		c0.043,0.403,0.043,0.857,0.002,1.377c-0.026,0.308-0.071,0.632-0.131,0.995c-0.062,0.348,0.074,0.704,0.348,0.926
		c0.177,0.14,0.394,0.214,0.613,0.214c0.124,0,0.25-0.024,0.368-0.071c0.341-0.139,0.677-0.313,0.995-0.518
		c0.57-0.358,1.085-0.82,1.532-1.374c0.539-0.665,0.959-1.465,1.217-2.312c0.286-0.93,0.387-2.006,0.286-3.033
		C-137.666-125.615-137.954-126.658-138.401-127.634L-138.401-127.634z M-138.401-127.634"/>
</g>
<path id="XMLID_4309_" style="fill:#3FA7F3;" d="M-56.231-139.312l-8.877,2.377l-3.421-1.974v-3.704l3.382-1.942l8.915,2.389
	c0.18,0.048,0.36,0.072,0.538,0.072c0.916,0,1.754-0.612,2.001-1.538c0.296-1.107-0.36-2.244-1.467-2.541l-4.888-1.31l4.505-2.587
	c0.993-0.57,1.337-1.839,0.766-2.832c-0.572-0.993-1.838-1.338-2.831-0.766l-4.515,2.593l1.31-4.889
	c0.296-1.106-0.36-2.244-1.467-2.541c-1.1-0.289-2.243,0.361-2.539,1.467l-2.379,8.876l-3.404,1.955l-3.227-1.866v-3.914
	l6.525-6.525c0.81-0.81,0.81-2.123,0-2.933c-0.81-0.811-2.122-0.811-2.933,0l-3.591,3.591v-5.214c0-1.145-0.929-2.074-2.075-2.074
	c-1.145,0-2.074,0.929-2.074,2.074v5.188l-3.566-3.566c-0.81-0.811-2.123-0.811-2.933,0c-0.81,0.81-0.81,2.123,0,2.933l6.499,6.499
	v3.955l-3.202,1.847l-3.404-1.953l-2.377-8.876c-0.296-1.106-1.433-1.757-2.539-1.467c-1.107,0.296-1.764,1.434-1.467,2.541
	l1.309,4.889l-4.515-2.592c-0.995-0.572-2.262-0.228-2.831,0.766c-0.57,0.994-0.226,2.261,0.767,2.831l4.505,2.587l-4.888,1.31
	c-1.107,0.296-1.764,1.434-1.467,2.541c0.249,0.926,1.086,1.538,2.002,1.538c0.178,0,0.359-0.024,0.538-0.072l8.917-2.39
	l3.378,1.939l0.004,3.707l-3.422,1.978l-8.876-2.381c-1.099-0.289-2.243,0.361-2.54,1.467c-0.296,1.107,0.361,2.244,1.467,2.539
	l4.87,1.306l-4.493,2.594c-0.992,0.573-1.332,1.841-0.759,2.832c0.384,0.668,1.081,1.037,1.798,1.037
	c0.352,0,0.708-0.087,1.036-0.279l4.515-2.606l-1.314,4.907c-0.297,1.109,0.36,2.243,1.467,2.541
	c0.179,0.049,0.359,0.072,0.538,0.072c0.915,0,1.753-0.612,2.001-1.539l2.389-8.914l3.398-1.961l3.196,1.844v4.006l-6.499,6.499
	c-0.81,0.81-0.81,2.123,0,2.933c0.405,0.405,0.935,0.606,1.467,0.606c0.53,0,1.062-0.201,1.467-0.606l3.566-3.566v5.186
	c0,1.147,0.929,2.074,2.074,2.074c1.146,0,2.075-0.927,2.075-2.074v-5.212l3.591,3.592c0.405,0.405,0.935,0.606,1.467,0.606
	c0.532,0,1.062-0.201,1.467-0.606c0.81-0.811,0.81-2.123,0-2.933l-6.525-6.525v-3.964l3.223-1.86l3.397,1.961l2.389,8.914
	c0.248,0.927,1.086,1.539,2.001,1.539c0.178,0,0.358-0.023,0.538-0.072c1.108-0.298,1.763-1.432,1.467-2.541l-1.316-4.907
	l4.517,2.606c0.327,0.191,0.684,0.279,1.036,0.279c0.716,0,1.413-0.369,1.797-1.037c0.574-0.992,0.233-2.259-0.758-2.832
	L-60.029-134l4.87-1.306c1.107-0.295,1.764-1.433,1.467-2.54C-53.987-138.951-55.126-139.602-56.231-139.312L-56.231-139.312z
	 M-72.678-138.909l-3.211,1.854l-3.208-1.854l-0.004-3.711l3.212-1.853l3.211,1.856V-138.909z M-72.678-138.909"/>
<g id="XMLID_3513_">
	<path id="XMLID_3534_" style="fill:#7AC743;stroke:#9AC677;stroke-width:0.5;stroke-miterlimit:10;" d="M21.646-140.489
		c-0.176-0.035-3.33-0.645-7.563-0.957c0.021-0.389,0.032-0.78,0.032-1.174c0-12.176-9.906-22.081-22.081-22.081
		c-12.175,0-22.081,9.906-22.081,22.081c0,2.567,0.442,5.032,1.251,7.325c-2.823,0.238-4.875,0.635-4.996,0.659l-1.591,0.312
		l0.693,1.465c0.214,0.452,5.305,11.104,11.683,14.327c2.302,1.162,4.454,1.752,6.398,1.753h0.001c2.895,0,5.266-1.309,6.758-3.704
		c1.957,2.339,4.712,3.599,7.972,3.599c2.596,0,5.484-0.793,8.581-2.358c8.622-4.356,15.551-18.854,15.842-19.469l0.693-1.465
		L21.646-140.489z M10.226-149.8c-0.832-0.681-1.791-1.319-2.87-1.903c-1.335-0.724-2.813-1.339-4.394-1.844
		c-0.505-1.582-1.121-3.059-1.844-4.395c-0.584-1.079-1.222-2.037-1.904-2.87C4.232-158.824,8.239-154.818,10.226-149.8
		L10.226-149.8z M11.429-143.881H4.552c-0.073-2.32-0.346-4.573-0.802-6.694C7.848-148.974,10.733-146.577,11.429-143.881
		L11.429-143.881z M-6.704-162.015c2.695,0.696,5.093,3.582,6.695,7.68c-2.122-0.456-4.375-0.729-6.695-0.802V-162.015z
		 M-6.704-152.613c2.713,0.094,5.296,0.485,7.621,1.111c0.625,2.324,1.017,4.907,1.111,7.62h-8.731V-152.613z M-6.704-141.358h8.731
		c-0.004,0.112-0.008,0.223-0.013,0.334c-2.104,0.39-3.922,0.969-5.439,1.736c-1.21,0.612-2.303,1.264-3.279,1.956V-141.358z
		 M-9.228-162.015v6.878c-2.32,0.073-4.573,0.346-6.694,0.802C-14.32-158.433-11.922-161.319-9.228-162.015L-9.228-162.015z
		 M-9.228-152.613v8.731h-8.73c0.093-2.713,0.485-5.296,1.11-7.62C-14.524-152.128-11.941-152.519-9.228-152.613L-9.228-152.613z
		 M-15.146-160.812c-0.682,0.832-1.319,1.791-1.904,2.87c-0.724,1.335-1.339,2.813-1.844,4.394
		c-1.582,0.505-3.059,1.121-4.395,1.844c-1.079,0.585-2.037,1.222-2.87,1.904C-24.171-154.818-20.164-158.824-15.146-160.812
		L-15.146-160.812z M-19.681-150.576c-0.456,2.122-0.729,4.374-0.801,6.695h-6.878C-26.665-146.577-23.78-148.974-19.681-150.576
		L-19.681-150.576z M-20.483-141.358c0.067,2.164,0.309,4.27,0.712,6.265c-0.433-0.073-0.88-0.135-1.343-0.186
		c-3.332-1.571-5.636-3.711-6.247-6.08H-20.483z M-12.618-120.988c-0.837,0.923-2.099,1.684-3.99,1.684h-0.001
		c-1.546,0-3.315-0.499-5.261-1.481c-4.294-2.17-8.168-8.678-9.766-11.647c1.592-0.227,4.139-0.516,6.842-0.516
		c3.599,0,6.4,0.494,8.327,1.467c1.736,0.877,3.065,1.859,3.975,2.916c-0.181,1.84,0.169,3.723,1.049,5.57l-12.758-5.974
		L-12.618-120.988z M-14.276-133.162c-0.337-0.195-0.687-0.386-1.053-0.571c-0.518-0.262-1.086-0.493-1.696-0.695
		c-0.523-2.142-0.85-4.483-0.933-6.931h8.73v6.173c-0.75,0.777-1.375,1.593-1.876,2.445
		C-12.191-132.835-13.251-132.976-14.276-133.162L-14.276-133.162z M5.564-121.494c-2.741,1.385-5.245,2.087-7.443,2.087
		c-2.933,0-4.831-1.253-6.048-2.712l17.52-11.222l-18.643,9.504c-0.004-0.008-0.008-0.016-0.012-0.023
		c-2.495-4.939-0.025-9.742,6.774-13.176c2.714-1.371,6.636-2.067,11.657-2.067c4.136,0,8.018,0.489,10.133,0.812
		C17.519-134.516,11.892-124.692,5.564-121.494L5.564-121.494z M5.564-121.494"/>
</g>
</svg>
