<?xml version="1.0" encoding="iso-8859-1"?>
<!-- Generator: Adobe Illustrator 19.0.0, SVG Export Plug-In . SVG Version: 6.00 Build 0)  -->
<svg version="1.1" id="Layer_1" xmlns="http://www.w3.org/2000/svg" xmlns:xlink="http://www.w3.org/1999/xlink" x="0px" y="0px"
	 viewBox="-49 239.218 512 315.563" style="enable-background:new -49 239.218 512 315.563;" xml:space="preserve">
<circle style="fill:#7AC743;" cx="118.267" cy="479.614" r="28.558"/>
<path style="fill:#00587A;" d="M423.376,239.218H-9.376c-21.849,0-39.624,17.775-39.624,39.624v236.316
	c0,21.849,17.775,39.624,39.624,39.624h432.752c21.849,0,39.624-17.775,39.624-39.624V278.842
	C463,256.993,445.225,239.218,423.376,239.218z M442.602,515.158c0,10.601-8.624,19.226-19.226,19.226H-9.376
	c-10.601,0-19.225-8.624-19.225-19.226V278.842c0-10.601,8.624-19.225,19.225-19.225h432.752c10.601,0,19.226,8.624,19.226,19.225
	V515.158z"/>
<path style="fill:#00587A;" d="M409.964,468.394h-7.139c-5.633,0-10.199,4.566-10.199,10.199c0,5.633,4.566,10.199,10.199,10.199
	h7.139c5.633,0,10.199-4.566,10.199-10.199C420.163,472.961,415.597,468.394,409.964,468.394z"/>
<path style="fill:#00587A;" d="M367.128,468.394H155.362c-4.823-15.916-19.625-27.538-37.096-27.538s-32.272,11.622-37.096,27.538
	H4.036c-5.633,0-10.199,4.566-10.199,10.199c0,5.633,4.566,10.199,10.199,10.199h76.582c4.135,16.953,19.442,29.578,37.649,29.578
	s33.515-12.625,37.649-29.578h211.211c5.633,0,10.199-4.566,10.199-10.199C377.327,472.961,372.761,468.394,367.128,468.394z
	 M118.267,497.972c-10.123,0-18.359-8.236-18.359-18.359c0-10.123,8.236-18.359,18.359-18.359s18.359,8.236,18.359,18.359
	C136.626,489.736,128.39,497.972,118.267,497.972z"/>
<path style="fill:#00587A;" d="M41.773,446.466c5.633,0,10.199-4.566,10.199-10.199s-4.566-10.199-10.199-10.199H14.235
	c-5.633,0-10.199,4.566-10.199,10.199s4.566,10.199,10.199,10.199H41.773z"/>
<path style="fill:#00587A;" d="M397.215,450.036v-3.57h3.57c5.633,0,10.199-4.566,10.199-10.199s-4.566-10.199-10.199-10.199h-3.57
	v-3.57c0-5.633-4.566-10.199-10.199-10.199c-5.633,0-10.199,4.566-10.199,10.199v3.57h-3.57c-5.633,0-10.199,4.566-10.199,10.199
	s4.566,10.199,10.199,10.199h3.57v3.57c0,5.633,4.566,10.199,10.199,10.199C392.649,460.235,397.215,455.669,397.215,450.036z"/>
<g>
	<path style="fill:#00587A;" d="M40.392,352.445c3.764,0,5.645,2.86,5.645,5.645c0,2.785-1.882,5.645-5.645,5.645H15.779
		c-4.064,0-6.924-2.183-6.924-5.344c0-4.516,6.85-10.01,9.258-12.72c3.086-3.537,13.623-14.527,13.623-19.946
		c0-3.613-1.731-5.043-4.666-5.043c-8.054,0-3.989,11.365-11.667,11.365c-3.914,0-5.796-3.086-5.796-5.871
		c0-9.182,7.603-17.236,18.215-17.236c9.333,0,17.011,6.397,17.011,16.258c0,10.763-10.838,19.344-17.236,27.247H40.392z"/>
	<path style="fill:#00587A;" d="M72.005,352.445H51.91c-4.592,0-6.097-2.785-6.097-4.817c0-2.333,1.43-4.592,2.334-5.946
		l17.913-27.698c2.182-3.387,4.817-4.29,8.655-4.29c5.569,0,9.033,3.764,9.033,9.182v22.731h2.558c3.764,0,6.172,1.656,6.172,5.419
		c0,3.764-2.409,5.419-6.172,5.419h-2.558v4.967c0,4.441-2.259,6.774-5.872,6.774c-3.613,0-5.871-2.333-5.871-6.624V352.445z
		 M72.005,322.414h-0.151l-11.139,19.193h11.289V322.414z"/>
	<path style="fill:#00587A;" d="M102.941,351.843c3.537,0,6.548,3.011,6.548,6.548c0,3.613-3.011,6.548-6.548,6.548
		c-3.538,0-6.548-2.935-6.548-6.548C96.393,354.854,99.403,351.843,102.941,351.843z"/>
	<path style="fill:#00587A;" d="M137.113,308.941c15.429,0,22.429,13.924,22.429,27.999c0,14.075-7,28-22.429,28
		c-15.43,0-22.43-13.924-22.43-28C114.683,322.865,121.683,308.941,137.113,308.941z M137.113,353.198
		c7.602,0,9.785-9.559,9.785-16.258c0-6.698-2.183-16.257-9.785-16.257c-7.602,0-9.785,9.559-9.785,16.257
		C127.328,343.639,129.511,353.198,137.113,353.198z"/>
	<path style="fill:#00587A;" d="M184.533,308.941c15.43,0,22.429,13.924,22.429,27.999c0,14.075-6.999,28-22.429,28
		c-15.43,0-22.43-13.924-22.43-28C162.103,322.865,169.103,308.941,184.533,308.941z M184.533,353.198
		c7.601,0,9.784-9.559,9.784-16.258c0-6.698-2.183-16.257-9.784-16.257c-7.602,0-9.785,9.559-9.785,16.257
		C174.748,343.639,176.931,353.198,184.533,353.198z"/>
	<path style="fill:#00587A;" d="M231.953,308.941c15.429,0,22.429,13.924,22.429,27.999c0,14.075-7,28-22.429,28
		c-15.43,0-22.43-13.924-22.43-28C209.522,322.865,216.522,308.941,231.953,308.941z M231.953,353.198
		c7.602,0,9.785-9.559,9.785-16.258c0-6.698-2.183-16.257-9.785-16.257s-9.785,9.559-9.785,16.257
		C222.168,343.639,224.351,353.198,231.953,353.198z"/>
	<path style="fill:#00587A;" d="M279.523,316.242c0-3.914,2.935-6.097,6.096-6.097h14.377c9.258,0,15.054,5.721,15.054,14
		c0,5.495-3.839,8.731-6.399,10.236c6.548,1.28,10.764,6.473,10.764,13.172c0,8.505-5.495,16.182-18.667,16.182h-15.129
		c-3.161,0-6.096-2.183-6.096-6.097V316.242z M291.717,331.069h5.569c3.462,0,5.571-1.731,5.571-5.043
		c0-3.312-2.032-5.043-5.571-5.043h-5.569V331.069z M291.717,352.897h7.678c4.064,0,7.375-1.43,7.375-5.495
		s-3.762-5.495-7.375-5.495h-7.678V352.897z"/>
	<path style="fill:#00587A;" d="M332.587,321.435h-6.85c-4.064,0-6.323-2.258-6.323-5.645c0-3.537,2.259-5.645,6.323-5.645h25.893
		c4.064,0,6.322,2.108,6.322,5.645c0,3.387-2.258,5.645-6.322,5.645h-6.85v36.279c0,4.29-2.559,6.473-6.097,6.473
		c-3.537,0-6.096-2.183-6.096-6.473V321.435z"/>
	<path style="fill:#00587A;" d="M370.899,342.209c0,7.15,4.968,10.989,10.989,10.989c6.021,0,11.064-3.839,11.064-10.989v-26.043
		c0-4.29,2.559-6.473,6.096-6.473c3.538,0,6.097,2.183,6.097,6.473v26.043c0,14.15-9.71,22.73-23.257,22.73
		c-13.548,0-23.183-8.581-23.183-22.73v-26.043c0-4.29,2.559-6.473,6.096-6.473c3.538,0,6.097,2.183,6.097,6.473V342.209z"/>
</g>
</svg>
