<?xml version="1.0" encoding="utf-8"?>
<!-- Generator: Adobe Illustrator 19.0.0, SVG Export Plug-In . SVG Version: 6.00 Build 0)  -->
<svg version="1.1" id="Capa_1" xmlns="http://www.w3.org/2000/svg" xmlns:xlink="http://www.w3.org/1999/xlink" x="0px" y="0px"
	 viewBox="0 0 80 80" style="enable-background:new 0 0 80 80;" xml:space="preserve">
<style type="text/css">
	.st0{fill:#D8D9DD;}
</style>
<g id="XMLID_6_">
	<g id="XMLID_63_">
		<path id="XMLID_68_" class="st0" d="M40,27.7c5.4,0,9.9,4.4,9.9,9.9c0,5.4-4.4,9.9-9.9,9.9c-5.4,0-9.9-4.4-9.9-9.9
			C30.1,32.2,34.6,27.7,40,27.7 M40,23.5c-7.8,0-14.1,6.3-14.1,14.1c0,7.8,6.3,14.1,14.1,14.1c7.8,0,14.1-6.3,14.1-14.1
			C54.1,29.8,47.8,23.5,40,23.5L40,23.5z"/>
		<g id="XMLID_64_">
			<path id="XMLID_65_" class="st0" d="M63.3,84.3H16.7v-7.4c0-11.7,9.5-21.2,21.2-21.2h4.3c11.7,0,21.2,9.5,21.2,21.2V84.3z
				 M20.8,80.1h38.3v-3.2c0-9.4-7.6-17-17-17h-4.3c-9.4,0-17,7.6-17,17V80.1z"/>
		</g>
	</g>
</g>
</svg>
