<?xml version="1.0" encoding="iso-8859-1"?>
<!-- Generator: Adobe Illustrator 19.0.0, SVG Export Plug-In . SVG Version: 6.00 Build 0)  -->
<svg version="1.1" id="Capa_1" xmlns="http://www.w3.org/2000/svg" xmlns:xlink="http://www.w3.org/1999/xlink" x="0px" y="0px"
	 viewBox="22.2 9.345 81.3 32.555" style="enable-background:new 22.2 9.345 81.3 32.555;" xml:space="preserve">
<path style="fill:#3FA7F3;" d="M75.1,20.7h3v16.2h-3v-1.1c-1,0.9-2.3,1.4-3.7,1.4c-3.1,0-5.4-2.7-5.2-6.1s2.5-6.1,5.9-6.1
	c1.1,0,2.1,0.4,3,1V20.7L75.1,20.7z"/>
<path style="fill:#3FA7F3;" d="M59.1,36.9l-2.6-16.1h-3.4l0.3,2.5c-0.1,4.3-1.5,8.2-3.8,11l-1.9-13.5h-3.4
	c-1.1,11.8-5,14.8-10.6,16.2c6.5,0.3,10-3.2,11.8-7.6l1.2,7.7c-1.8,1.3-3.9,2.1-6.3,2.3c-8,0.8-15.9-3.9-18.2-11.6
	c0.8,7.9,7.6,14.1,16,14.1c8.1,0,14.8-5.8,15.9-13.4l1.1,8.3h3.9V36.9z"/>
<path style="fill:#3FA7F3;" d="M103.5,28.7c-0.2-2.7-2.3-3.7-4.9-3.7c-2,0.1-4.1,1.1-4.9,3.6L95,29c1.1-2.9,5.8-2.7,5.9,0.2v0.5
	c-0.6-0.3-1.4-0.5-2.6-0.4c-2.9,0-4.7,1.7-4.8,3.9c-0.1,2.2,1.4,3.9,4.4,3.9c1.4,0,2.4-0.4,3-1v0.8h2.5v-8.2H103.5z"/>
<path style="fill:#FFFFFF;" d="M99,31.2c0.8,0,1.5,0.1,2,0.5v2.9c-0.5,0.3-1.2,0.6-2.2,0.6c-1.6,0-2.7-0.9-2.7-2
	C96.2,32.1,97.4,31.2,99,31.2L99,31.2z"/>
<path style="fill:#3FA7F3;" d="M85.9,25.1c3.3,0,5.9,2.5,5.9,6.1c0,0.2,0,0.5,0,0.7h-8.7c0.5,1.9,1.9,2.8,4.3,2.7
	c1.6-0.1,2.5-0.7,2.9-1.4h1.3c-0.5,2.2-2,3.9-5.2,4c-4,0-6.4-2.6-6.4-5.9C79.9,27.8,82.6,25.1,85.9,25.1L85.9,25.1z"/>
<path style="fill:#FFFFFF;" d="M86,27.4c1.6,0,2.4,1,2.8,2.4h-5.7C83.6,28.4,84.4,27.4,86,27.4L86,27.4z"/>
<path style="fill:#3FA7F3;" d="M25,30.7c0,0-3.5-5.1-0.5-11.9c1.9-4.4,5.4-7.6,10.1-8.9c7.8-2.1,16.2,1.9,19,9.6c0,0-4.4-7.6-14.5-7
	C29.7,13,23.2,21.6,25,30.7L25,30.7z"/>
<path style="fill:#FFFFFF;" d="M72.6,27.5c1,0,1.9,0.4,2.5,1.1v4.9c-0.6,0.7-1.5,1.1-2.5,1.1c-1.9,0-3.4-1.6-3.4-3.6
	C69.2,29.1,70.7,27.5,72.6,27.5L72.6,27.5z"/>
<polygon style="fill:#3FA7F3;" points="61,25 63.9,25 63.9,36.9 61,36.9 61,25 "/>
<polygon style="fill:#3FA7F3;" points="61,20.7 63.9,20.7 63.9,23.6 61,23.6 61,20.7 "/>
</svg>
