<?xml version="1.0" encoding="utf-8"?>
<!-- Generator: Adobe Illustrator 19.0.0, SVG Export Plug-In . SVG Version: 6.00 Build 0)  -->
<svg version="1.1" id="Capa_1" xmlns="http://www.w3.org/2000/svg" xmlns:xlink="http://www.w3.org/1999/xlink" x="0px" y="0px"
	 viewBox="0 0 199.6 46.5" style="enable-background:new 0 0 199.6 46.5;" xml:space="preserve">
<style type="text/css">
	.st0{fill-rule:evenodd;clip-rule:evenodd;fill:#06326E;}
	.st1{fill-rule:evenodd;clip-rule:evenodd;fill:#FAB31E;}
	.st2{fill-rule:evenodd;clip-rule:evenodd;fill:#E40520;}
	.st3{fill-rule:evenodd;clip-rule:evenodd;fill:#FFFFFF;}
	.st4{fill:#06326E;}
	.st5{fill:#FFFFFF;}
	.st6{fill:#2465AC;}
	.st7{fill:#F4A137;}
	.st8{fill-rule:evenodd;clip-rule:evenodd;fill:#E10612;}
	.st9{fill-rule:evenodd;clip-rule:evenodd;fill:#312782;}
	.st10{fill-rule:evenodd;clip-rule:evenodd;fill:#A4A6AC;}
	.st11{fill-rule:evenodd;clip-rule:evenodd;fill:#3E3489;}
	.st12{fill:#326EB3;}
	.st13{fill:#312782;}
	.st14{fill:#FDA617;}
	.st15{fill:#E10612;}
</style>
<g>
	<g>
		<rect x="173" class="st0" width="26.6" height="16.8"/>
		<path class="st1" d="M197.5,12.5c0-0.1,0.1-0.2,0.2-0.2c0.1,0,0.2,0.1,0.2,0.2c0,0.1-0.1,0.2-0.2,0.2
			C197.6,12.7,197.5,12.6,197.5,12.5 M197.8,12.6c0.1,0,0.2-0.1,0.2-0.2c0-0.1-0.1-0.2-0.2-0.2c-0.1,0-0.2,0.1-0.2,0.2
			C197.6,12.6,197.7,12.6,197.8,12.6 M197.7,12.6L197.7,12.6l0-0.2h0.1c0,0,0,0,0.1,0c0,0,0,0,0,0C197.8,12.4,197.8,12.5,197.7,12.6
			h0.1H197.7L197.7,12.6L197.7,12.6L197.7,12.6z M197.7,12.4L197.7,12.4L197.7,12.4C197.8,12.4,197.8,12.4,197.7,12.4
			C197.8,12.4,197.8,12.4,197.7,12.4L197.7,12.4L197.7,12.4L197.7,12.4z"/>
		<path class="st1" d="M186.3,13.8c1.3,1.2,3,1.9,4.9,1.9c4,0,7.3-3.3,7.3-7.3c0-4-3.3-7.3-7.3-7.3c-1.9,0-3.6,0.7-4.9,1.9
			c-1.5,1.3-2.4,3.3-2.4,5.4C183.9,10.5,184.8,12.5,186.3,13.8"/>
		<path class="st2" d="M188.7,7.6c0-0.3-0.1-0.5-0.1-0.8h-4.5c0.1-0.3,0.1-0.5,0.2-0.8h4c-0.1-0.3-0.2-0.5-0.3-0.8h-3.4
			c0.1-0.3,0.3-0.5,0.4-0.8h2.6c-0.2-0.3-0.3-0.5-0.6-0.8h-1.5c0.2-0.3,0.5-0.5,0.7-0.8c-1.3-1.2-3-1.9-4.9-1.9
			c-4,0-7.3,3.3-7.3,7.3c0,4,3.3,7.3,7.3,7.3c1.9,0,3.6-0.7,4.9-1.9c0.3-0.2,0.5-0.5,0.7-0.8h-1.5c-0.2-0.2-0.4-0.5-0.6-0.8h2.6
			c0.2-0.2,0.3-0.5,0.4-0.8h-3.4c-0.1-0.2-0.2-0.5-0.3-0.8h4c0.1-0.3,0.2-0.5,0.2-0.8c0.1-0.3,0.1-0.5,0.1-0.8c0-0.3,0-0.5,0-0.8
			C188.7,8.2,188.7,7.9,188.7,7.6"/>
		<path class="st3" d="M197.5,10.1c0-0.1,0.1-0.2,0.2-0.2c0.1,0,0.2,0.1,0.2,0.2c0,0.1-0.1,0.2-0.2,0.2
			C197.6,10.3,197.5,10.2,197.5,10.1 M197.8,10.3c0.1,0,0.2-0.1,0.2-0.2s-0.1-0.2-0.2-0.2c-0.1,0-0.2,0.1-0.2,0.2
			S197.7,10.3,197.8,10.3 M197.7,10.2L197.7,10.2l0-0.2h0.1c0,0,0,0,0.1,0c0,0,0,0,0,0C197.8,10.1,197.8,10.1,197.7,10.2h0.1H197.7
			L197.7,10.2L197.7,10.2L197.7,10.2z M197.7,10.1L197.7,10.1L197.7,10.1C197.8,10.1,197.8,10.1,197.7,10.1
			C197.8,10,197.8,10,197.7,10.1L197.7,10.1L197.7,10.1L197.7,10.1z"/>
		<polygon class="st4" points="183.8,8.3 184.1,8.3 184.2,8.1 183.9,8.1 		"/>
		<path class="st4" d="M182.9,9.7c0-0.1,0-0.2,0-0.3l0-0.3l0-0.2l0.3-1.8h-0.2l-0.3,2.1l0,0.1c0,0,0,0.1,0,0.1c0,0.2,0,0.4-0.1,0.5
			c0,0,0,0.1,0,0.1c0,0.4,0.2,0.7,0.6,0.7c0.2,0,0.4,0,0.6-0.1l0-0.2c-0.1,0-0.3,0-0.4,0C183.1,10.4,182.9,10.1,182.9,9.7"/>
		<path class="st4" d="M184.3,9c0-0.4,0.1-0.8,0.3-1.1c-0.3,0.3-0.5,0.8-0.5,1.4c0,0.9,0.5,1.3,1.3,1.3c0.3,0,0.5,0,0.8-0.1l0-0.2
			c-0.2,0.1-0.4,0.1-0.7,0.1C184.8,10.4,184.3,9.9,184.3,9"/>
		<path class="st4" d="M185.6,7.9c-0.2,0-0.3,0.1-0.4,0.3c0.1,0,0.1-0.1,0.2-0.1c0.2,0,0.3,0.1,0.4,0.3h0.2V8.3
			C186,8.1,185.9,7.9,185.6,7.9"/>
		<path class="st4" d="M185.1,9.2c0,0.1,0,0.1,0,0.1h1.4c0-0.1,0-0.2,0-0.2L185.1,9.2C185.1,9.1,185.1,9.1,185.1,9.2"/>
		<polygon class="st4" points="177.3,6.9 177.2,6.9 176.6,8.5 176.6,8.9 		"/>
		<polygon class="st4" points="176.1,7.5 175.9,8.6 175.9,10.5 176.5,10.5 176.6,10.3 176.1,10.3 		"/>
		<polygon class="st4" points="177.7,7.5 177.4,8.3 177,10.5 177.8,10.5 177.8,10.3 177.2,10.3 		"/>
		<polygon class="st4" points="175.4,6.9 175.2,6.9 174.6,10.5 175.4,10.5 175.4,10.3 174.9,10.3 		"/>
		<path class="st4" d="M180.1,8.2c0-0.2-0.1-0.3-0.5-0.3c-0.2,0-0.5,0-0.7,0.1l-0.1,0l-0.1,0l0.1-0.5c-0.1,0-0.1,0-0.2,0l-0.1,0.7
			h0.1l0.1,0c0.2,0,0.4-0.1,0.7-0.1c0.3,0,0.5,0,0.5,0.2c0.1,0,0.1,0,0.2,0C180.1,8.3,180.1,8.3,180.1,8.2"/>
		<path class="st4" d="M179.1,9.3c0.1,0,0.2-0.1,0.4-0.1c0.1,0,0.1,0,0.2,0c0,0.2,0,0.3-0.1,0.5c0.2-0.1,0.3-0.4,0.4-0.7
			c-0.1,0-0.1,0-0.2,0C179.4,9,179.2,9.1,179.1,9.3"/>
		<path class="st4" d="M179.9,10c-0.2,0.2-0.5,0.4-0.8,0.4c-0.4,0-0.7-0.3-0.7-0.8c0-0.2,0.1-0.5,0.2-0.6c-0.2,0.1-0.3,0.3-0.3,0.5
			c0,0.1-0.1,0.2-0.1,0.4c0,0.5,0.3,0.8,0.7,0.8c0.4,0,0.7-0.1,0.8-0.4l0,0.3h0.7l0-0.1v-0.1l0,0h-0.5L179.9,10z"/>
		<polygon class="st4" points="187.2,7.5 187,7.5 186.5,10.5 187.3,10.5 187.4,10.3 186.7,10.3 		"/>
		<path class="st4" d="M189.5,7.8c0.2-0.1,0.3-0.2,0.6-0.2c0.2,0,0.4,0.1,0.7,0.2l0-0.3c-0.2-0.1-0.4-0.1-0.5-0.1
			C190,7.3,189.7,7.5,189.5,7.8"/>
		<path class="st4" d="M188.5,8.8c0-0.8,0.3-1.5,0.8-1.9c0,0,0,0-0.1,0c-0.1,0.1-0.3,0.2-0.5,0.4l-0.1,0c-0.1,0.2-0.2,0.5-0.3,0.9
			h-0.1c-0.2,0-0.3,0.1-0.4,0.4c0.1-0.1,0.2-0.1,0.4-0.1h0.1c0,0.2,0,0.4,0,0.6c0,1,0.6,1.6,1.4,1.6c0.2,0,0.4,0,0.7-0.1l0-0.2
			c-0.2,0-0.3,0.1-0.5,0.1C189,10.4,188.5,9.8,188.5,8.8"/>
		<path class="st4" d="M196.8,7.7l0.1-0.8h-0.2l-0.1,0.6C196.7,7.5,196.8,7.6,196.8,7.7"/>
		<path class="st4" d="M196.5,10c-0.2,0.2-0.4,0.3-0.7,0.3c-0.6,0-1-0.5-1-1.2c0-0.6,0.2-1.1,0.5-1.4c-0.2,0.1-0.3,0.3-0.4,0.5h-0.1
			c-0.2,0-0.3,0.1-0.4,0.5c0,0,0,0,0,0c0.1-0.1,0.2-0.2,0.3-0.2c-0.1,0.3-0.1,0.6-0.1,0.9c0,0.8,0.4,1.3,1,1.3
			c0.3,0,0.5-0.1,0.7-0.3l0,0.3h0.8l0-0.2h-0.6L196.5,10z"/>
		<polygon class="st4" points="193.7,7.5 193.5,7.5 193,10.5 193.8,10.5 193.9,10.3 193.2,10.3 		"/>
		<path class="st4" d="M196.2,8c-0.2,0-0.3,0.1-0.5,0.3c0.1,0,0.2-0.1,0.3-0.1c0.3,0,0.4,0.2,0.4,0.6c0,0.3-0.1,0.5-0.2,0.7
			c0.2-0.2,0.4-0.5,0.4-0.9C196.6,8.2,196.5,8,196.2,8"/>
		<path class="st4" d="M191.6,9.3c0.1,0,0.2-0.1,0.4-0.1c0.1,0,0.1,0,0.2,0c0,0.2,0,0.3-0.1,0.5c0.2-0.1,0.3-0.4,0.3-0.7
			c-0.1,0-0.1,0-0.2,0C191.9,9,191.7,9.1,191.6,9.3"/>
		<path class="st4" d="M192.5,8.2c0-0.2-0.1-0.3-0.5-0.3c-0.2,0-0.5,0-0.7,0.1l-0.1,0l-0.1,0l0.1-0.5c-0.1,0-0.1,0-0.2,0L191,8.3h0
			l0.1,0c0.2,0,0.4-0.1,0.7-0.1c0.3,0,0.5,0,0.5,0.2c0.1,0,0.1,0,0.2,0C192.5,8.3,192.5,8.3,192.5,8.2"/>
		<path class="st4" d="M192.3,10c-0.2,0.2-0.5,0.4-0.8,0.4c-0.4,0-0.7-0.3-0.7-0.8c0-0.2,0.1-0.5,0.2-0.6c-0.2,0.1-0.3,0.3-0.4,0.6
			c0,0,0.1,0,0.1,0l-0.1,0.6c0.1,0.3,0.4,0.6,0.7,0.6c0.4,0,0.7-0.1,0.8-0.4l0,0.3h0.7v-0.1l0-0.1l0,0h-0.5L192.3,10z"/>
		<path class="st4" d="M181.1,10.3c-0.1,0-0.2,0-0.2,0l-0.1,0h0l0.1-0.4c-0.1,0-0.1,0-0.2,0l0,0.2l0,0.2l0,0.1l0,0.1h0l0,0.2h0
			l0.1,0c0,0,0.1,0,0.2,0c0.2,0,0.4,0,0.5,0c0.6,0,1-0.2,1.1-0.5c-0.2,0.2-0.5,0.2-0.9,0.2C181.4,10.4,181.3,10.3,181.1,10.3"/>
		<path class="st4" d="M180.8,8.5c0,0.4,0.2,0.6,0.6,0.8c0.3,0.2,0.4,0.2,0.4,0.3c0,0,0,0,0,0c0.1,0,0.2-0.1,0.2-0.2
			c0-0.1,0-0.2-0.4-0.3c-0.4-0.2-0.6-0.5-0.6-0.8c0-0.2,0-0.4,0.1-0.5c-0.2,0.1-0.3,0.3-0.3,0.5C180.8,8.3,180.8,8.4,180.8,8.5
			C180.8,8.5,180.8,8.5,180.8,8.5"/>
		<path class="st4" d="M181.8,8.2L181.8,8.2c0,0,0.1,0,0.2,0c0.2,0,0.4,0,0.6,0l0-0.3c-0.1,0-0.3,0-0.4,0C182,8,181.8,8,181.8,8.2"
			/>
		<path class="st5" d="M190.6,9.5c-0.2,0.1-0.4,0.1-0.6,0.1c-0.5,0-0.7-0.3-0.7-0.9c0-0.4,0.1-0.7,0.2-0.9c0.2-0.3,0.4-0.4,0.8-0.4
			c0.2,0,0.3,0,0.5,0.1c0.1,0,0.1,0,0.2,0.1l0.1-0.8c-0.1,0-0.1,0-0.2-0.1l-0.3-0.1c-0.1,0-0.2,0-0.4,0c-0.4,0-0.7,0.1-1,0.3
			c-0.5,0.4-0.8,1.1-0.8,1.9c0,1,0.5,1.6,1.4,1.6c0.2,0,0.3,0,0.5-0.1c0.1,0,0.1,0,0.2,0l0-0.2l0.1-0.6
			C190.7,9.5,190.6,9.5,190.6,9.5"/>
		<path class="st5" d="M188.3,8.2L188.3,8.2c0.1-0.4,0.2-0.6,0.4-0.9h0c0,0-0.1,0-0.1,0c-0.3,0-0.4,0.1-0.6,0.5l0.1-0.5h-0.7l0,0.2
			l-0.4,2.8h0.6h0.2c0.1-0.9,0.2-1.5,0.3-1.8C188,8.2,188.1,8.2,188.3,8.2"/>
		<path class="st5" d="M183.7,9.4c0,0,0-0.1,0-0.1l0.2-1l0-0.3h0.3h0.1l0.1-0.7H184l0.1-0.4h-0.8l0,0.2L183,8.9l0,0.2l0,0.3
			c0,0.1,0,0.2,0,0.3c0,0.4,0.2,0.7,0.6,0.7c0.1,0,0.3,0,0.4,0c0.1,0,0.1,0,0.2,0l0.1-0.7c-0.1,0-0.1,0-0.2,0
			C183.7,9.6,183.7,9.6,183.7,9.4"/>
		<path class="st5" d="M182.7,9.3c0-0.3-0.2-0.6-0.6-0.7c-0.3-0.1-0.4-0.2-0.4-0.3v0c0-0.2,0.1-0.3,0.4-0.3c0.1,0,0.3,0,0.4,0
			c0.1,0,0.1,0,0.2,0l0.1-0.7c-0.2,0-0.5-0.1-0.7-0.1c-0.6,0-0.9,0.2-1.1,0.5C181,7.9,181,8.1,181,8.3c0,0.4,0.2,0.6,0.6,0.8
			c0.3,0.2,0.4,0.2,0.4,0.3c0,0.1-0.1,0.2-0.2,0.2c-0.1,0-0.2,0-0.3,0c-0.2,0-0.4,0-0.7-0.1l0,0.3l-0.1,0.4h0l0.1,0c0,0,0.1,0,0.2,0
			c0.2,0,0.3,0,0.4,0c0.4,0,0.7-0.1,0.9-0.2c0.1-0.1,0.2-0.2,0.2-0.3c0.1-0.1,0.1-0.3,0.1-0.5C182.8,9.3,182.7,9.3,182.7,9.3"/>
		<path class="st5" d="M197.8,6.6H197l0,0.2l-0.1,0.8c-0.1-0.1-0.1-0.1-0.2-0.2c-0.2-0.2-0.4-0.2-0.6-0.2c-0.3,0-0.6,0.2-0.8,0.4
			c-0.3,0.3-0.5,0.9-0.5,1.4c0,0.8,0.4,1.2,1,1.2c0.3,0,0.5-0.1,0.7-0.3l0,0.3h0.6h0.2L197.8,6.6z M196.3,9.5
			c-0.1,0.1-0.2,0.1-0.3,0.1c-0.3,0-0.4-0.2-0.4-0.6c0-0.3,0.1-0.5,0.2-0.7c0.1-0.2,0.3-0.3,0.5-0.3c0.3,0,0.4,0.2,0.4,0.6
			C196.6,9,196.5,9.4,196.3,9.5"/>
		<path class="st5" d="M186.6,9.5c-0.3,0.1-0.5,0.2-0.8,0.2c-0.4,0-0.6-0.1-0.7-0.4c0,0,0-0.1,0-0.1c0,0,0,0,0-0.1h1.4h0.1
			c0.1-0.3,0.1-0.5,0.1-0.7c0-0.7-0.4-1.1-1.1-1.1c-0.5,0-0.8,0.2-1.1,0.7c-0.2,0.3-0.3,0.7-0.3,1.1c0,0.9,0.5,1.3,1.3,1.3
			c0.2,0,0.5,0,0.7-0.1c0,0,0.1,0,0.1,0L186.6,9.5z M186,8.5h-0.2h-0.7c0-0.1,0-0.2,0.1-0.2c0.1-0.2,0.2-0.3,0.4-0.3
			c0.2,0,0.4,0.1,0.4,0.4V8.5z"/>
		<polygon class="st5" points="178.6,6.6 177.4,6.6 177.3,6.9 176.6,8.9 176.6,8.5 176.6,6.6 175.5,6.6 175.4,6.9 174.9,10.3 
			175.4,10.3 175.6,10.3 175.9,8.6 176.1,7.5 176.1,10.3 176.6,10.3 176.7,10.3 177.4,8.3 177.7,7.5 177.2,10.3 177.8,10.3 
			178,10.3 		"/>
		<path class="st5" d="M180.6,10.2l0-0.1l0-0.2l0-0.2l0,0l0.2-1.1c0-0.1,0-0.2,0-0.3c0-0.1,0-0.1,0-0.2c0,0,0-0.1,0-0.1
			c0-0.6-0.4-0.9-1-0.9c-0.3,0-0.5,0-0.9,0.2l0,0.2l-0.1,0.5l0.1,0l0.1,0c0.2-0.1,0.4-0.1,0.7-0.1c0.4,0,0.5,0.1,0.5,0.3
			c0,0.1,0,0.1,0,0.2c-0.1,0-0.1,0-0.2,0c-0.1,0-0.1,0-0.1,0c-0.6,0-1,0.2-1.2,0.5c-0.1,0.2-0.2,0.4-0.2,0.6c0,0.5,0.3,0.8,0.7,0.8
			c0.4,0,0.6-0.1,0.8-0.4l0,0.3h0.5L180.6,10.2L180.6,10.2L180.6,10.2z M179.6,9.7c-0.1,0-0.1,0.1-0.2,0.1c-0.2,0-0.3-0.1-0.3-0.3
			c0-0.1,0-0.1,0-0.2c0.1-0.2,0.3-0.3,0.6-0.3c0.1,0,0.1,0,0.2,0C180,9.3,179.8,9.6,179.6,9.7"/>
		<path class="st5" d="M193.2,8.7c0.1-0.3,0.1-0.4,0.1-0.6c0-0.6-0.4-0.9-1-0.9c-0.3,0-0.5,0-0.9,0.2l0,0.2l-0.1,0.5l0.1,0l0.1,0
			c0.2-0.1,0.4-0.1,0.7-0.1c0.4,0,0.5,0.1,0.5,0.3c0,0.1,0,0.1,0,0.2c-0.1,0-0.1,0-0.2,0c-0.1,0-0.1,0-0.1,0c-0.6,0-1,0.2-1.2,0.5
			c-0.1,0.2-0.2,0.4-0.2,0.6c0,0.5,0.3,0.8,0.7,0.8c0.4,0,0.6-0.1,0.8-0.4l0,0.3h0.5h0.2v-0.1l0-0.1l0-0.2l0-0.2L193.2,8.7z
			 M192.1,9.7c-0.1,0-0.1,0.1-0.2,0.1c-0.2,0-0.3-0.1-0.3-0.3c0-0.1,0-0.1,0-0.2c0.1-0.2,0.3-0.3,0.6-0.3c0.1,0,0.1,0,0.2,0
			C192.4,9.3,192.3,9.6,192.1,9.7"/>
		<path class="st5" d="M194.8,8.2L194.8,8.2c0.1-0.4,0.2-0.6,0.4-0.9h0c0,0,0,0-0.1,0c-0.3,0-0.4,0.1-0.7,0.5l0.1-0.5h-0.7l0,0.2
			l-0.4,2.8h0.6h0.2c0.1-0.8,0.2-1.3,0.3-1.7C194.4,8.3,194.6,8.2,194.8,8.2"/>
	</g>
	<g>
		<polygon class="st6" points="151.1,12.9 148.7,12.9 150.2,3.9 152.6,3.9 		"/>
		<path class="st6" d="M146.8,3.9l-2.2,6.2l-0.3-1.3l0,0l-0.8-4c0,0-0.1-0.8-1.1-0.8h-3.7l0,0.2c0,0,1.1,0.2,2.5,1l2,7.8h2.4l3.7-9
			H146.8z"/>
		<path class="st6" d="M165.2,12.9h2.2l-1.9-9h-1.9c-0.9,0-1.1,0.7-1.1,0.7l-3.5,8.3h2.4l0.5-1.3h3L165.2,12.9z M162.6,9.7l1.2-3.4
			l0.7,3.4H162.6z"/>
		<path class="st6" d="M159.2,6.1l0.3-1.9c0,0-1-0.4-2.1-0.4c-1.2,0-3.9,0.5-3.9,3c0,2.3,3.2,2.4,3.2,3.6s-2.9,1-3.9,0.2l-0.3,2
			c0,0,1,0.5,2.6,0.5c1.6,0,4-0.8,4-3.1c0-2.3-3.3-2.6-3.3-3.6C155.9,5.4,158.2,5.5,159.2,6.1"/>
		<path class="st7" d="M144.3,8.8l-0.8-4c0,0-0.1-0.8-1.1-0.8h-3.7l0,0.2c0,0,1.8,0.4,3.5,1.7C143.7,7.1,144.3,8.8,144.3,8.8"/>
	</g>
	<g>
		<polygon class="st8" points="83.4,3.2 108.5,3.2 105.6,13.7 83.4,13.7 		"/>
		<polygon class="st9" points="135.5,3.2 132.6,13.7 105.6,13.7 108.5,3.2 		"/>
		<path class="st5" d="M112.3,8.2c0.1-0.3,0.1-0.6,0.1-0.9c0-0.2-0.1-0.4-0.1-0.6c-0.1-0.2-0.2-0.3-0.3-0.4
			c-0.1-0.1-0.2-0.2-0.3-0.2c-0.1,0-0.3-0.1-0.4-0.1c-0.3,0-0.5,0.1-0.7,0.2c-0.2,0.1-0.5,0.3-0.7,0.5c-0.2,0.2-0.4,0.5-0.6,0.9
			c-0.2,0.4-0.3,0.8-0.5,1.3c-0.1,0.5-0.2,0.9-0.2,1.3c0,0.4,0,0.7,0.1,0.9c0.1,0.2,0.2,0.4,0.4,0.5c0.2,0.1,0.4,0.2,0.6,0.2
			c0.2,0,0.4,0,0.6-0.1c0.2-0.1,0.4-0.2,0.6-0.4c0.2-0.2,0.4-0.4,0.6-0.7c0.2-0.3,0.3-0.7,0.5-1.2h-0.9c-0.1,0.2-0.2,0.4-0.3,0.6
			c-0.1,0.2-0.2,0.3-0.4,0.4c-0.1,0.1-0.3,0.1-0.4,0.1c-0.2,0-0.3-0.1-0.4-0.2c-0.1-0.1-0.1-0.3-0.1-0.6c0-0.2,0-0.5,0.1-0.9
			c0.1-0.3,0.2-0.6,0.3-0.9c0.1-0.2,0.3-0.4,0.4-0.5c0.2-0.1,0.3-0.2,0.5-0.2c0.1,0,0.2,0,0.3,0.1c0.1,0.1,0.1,0.2,0.2,0.3
			c0,0.1,0,0.3,0,0.5H112.3z M112.4,8.8c-0.1,0.5-0.2,0.9-0.2,1.3c0,0.4,0,0.7,0.1,0.9c0.1,0.2,0.2,0.4,0.4,0.5
			c0.2,0.1,0.4,0.2,0.7,0.2c0.3,0,0.5-0.1,0.8-0.2c0.2-0.1,0.5-0.3,0.7-0.5c0.2-0.2,0.4-0.5,0.6-0.9c0.2-0.4,0.3-0.8,0.4-1.3
			c0.1-0.5,0.2-0.9,0.2-1.3c0-0.4,0-0.6-0.1-0.9c-0.1-0.2-0.2-0.4-0.4-0.5c-0.2-0.1-0.4-0.2-0.7-0.2c-0.3,0-0.5,0.1-0.7,0.2
			c-0.2,0.1-0.5,0.3-0.7,0.5c-0.2,0.2-0.4,0.5-0.6,0.9C112.7,7.9,112.5,8.3,112.4,8.8 M113.3,8.8c0.1-0.3,0.2-0.6,0.3-0.9
			c0.1-0.2,0.3-0.4,0.4-0.5c0.2-0.1,0.3-0.2,0.5-0.2c0.2,0,0.3,0.1,0.4,0.2c0.1,0.1,0.1,0.3,0.1,0.5c0,0.2,0,0.5-0.1,0.9
			c-0.1,0.3-0.2,0.6-0.3,0.9c-0.1,0.2-0.3,0.4-0.4,0.6c-0.2,0.1-0.3,0.2-0.5,0.2c-0.2,0-0.3-0.1-0.4-0.2c-0.1-0.1-0.1-0.3-0.1-0.6
			C113.2,9.5,113.2,9.2,113.3,8.8 M119.9,11.5h0.9c0.1-0.6,0.3-1.2,0.4-1.8c0.1-0.6,0.3-1.2,0.4-1.8c0.1-0.3,0.1-0.6,0.1-0.9
			c0-0.2,0-0.4-0.1-0.6c-0.1-0.1-0.2-0.2-0.3-0.3c-0.1-0.1-0.2-0.1-0.4-0.1c-0.2,0-0.5,0.1-0.7,0.3c-0.2,0.2-0.4,0.4-0.6,0.7
			c0-0.2,0-0.4-0.1-0.5c0-0.1-0.1-0.3-0.2-0.3c-0.1-0.1-0.2-0.1-0.4-0.1c-0.1,0-0.2,0-0.4,0.1c-0.1,0.1-0.2,0.1-0.4,0.2
			c-0.1,0.1-0.2,0.2-0.3,0.3c-0.1,0.1-0.2,0.2-0.2,0.3h0c0.1-0.3,0.1-0.5,0.2-0.8H117c-0.2,0.9-0.4,1.7-0.6,2.6
			c-0.2,0.9-0.4,1.8-0.7,2.7h0.9c0.1-0.5,0.2-1,0.4-1.4c0.1-0.5,0.2-1,0.4-1.4c0-0.2,0.1-0.4,0.2-0.5c0.1-0.2,0.1-0.3,0.2-0.4
			c0.1-0.1,0.2-0.2,0.3-0.2c0.1,0,0.2-0.1,0.3-0.1c0.1,0,0.1,0,0.2,0c0.1,0,0.1,0.1,0.1,0.1c0,0.1,0.1,0.2,0.1,0.3
			c0,0.1,0,0.3-0.1,0.4c-0.1,0.5-0.3,1.1-0.4,1.6c-0.1,0.5-0.3,1.1-0.4,1.6h0.9c0.1-0.5,0.2-1,0.3-1.4c0.1-0.5,0.2-1,0.3-1.4
			c0-0.2,0.1-0.4,0.2-0.5c0.1-0.2,0.1-0.3,0.2-0.4c0.1-0.1,0.2-0.2,0.3-0.2c0.1,0,0.2-0.1,0.3-0.1c0.1,0,0.1,0,0.2,0
			c0.1,0,0.1,0.1,0.1,0.1c0,0.1,0.1,0.2,0.1,0.3c0,0.1,0,0.3-0.1,0.4c-0.1,0.5-0.2,1.1-0.4,1.6C120.1,10.4,120,11,119.9,11.5
			 M122.8,8.9c0.1-0.3,0.1-0.5,0.2-0.7c0.1-0.2,0.2-0.3,0.3-0.5c0.1-0.1,0.2-0.2,0.3-0.3c0.1-0.1,0.2-0.1,0.3-0.1
			c0.1,0,0.2,0,0.3,0.1c0.1,0.1,0.1,0.2,0.2,0.3c0,0.1,0.1,0.3,0.1,0.5c0,0.2,0,0.4-0.1,0.7c-0.1,0.2-0.1,0.5-0.2,0.7
			c-0.1,0.2-0.2,0.4-0.3,0.5c-0.1,0.1-0.2,0.2-0.3,0.3c-0.1,0.1-0.2,0.1-0.3,0.1c-0.1,0-0.2,0-0.3-0.1c-0.1-0.1-0.2-0.2-0.2-0.3
			c0-0.1-0.1-0.3-0.1-0.5C122.7,9.3,122.7,9.1,122.8,8.9 M120.9,13.5h0.9c0.1-0.4,0.2-0.9,0.3-1.3c0.1-0.4,0.2-0.9,0.3-1.3h0
			c0,0.2,0.1,0.3,0.1,0.4c0.1,0.1,0.2,0.2,0.3,0.3c0.1,0.1,0.3,0.1,0.4,0.1c0.2,0,0.4-0.1,0.6-0.2c0.2-0.1,0.4-0.3,0.6-0.6
			c0.2-0.2,0.4-0.6,0.5-0.9c0.2-0.3,0.3-0.7,0.4-1.2c0.1-0.5,0.1-0.9,0.1-1.2c0-0.3,0-0.6-0.1-0.9c-0.1-0.2-0.2-0.4-0.4-0.5
			c-0.2-0.1-0.3-0.2-0.6-0.2c-0.1,0-0.2,0-0.4,0.1c-0.1,0-0.2,0.1-0.4,0.3c-0.1,0.1-0.3,0.3-0.4,0.5h0c0.1-0.2,0.1-0.5,0.2-0.7h-0.8
			c-0.3,1.2-0.5,2.4-0.8,3.6C121.4,11,121.1,12.3,120.9,13.5 M125.2,11.5h0.9c0.1-0.4,0.2-0.8,0.2-1.2c0.1-0.4,0.2-0.8,0.2-1.1
			c0.1-0.3,0.2-0.6,0.3-0.9c0.1-0.2,0.2-0.4,0.4-0.6c0.2-0.1,0.3-0.2,0.5-0.2c0.1,0,0.2,0,0.2,0c0.1,0,0.1,0.1,0.2,0.1
			c0.1-0.5,0.2-1.1,0.3-1.6c0,0-0.1,0-0.2,0c-0.1,0-0.1,0-0.2,0c-0.1,0-0.2,0-0.3,0.1c-0.1,0-0.2,0.1-0.3,0.2
			c-0.1,0.1-0.2,0.2-0.3,0.4c-0.1,0.1-0.2,0.3-0.3,0.5h0c0.1-0.3,0.1-0.7,0.2-1h-0.8c-0.2,0.9-0.4,1.7-0.6,2.6
			C125.6,9.7,125.4,10.6,125.2,11.5 M130.5,9.3c0,0.2-0.1,0.3-0.1,0.5c-0.1,0.1-0.1,0.3-0.2,0.4c-0.1,0.1-0.2,0.2-0.3,0.3
			c-0.1,0.1-0.2,0.1-0.3,0.2c-0.1,0-0.2,0.1-0.3,0.1c-0.1,0-0.2,0-0.3-0.1c-0.1-0.1-0.1-0.1-0.1-0.3c0-0.1,0-0.2,0-0.4
			c0-0.2,0.1-0.3,0.1-0.4c0.1-0.1,0.1-0.2,0.2-0.2c0.1,0,0.2-0.1,0.3-0.1c0.2,0,0.3-0.1,0.5-0.1c0.1,0,0.2,0,0.3-0.1
			c0.1,0,0.2-0.1,0.3-0.2C130.5,9.1,130.5,9.2,130.5,9.3 M129.4,7.8c0.1-0.2,0.1-0.3,0.2-0.4c0.1-0.1,0.1-0.2,0.2-0.2
			c0.1-0.1,0.1-0.1,0.2-0.1c0.1,0,0.2,0,0.2,0c0.2,0,0.3,0,0.4,0.1c0.1,0,0.1,0.1,0.2,0.2c0,0.1,0,0.2,0,0.3c0,0.1-0.1,0.2-0.1,0.3
			c0,0.1-0.1,0.1-0.1,0.2c-0.1,0-0.1,0.1-0.2,0.1c-0.3,0-0.6,0.1-0.9,0.1c-0.1,0-0.2,0-0.3,0.1c-0.1,0-0.2,0.1-0.3,0.2
			c-0.1,0.1-0.2,0.2-0.3,0.3c-0.1,0.1-0.2,0.3-0.3,0.5c-0.1,0.2-0.1,0.4-0.2,0.7c-0.1,0.3-0.1,0.6-0.1,0.8c0,0.2,0.1,0.4,0.1,0.5
			c0.1,0.1,0.2,0.2,0.3,0.3c0.1,0.1,0.3,0.1,0.5,0.1c0.1,0,0.2,0,0.3,0c0.1,0,0.2-0.1,0.4-0.1c0.1-0.1,0.2-0.1,0.4-0.2
			c0.1-0.1,0.2-0.2,0.3-0.4c0,0.1,0,0.2,0,0.3c0,0.1,0,0.2,0,0.3h0.9c0-0.1,0-0.3,0-0.5c0-0.2,0-0.4,0.1-0.6
			c0.1-0.4,0.2-0.9,0.3-1.3c0.1-0.4,0.2-0.9,0.3-1.3c0-0.2,0.1-0.4,0.1-0.6c0-0.2,0-0.3,0-0.5c0-0.1-0.1-0.3-0.2-0.4
			c-0.1-0.1-0.2-0.2-0.4-0.3c-0.2-0.1-0.4-0.1-0.6-0.1c-0.1,0-0.3,0-0.4,0c-0.1,0-0.3,0.1-0.4,0.1c-0.1,0.1-0.3,0.2-0.4,0.3
			c-0.1,0.1-0.2,0.3-0.4,0.5c-0.1,0.2-0.2,0.5-0.3,0.8H129.4z"/>
		<path class="st5" d="M94.1,5.7c0.5,0,1,0,1.5,0c0.1,0,0.1,0,0.2,0c0.1,0,0.1,0.1,0.2,0.1C95.9,6,96,6.1,96,6.2
			c0,0.1,0,0.3-0.1,0.4c-0.1,0.2-0.1,0.3-0.2,0.4c-0.1,0.1-0.1,0.2-0.2,0.3c-0.1,0.1-0.2,0.1-0.2,0.2c-0.1,0-0.1,0-0.2,0h-1.5
			C93.7,6.9,93.9,6.3,94.1,5.7 M92.7,6.5h-9.3v0.9h9l-0.1,0.5l-8.8,0v0.9H92l-0.2,0.5h-8.4v0.9h8.2l-0.2,0.6h-8l0,0.9l7.7,0h0h0h0h0
			h0h0h0h0h0h0h0h0h0h0h0h0h0h0h0h0h0h0h0h0h0h0h0h0h0h0h0h0h0h0h0h0h0h0h0.5l0.9-2.6c0.5,0,0.9,0,1.4,0c0.1,0,0.2,0,0.2,0.1
			c0.1,0,0.1,0.1,0.1,0.2c0,0.1,0,0.2,0,0.4c0,0.2-0.1,0.4-0.1,0.6c-0.1,0.2-0.1,0.3-0.1,0.5c0,0.1-0.1,0.3-0.1,0.4
			c0,0.1,0,0.2-0.1,0.3c0,0.1,0,0.2,0,0.3h1.3c0-0.1,0-0.2,0-0.3c0-0.1,0-0.3,0.1-0.4c0-0.2,0.1-0.3,0.1-0.4c0-0.1,0.1-0.2,0.1-0.3
			c0-0.1,0.1-0.3,0.1-0.5c0-0.2,0.1-0.3,0.1-0.5c0-0.2,0-0.3,0-0.4c0-0.1,0-0.3-0.1-0.3c0-0.1-0.1-0.2-0.2-0.2c0,0,0,0,0,0
			c0.3-0.1,0.5-0.4,0.7-0.6c0.2-0.3,0.4-0.6,0.5-1.1c0-0.1,0.1-0.3,0.1-0.5c0-0.2,0-0.3,0-0.5c0-0.2,0-0.3-0.1-0.5
			c-0.1-0.1-0.2-0.3-0.3-0.3c-0.1-0.1-0.3-0.1-0.6-0.1c-1,0-2.1,0-3.1,0L92.7,6.5z M99.5,9.9c-0.1,0.2-0.3,0.4-0.5,0.5
			c-0.2,0.1-0.4,0.2-0.6,0.2c-0.2,0-0.3,0-0.4-0.1c-0.1-0.1-0.2-0.2-0.2-0.3c0-0.1-0.1-0.3-0.1-0.4c0-0.2,0-0.3,0.1-0.4c0,0,0,0,0,0
			h3.1c0-0.1,0-0.1,0-0.2c0.2-0.7,0.3-1.3,0.3-1.7c0-0.5-0.1-0.8-0.4-1.1c-0.2-0.2-0.6-0.4-1-0.4c-0.3,0-0.6,0.1-0.9,0.2
			c-0.3,0.1-0.6,0.3-0.8,0.5c-0.3,0.2-0.5,0.5-0.7,0.9c-0.2,0.4-0.4,0.8-0.6,1.3c-0.2,0.5-0.2,0.9-0.2,1.3c0,0.4,0,0.7,0.2,0.9
			c0.1,0.2,0.3,0.4,0.5,0.5c0.2,0.1,0.5,0.2,0.8,0.2c0.3,0,0.6-0.1,0.9-0.2c0.3-0.1,0.6-0.3,0.9-0.6c0.3-0.3,0.5-0.6,0.8-1H99.5z
			 M98.1,8.3C98.1,8.3,98.1,8.2,98.1,8.3c0,0,0-0.1,0.1-0.2c0-0.1,0.1-0.2,0.2-0.3c0.1-0.1,0.2-0.2,0.3-0.3c0.1-0.1,0.2-0.2,0.4-0.3
			C99.1,7.1,99.3,7,99.5,7c0.2,0,0.3,0,0.4,0.1c0.1,0.1,0.2,0.1,0.2,0.2c0,0.1,0.1,0.2,0.1,0.3c0,0.1,0,0.2,0,0.3c0,0.1,0,0.2,0,0.2
			c0,0,0,0,0,0H98.1z M102.5,8.9c0.1-0.3,0.2-0.5,0.3-0.7c0.1-0.2,0.2-0.4,0.4-0.5c0.1-0.1,0.3-0.2,0.4-0.3c0.1-0.1,0.3-0.1,0.4-0.1
			c0.1,0,0.2,0,0.3,0.1c0.1,0.1,0.2,0.2,0.2,0.3c0.1,0.1,0.1,0.3,0.1,0.5c0,0.2,0,0.4-0.1,0.7c-0.1,0.3-0.2,0.5-0.3,0.7
			c-0.1,0.2-0.2,0.4-0.4,0.5c-0.1,0.1-0.3,0.2-0.4,0.3c-0.1,0.1-0.3,0.1-0.4,0.1c-0.1,0-0.3,0-0.4-0.1c-0.1-0.1-0.2-0.2-0.2-0.3
			c-0.1-0.1-0.1-0.3-0.1-0.5C102.4,9.3,102.4,9.1,102.5,8.9 M103.7,11.5h1c0.4-1.2,0.7-2.4,1.1-3.7c0.4-1.2,0.7-2.4,1.1-3.6h-1.1
			c-0.1,0.4-0.3,0.9-0.4,1.3c-0.1,0.4-0.3,0.9-0.4,1.3h0c0-0.2-0.1-0.3-0.2-0.4c-0.1-0.1-0.2-0.2-0.3-0.3C104.4,6,104.2,6,104,6
			c-0.3,0-0.5,0.1-0.8,0.2c-0.3,0.1-0.5,0.3-0.7,0.6c-0.2,0.3-0.5,0.6-0.7,0.9c-0.2,0.4-0.4,0.8-0.5,1.2c-0.1,0.5-0.2,0.9-0.2,1.2
			c0,0.4,0,0.6,0.1,0.9c0.1,0.2,0.2,0.4,0.4,0.5c0.2,0.1,0.4,0.2,0.6,0.2c0.2,0,0.3,0,0.5-0.1c0.2,0,0.3-0.1,0.5-0.3
			c0.2-0.1,0.4-0.3,0.5-0.5h0C103.8,11.1,103.7,11.3,103.7,11.5"/>
	</g>
	<g>
		<g>
			<rect x="83.5" y="24.2" class="st10" width="32.1" height="20"/>
			<polygon class="st11" points="85.1,36.4 88.5,31.1 113.9,31.1 110.4,36.4 			"/>
			<polygon class="st3" points="86.1,36 88.9,31.6 89.8,31.6 89.8,34.4 91.6,31.6 92.5,31.6 92.5,36 91.6,36 91.6,32.9 89.8,36 
				88.9,36 88.9,32.9 87,36 			"/>
			<path class="st3" d="M92.8,36l1.8-4.4h0.7l1.8,4.4h-0.9l-0.4-1.1h-1.5L93.8,36H92.8z M94.5,34.1h0.9l-0.4-1.2L94.5,34.1z"/>
			<path class="st3" d="M98.6,33.7c0,0.3,0.1,0.5,0.1,0.8h1.7c-0.6,1.2-2.7,0.7-2.7-0.7c0-1.5,1.9-1.9,2.6-0.8h1
				c-0.2-0.8-0.9-1.4-2.1-1.4c-1.4,0-2.3,0.9-2.3,2.1c0,1.4,1.1,2.3,2.3,2.3c1,0,2.3-0.8,2.3-2.3H98.6z"/>
			<polygon class="st3" points="101.8,36 102.7,36 102.7,33 104.5,36 105.4,36 105.4,31.6 104.5,31.6 104.5,34.7 102.7,31.6 
				101.8,31.6 			"/>
			<path class="st3" d="M107.1,34.9h1.5L109,36h0.9l-1.8-4.4h-0.6l-1.9,4.4h0.9L107.1,34.9z M107.9,32.9c0,0.1-0.5,1.2-0.5,1.2h0.9
				L107.9,32.9z"/>
			<polygon class="st11" points="92.7,24.2 88.7,30.6 114.2,30.6 115.6,28.4 115.6,28.2 114.1,30.5 89,30.5 92.8,24.2 			"/>
			<path class="st3" d="M111.6,31.6c0.3,0,0.6,0.3,0.6,0.6c0,0.3-0.3,0.6-0.6,0.6c-0.3,0-0.6-0.3-0.6-0.6
				C111,31.9,111.3,31.6,111.6,31.6 M111.6,31.7c0.3,0,0.5,0.2,0.5,0.5c0,0.3-0.2,0.5-0.5,0.5c-0.3,0-0.5-0.2-0.5-0.5
				C111.1,32,111.3,31.7,111.6,31.7"/>
			<path class="st5" d="M111.4,32.5v-0.6h0.3c0.1,0,0.1,0,0.1,0c0,0,0,0,0.1,0.1c0,0,0,0.1,0,0.1c0,0,0,0.1,0,0.1c0,0-0.1,0-0.1,0.1
				c0,0,0,0,0,0c0,0,0,0,0.1,0.1l0.1,0.2h-0.1l-0.1-0.1c0,0,0-0.1-0.1-0.1c0,0,0,0,0,0c0,0,0,0,0,0c0,0,0,0,0,0h-0.1L111.4,32.5
				L111.4,32.5z M111.5,32.2h0.2c0,0,0.1,0,0.1,0c0,0,0,0,0,0c0,0,0,0,0-0.1c0,0,0-0.1,0-0.1c0,0-0.1,0-0.1,0h-0.2V32.2z"/>
		</g>
		<g>
			<path class="st12" d="M139.3,24.2h-19.9v20h19.9v-6.6c0.1-0.1,0.1-0.3,0.1-0.4c0-0.2,0-0.3-0.1-0.4"/>
			<path class="st5" d="M121.2,32.9l-0.4-0.9l-0.4,0.9 M129.6,32.5c-0.1,0-0.2,0-0.3,0h-0.7V32h0.7c0.1,0,0.2,0,0.3,0
				c0.1,0,0.1,0.1,0.1,0.2C129.7,32.4,129.7,32.4,129.6,32.5 M134.5,32.9l-0.4-0.9l-0.4,0.9H134.5z M125.4,33.9h-0.6l0-1.8l-0.8,1.8
				h-0.5l-0.8-1.8v1.8h-1.1l-0.2-0.5h-1.2l-0.2,0.5h-0.6l1-2.3h0.8l0.9,2.2v-2.2h0.9l0.7,1.6l0.7-1.6h0.9V33.9z M127.7,33.9h-1.9
				v-2.3h1.9V32h-1.3v0.4h1.3v0.5h-1.3v0.5h1.3V33.9z M130.4,32.2c0,0.4-0.2,0.6-0.4,0.6c0.1,0,0.2,0.1,0.3,0.2
				c0.1,0.1,0.1,0.2,0.1,0.4v0.5h-0.6l0-0.3c0-0.1,0-0.3-0.1-0.5c-0.1-0.1-0.2-0.1-0.4-0.1h-0.6v0.8h-0.6v-2.3h1.3
				c0.3,0,0.5,0,0.7,0.1C130.2,31.7,130.4,31.9,130.4,32.2 M131.2,33.9h-0.6v-2.3h0.6V33.9z M137.9,33.9h-0.8l-1.1-1.8v1.8h-1.1
				l-0.2-0.5h-1.2l-0.2,0.5h-0.7c-0.3,0-0.6-0.1-0.8-0.3c-0.2-0.2-0.3-0.5-0.3-0.9c0-0.3,0.1-0.7,0.3-0.9c0.2-0.2,0.5-0.3,0.8-0.3
				h0.5V32h-0.5c-0.2,0-0.3,0-0.4,0.1c-0.1,0.1-0.2,0.3-0.2,0.5s0,0.4,0.2,0.5c0.1,0.1,0.2,0.1,0.4,0.1h0.3l0.8-1.8h0.8l0.9,2.2
				v-2.2h0.9l1,1.6v-1.6h0.6V33.9z M119.4,34.3h1l0.2-0.5h0.5l0.2,0.5h1.9v-0.4l0.2,0.4h1l0.2-0.4v0.4h4.7l0-0.9h0.1
				c0.1,0,0.1,0,0.1,0.1v0.7h2.4v-0.2c0.2,0.1,0.5,0.2,0.9,0.2h1l0.2-0.5h0.5l0.2,0.5h2v-0.5l0.3,0.5h1.6v-3.3h-1.6v0.4l-0.2-0.4
				H135v0.4l-0.2-0.4h-2.2c-0.4,0-0.7,0.1-0.9,0.2v-0.2h-1.5v0.2c-0.2-0.1-0.4-0.2-0.6-0.2h-5.4l-0.4,0.8l-0.4-0.8h-1.7v0.4
				l-0.2-0.4h-1.5l-0.7,1.6V34.3z"/>
			<path class="st5" d="M139.3,36h-1c-0.1,0-0.2,0-0.2,0c-0.1,0-0.1,0.1-0.1,0.2c0,0.1,0,0.1,0.1,0.2c0.1,0,0.1,0,0.2,0l0.3,0
				c0.3,0,0.5,0.1,0.6,0.2c0,0,0,0,0.1,0.1 M139.3,37.6c-0.1,0.2-0.4,0.3-0.8,0.3h-1.1v-0.5h1.1c0.1,0,0.2,0,0.2-0.1
				c0,0,0.1-0.1,0.1-0.2c0-0.1,0-0.1-0.1-0.2c0,0-0.1-0.1-0.2-0.1c-0.5,0-1.2,0-1.2-0.7c0-0.3,0.2-0.7,0.8-0.7h1.1v-0.5h-1
				c-0.3,0-0.5,0.1-0.7,0.2v-0.2H136c-0.2,0-0.5,0.1-0.7,0.2v-0.2h-2.7v0.2c-0.2-0.2-0.6-0.2-0.8-0.2h-1.8v0.2
				c-0.2-0.2-0.6-0.2-0.8-0.2h-2l-0.5,0.5l-0.4-0.5h-3v3.3h3l0.5-0.5l0.4,0.5l1.8,0v-0.8h0.2c0.2,0,0.5,0,0.8-0.1v0.9h1.5v-0.9h0.1
				c0.1,0,0.1,0,0.1,0.1v0.8h4.6c0.3,0,0.6-0.1,0.8-0.2v0.2h1.4c0.3,0,0.6,0,0.8-0.1V37.6z M137.1,36.7c0.1,0.1,0.2,0.3,0.2,0.5
				c0,0.5-0.3,0.7-0.9,0.7h-1.1v-0.5h1.1c0.1,0,0.2,0,0.2-0.1c0,0,0.1-0.1,0.1-0.2c0-0.1,0-0.1-0.1-0.2c0,0-0.1-0.1-0.2-0.1
				c-0.5,0-1.2,0-1.2-0.7c0-0.3,0.2-0.7,0.8-0.7h1.1V36h-1c-0.1,0-0.2,0-0.2,0c-0.1,0-0.1,0.1-0.1,0.2c0,0.1,0.1,0.1,0.1,0.2
				c0.1,0,0.1,0,0.2,0l0.3,0C136.7,36.5,136.9,36.5,137.1,36.7 M132,36.5c-0.1,0-0.2,0-0.3,0h-0.7V36h0.7c0.1,0,0.2,0,0.3,0
				c0.1,0,0.1,0.1,0.1,0.2C132.1,36.4,132.1,36.5,132,36.5 M132.4,36.8c0.1,0,0.2,0.1,0.3,0.2c0.1,0.1,0.1,0.2,0.1,0.4v0.5h-0.6
				v-0.3c0-0.1,0-0.4-0.1-0.5c-0.1-0.1-0.2-0.1-0.4-0.1h-0.6v0.9h-0.6v-2.3h1.3c0.3,0,0.5,0,0.7,0.1c0.2,0.1,0.3,0.3,0.3,0.5
				C132.7,36.5,132.5,36.7,132.4,36.8 M133.1,35.5h1.9V36h-1.3v0.4h1.3v0.5h-1.3v0.5l1.3,0v0.5h-1.9V35.5z M129.3,36.6h-0.7V36h0.7
				c0.2,0,0.3,0.1,0.3,0.3C129.6,36.5,129.5,36.6,129.3,36.6 M128,37.7l-0.9-1l0.9-0.9V37.7z M125.8,37.4h-1.4v-0.5h1.2v-0.5h-1.2
				V36h1.4l0.6,0.7L125.8,37.4z M130.2,36.3c0,0.7-0.5,0.8-1,0.8h-0.7v0.8h-1.1l-0.7-0.8l-0.7,0.8h-2.2v-2.3h2.2l0.7,0.8l0.7-0.8
				h1.8C129.7,35.5,130.2,35.7,130.2,36.3"/>
		</g>
		<g>
			<path class="st13" d="M160.8,34.7c2.9,0,5.3-2.4,5.3-5.3c0-2.9-2.4-5.3-5.3-5.3h-6.9c-2.9,0-5.3,2.4-5.3,5.3
				c0,2.9,2.4,5.3,5.3,5.3H160.8z"/>
			<path class="st5" d="M153.9,24.2c2.8,0,5.2,2.3,5.2,5.2c0,2.8-2.3,5.2-5.2,5.2c-2.8,0-5.2-2.3-5.2-5.2
				C148.7,26.5,151.1,24.2,153.9,24.2 M154.9,26.2v6.4c1.4-0.4,2.3-1.7,2.3-3.2C157.3,27.9,156.3,26.6,154.9,26.2 M152.9,32.6v-6.5
				c-1.4,0.4-2.4,1.7-2.4,3.2C150.5,30.9,151.5,32.2,152.9,32.6"/>
			<path d="M151.6,42.1l0.7-0.2c0,0,0.1,0,0,0.1l-0.2,0.9c0.3-0.5,0.4-0.6,0.6-0.8c0.1-0.1,0.2-0.2,0.3-0.2c0.2,0,0.2,0.3,0.1,0.4
				c-0.1,0.1-0.1,0.1-0.2,0.1c0,0-0.1,0-0.1,0c0,0-0.1,0-0.1-0.1c0,0,0,0,0-0.1c0,0,0,0,0,0c0,0-0.1,0.1-0.2,0.2
				c-0.1,0.2-0.2,0.4-0.4,0.7c-0.1,0.1-0.1,0.2-0.2,0.4c-0.1,0.2-0.1,0.3-0.1,0.4l-0.1,0.3h-0.4l0.4-1.6c0-0.2,0-0.3,0-0.4
				c0,0,0-0.1,0-0.1c0,0-0.1,0-0.1,0C151.7,42.2,151.6,42.2,151.6,42.1L151.6,42.1z"/>
			<path d="M149.2,41.3L149,42h0.4l0,0.2H149l-0.4,1.5c0,0.2,0,0.2,0,0.3c0,0,0,0.1,0,0.1c0,0,0,0,0,0c0,0,0.1,0,0.1-0.1
				c0,0,0.1-0.1,0.2-0.3l0.1,0.1c-0.1,0.2-0.3,0.4-0.4,0.5c-0.1,0.1-0.2,0.1-0.3,0.1c-0.1,0-0.1,0-0.2-0.1c0,0-0.1-0.1-0.1-0.2
				c0-0.1,0-0.2,0.1-0.4l0.4-1.5h-0.3l0-0.1c0.2,0,0.3-0.1,0.4-0.2C148.9,41.7,149,41.6,149.2,41.3L149.2,41.3z"/>
			<path d="M159.1,41.4l-0.2,0.7h0.4l0,0.2h-0.4l-0.4,1.5c0,0.2,0,0.2,0,0.3c0,0,0,0.1,0,0.1c0,0,0,0,0,0c0,0,0.1,0,0.2-0.1
				c0,0,0.1-0.1,0.2-0.3l0.1,0.1c-0.1,0.2-0.3,0.4-0.4,0.5c-0.1,0.1-0.2,0.1-0.3,0.1c-0.1,0-0.1,0-0.2-0.1c0,0-0.1-0.1-0.1-0.2
				c0-0.1,0-0.2,0.1-0.4l0.4-1.5l-0.3,0l0-0.1c0.2-0.1,0.3-0.1,0.4-0.2c0.1-0.1,0.2-0.2,0.4-0.5H159.1z"/>
			<path d="M145,44.2L145,44.2l-1.4,0.1l0-0.1c0.1,0,0.2,0,0.2,0c0.1,0,0.1-0.1,0.1-0.1c0.1-0.1,0.1-0.2,0.2-0.4l0.5-2.1
				c0-0.2,0.1-0.3,0.1-0.4c0,0,0-0.1,0-0.1c0,0-0.1-0.1-0.1-0.1c0,0-0.1,0-0.2,0l0-0.1l1.3,0l0,0.1c-0.1,0-0.2,0-0.3,0
				c-0.1,0-0.1,0.1-0.2,0.1c0,0.1-0.1,0.2-0.1,0.4l-0.5,2.1c-0.1,0.2-0.1,0.3-0.1,0.4c0,0,0,0.1,0,0.1c0,0,0,0.1,0.1,0.1
				C144.8,44.1,144.9,44.1,145,44.2"/>
			<path d="M168.5,43.7c0,0-0.2,0.6,0.1,0.3c0.1-0.1,0.2-0.2,0.3-0.3l0.1,0.1c-0.1,0.2-0.3,0.4-0.4,0.5c-0.2,0.1-0.5,0.2-0.5-0.1
				c0-0.1,0-0.2,0.1-0.4l0.6-2.4c0-0.2,0.1-0.4-0.1-0.4c0,0-0.1,0-0.1,0l0-0.1l0.7-0.1c0,0,0.1,0,0,0.1L168.5,43.7z"/>
			<path d="M160.2,40.9c0.1,0,0.1,0,0.2,0.1c0,0,0.1,0.1,0.1,0.2c0,0.1,0,0.1-0.1,0.2c0,0-0.1,0.1-0.2,0.1c-0.1,0-0.1,0-0.2-0.1
				c0-0.1-0.1-0.1-0.1-0.2c0-0.1,0-0.1,0.1-0.2C160.1,40.9,160.1,40.9,160.2,40.9"/>
			<path d="M149.6,36.5c0.1,0,0.1,0,0.2,0.1c0,0.1,0.1,0.1,0.1,0.2c0,0.1,0,0.1-0.1,0.2c0,0-0.1,0.1-0.2,0.1c-0.1,0-0.1,0-0.2-0.1
				c-0.1-0.1-0.1-0.1-0.1-0.2c0-0.1,0-0.1,0.1-0.2C149.5,36.5,149.5,36.5,149.6,36.5"/>
			<path d="M160.3,42l-0.5,1.7c-0.1,0.3,0,0.4,0.2,0.2c0.1-0.1,0.2-0.2,0.2-0.3l0.1,0.1c-0.1,0.2-0.4,0.6-0.8,0.6
				c-0.1,0-0.1,0-0.1-0.1c0,0-0.1-0.1-0.1-0.2c0-0.1,0-0.2,0-0.3l0.3-1.1l0.1-0.3c0-0.1,0-0.2-0.1-0.2c-0.1,0-0.1,0-0.2,0l0-0.1
				L160.3,42C160.2,41.9,160.3,41.9,160.3,42"/>
			<path d="M149.7,37.7l-0.5,1.8c-0.1,0.3,0,0.4,0.2,0.3c0.1-0.1,0.2-0.2,0.2-0.3l0.1,0.1c-0.1,0.2-0.4,0.7-0.8,0.7
				c-0.1,0-0.1,0-0.2-0.1c0,0-0.1-0.1-0.1-0.2c0-0.1,0-0.2,0-0.4l0.3-1.2l0.1-0.3c0-0.1,0-0.3-0.1-0.3c-0.1,0-0.1,0-0.2,0l0-0.1
				L149.7,37.7C149.7,37.7,149.7,37.7,149.7,37.7"/>
			<path d="M151,37.7l-0.3,1.1c0.2-0.3,0.9-1.2,1.3-1.1c0.3,0.1,0.2,0.6,0.1,0.8l-0.3,1.1c-0.1,0.4,0.1,0.3,0.1,0.3
				c0.1-0.1,0.3-0.3,0.3-0.4l0.1,0.1c-0.1,0.2-0.4,0.8-0.8,0.7c-0.1,0-0.1,0-0.1-0.1c0,0-0.1-0.1-0.1-0.2c0-0.1,0-0.2,0.1-0.4
				l0.3-1.1c0.1-0.2,0.1-0.4-0.1-0.4c-0.6,0-1.1,1.2-1.2,1.7l-0.1,0.4h-0.4l0.5-1.7l0.1-0.3c0-0.2-0.1-0.2-0.2-0.2l-0.1,0l0-0.1
				C150.4,37.8,150.7,37.7,151,37.7C150.9,37.7,151,37.7,151,37.7"/>
			<path d="M146.5,42l-0.3,0.9c0.2-0.3,0.8-1.1,1.2-1c0.3,0.1,0.2,0.6,0.1,0.8l-0.3,1.1c-0.1,0.3,0.1,0.3,0.1,0.3
				c0.1-0.1,0.3-0.3,0.3-0.4l0.1,0.1c-0.1,0.2-0.4,0.7-0.8,0.7c-0.1,0-0.1,0-0.1-0.1c0,0,0-0.1-0.1-0.2c0-0.1,0-0.2,0.1-0.4l0.3-1
				c0-0.1,0.1-0.4,0-0.4c-0.6,0.1-1.1,1.2-1.2,1.6l-0.1,0.4l-0.4,0l0.4-1.6l0.1-0.3c0-0.2-0.1-0.2-0.2-0.2h-0.1l0-0.1
				C145.9,42,146.2,42,146.5,42C146.5,41.9,146.5,41.9,146.5,42"/>
			<path d="M154,42l-0.3,0.9c0.2-0.3,0.8-1.1,1.2-1c0.3,0.1,0.2,0.6,0.1,0.8l-0.3,1.1c-0.1,0.3,0.1,0.3,0.1,0.3
				c0.1-0.1,0.3-0.3,0.3-0.4l0.1,0c-0.1,0.2-0.4,0.7-0.8,0.7c-0.1,0-0.1,0-0.1-0.1c0,0-0.1-0.1-0.1-0.2c0-0.1,0-0.2,0.1-0.4l0.3-1
				c0-0.1,0.1-0.4-0.1-0.4c-0.6,0.1-1.1,1.1-1.2,1.6l-0.1,0.4l-0.4,0l0.4-1.6l0.1-0.3c0-0.2-0.1-0.2-0.2-0.2h-0.1l0-0.1
				C153.4,42,153.7,42,154,42C154,41.9,154,41.9,154,42"/>
			<path d="M164,41.9l-0.3,0.9c0.2-0.3,0.8-1.1,1.2-1c0.3,0.1,0.2,0.6,0.1,0.8l-0.3,1.1c-0.1,0.3,0.1,0.3,0.1,0.3
				c0.1-0.1,0.2-0.3,0.3-0.4l0.1,0.1c-0.1,0.2-0.4,0.7-0.8,0.7c-0.1,0-0.1,0-0.1-0.1c0,0-0.1-0.1-0.1-0.2c0-0.1,0-0.2,0.1-0.4
				l0.3-1.1c0-0.1,0.1-0.4-0.1-0.4c-0.6,0.1-1.1,1.1-1.2,1.6l-0.1,0.4l-0.4,0l0.4-1.6l0.1-0.3c0-0.2-0.1-0.2-0.2-0.2h-0.1l0-0.1
				C163.4,42,163.7,41.9,164,41.9C164,41.9,164,41.9,164,41.9"/>
			<path d="M154.8,37.9c0.2,0,0.5-0.1,0.8-0.2c0,0,0.1,0,0.1,0.1l-0.2,1c0.1-0.2,0.4-0.8,0.7-0.9c0.2-0.1,0.4,0,0.4,0.3
				c-0.1,0.2-0.4,0.4-0.5,0.1c-0.4,0.4-0.7,1.3-0.8,1.7l-0.1,0.3h-0.4l0.4-1.7c0.1-0.2,0.1-0.6-0.3-0.5L154.8,37.9z"/>
			<path d="M157.9,37.7l-0.1,0.8h-0.1c0-0.3-0.1-0.7-0.5-0.7c-0.3,0-0.3,0.3-0.2,0.5c0,0.1,0.1,0.1,0.2,0.2c0.2,0.3,0.3,0.5,0.4,0.6
				c0.2,0.5-0.1,1.1-0.6,1.1c-0.2,0-0.4-0.1-0.5-0.1c-0.1,0-0.1,0-0.1,0.1h-0.1l0.1-0.9h0.1c0,0.3,0.1,0.7,0.5,0.7
				c0.4-0.1,0.4-0.5,0.2-0.9l-0.3-0.5c-0.2-0.2-0.2-0.7,0-0.8c0.4-0.4,0.7-0.2,1-0.1C157.7,37.8,157.8,37.8,157.9,37.7L157.9,37.7z"
				/>
			<path d="M162.2,36.4l-0.2,1.1h-0.1c0-0.5,0-1-0.7-1c-0.3,0-0.6,0.1-0.8,0.3c-0.5,0.5-0.8,1.2-0.8,1.9c0,0.4,0.1,0.6,0.3,0.9
				c0.6,0.7,1.4,0.2,1.8-0.4l0.1,0.1c-0.3,0.5-0.8,0.8-1.4,0.8c-0.3,0-0.5-0.1-0.7-0.2c-0.2-0.1-0.4-0.3-0.5-0.5
				c-0.1-0.2-0.2-0.5-0.2-0.7c0-0.4,0.1-0.8,0.3-1.2c0.3-0.6,1-1.2,1.8-1.2c0.5,0,0.6,0.1,0.8,0.2C162,36.6,162.1,36.5,162.2,36.4
				L162.2,36.4z"/>
			<path d="M163.5,36.4l-0.8,3.2c-0.1,0.6,0.2,0.4,0.4,0l0.1,0.1c-0.3,0.5-0.7,0.8-0.9,0.6c-0.1-0.1-0.1-0.2,0-0.6l0.7-2.6
				c0.1-0.3,0.1-0.6-0.3-0.5v-0.1C162.9,36.4,163.1,36.3,163.5,36.4C163.5,36.3,163.5,36.3,163.5,36.4"/>
			<path d="M165.7,37.7l-0.4,1.7c-0.1,0.2-0.1,0.3-0.1,0.3c0,0,0,0.1,0,0.1c0.1,0.2,0.3-0.2,0.5-0.3l0.1,0.1
				c-0.1,0.2-0.3,0.5-0.4,0.6c-0.1,0.1-0.3,0.2-0.4,0c0,0-0.1-0.1-0.1-0.2c0-0.3,0.1-0.7,0.2-1c0-0.1,0-0.1,0,0
				c-0.2,0.4-0.7,1.3-1.2,1.3c-0.2,0-0.3-0.2-0.3-0.4c0-0.1,0-0.3,0.1-0.6l0.2-0.8c0.1-0.2,0.1-0.2,0.1-0.3c0-0.1,0-0.3-0.3-0.3
				l0-0.1c0.2,0,0.5-0.1,0.7-0.1c0.1,0,0.1,0,0.1,0.1l-0.4,1.6c0,0.1-0.1,0.5,0.1,0.6c0.2,0,0.8-0.7,1-1.2c0.2-0.4,0.3-0.8,0.3-1
				H165.7z"/>
			<path d="M149.9,43.1c0.2,0,0.3,0,0.5-0.1c0.2-0.1,0.3-0.2,0.4-0.3c0.1-0.1,0.1-0.2,0.1-0.4c0-0.1,0-0.1,0-0.2
				c0,0-0.1-0.1-0.1-0.1c-0.1,0-0.3,0.1-0.4,0.3C150.1,42.5,150,42.7,149.9,43.1 M149.8,43.3c0,0.1,0,0.2,0,0.2c0,0.2,0,0.4,0.1,0.5
				c0.1,0.1,0.2,0.1,0.4,0.1c0.1,0,0.2-0.1,0.3-0.1c0.1-0.1,0.2-0.1,0.4-0.3l0.1,0.1c-0.4,0.4-0.6,0.6-1,0.6c-0.2,0-0.4-0.1-0.5-0.2
				c-0.1-0.2-0.1-0.4-0.2-0.5c0-0.3,0.1-0.5,0.2-0.8c0.1-0.3,0.3-0.5,0.5-0.6c0.2-0.1,0.4-0.2,0.6-0.2c0.2,0,0.3,0,0.3,0.1
				c0.1,0.1,0.1,0.2,0.1,0.3c0,0.1,0,0.3-0.1,0.4c-0.1,0.2-0.3,0.3-0.6,0.4C150.4,43.2,150.2,43.2,149.8,43.3"/>
			<path d="M156.8,42.1c0,0-0.2,0-0.3,0.2c-0.2,0.2-0.3,0.3-0.4,0.6c-0.1,0.3-0.2,0.5-0.2,0.8c0,0.1,0,0.2,0,0.3
				c0,0.1,0.1,0.1,0.2,0.1c0.2,0,0.4-0.2,0.5-0.5c0.2-0.4,0.4-0.7,0.4-1.1c0-0.1,0-0.2-0.1-0.3C157,42,156.9,42.1,156.8,42.1
				 M157.7,42l-0.5,1.7l0,0.2c0,0.2,0.1,0.2,0.2,0.1c0.1-0.1,0.2-0.2,0.2-0.3l0.1,0.1c-0.1,0.2-0.3,0.3-0.4,0.4
				c-0.2,0.2-0.5,0.3-0.5-0.1c0-0.2,0.1-0.4,0.1-0.6c-0.2,0.3-0.4,0.6-0.6,0.7c-0.1,0.1-0.3,0.1-0.4,0.1c-0.1,0-0.2,0-0.3-0.1
				c-0.1-0.1-0.1-0.3-0.1-0.4c0-0.3,0.1-0.6,0.2-0.9c0.1-0.3,0.3-0.6,0.5-0.7c0.2-0.1,0.4-0.2,0.5-0.2c0.1,0,0.2,0,0.2,0
				c0.1,0,0.1,0.1,0.2,0.2l0.1-0.2H157.7z"/>
			<path d="M166.9,42.1c-0.1,0-0.2,0-0.3,0.1c-0.2,0.2-0.3,0.4-0.4,0.6c-0.1,0.3-0.2,0.5-0.2,0.8c0,0.1,0,0.2,0,0.3
				c0,0.1,0.1,0.1,0.2,0.1c0.2,0,0.4-0.2,0.5-0.5c0.2-0.4,0.4-0.7,0.4-1.1c0-0.1,0-0.2-0.1-0.3C167,42,166.9,42.1,166.9,42.1
				 M167.7,42l-0.5,1.7l0,0.2c0,0.2,0.1,0.2,0.2,0.1c0.1-0.1,0.2-0.2,0.2-0.3l0.1,0.1c-0.1,0.2-0.3,0.3-0.4,0.4
				c-0.2,0.2-0.5,0.3-0.5-0.1c0-0.2,0.1-0.4,0.1-0.6c-0.2,0.3-0.4,0.6-0.6,0.7c-0.1,0.1-0.3,0.1-0.4,0.1c-0.1,0-0.2,0-0.3-0.1
				c-0.1-0.1-0.1-0.3-0.1-0.4c0-0.3,0.1-0.6,0.2-0.9c0.1-0.3,0.3-0.6,0.5-0.7c0.2-0.1,0.4-0.2,0.5-0.2c0.1,0,0.2,0,0.2,0.1
				c0.1,0,0.1,0.1,0.1,0.2l0.1-0.2H167.7z"/>
			<path d="M162.4,42.6c0-0.2-0.1-0.3-0.1-0.4c-0.1-0.1-0.2-0.1-0.3-0.1c-0.2,0-0.4,0.1-0.7,0.5c-0.2,0.4-0.3,0.7-0.3,1.1
				c0,0.2,0,0.3,0.1,0.4c0.1,0.1,0.2,0.2,0.3,0.1c0.2,0,0.5-0.2,0.7-0.5C162.2,43.3,162.4,43,162.4,42.6 M162.8,42.7
				c0,0.3-0.1,0.6-0.2,0.8c-0.1,0.2-0.4,0.4-0.6,0.6c-0.2,0.1-0.5,0.2-0.7,0.2c-0.2,0-0.4-0.1-0.5-0.2c-0.1-0.1-0.2-0.3-0.2-0.6
				c0-0.3,0.1-0.5,0.2-0.8c0.1-0.2,0.4-0.5,0.6-0.7c0.3-0.1,0.4-0.2,0.6-0.2c0.2,0,0.5,0.1,0.6,0.2
				C162.7,42.3,162.8,42.5,162.8,42.7"/>
			<path d="M167.2,36.3l-0.5,1.8c0.2-0.2,0.5-0.5,0.8-0.5c0.2,0,0.3,0.1,0.4,0.2c0.1,0.1,0.2,0.3,0.2,0.5c0,0.9-0.7,1.8-1.5,1.8
				c-0.5,0-0.8-0.1-0.7-0.6l0.6-2.6c0.1-0.3,0.1-0.5-0.2-0.5v-0.1C166.7,36.5,166.9,36.3,167.2,36.3
				C167.2,36.3,167.2,36.3,167.2,36.3 M166.7,40.1c0.1,0,0.2-0.1,0.4-0.2c0.4-0.3,0.8-1.4,0.4-1.8c-0.1-0.1-0.2-0.1-0.3-0.1
				c-0.4,0-0.6,0.5-0.7,0.8l-0.2,0.9C166.3,40,166.3,40.1,166.7,40.1"/>
			<path d="M145.7,36.6l0-0.1h1.1c0.4,0,0.9,0.1,1.1,0.2c0.2,0.1,0.4,0.3,0.5,0.5c0.2,0.5,0.2,1,0.1,1.5c-0.3,1-1.2,1.5-2.2,1.5
				h-1.4l0-0.1c0.1,0,0.2,0,0.3,0c0.1,0,0.1-0.1,0.1-0.1c0-0.1,0.1-0.2,0.2-0.5l0.6-2.2c0-0.2,0.1-0.3,0.1-0.4c0-0.1,0-0.1-0.1-0.2
				C145.9,36.6,145.9,36.6,145.7,36.6L145.7,36.6z M146.5,37l-0.6,2.4c-0.1,0.2-0.1,0.3-0.1,0.4c0,0.1,0.1,0.2,0.2,0.2
				c1.6,0.4,2.5-1.9,1.7-3c-0.2-0.2-0.4-0.3-0.8-0.3C146.7,36.6,146.6,36.7,146.5,37"/>
			<path d="M153,39.1c-0.2,1.2,0.7,1.1,1.2,0.5l0,0.1c-0.3,0.5-0.6,0.6-1,0.6c-0.2,0-0.4-0.1-0.5-0.2c-0.1-0.2-0.2-0.4-0.2-0.6
				c0-0.3,0.1-0.6,0.2-0.9c0.1-0.3,0.3-0.5,0.6-0.7c0.2-0.2,0.4-0.2,0.7-0.2c0.4,0,0.6,0.4,0.3,0.8C154,38.9,153.6,39,153,39.1
				 M153.1,38.9c0.2,0,0.4-0.1,0.6-0.2c0.2-0.1,0.5-0.4,0.5-0.7c0-0.5-0.4-0.2-0.6,0C153.3,38.3,153.1,38.5,153.1,38.9"/>
			<path d="M169.8,40.7c0.2,0,0.4,0.2,0.4,0.5c0,0.3-0.2,0.5-0.4,0.5c-0.3,0-0.5-0.2-0.5-0.5C169.4,40.9,169.6,40.7,169.8,40.7
				 M169.8,40.8c-0.2,0-0.4,0.2-0.4,0.4c0,0.2,0.2,0.4,0.4,0.4c0.2,0,0.4-0.2,0.4-0.4C170.2,40.9,170,40.8,169.8,40.8 M170,41.4
				l-0.1-0.3c0.1,0,0.1-0.1,0.1-0.1c0,0,0-0.1-0.1-0.1c0,0-0.1,0-0.1,0h-0.2v0.5h0.1v-0.2h0.1L170,41.4L170,41.4z M169.7,41.2h0.1
				c0,0,0.1,0,0.1,0c0,0,0,0,0-0.1c0,0,0-0.1,0-0.1c0,0-0.1,0-0.1,0h-0.1V41.2z"/>
		</g>
	</g>
</g>
<g>
	<g>
		<path d="M0,7.2h3.4l2.8,10.5l2.6-10h2.8l2.7,10L17,7.2h3.4L16,22.3h-3.1l-2.7-10.2L7.5,22.3H4.4L0,7.2z"/>
		<path d="M22.1,16c0.2,2.4,2.3,3.8,4.4,3.7c1.8,0,2.9-0.8,3.6-2h3.7c-0.7,1.7-1.8,2.9-3,3.8c-1.3,0.9-2.7,1.3-4.3,1.3
			c-4.6,0-8-3.8-8-8c0-4.3,3.3-8,7.9-8c2.2,0,4.2,0.9,5.6,2.3c1.8,1.9,2.5,4.3,2.2,6.9H22.1z M30.7,13.2c-0.1-1.4-1.6-3.4-4.3-3.4
			c-2.7,0-4.1,1.9-4.3,3.4H30.7z"/>
		<path d="M33.7,2h3.6v5.3v1.8c1.5-1.8,3.6-2.3,5-2.3c3.6,0,7.5,2.6,7.5,7.9c0,5.1-3.6,8.1-7.7,8.1c-2.4,0-4.2-1.2-5-2.6v2.2h-3.5V2
			z M46.2,14.7c0-2.5-1.9-4.6-4.5-4.6c-2.8,0-4.6,2.2-4.6,4.6c0,2.5,1.8,4.7,4.5,4.7C44.6,19.4,46.2,17.1,46.2,14.7L46.2,14.7z"/>
	</g>
	<g>
		<g id="XMLID_66_">
			<path id="XMLID_72_" class="st14" d="M4.4,22h3.4v2.2c1.1-1.5,2.8-2.7,5.3-2.7c5.3,0,7.5,4.5,7.5,8.1c0,4.3-3,7.9-7.5,7.9
				c-2.9,0-4.5-1.5-5.1-2.5v2v5.3H4.4V22z M17,29.5c0-2.2-1.6-4.6-4.6-4.6c-1.3,0-2.4,0.5-3.3,1.4c-0.8,0.8-1.3,2-1.3,3.3
				c0,1.3,0.5,2.4,1.3,3.3c0.8,0.8,2,1.3,3.3,1.3C15.2,34.2,17,32,17,29.5L17,29.5z"/>
			<path id="XMLID_69_" class="st14" d="M36.1,37.1h-3.6v-2.2c-1,1.8-3,2.6-5.1,2.6c-4.8,0-7.7-3.8-7.7-8c0-4.7,3.4-8,7.7-8
				c2.7,0,4.4,1.5,5.1,2.7V22h3.6V37.1z M23.4,29.6c0,1.9,1.3,4.6,4.6,4.6c2,0,3.3-1,4-2.4c0.4-0.7,0.5-1.4,0.6-2.1
				c0-0.7-0.1-1.5-0.4-2.1c-0.6-1.4-2-2.7-4.2-2.7C25.1,24.9,23.4,27.3,23.4,29.6L23.4,29.6z"/>
			<path id="XMLID_67_" class="st14" d="M40.5,36.5L34.8,22h3.8l3.7,10L46,22h3.8l-7.9,20.3H38L40.5,36.5z"/>
		</g>
	</g>
	<path id="XMLID_40_" class="st15" d="M61.2,12.2l-7.4,7.4c-1.4,1.4-2.5,2.5-2.5,2.5c0,0,0,1.6,0,3.6v8h11.5l9.9-9.9L61.2,12.2z"/>
	<g>
		<path class="st5" d="M52.8,22.9h0.9v0.9c0.4-0.6,1-1,1.9-1c1.7,0,2.5,1.4,2.5,2.6c0,1.4-1,2.6-2.5,2.6c-1,0-1.6-0.6-1.8-0.9v0.8
			v1.8h-0.9V22.9z M57,25.3c0-0.8-0.6-1.7-1.7-1.7c-0.5,0-0.9,0.2-1.2,0.5c-0.3,0.3-0.5,0.7-0.5,1.2c0,0.5,0.2,0.9,0.5,1.2
			c0.3,0.3,0.7,0.5,1.2,0.5C56.3,27.1,57,26.3,57,25.3L57,25.3z"/>
		<path class="st5" d="M58.2,21.2h0.9v6.6h-0.9V21.2z"/>
		<path class="st5" d="M64.2,27.8h-0.9V27c-0.2,0.5-0.8,0.9-1.6,0.9c-1.6,0-2-1.1-2-2.2v-2.9h0.9v2.6c0,0.9,0.3,1.5,1.3,1.5
			c0.9,0,1.3-0.6,1.3-1.4v-2.7h0.9V27.8z"/>
		<path class="st5" d="M66.9,24.2c0-0.4-0.2-0.7-0.7-0.7c-0.5,0-0.7,0.3-0.7,0.6c0,0.4,0.4,0.6,0.9,0.7c0.7,0.2,1.6,0.4,1.6,1.5
			c0,0.9-0.8,1.6-1.7,1.6c-0.8,0-1.7-0.4-1.8-1.5h0.9c0,0.6,0.5,0.8,0.9,0.8c0.4,0,0.8-0.3,0.8-0.7c0-0.5-0.4-0.6-1.2-0.9
			c-0.7-0.2-1.2-0.5-1.2-1.3c0-0.9,0.8-1.5,1.6-1.5c0.7,0,1.5,0.3,1.6,1.4H66.9z"/>
	</g>
</g>
</svg>
